%TF.GenerationSoftware,KiCad,Pcbnew,7.0.11-7.0.11~ubuntu22.04.1*%
%TF.CreationDate,2025-02-08T19:00:34-05:00*%
%TF.ProjectId,C64UltimatePSU,43363455-6c74-4696-9d61-74655053552e,rev?*%
%TF.SameCoordinates,Original*%
%TF.FileFunction,Paste,Top*%
%TF.FilePolarity,Positive*%
%FSLAX46Y46*%
G04 Gerber Fmt 4.6, Leading zero omitted, Abs format (unit mm)*
G04 Created by KiCad (PCBNEW 7.0.11-7.0.11~ubuntu22.04.1) date 2025-02-08 19:00:34*
%MOMM*%
%LPD*%
G01*
G04 APERTURE LIST*
G04 Aperture macros list*
%AMRoundRect*
0 Rectangle with rounded corners*
0 $1 Rounding radius*
0 $2 $3 $4 $5 $6 $7 $8 $9 X,Y pos of 4 corners*
0 Add a 4 corners polygon primitive as box body*
4,1,4,$2,$3,$4,$5,$6,$7,$8,$9,$2,$3,0*
0 Add four circle primitives for the rounded corners*
1,1,$1+$1,$2,$3*
1,1,$1+$1,$4,$5*
1,1,$1+$1,$6,$7*
1,1,$1+$1,$8,$9*
0 Add four rect primitives between the rounded corners*
20,1,$1+$1,$2,$3,$4,$5,0*
20,1,$1+$1,$4,$5,$6,$7,0*
20,1,$1+$1,$6,$7,$8,$9,0*
20,1,$1+$1,$8,$9,$2,$3,0*%
G04 Aperture macros list end*
%ADD10RoundRect,0.250000X-0.450000X0.350000X-0.450000X-0.350000X0.450000X-0.350000X0.450000X0.350000X0*%
%ADD11R,1.000000X0.400000*%
%ADD12RoundRect,0.250000X-0.337500X-0.475000X0.337500X-0.475000X0.337500X0.475000X-0.337500X0.475000X0*%
%ADD13RoundRect,0.250000X0.450000X-0.350000X0.450000X0.350000X-0.450000X0.350000X-0.450000X-0.350000X0*%
%ADD14RoundRect,0.250000X-0.475000X0.337500X-0.475000X-0.337500X0.475000X-0.337500X0.475000X0.337500X0*%
%ADD15RoundRect,0.137500X0.137500X-0.662500X0.137500X0.662500X-0.137500X0.662500X-0.137500X-0.662500X0*%
G04 APERTURE END LIST*
D10*
%TO.C,R17*%
X170307000Y-61661800D03*
X170307000Y-63661800D03*
%TD*%
%TO.C,R1*%
X159359600Y-56089800D03*
X159359600Y-58089800D03*
%TD*%
%TO.C,R5*%
X164439600Y-56115200D03*
X164439600Y-58115200D03*
%TD*%
D11*
%TO.C,IC1*%
X164100600Y-75322600D03*
X164100600Y-75972600D03*
X164100600Y-76622600D03*
X164100600Y-77272600D03*
X164100600Y-77922600D03*
X164100600Y-78572600D03*
X164100600Y-79222600D03*
X164100600Y-79872600D03*
X164100600Y-80522600D03*
X164100600Y-81172600D03*
X169900600Y-81172600D03*
X169900600Y-80522600D03*
X169900600Y-79872600D03*
X169900600Y-79222600D03*
X169900600Y-78572600D03*
X169900600Y-77922600D03*
X169900600Y-77272600D03*
X169900600Y-76622600D03*
X169900600Y-75972600D03*
X169900600Y-75322600D03*
%TD*%
D10*
%TO.C,R2*%
X161899600Y-56115200D03*
X161899600Y-58115200D03*
%TD*%
D12*
%TO.C,C1*%
X166200000Y-39497000D03*
X168275000Y-39497000D03*
%TD*%
D10*
%TO.C,R20*%
X160578800Y-80543400D03*
X160578800Y-82543400D03*
%TD*%
D13*
%TO.C,R19*%
X161899600Y-71138800D03*
X161899600Y-69138800D03*
%TD*%
D14*
%TO.C,C12*%
X160553400Y-76534100D03*
X160553400Y-78609100D03*
%TD*%
%TO.C,C7*%
X168859200Y-48158400D03*
X168859200Y-50233400D03*
%TD*%
D13*
%TO.C,R6*%
X178739800Y-83000600D03*
X178739800Y-81000600D03*
%TD*%
D15*
%TO.C,IC5*%
X159359600Y-67105600D03*
X160629600Y-67105600D03*
X161899600Y-67105600D03*
X163169600Y-67105600D03*
X164439600Y-67105600D03*
X165709600Y-67105600D03*
X166979600Y-67105600D03*
X168249600Y-67105600D03*
X168249600Y-60605600D03*
X166979600Y-60605600D03*
X165709600Y-60605600D03*
X164439600Y-60605600D03*
X163169600Y-60605600D03*
X161899600Y-60605600D03*
X160629600Y-60605600D03*
X159359600Y-60605600D03*
%TD*%
D13*
%TO.C,R15*%
X181279800Y-82991200D03*
X181279800Y-80991200D03*
%TD*%
%TO.C,R21*%
X164439600Y-71189600D03*
X164439600Y-69189600D03*
%TD*%
%TO.C,R18*%
X159232600Y-71113400D03*
X159232600Y-69113400D03*
%TD*%
M02*
