%TF.GenerationSoftware,KiCad,Pcbnew,7.0.11-7.0.11~ubuntu22.04.1*%
%TF.CreationDate,2025-02-08T19:00:34-05:00*%
%TF.ProjectId,C64UltimatePSU,43363455-6c74-4696-9d61-74655053552e,rev?*%
%TF.SameCoordinates,Original*%
%TF.FileFunction,Soldermask,Top*%
%TF.FilePolarity,Negative*%
%FSLAX46Y46*%
G04 Gerber Fmt 4.6, Leading zero omitted, Abs format (unit mm)*
G04 Created by KiCad (PCBNEW 7.0.11-7.0.11~ubuntu22.04.1) date 2025-02-08 19:00:34*
%MOMM*%
%LPD*%
G01*
G04 APERTURE LIST*
G04 Aperture macros list*
%AMRoundRect*
0 Rectangle with rounded corners*
0 $1 Rounding radius*
0 $2 $3 $4 $5 $6 $7 $8 $9 X,Y pos of 4 corners*
0 Add a 4 corners polygon primitive as box body*
4,1,4,$2,$3,$4,$5,$6,$7,$8,$9,$2,$3,0*
0 Add four circle primitives for the rounded corners*
1,1,$1+$1,$2,$3*
1,1,$1+$1,$4,$5*
1,1,$1+$1,$6,$7*
1,1,$1+$1,$8,$9*
0 Add four rect primitives between the rounded corners*
20,1,$1+$1,$2,$3,$4,$5,0*
20,1,$1+$1,$4,$5,$6,$7,0*
20,1,$1+$1,$6,$7,$8,$9,0*
20,1,$1+$1,$8,$9,$2,$3,0*%
G04 Aperture macros list end*
%ADD10RoundRect,0.250000X-0.450000X0.350000X-0.450000X-0.350000X0.450000X-0.350000X0.450000X0.350000X0*%
%ADD11R,3.000000X3.000000*%
%ADD12C,3.000000*%
%ADD13R,1.600000X1.600000*%
%ADD14C,1.600000*%
%ADD15R,1.700000X1.700000*%
%ADD16O,1.700000X1.700000*%
%ADD17R,1.000000X0.400000*%
%ADD18C,5.000000*%
%ADD19RoundRect,0.250000X-0.337500X-0.475000X0.337500X-0.475000X0.337500X0.475000X-0.337500X0.475000X0*%
%ADD20C,3.500000*%
%ADD21RoundRect,0.250000X0.450000X-0.350000X0.450000X0.350000X-0.450000X0.350000X-0.450000X-0.350000X0*%
%ADD22RoundRect,0.250000X-0.475000X0.337500X-0.475000X-0.337500X0.475000X-0.337500X0.475000X0.337500X0*%
%ADD23R,1.000000X1.500000*%
%ADD24R,1.050000X1.500000*%
%ADD25O,1.050000X1.500000*%
%ADD26RoundRect,0.137500X0.137500X-0.662500X0.137500X0.662500X-0.137500X0.662500X-0.137500X-0.662500X0*%
G04 APERTURE END LIST*
D10*
%TO.C,R17*%
X170307000Y-61661800D03*
X170307000Y-63661800D03*
%TD*%
D11*
%TO.C,PS1*%
X106816200Y-38485500D03*
D12*
X106816200Y-59285500D03*
X151816200Y-59285500D03*
X151816200Y-51285500D03*
%TD*%
D13*
%TO.C,C4*%
X160705800Y-50368200D03*
D14*
X160705800Y-47868200D03*
%TD*%
D15*
%TO.C,J4*%
X186359800Y-78333600D03*
D16*
X183819800Y-78333600D03*
X181279800Y-78333600D03*
X178739800Y-78333600D03*
%TD*%
D10*
%TO.C,R1*%
X159359600Y-56089800D03*
X159359600Y-58089800D03*
%TD*%
%TO.C,R5*%
X164439600Y-56115200D03*
X164439600Y-58115200D03*
%TD*%
D17*
%TO.C,IC1*%
X164100600Y-75322600D03*
X164100600Y-75972600D03*
X164100600Y-76622600D03*
X164100600Y-77272600D03*
X164100600Y-77922600D03*
X164100600Y-78572600D03*
X164100600Y-79222600D03*
X164100600Y-79872600D03*
X164100600Y-80522600D03*
X164100600Y-81172600D03*
X169900600Y-81172600D03*
X169900600Y-80522600D03*
X169900600Y-79872600D03*
X169900600Y-79222600D03*
X169900600Y-78572600D03*
X169900600Y-77922600D03*
X169900600Y-77272600D03*
X169900600Y-76622600D03*
X169900600Y-75972600D03*
X169900600Y-75322600D03*
%TD*%
D10*
%TO.C,R2*%
X161899600Y-56115200D03*
X161899600Y-58115200D03*
%TD*%
D18*
%TO.C,H6*%
X97000000Y-67500000D03*
%TD*%
D19*
%TO.C,C1*%
X166200000Y-39497000D03*
X168275000Y-39497000D03*
%TD*%
D11*
%TO.C,PS2*%
X106892400Y-66857300D03*
D12*
X106892400Y-87657300D03*
X151892400Y-87657300D03*
X151892400Y-79657300D03*
%TD*%
D20*
%TO.C,H2*%
X97028000Y-87376000D03*
%TD*%
D12*
%TO.C,J2*%
X181483000Y-46221000D03*
X191483000Y-48721000D03*
X191483000Y-58721000D03*
X181483000Y-53721000D03*
X181483000Y-61221000D03*
X178983000Y-48721000D03*
X178983000Y-58721000D03*
X176483000Y-46221000D03*
X176483000Y-61221000D03*
%TD*%
D18*
%TO.C,H4*%
X97000000Y-60500000D03*
%TD*%
D10*
%TO.C,R20*%
X160578800Y-80543400D03*
X160578800Y-82543400D03*
%TD*%
D18*
%TO.C,H3*%
X97000000Y-46500000D03*
%TD*%
D21*
%TO.C,R19*%
X161899600Y-71138800D03*
X161899600Y-69138800D03*
%TD*%
D22*
%TO.C,C12*%
X160553400Y-76534100D03*
X160553400Y-78609100D03*
%TD*%
D23*
%TO.C,JP1*%
X159883800Y-53949600D03*
X161183800Y-53949600D03*
X162483800Y-53949600D03*
%TD*%
D22*
%TO.C,C7*%
X168859200Y-48158400D03*
X168859200Y-50233400D03*
%TD*%
D24*
%TO.C,IC6*%
X159410400Y-42291000D03*
D25*
X160680400Y-42291000D03*
X161950400Y-42291000D03*
%TD*%
D20*
%TO.C,H1*%
X175500000Y-39000000D03*
%TD*%
D15*
%TO.C,J5*%
X161772600Y-88544400D03*
D16*
X164312600Y-88544400D03*
X166852600Y-88544400D03*
X169392600Y-88544400D03*
X171932600Y-88544400D03*
%TD*%
D21*
%TO.C,R6*%
X178739800Y-83000600D03*
X178739800Y-81000600D03*
%TD*%
D13*
%TO.C,C16*%
X181316621Y-68351400D03*
D14*
X183816621Y-68351400D03*
%TD*%
%TO.C,RV1*%
X95500000Y-79600000D03*
X100500000Y-81400000D03*
%TD*%
D26*
%TO.C,IC5*%
X159359600Y-67105600D03*
X160629600Y-67105600D03*
X161899600Y-67105600D03*
X163169600Y-67105600D03*
X164439600Y-67105600D03*
X165709600Y-67105600D03*
X166979600Y-67105600D03*
X168249600Y-67105600D03*
X168249600Y-60605600D03*
X166979600Y-60605600D03*
X165709600Y-60605600D03*
X164439600Y-60605600D03*
X163169600Y-60605600D03*
X161899600Y-60605600D03*
X160629600Y-60605600D03*
X159359600Y-60605600D03*
%TD*%
D21*
%TO.C,R15*%
X181279800Y-82991200D03*
X181279800Y-80991200D03*
%TD*%
D18*
%TO.C,H5*%
X97000000Y-53500000D03*
%TD*%
D21*
%TO.C,R21*%
X164439600Y-71189600D03*
X164439600Y-69189600D03*
%TD*%
%TO.C,R18*%
X159232600Y-71113400D03*
X159232600Y-69113400D03*
%TD*%
D18*
%TO.C,H7*%
X97000000Y-74500000D03*
%TD*%
M02*
