%TF.GenerationSoftware,KiCad,Pcbnew,7.0.11-7.0.11~ubuntu22.04.1*%
%TF.CreationDate,2025-02-08T19:00:34-05:00*%
%TF.ProjectId,C64UltimatePSU,43363455-6c74-4696-9d61-74655053552e,rev?*%
%TF.SameCoordinates,Original*%
%TF.FileFunction,Copper,L2,Bot*%
%TF.FilePolarity,Positive*%
%FSLAX46Y46*%
G04 Gerber Fmt 4.6, Leading zero omitted, Abs format (unit mm)*
G04 Created by KiCad (PCBNEW 7.0.11-7.0.11~ubuntu22.04.1) date 2025-02-08 19:00:34*
%MOMM*%
%LPD*%
G01*
G04 APERTURE LIST*
G04 Aperture macros list*
%AMRoundRect*
0 Rectangle with rounded corners*
0 $1 Rounding radius*
0 $2 $3 $4 $5 $6 $7 $8 $9 X,Y pos of 4 corners*
0 Add a 4 corners polygon primitive as box body*
4,1,4,$2,$3,$4,$5,$6,$7,$8,$9,$2,$3,0*
0 Add four circle primitives for the rounded corners*
1,1,$1+$1,$2,$3*
1,1,$1+$1,$4,$5*
1,1,$1+$1,$6,$7*
1,1,$1+$1,$8,$9*
0 Add four rect primitives between the rounded corners*
20,1,$1+$1,$2,$3,$4,$5,0*
20,1,$1+$1,$4,$5,$6,$7,0*
20,1,$1+$1,$6,$7,$8,$9,0*
20,1,$1+$1,$8,$9,$2,$3,0*%
G04 Aperture macros list end*
%TA.AperFunction,ComponentPad*%
%ADD10R,3.000000X3.000000*%
%TD*%
%TA.AperFunction,ComponentPad*%
%ADD11C,3.000000*%
%TD*%
%TA.AperFunction,ComponentPad*%
%ADD12R,1.600000X1.600000*%
%TD*%
%TA.AperFunction,ComponentPad*%
%ADD13C,1.600000*%
%TD*%
%TA.AperFunction,ComponentPad*%
%ADD14R,1.700000X1.700000*%
%TD*%
%TA.AperFunction,ComponentPad*%
%ADD15O,1.700000X1.700000*%
%TD*%
%TA.AperFunction,ComponentPad*%
%ADD16C,5.000000*%
%TD*%
%TA.AperFunction,ComponentPad*%
%ADD17R,1.050000X1.500000*%
%TD*%
%TA.AperFunction,ComponentPad*%
%ADD18O,1.050000X1.500000*%
%TD*%
%TA.AperFunction,SMDPad,CuDef*%
%ADD19RoundRect,0.250000X-0.350000X-0.450000X0.350000X-0.450000X0.350000X0.450000X-0.350000X0.450000X0*%
%TD*%
%TA.AperFunction,SMDPad,CuDef*%
%ADD20RoundRect,0.250000X-0.337500X-0.475000X0.337500X-0.475000X0.337500X0.475000X-0.337500X0.475000X0*%
%TD*%
%TA.AperFunction,SMDPad,CuDef*%
%ADD21RoundRect,0.250000X0.475000X-0.337500X0.475000X0.337500X-0.475000X0.337500X-0.475000X-0.337500X0*%
%TD*%
%TA.AperFunction,SMDPad,CuDef*%
%ADD22RoundRect,0.250000X-0.450000X0.350000X-0.450000X-0.350000X0.450000X-0.350000X0.450000X0.350000X0*%
%TD*%
%TA.AperFunction,SMDPad,CuDef*%
%ADD23RoundRect,0.250000X-0.475000X0.337500X-0.475000X-0.337500X0.475000X-0.337500X0.475000X0.337500X0*%
%TD*%
%TA.AperFunction,SMDPad,CuDef*%
%ADD24RoundRect,0.162500X0.617500X0.162500X-0.617500X0.162500X-0.617500X-0.162500X0.617500X-0.162500X0*%
%TD*%
%TA.AperFunction,SMDPad,CuDef*%
%ADD25RoundRect,0.250000X-0.400000X-0.625000X0.400000X-0.625000X0.400000X0.625000X-0.400000X0.625000X0*%
%TD*%
%TA.AperFunction,SMDPad,CuDef*%
%ADD26RoundRect,0.051250X-0.153750X0.733750X-0.153750X-0.733750X0.153750X-0.733750X0.153750X0.733750X0*%
%TD*%
%TA.AperFunction,SMDPad,CuDef*%
%ADD27R,3.400000X2.480000*%
%TD*%
%TA.AperFunction,SMDPad,CuDef*%
%ADD28RoundRect,0.250000X0.337500X0.475000X-0.337500X0.475000X-0.337500X-0.475000X0.337500X-0.475000X0*%
%TD*%
%TA.AperFunction,SMDPad,CuDef*%
%ADD29RoundRect,0.250000X0.450000X-0.350000X0.450000X0.350000X-0.450000X0.350000X-0.450000X-0.350000X0*%
%TD*%
%TA.AperFunction,SMDPad,CuDef*%
%ADD30RoundRect,0.250000X0.350000X0.450000X-0.350000X0.450000X-0.350000X-0.450000X0.350000X-0.450000X0*%
%TD*%
%TA.AperFunction,SMDPad,CuDef*%
%ADD31C,1.000000*%
%TD*%
%TA.AperFunction,ViaPad*%
%ADD32C,0.800000*%
%TD*%
%TA.AperFunction,Conductor*%
%ADD33C,0.254000*%
%TD*%
%TA.AperFunction,Conductor*%
%ADD34C,0.400000*%
%TD*%
%TA.AperFunction,Conductor*%
%ADD35C,0.508000*%
%TD*%
%TA.AperFunction,Conductor*%
%ADD36C,0.625000*%
%TD*%
%TA.AperFunction,Conductor*%
%ADD37C,1.270000*%
%TD*%
%TA.AperFunction,Conductor*%
%ADD38C,0.250000*%
%TD*%
%TA.AperFunction,Conductor*%
%ADD39C,1.000000*%
%TD*%
G04 APERTURE END LIST*
D10*
%TO.P,PS1,1,AC/L*%
%TO.N,AC_LINE*%
X106816200Y-38485500D03*
D11*
%TO.P,PS1,2,AC/N*%
%TO.N,AC_NEUTRAL*%
X106816200Y-59285500D03*
%TO.P,PS1,3,-Vo*%
%TO.N,GND2*%
X151816200Y-59285500D03*
%TO.P,PS1,4,+Vo*%
%TO.N,+12V*%
X151816200Y-51285500D03*
%TD*%
D12*
%TO.P,C4,1*%
%TO.N,+12V*%
X160705800Y-50368200D03*
D13*
%TO.P,C4,2*%
%TO.N,GND2*%
X160705800Y-47868200D03*
%TD*%
D14*
%TO.P,J4,1,Pin_1*%
%TO.N,GND*%
X186359800Y-78333600D03*
D15*
%TO.P,J4,2,Pin_2*%
%TO.N,+5V*%
X183819800Y-78333600D03*
%TO.P,J4,3,Pin_3*%
%TO.N,/5V/DISP_SCL*%
X181279800Y-78333600D03*
%TO.P,J4,4,Pin_4*%
%TO.N,/5V/DISP_SDA*%
X178739800Y-78333600D03*
%TD*%
D16*
%TO.P,H6,1,1*%
%TO.N,Net-(H3-Pad1)*%
X97000000Y-67500000D03*
%TD*%
D10*
%TO.P,PS2,1,AC/L*%
%TO.N,AC_LINE*%
X106892400Y-66857300D03*
D11*
%TO.P,PS2,2,AC/N*%
%TO.N,AC_NEUTRAL*%
X106892400Y-87657300D03*
%TO.P,PS2,3,-Vo*%
%TO.N,GND*%
X151892400Y-87657300D03*
%TO.P,PS2,4,+Vo*%
%TO.N,+5V*%
X151892400Y-79657300D03*
%TD*%
%TO.P,J2,1*%
%TO.N,GND*%
X181483000Y-46221000D03*
X191483000Y-48721000D03*
X191483000Y-58721000D03*
%TO.P,J2,2*%
X181483000Y-53721000D03*
%TO.P,J2,3*%
X181483000Y-61221000D03*
%TO.P,J2,4*%
%TO.N,5V_OUT*%
X178983000Y-48721000D03*
%TO.P,J2,5*%
X178983000Y-58721000D03*
%TO.P,J2,6*%
%TO.N,AC_OUT2*%
X176483000Y-46221000D03*
%TO.P,J2,7*%
%TO.N,AC_OUT1*%
X176483000Y-61221000D03*
%TD*%
D16*
%TO.P,H4,1,1*%
%TO.N,AC_NEUTRAL*%
X97000000Y-60500000D03*
%TD*%
%TO.P,H3,1,1*%
%TO.N,Net-(H3-Pad1)*%
X97000000Y-46500000D03*
%TD*%
D17*
%TO.P,IC6,1,VO*%
%TO.N,+5VA*%
X159410400Y-42291000D03*
D18*
%TO.P,IC6,2,GND*%
%TO.N,GND2*%
X160680400Y-42291000D03*
%TO.P,IC6,3,VI*%
%TO.N,+12V*%
X161950400Y-42291000D03*
%TD*%
D14*
%TO.P,J5,1,Pin_1*%
%TO.N,+5V*%
X161772600Y-88544400D03*
D15*
%TO.P,J5,2,Pin_2*%
%TO.N,GND*%
X164312600Y-88544400D03*
%TO.P,J5,3,Pin_3*%
%TO.N,/5V/SWDIO*%
X166852600Y-88544400D03*
%TO.P,J5,4,Pin_4*%
%TO.N,/5V/SWCLK*%
X169392600Y-88544400D03*
%TO.P,J5,5,Pin_5*%
%TO.N,/5V/RESET*%
X171932600Y-88544400D03*
%TD*%
D12*
%TO.P,C16,1*%
%TO.N,5V_OUT*%
X181316621Y-68351400D03*
D13*
%TO.P,C16,2*%
%TO.N,GND*%
X183816621Y-68351400D03*
%TD*%
%TO.P,RV1,1*%
%TO.N,AC_NEUTRAL*%
X95500000Y-79600000D03*
%TO.P,RV1,2*%
%TO.N,AC_LINE*%
X100500000Y-81400000D03*
%TD*%
D16*
%TO.P,H5,1,1*%
%TO.N,Earth*%
X97000000Y-53500000D03*
%TD*%
%TO.P,H7,1,1*%
%TO.N,AC_LINE*%
X97000000Y-74500000D03*
%TD*%
D19*
%TO.P,R14,1*%
%TO.N,Net-(IC4-IPROPI)*%
X168265600Y-39547800D03*
%TO.P,R14,2*%
%TO.N,GND2*%
X170265600Y-39547800D03*
%TD*%
D20*
%TO.P,C9,1*%
%TO.N,GND*%
X162941000Y-75234800D03*
%TO.P,C9,2*%
%TO.N,Net-(IC1-VCL)*%
X165016000Y-75234800D03*
%TD*%
D21*
%TO.P,C17,1*%
%TO.N,Net-(IC4-VCP)*%
X169519600Y-55110200D03*
%TO.P,C17,2*%
%TO.N,+12V*%
X169519600Y-53035200D03*
%TD*%
D22*
%TO.P,R4,1*%
%TO.N,/5V/V5ADC*%
X148031200Y-85817200D03*
%TO.P,R4,2*%
%TO.N,GND*%
X148031200Y-87817200D03*
%TD*%
D20*
%TO.P,C15,1*%
%TO.N,GND*%
X173993900Y-65176400D03*
%TO.P,C15,2*%
%TO.N,Net-(IC2-DV{slash}DT)*%
X176068900Y-65176400D03*
%TD*%
D23*
%TO.P,C13,1*%
%TO.N,Net-(IC4-CPL)*%
X165252400Y-53086000D03*
%TO.P,C13,2*%
%TO.N,Net-(IC4-CPH)*%
X165252400Y-55161000D03*
%TD*%
D22*
%TO.P,R3,1*%
%TO.N,+5V*%
X148031200Y-81067400D03*
%TO.P,R3,2*%
%TO.N,/5V/V5ADC*%
X148031200Y-83067400D03*
%TD*%
D24*
%TO.P,IC2,1,EN*%
%TO.N,/5V/5V_EN*%
X178772800Y-67035600D03*
%TO.P,IC2,2,SOURCE*%
%TO.N,5V_OUT*%
X178772800Y-67985600D03*
%TO.P,IC2,3,GND*%
%TO.N,GND*%
X178772800Y-68935600D03*
%TO.P,IC2,4,ILIMIT*%
%TO.N,unconnected-(IC2-ILIMIT-Pad4)*%
X176072800Y-68935600D03*
%TO.P,IC2,5,VIN*%
%TO.N,Net-(IC2-VIN)*%
X176072800Y-67985600D03*
%TO.P,IC2,6,DV/DT*%
%TO.N,Net-(IC2-DV{slash}DT)*%
X176072800Y-67035600D03*
%TD*%
D25*
%TO.P,R9,1*%
%TO.N,+5V*%
X144780000Y-70483600D03*
%TO.P,R9,2*%
%TO.N,Net-(IC2-VIN)*%
X147880000Y-70483600D03*
%TD*%
D26*
%TO.P,IC4,1,EN/IN1*%
%TO.N,Net-(IC4-EN{slash}IN1)*%
X165161800Y-44475600D03*
%TO.P,IC4,2,PH/IN2*%
%TO.N,Net-(IC4-PH{slash}IN2)*%
X165811800Y-44475600D03*
%TO.P,IC4,3,NSLEEP*%
%TO.N,Net-(IC4-NSLEEP)*%
X166461800Y-44475600D03*
%TO.P,IC4,4,NFAULT*%
%TO.N,Net-(IC4-NFAULT)*%
X167111800Y-44475600D03*
%TO.P,IC4,5,VREF*%
%TO.N,Net-(IC4-VREF)*%
X167761800Y-44475600D03*
%TO.P,IC4,6,IPROPI*%
%TO.N,Net-(IC4-IPROPI)*%
X168411800Y-44475600D03*
%TO.P,IC4,7,IMODE*%
%TO.N,Net-(IC4-IMODE)*%
X169061800Y-44475600D03*
%TO.P,IC4,8,OUT1*%
%TO.N,AC_OUT2*%
X169711800Y-44475600D03*
%TO.P,IC4,9,PGND*%
%TO.N,GND2*%
X169711800Y-50215600D03*
%TO.P,IC4,10,OUT2*%
%TO.N,AC_OUT1*%
X169061800Y-50215600D03*
%TO.P,IC4,11,VM*%
%TO.N,+12V*%
X168411800Y-50215600D03*
%TO.P,IC4,12,VCP*%
%TO.N,Net-(IC4-VCP)*%
X167761800Y-50215600D03*
%TO.P,IC4,13,CPH*%
%TO.N,Net-(IC4-CPH)*%
X167111800Y-50215600D03*
%TO.P,IC4,14,CPL*%
%TO.N,Net-(IC4-CPL)*%
X166461800Y-50215600D03*
%TO.P,IC4,15,GND*%
%TO.N,GND2*%
X165811800Y-50215600D03*
%TO.P,IC4,16,PMODE*%
%TO.N,Net-(IC4-PMODE)*%
X165161800Y-50215600D03*
D27*
%TO.P,IC4,17,THERMAL*%
%TO.N,GND2*%
X167436800Y-47345600D03*
%TD*%
D28*
%TO.P,C3,1*%
%TO.N,GND*%
X181098100Y-43307000D03*
%TO.P,C3,2*%
%TO.N,5V_OUT*%
X179023100Y-43307000D03*
%TD*%
D25*
%TO.P,R8,1*%
%TO.N,+5V*%
X144780000Y-73773600D03*
%TO.P,R8,2*%
%TO.N,Net-(IC2-VIN)*%
X147880000Y-73773600D03*
%TD*%
D24*
%TO.P,IC3,1,GND*%
%TO.N,GND*%
X152861000Y-72710000D03*
%TO.P,IC3,2,OUT*%
%TO.N,/5V/5VIADC*%
X152861000Y-73660000D03*
%TO.P,IC3,3,VCC*%
%TO.N,+5V*%
X152861000Y-74610000D03*
%TO.P,IC3,4,RS+*%
X150161000Y-74610000D03*
%TO.P,IC3,5,RS-*%
%TO.N,Net-(IC2-VIN)*%
X150161000Y-72710000D03*
%TD*%
D19*
%TO.P,R13,1*%
%TO.N,Net-(IC4-IMODE)*%
X169678600Y-42087800D03*
%TO.P,R13,2*%
%TO.N,GND2*%
X171678600Y-42087800D03*
%TD*%
D29*
%TO.P,R12,1*%
%TO.N,Net-(IC4-VREF)*%
X165862000Y-40751000D03*
%TO.P,R12,2*%
%TO.N,GND2*%
X165862000Y-38751000D03*
%TD*%
D23*
%TO.P,C14,1*%
%TO.N,GND*%
X155194000Y-71581100D03*
%TO.P,C14,2*%
%TO.N,/5V/5VIADC*%
X155194000Y-73656100D03*
%TD*%
D25*
%TO.P,R7,1*%
%TO.N,+5V*%
X144780000Y-77063600D03*
%TO.P,R7,2*%
%TO.N,Net-(IC2-VIN)*%
X147880000Y-77063600D03*
%TD*%
%TO.P,R10,1*%
%TO.N,+5V*%
X144780000Y-67193600D03*
%TO.P,R10,2*%
%TO.N,Net-(IC2-VIN)*%
X147880000Y-67193600D03*
%TD*%
D22*
%TO.P,R11,1*%
%TO.N,+5VA*%
X163855400Y-38751000D03*
%TO.P,R11,2*%
%TO.N,Net-(IC4-VREF)*%
X163855400Y-40751000D03*
%TD*%
D30*
%TO.P,R16,1*%
%TO.N,+5V*%
X175371000Y-77393800D03*
%TO.P,R16,2*%
%TO.N,NFAULT*%
X173371000Y-77393800D03*
%TD*%
D28*
%TO.P,C5,1*%
%TO.N,GND*%
X156895800Y-77419200D03*
%TO.P,C5,2*%
%TO.N,/5V/V5ADC*%
X154820800Y-77419200D03*
%TD*%
D31*
%TO.P,V5ADC1,1,1*%
%TO.N,/5V/V5ADC*%
X148056600Y-84429600D03*
%TD*%
%TO.P,5VIADC1,1,1*%
%TO.N,/5V/5VIADC*%
X156743400Y-73634600D03*
%TD*%
D32*
%TO.N,/5V/5VIADC*%
X168402000Y-71196200D03*
%TO.N,GND2*%
X158775400Y-35814000D03*
X170053000Y-46482000D03*
X164769800Y-47371000D03*
X172618400Y-47904400D03*
X148615400Y-35788600D03*
X172593000Y-61671200D03*
X170078400Y-47345600D03*
X170713400Y-50165000D03*
X170865800Y-54076600D03*
X163804600Y-52959000D03*
X170078400Y-48158400D03*
X172694600Y-43484800D03*
X172567600Y-54076600D03*
X163195000Y-61874400D03*
X148234400Y-48133000D03*
X168325800Y-35788600D03*
X157581600Y-52527200D03*
X167614600Y-57683400D03*
X164769800Y-48183800D03*
X164769800Y-46558200D03*
%TO.N,GND*%
X177317400Y-88519000D03*
X161442400Y-85394800D03*
X146254400Y-68820600D03*
X192963800Y-80645000D03*
X177342800Y-65151000D03*
X158267400Y-77393800D03*
X164084000Y-82499200D03*
X142849600Y-79248000D03*
X172008800Y-79171800D03*
X153593800Y-82296000D03*
X146229000Y-75475400D03*
X178790600Y-70180200D03*
X171602400Y-75793600D03*
X172516800Y-65151000D03*
X163169600Y-64516000D03*
X181432200Y-90779600D03*
X160553400Y-75082400D03*
X168376600Y-69748400D03*
X150596600Y-76682600D03*
X162915600Y-76631800D03*
X165557200Y-76631800D03*
X193014600Y-71348600D03*
X172008800Y-82600800D03*
X152831800Y-71374000D03*
X180086000Y-88544400D03*
X192862200Y-90043000D03*
X142722600Y-64566800D03*
X153492200Y-64516000D03*
X142849600Y-90652600D03*
X161417000Y-90754200D03*
%TO.N,/5V/V5ADC*%
X154863800Y-75742800D03*
%TO.N,+12V*%
X168642530Y-52233681D03*
%TO.N,/5V/DISP_SCL*%
X164160200Y-85369400D03*
%TO.N,/5V/DISP_SDA*%
X167995600Y-83921600D03*
%TO.N,Net-(IC1-VCL)*%
X165989000Y-75234800D03*
%TO.N,/5V/5V_EN*%
X178790600Y-66370200D03*
%TO.N,NFAULT*%
X172186600Y-77470000D03*
%TO.N,Net-(IC4-EN{slash}IN1)*%
X159359600Y-59156600D03*
%TO.N,Net-(IC4-PH{slash}IN2)*%
X161010600Y-58089800D03*
%TO.N,Net-(IC4-NSLEEP)*%
X164439600Y-59156600D03*
%TO.N,Net-(IC4-NFAULT)*%
X168249600Y-64922400D03*
X171170600Y-45669200D03*
X171704000Y-59842400D03*
%TO.N,Net-(IC4-IPROPI)*%
X168376600Y-38328600D03*
%TO.N,Net-(IC4-PMODE)*%
X165328600Y-51892200D03*
%TO.N,+5VA*%
X158877000Y-54254400D03*
%TD*%
D33*
%TO.N,/5V/5VIADC*%
X158445200Y-71196200D02*
X156743400Y-72898000D01*
X156721900Y-73656100D02*
X156743400Y-73634600D01*
X152864900Y-73656100D02*
X152861000Y-73660000D01*
X156743400Y-72898000D02*
X156743400Y-73634600D01*
X168402000Y-71196200D02*
X158445200Y-71196200D01*
X155194000Y-73656100D02*
X156721900Y-73656100D01*
X155194000Y-73656100D02*
X152864900Y-73656100D01*
D34*
%TO.N,GND2*%
X165811800Y-48870200D02*
X165125400Y-48183800D01*
X165811800Y-50215600D02*
X165811800Y-48870200D01*
X165125400Y-48183800D02*
X164769800Y-48183800D01*
D33*
%TO.N,GND*%
X181098100Y-43307000D02*
X182016400Y-43307000D01*
X182575200Y-43865800D02*
X182702200Y-43865800D01*
X181483000Y-43691900D02*
X181098100Y-43307000D01*
X181483000Y-46221000D02*
X181483000Y-43691900D01*
X182016400Y-43307000D02*
X182575200Y-43865800D01*
%TO.N,/5V/V5ADC*%
X154813000Y-75793600D02*
X154863800Y-75742800D01*
X148031200Y-85817200D02*
X148031200Y-84455000D01*
X148031200Y-84455000D02*
X148056600Y-84429600D01*
X154820800Y-77419200D02*
X154820800Y-75785800D01*
X153543000Y-84429600D02*
X154820800Y-83151800D01*
X154820800Y-75785800D02*
X154863800Y-75742800D01*
X148056600Y-84429600D02*
X148031200Y-84404200D01*
X148056600Y-84429600D02*
X153543000Y-84429600D01*
X148031200Y-84404200D02*
X148031200Y-83067400D01*
X154820800Y-83151800D02*
X154820800Y-77419200D01*
D35*
%TO.N,5V_OUT*%
X180950821Y-67985600D02*
X181316621Y-68351400D01*
D36*
X178772800Y-67985600D02*
X180950821Y-67985600D01*
D37*
X178983000Y-58721000D02*
X178983000Y-48721000D01*
D33*
X178983000Y-48721000D02*
X178983000Y-43347100D01*
X178983000Y-43347100D02*
X179023100Y-43307000D01*
D37*
%TO.N,AC_NEUTRAL*%
X95500000Y-79600000D02*
X95902800Y-79197200D01*
X106816200Y-59285500D02*
X104033700Y-59285500D01*
X103301800Y-79197200D02*
X103301800Y-60172600D01*
X95902800Y-79197200D02*
X103301800Y-79197200D01*
X104800400Y-79197200D02*
X106892400Y-81289200D01*
X104033700Y-59285500D02*
X103224200Y-60095000D01*
X103301800Y-79197200D02*
X104800400Y-79197200D01*
X103301800Y-60172600D02*
X103224200Y-60095000D01*
X103224200Y-60095000D02*
X102819200Y-60500000D01*
X106892400Y-81289200D02*
X106892400Y-87657300D01*
X97000000Y-60500000D02*
X102819200Y-60500000D01*
D34*
%TO.N,+12V*%
X168411800Y-50215600D02*
X168411800Y-52638600D01*
D36*
X151816200Y-51285500D02*
X151234500Y-51285500D01*
D37*
X152733500Y-50368200D02*
X151816200Y-51285500D01*
X158242000Y-50368200D02*
X152733500Y-50368200D01*
D35*
X161950400Y-44069000D02*
X160172400Y-45847000D01*
X161950400Y-42291000D02*
X161950400Y-44069000D01*
D37*
X160705800Y-50368200D02*
X158242000Y-50368200D01*
D34*
X168411800Y-52638600D02*
X168808400Y-53035200D01*
D35*
X158242000Y-46609000D02*
X158242000Y-50368200D01*
D33*
X168808400Y-53035200D02*
X169519600Y-53035200D01*
D35*
X159004000Y-45847000D02*
X158242000Y-46609000D01*
X160172400Y-45847000D02*
X159004000Y-45847000D01*
D36*
%TO.N,AC_OUT2*%
X170002200Y-44475400D02*
X174737400Y-44475400D01*
X174737400Y-44475400D02*
X176483000Y-46221000D01*
D34*
X170002000Y-44475600D02*
X170002200Y-44475400D01*
X169711800Y-44475600D02*
X170002000Y-44475600D01*
X176483000Y-45977800D02*
X176483000Y-46221000D01*
D36*
%TO.N,AC_OUT1*%
X174675800Y-52603400D02*
X174675800Y-52400200D01*
X174294800Y-52019200D02*
X174167800Y-51892200D01*
D34*
X169748200Y-51892200D02*
X169824400Y-51892200D01*
D36*
X174675800Y-52400200D02*
X174294800Y-52019200D01*
D34*
X169061800Y-51434400D02*
X169061800Y-50215600D01*
D36*
X174675800Y-59563000D02*
X174675800Y-52603400D01*
X174167800Y-51892200D02*
X171043600Y-51892200D01*
D34*
X169061800Y-50215600D02*
X169061800Y-51205800D01*
D36*
X169824400Y-51892200D02*
X169519600Y-51892200D01*
X171043600Y-51892200D02*
X169824400Y-51892200D01*
X175285400Y-60172600D02*
X174675800Y-59563000D01*
D34*
X169519600Y-51892200D02*
X169061800Y-51434400D01*
D36*
X176333800Y-61221000D02*
X175285400Y-60172600D01*
D34*
X169061800Y-51205800D02*
X169748200Y-51892200D01*
D36*
X176483000Y-61221000D02*
X176333800Y-61221000D01*
D33*
%TO.N,/5V/DISP_SCL*%
X181279800Y-84683600D02*
X181279800Y-78333600D01*
X164160200Y-85369400D02*
X180594000Y-85369400D01*
X180594000Y-85369400D02*
X181279800Y-84683600D01*
D38*
%TO.N,/5V/DISP_SDA*%
X178739800Y-83007200D02*
X178739800Y-78333600D01*
X167995600Y-83921600D02*
X177825400Y-83921600D01*
X177825400Y-83921600D02*
X178739800Y-83007200D01*
D33*
%TO.N,Net-(IC1-VCL)*%
X165989000Y-75234800D02*
X165016000Y-75234800D01*
%TO.N,Net-(IC4-CPL)*%
X166039800Y-53086000D02*
X165252400Y-53086000D01*
X166461800Y-50215600D02*
X166461800Y-52664000D01*
X166461800Y-52664000D02*
X166039800Y-53086000D01*
D37*
%TO.N,+5V*%
X144780000Y-78181200D02*
X146256100Y-79657300D01*
D33*
X175793400Y-76504800D02*
X175371000Y-76927200D01*
X148031200Y-79708100D02*
X148082000Y-79657300D01*
X150161000Y-74610000D02*
X152861000Y-74610000D01*
X183819800Y-76835000D02*
X183489600Y-76504800D01*
D37*
X144780000Y-67193600D02*
X144780000Y-78181200D01*
D33*
X175371000Y-76927200D02*
X175371000Y-77393800D01*
X148031200Y-81067400D02*
X148031200Y-79708100D01*
X183819800Y-78333600D02*
X183819800Y-76835000D01*
D37*
X148082000Y-79657300D02*
X151892400Y-79657300D01*
X146256100Y-79657300D02*
X148082000Y-79657300D01*
D33*
X152861000Y-74610000D02*
X152861000Y-78688700D01*
X183489600Y-76504800D02*
X175793400Y-76504800D01*
X152861000Y-78688700D02*
X151892400Y-79657300D01*
%TO.N,Net-(IC4-CPH)*%
X166606400Y-55161000D02*
X165252400Y-55161000D01*
X167111800Y-50215600D02*
X167111800Y-54655600D01*
X167111800Y-54655600D02*
X166606400Y-55161000D01*
D38*
%TO.N,/5V/5V_EN*%
X178790600Y-66370200D02*
X178790600Y-67017800D01*
X178790600Y-67017800D02*
X178772800Y-67035600D01*
D33*
%TO.N,Net-(IC2-DV{slash}DT)*%
X176068900Y-67031700D02*
X176068900Y-65176400D01*
X176072800Y-67035600D02*
X176068900Y-67031700D01*
%TO.N,Net-(IC4-VCP)*%
X167761800Y-54706400D02*
X168165600Y-55110200D01*
X168165600Y-55110200D02*
X169519600Y-55110200D01*
X167761800Y-50215600D02*
X167761800Y-54706400D01*
%TO.N,NFAULT*%
X173371000Y-77393800D02*
X173294800Y-77470000D01*
X173294800Y-77470000D02*
X172186600Y-77470000D01*
D37*
%TO.N,Net-(IC2-VIN)*%
X147880000Y-68097400D02*
X148007000Y-67970400D01*
D35*
X174548800Y-67985600D02*
X176072800Y-67985600D01*
D33*
X147890200Y-72710000D02*
X147880000Y-72720200D01*
D37*
X174533600Y-67970400D02*
X174548800Y-67985600D01*
X147880000Y-77063600D02*
X147880000Y-72720200D01*
D33*
X150161000Y-72710000D02*
X147890200Y-72710000D01*
D39*
X147880000Y-67193600D02*
X147880000Y-68097400D01*
D37*
X147880000Y-72720200D02*
X147880000Y-67193600D01*
X148007000Y-67970400D02*
X174533600Y-67970400D01*
X147880000Y-77126400D02*
X147880000Y-77063600D01*
D33*
%TO.N,Net-(IC4-EN{slash}IN1)*%
X161747200Y-52273200D02*
X161747200Y-58547000D01*
X161163000Y-59131200D02*
X159385000Y-59131200D01*
X163195000Y-50825400D02*
X161747200Y-52273200D01*
X164439400Y-44475600D02*
X163195000Y-45720000D01*
X165161800Y-44475600D02*
X164439400Y-44475600D01*
X163195000Y-45720000D02*
X163195000Y-50825400D01*
X159385000Y-59131200D02*
X159359600Y-59156600D01*
X161747200Y-58547000D02*
X161163000Y-59131200D01*
%TO.N,Net-(IC4-PH{slash}IN2)*%
X160883600Y-52400200D02*
X162661600Y-50622200D01*
X160883600Y-57962800D02*
X160883600Y-52400200D01*
X164896800Y-43230800D02*
X165531800Y-43230800D01*
X161010600Y-58089800D02*
X160883600Y-57962800D01*
X162661600Y-50622200D02*
X162661600Y-45466000D01*
X165531800Y-43230800D02*
X165811800Y-43510800D01*
X162661600Y-45466000D02*
X164896800Y-43230800D01*
X165811800Y-43510800D02*
X165811800Y-44475600D01*
%TO.N,Net-(IC4-NSLEEP)*%
X166243000Y-45643800D02*
X164134800Y-45643800D01*
X163753800Y-46024800D02*
X163753800Y-51079400D01*
X166461800Y-44475600D02*
X166461800Y-45425000D01*
X166461800Y-45425000D02*
X166243000Y-45643800D01*
X163753800Y-51079400D02*
X162306000Y-52527200D01*
X164134800Y-45643800D02*
X163753800Y-46024800D01*
X162864800Y-59156600D02*
X164439600Y-59156600D01*
X162306000Y-52527200D02*
X162306000Y-58597800D01*
X162306000Y-58597800D02*
X162864800Y-59156600D01*
%TO.N,Net-(IC4-NFAULT)*%
X167360600Y-45669200D02*
X169697400Y-45669200D01*
X171704000Y-61468000D02*
X168249600Y-64922400D01*
X171704000Y-59842400D02*
X171704000Y-61468000D01*
X170126912Y-45669200D02*
X171170600Y-45669200D01*
X167111800Y-44475600D02*
X167111800Y-45420400D01*
X169697400Y-45669200D02*
X170126912Y-45669200D01*
X167111800Y-45420400D02*
X167360600Y-45669200D01*
D38*
%TO.N,Net-(IC4-VREF)*%
X163855400Y-40751000D02*
X166404800Y-40751000D01*
X166404800Y-40751000D02*
X167761800Y-42108000D01*
X167761800Y-42108000D02*
X167761800Y-44475600D01*
D33*
%TO.N,Net-(IC4-IPROPI)*%
X168411800Y-44475600D02*
X168411800Y-39694000D01*
D38*
X168376600Y-39436800D02*
X168265600Y-39547800D01*
D33*
X168411800Y-39694000D02*
X168265600Y-39547800D01*
D38*
X168376600Y-38328600D02*
X168376600Y-39436800D01*
D33*
%TO.N,Net-(IC4-IMODE)*%
X169061800Y-42704600D02*
X169678600Y-42087800D01*
X169061800Y-44475600D02*
X169061800Y-42704600D01*
%TO.N,Net-(IC4-PMODE)*%
X165328600Y-51892200D02*
X165161800Y-51725400D01*
X165161800Y-51725400D02*
X165161800Y-50215600D01*
D35*
%TO.N,+5VA*%
X149275800Y-43637200D02*
X149275800Y-53492400D01*
D38*
X163855400Y-38751000D02*
X160308800Y-38751000D01*
X159385000Y-39674800D02*
X159385000Y-42265600D01*
D35*
X149961600Y-42951400D02*
X149275800Y-43637200D01*
X149275800Y-53492400D02*
X150037800Y-54254400D01*
D38*
X160308800Y-38751000D02*
X159385000Y-39674800D01*
D35*
X159410400Y-42291000D02*
X158750000Y-42951400D01*
D38*
X159385000Y-42265600D02*
X159410400Y-42291000D01*
D35*
X150037800Y-54254400D02*
X158877000Y-54254400D01*
X158750000Y-42951400D02*
X149961600Y-42951400D01*
%TD*%
%TA.AperFunction,Conductor*%
%TO.N,GND2*%
G36*
X168904711Y-35072502D02*
G01*
X168946409Y-35116727D01*
X170658265Y-38160027D01*
X170674228Y-38229206D01*
X170650257Y-38296033D01*
X170593961Y-38339292D01*
X170548446Y-38347800D01*
X170515600Y-38347800D01*
X170515600Y-40747799D01*
X170665578Y-40747799D01*
X170768291Y-40737306D01*
X170934722Y-40682157D01*
X171083944Y-40590116D01*
X171083950Y-40590111D01*
X171207911Y-40466150D01*
X171207916Y-40466144D01*
X171299957Y-40316922D01*
X171355106Y-40150491D01*
X171365599Y-40047787D01*
X171365599Y-39898518D01*
X171385601Y-39830397D01*
X171439256Y-39783904D01*
X171509530Y-39773799D01*
X171574111Y-39803292D01*
X171601418Y-39836744D01*
X172087015Y-40700027D01*
X172102978Y-40769206D01*
X172079007Y-40836033D01*
X172022711Y-40879292D01*
X171977196Y-40887800D01*
X171928600Y-40887800D01*
X171928600Y-43287799D01*
X172078578Y-43287799D01*
X172181291Y-43277306D01*
X172347722Y-43222157D01*
X172496944Y-43130116D01*
X172496950Y-43130111D01*
X172620911Y-43006150D01*
X172620916Y-43006144D01*
X172712957Y-42856922D01*
X172768106Y-42690491D01*
X172778599Y-42587787D01*
X172778599Y-42410518D01*
X172798601Y-42342397D01*
X172852256Y-42295904D01*
X172922530Y-42285799D01*
X172987111Y-42315292D01*
X173014417Y-42348744D01*
X173465818Y-43151233D01*
X173482000Y-43213006D01*
X173482000Y-43782400D01*
X173461998Y-43850521D01*
X173408342Y-43897014D01*
X173356000Y-43908400D01*
X170297299Y-43908400D01*
X170229178Y-43888398D01*
X170182685Y-43834742D01*
X170171299Y-43782400D01*
X170171299Y-43696205D01*
X170171299Y-43696202D01*
X170168334Y-43670636D01*
X170122162Y-43566067D01*
X170122160Y-43566064D01*
X170041335Y-43485239D01*
X170041332Y-43485237D01*
X169936766Y-43439066D01*
X169936761Y-43439065D01*
X169911204Y-43436100D01*
X169569300Y-43436100D01*
X169501179Y-43416098D01*
X169454686Y-43362442D01*
X169443300Y-43310100D01*
X169443300Y-43168299D01*
X169463302Y-43100178D01*
X169516958Y-43053685D01*
X169569300Y-43042299D01*
X170076847Y-43042299D01*
X170076854Y-43042299D01*
X170136942Y-43035840D01*
X170272867Y-42985142D01*
X170389004Y-42898204D01*
X170432015Y-42840746D01*
X170488850Y-42798199D01*
X170559665Y-42793133D01*
X170621978Y-42827157D01*
X170639026Y-42851516D01*
X170640390Y-42850676D01*
X170736283Y-43006144D01*
X170736288Y-43006150D01*
X170860249Y-43130111D01*
X170860255Y-43130116D01*
X171009477Y-43222157D01*
X171175908Y-43277306D01*
X171278612Y-43287799D01*
X171428600Y-43287799D01*
X171428600Y-40887800D01*
X171278621Y-40887800D01*
X171175908Y-40898293D01*
X171009477Y-40953442D01*
X170860255Y-41045483D01*
X170860249Y-41045488D01*
X170736288Y-41169449D01*
X170736283Y-41169455D01*
X170640390Y-41324924D01*
X170637693Y-41323260D01*
X170600141Y-41365893D01*
X170531859Y-41385341D01*
X170463904Y-41364786D01*
X170432015Y-41334853D01*
X170389004Y-41277396D01*
X170272867Y-41190458D01*
X170272865Y-41190457D01*
X170272866Y-41190457D01*
X170136949Y-41139762D01*
X170136944Y-41139760D01*
X170136942Y-41139760D01*
X170106898Y-41136530D01*
X170076856Y-41133300D01*
X169280353Y-41133300D01*
X169280329Y-41133302D01*
X169220260Y-41139759D01*
X169220258Y-41139759D01*
X169084333Y-41190457D01*
X168994808Y-41257474D01*
X168928287Y-41282284D01*
X168858913Y-41267192D01*
X168808712Y-41216989D01*
X168793300Y-41156605D01*
X168793300Y-40556249D01*
X168813302Y-40488128D01*
X168853072Y-40451102D01*
X168852653Y-40450542D01*
X168857864Y-40446640D01*
X168858919Y-40445659D01*
X168859858Y-40445145D01*
X168859867Y-40445142D01*
X168976004Y-40358204D01*
X169019015Y-40300746D01*
X169075850Y-40258199D01*
X169146665Y-40253133D01*
X169208978Y-40287157D01*
X169226026Y-40311516D01*
X169227390Y-40310676D01*
X169323283Y-40466144D01*
X169323288Y-40466150D01*
X169447249Y-40590111D01*
X169447255Y-40590116D01*
X169596477Y-40682157D01*
X169762908Y-40737306D01*
X169865612Y-40747799D01*
X170015600Y-40747799D01*
X170015600Y-38347800D01*
X169865621Y-38347800D01*
X169762908Y-38358293D01*
X169596477Y-38413442D01*
X169447255Y-38505483D01*
X169447249Y-38505488D01*
X169323288Y-38629449D01*
X169323283Y-38629455D01*
X169227390Y-38784924D01*
X169224693Y-38783260D01*
X169187141Y-38825893D01*
X169118859Y-38845341D01*
X169050904Y-38824786D01*
X169019015Y-38794853D01*
X169011582Y-38784924D01*
X168981361Y-38744552D01*
X168956551Y-38678031D01*
X168964417Y-38624368D01*
X169016749Y-38486382D01*
X169016749Y-38486379D01*
X169016750Y-38486378D01*
X169035907Y-38328603D01*
X169035907Y-38328596D01*
X169016750Y-38170820D01*
X169003138Y-38134931D01*
X168960387Y-38022205D01*
X168870098Y-37891399D01*
X168751129Y-37786001D01*
X168751128Y-37786000D01*
X168751125Y-37785998D01*
X168610397Y-37712139D01*
X168610395Y-37712138D01*
X168610393Y-37712137D01*
X168610391Y-37712136D01*
X168610390Y-37712136D01*
X168456072Y-37674100D01*
X168456071Y-37674100D01*
X168297129Y-37674100D01*
X168297127Y-37674100D01*
X168142809Y-37712136D01*
X168142802Y-37712139D01*
X168002074Y-37785998D01*
X168002069Y-37786002D01*
X167883101Y-37891400D01*
X167792815Y-38022201D01*
X167792812Y-38022207D01*
X167736449Y-38170820D01*
X167717293Y-38328596D01*
X167717293Y-38328603D01*
X167736450Y-38486380D01*
X167737969Y-38490386D01*
X167738210Y-38493524D01*
X167738274Y-38493781D01*
X167738231Y-38493791D01*
X167743423Y-38561173D01*
X167709740Y-38623671D01*
X167678134Y-38644116D01*
X167679240Y-38646140D01*
X167671332Y-38650457D01*
X167555196Y-38737395D01*
X167468257Y-38853534D01*
X167417562Y-38989450D01*
X167417560Y-38989458D01*
X167411100Y-39049537D01*
X167411100Y-40046046D01*
X167411102Y-40046070D01*
X167417559Y-40106139D01*
X167417559Y-40106141D01*
X167468257Y-40242066D01*
X167468258Y-40242067D01*
X167555196Y-40358204D01*
X167671333Y-40445142D01*
X167807258Y-40495840D01*
X167867345Y-40502300D01*
X167904299Y-40502299D01*
X167972418Y-40522299D01*
X168018912Y-40575954D01*
X168030300Y-40628299D01*
X168030300Y-41535616D01*
X168010298Y-41603737D01*
X167956642Y-41650230D01*
X167886368Y-41660334D01*
X167821788Y-41630840D01*
X167815205Y-41624711D01*
X166853404Y-40662910D01*
X166819378Y-40600598D01*
X166816499Y-40573815D01*
X166816499Y-40352753D01*
X166816499Y-40352746D01*
X166810040Y-40292658D01*
X166759342Y-40156733D01*
X166672404Y-40040596D01*
X166614945Y-39997583D01*
X166572399Y-39940748D01*
X166567333Y-39869933D01*
X166601358Y-39807620D01*
X166625727Y-39790590D01*
X166624876Y-39789210D01*
X166780344Y-39693316D01*
X166780350Y-39693311D01*
X166904311Y-39569350D01*
X166904316Y-39569344D01*
X166996357Y-39420122D01*
X167051506Y-39253691D01*
X167061999Y-39150987D01*
X167062000Y-39150987D01*
X167062000Y-39001000D01*
X165738000Y-39001000D01*
X165669879Y-38980998D01*
X165623386Y-38927342D01*
X165612000Y-38875000D01*
X165612000Y-37651000D01*
X166112000Y-37651000D01*
X166112000Y-38501000D01*
X167061999Y-38501000D01*
X167061999Y-38351021D01*
X167051506Y-38248308D01*
X166996357Y-38081877D01*
X166904316Y-37932655D01*
X166904311Y-37932649D01*
X166780350Y-37808688D01*
X166780344Y-37808683D01*
X166631122Y-37716642D01*
X166464691Y-37661493D01*
X166361987Y-37651000D01*
X166112000Y-37651000D01*
X165612000Y-37651000D01*
X165362021Y-37651000D01*
X165259308Y-37661493D01*
X165092877Y-37716642D01*
X164943655Y-37808683D01*
X164943649Y-37808688D01*
X164819688Y-37932649D01*
X164819684Y-37932654D01*
X164797905Y-37967963D01*
X164745118Y-38015440D01*
X164675043Y-38026842D01*
X164615159Y-38002684D01*
X164549667Y-37953658D01*
X164549664Y-37953657D01*
X164549663Y-37953656D01*
X164413749Y-37902962D01*
X164413744Y-37902960D01*
X164413742Y-37902960D01*
X164383698Y-37899730D01*
X164353656Y-37896500D01*
X163357153Y-37896500D01*
X163357129Y-37896502D01*
X163297060Y-37902959D01*
X163297058Y-37902959D01*
X163161133Y-37953657D01*
X163044996Y-38040596D01*
X162958057Y-38156734D01*
X162908525Y-38289533D01*
X162865978Y-38346369D01*
X162799458Y-38371179D01*
X162790470Y-38371500D01*
X160361222Y-38371500D01*
X160335364Y-38368818D01*
X160330450Y-38367787D01*
X160324697Y-38366581D01*
X160293011Y-38370532D01*
X160277425Y-38371500D01*
X160277357Y-38371500D01*
X160273924Y-38372072D01*
X160256622Y-38374959D01*
X160251478Y-38375708D01*
X160199015Y-38382248D01*
X160191422Y-38384508D01*
X160183868Y-38387101D01*
X160137367Y-38412265D01*
X160132743Y-38414646D01*
X160085231Y-38437874D01*
X160078778Y-38442481D01*
X160072484Y-38447380D01*
X160036668Y-38486285D01*
X160033065Y-38490039D01*
X159153724Y-39369380D01*
X159133551Y-39385764D01*
X159124419Y-39391730D01*
X159124416Y-39391733D01*
X159104791Y-39416947D01*
X159094468Y-39428638D01*
X159094416Y-39428689D01*
X159082211Y-39445782D01*
X159079105Y-39449948D01*
X159046628Y-39491676D01*
X159042835Y-39498684D01*
X159039347Y-39505820D01*
X159024259Y-39556496D01*
X159022672Y-39561450D01*
X159005499Y-39611475D01*
X159004194Y-39619295D01*
X159003207Y-39627210D01*
X159005392Y-39680013D01*
X159005500Y-39685221D01*
X159005500Y-41160500D01*
X158985498Y-41228621D01*
X158931842Y-41275114D01*
X158879505Y-41286500D01*
X158860339Y-41286500D01*
X158860326Y-41286501D01*
X158786099Y-41301265D01*
X158701915Y-41357516D01*
X158645666Y-41441697D01*
X158630900Y-41515930D01*
X158630900Y-42299180D01*
X158610898Y-42367301D01*
X158593998Y-42388273D01*
X158576279Y-42405993D01*
X158513968Y-42440020D01*
X158487181Y-42442900D01*
X150029816Y-42442900D01*
X150003036Y-42440021D01*
X149998251Y-42438980D01*
X149998247Y-42438980D01*
X149947927Y-42442579D01*
X149938938Y-42442900D01*
X149925231Y-42442900D01*
X149911664Y-42444850D01*
X149902734Y-42445810D01*
X149852398Y-42449411D01*
X149852391Y-42449412D01*
X149847794Y-42451127D01*
X149821724Y-42457781D01*
X149816875Y-42458478D01*
X149816864Y-42458481D01*
X149770968Y-42479440D01*
X149762667Y-42482878D01*
X149715394Y-42500511D01*
X149711470Y-42503449D01*
X149688320Y-42517185D01*
X149683857Y-42519223D01*
X149645724Y-42552264D01*
X149638735Y-42557897D01*
X149627752Y-42566120D01*
X149618057Y-42575815D01*
X149611479Y-42581939D01*
X149573350Y-42614978D01*
X149573347Y-42614981D01*
X149570698Y-42619104D01*
X149553801Y-42640070D01*
X148964467Y-43229403D01*
X148943507Y-43246296D01*
X148939381Y-43248947D01*
X148939376Y-43248952D01*
X148906342Y-43287074D01*
X148900226Y-43293644D01*
X148890523Y-43303349D01*
X148890515Y-43303358D01*
X148882305Y-43314325D01*
X148876665Y-43321324D01*
X148843622Y-43359458D01*
X148843620Y-43359461D01*
X148841583Y-43363922D01*
X148827853Y-43387064D01*
X148824914Y-43390991D01*
X148824909Y-43391000D01*
X148807275Y-43438273D01*
X148803837Y-43446573D01*
X148782880Y-43492466D01*
X148782879Y-43492471D01*
X148782181Y-43497323D01*
X148775526Y-43523397D01*
X148773812Y-43527993D01*
X148773811Y-43527997D01*
X148770210Y-43578333D01*
X148769250Y-43587263D01*
X148767300Y-43600830D01*
X148767300Y-43614538D01*
X148766979Y-43623527D01*
X148763379Y-43673848D01*
X148764420Y-43678629D01*
X148767300Y-43705415D01*
X148767300Y-53424183D01*
X148764422Y-53450962D01*
X148763380Y-53455751D01*
X148766979Y-53506072D01*
X148767300Y-53515061D01*
X148767300Y-53528769D01*
X148769250Y-53542337D01*
X148770210Y-53551267D01*
X148773811Y-53601599D01*
X148773811Y-53601604D01*
X148775526Y-53606201D01*
X148782181Y-53632276D01*
X148782878Y-53637124D01*
X148782882Y-53637138D01*
X148803835Y-53683019D01*
X148807276Y-53691325D01*
X148824910Y-53738602D01*
X148824912Y-53738606D01*
X148827848Y-53742528D01*
X148841588Y-53765686D01*
X148843622Y-53770140D01*
X148843624Y-53770143D01*
X148876656Y-53808264D01*
X148882300Y-53815268D01*
X148890517Y-53826245D01*
X148890519Y-53826247D01*
X148890520Y-53826248D01*
X148900221Y-53835949D01*
X148906340Y-53842521D01*
X148939380Y-53880651D01*
X148943491Y-53883293D01*
X148964471Y-53900199D01*
X149629999Y-54565727D01*
X149646901Y-54586700D01*
X149649548Y-54590819D01*
X149649550Y-54590822D01*
X149687669Y-54623851D01*
X149694242Y-54629970D01*
X149703952Y-54639680D01*
X149703954Y-54639682D01*
X149714931Y-54647899D01*
X149721936Y-54653544D01*
X149750257Y-54678084D01*
X149760057Y-54686576D01*
X149762402Y-54687646D01*
X149764508Y-54688609D01*
X149787677Y-54702356D01*
X149791591Y-54705286D01*
X149791592Y-54705287D01*
X149791594Y-54705287D01*
X149791596Y-54705289D01*
X149838884Y-54722926D01*
X149847172Y-54726359D01*
X149893066Y-54747319D01*
X149897908Y-54748015D01*
X149924011Y-54754677D01*
X149928600Y-54756389D01*
X149978930Y-54759988D01*
X149987858Y-54760948D01*
X150001432Y-54762900D01*
X150015138Y-54762900D01*
X150024127Y-54763221D01*
X150074449Y-54766820D01*
X150077421Y-54766173D01*
X150079236Y-54765779D01*
X150106016Y-54762900D01*
X158416196Y-54762900D01*
X158484317Y-54782902D01*
X158499742Y-54794582D01*
X158502471Y-54796999D01*
X158643207Y-54870863D01*
X158797529Y-54908900D01*
X158797530Y-54908900D01*
X158956470Y-54908900D01*
X158956471Y-54908900D01*
X159110793Y-54870863D01*
X159251529Y-54796999D01*
X159370498Y-54691601D01*
X159460787Y-54560795D01*
X159517149Y-54412182D01*
X159517149Y-54412181D01*
X159517150Y-54412179D01*
X159536307Y-54254403D01*
X159536307Y-54254396D01*
X159517150Y-54096620D01*
X159503538Y-54060731D01*
X159460787Y-53948005D01*
X159370498Y-53817199D01*
X159251529Y-53711801D01*
X159251528Y-53711800D01*
X159251525Y-53711798D01*
X159110797Y-53637939D01*
X159110795Y-53637938D01*
X159110793Y-53637937D01*
X159110791Y-53637936D01*
X159110790Y-53637936D01*
X158956472Y-53599900D01*
X158956471Y-53599900D01*
X158797529Y-53599900D01*
X158797527Y-53599900D01*
X158643209Y-53637936D01*
X158643208Y-53637936D01*
X158502474Y-53711799D01*
X158502472Y-53711800D01*
X158502471Y-53711801D01*
X158499749Y-53714212D01*
X158497329Y-53715349D01*
X158496202Y-53716128D01*
X158496072Y-53715940D01*
X158435499Y-53744413D01*
X158416196Y-53745900D01*
X150300618Y-53745900D01*
X150232497Y-53725898D01*
X150211523Y-53708995D01*
X149821205Y-53318677D01*
X149787179Y-53256365D01*
X149784300Y-53229582D01*
X149784300Y-43900017D01*
X149804302Y-43831896D01*
X149821205Y-43810922D01*
X150135322Y-43496805D01*
X150197634Y-43462779D01*
X150224417Y-43459900D01*
X158681784Y-43459900D01*
X158708565Y-43462778D01*
X158713351Y-43463820D01*
X158713351Y-43463819D01*
X158713352Y-43463820D01*
X158756081Y-43460764D01*
X158763674Y-43460220D01*
X158772662Y-43459900D01*
X158786366Y-43459900D01*
X158786368Y-43459900D01*
X158799953Y-43457946D01*
X158808853Y-43456989D01*
X158859201Y-43453389D01*
X158863794Y-43451675D01*
X158889893Y-43445014D01*
X158894734Y-43444319D01*
X158940633Y-43423357D01*
X158948914Y-43419926D01*
X158996204Y-43402289D01*
X159000117Y-43399358D01*
X159023299Y-43385604D01*
X159027743Y-43383576D01*
X159065891Y-43350519D01*
X159072861Y-43344903D01*
X159083848Y-43336680D01*
X159084360Y-43336168D01*
X159088125Y-43332404D01*
X159150437Y-43298378D01*
X159177220Y-43295499D01*
X159966656Y-43295499D01*
X159966656Y-43297744D01*
X160026491Y-43309071D01*
X160049058Y-43323856D01*
X160108182Y-43372377D01*
X160108186Y-43372380D01*
X160286249Y-43467558D01*
X160430400Y-43511285D01*
X160430400Y-42571617D01*
X160499452Y-42625363D01*
X160617824Y-42666000D01*
X160711473Y-42666000D01*
X160803846Y-42650586D01*
X160913914Y-42591019D01*
X160930400Y-42573110D01*
X160930400Y-43511285D01*
X161074548Y-43467558D01*
X161256503Y-43370301D01*
X161326009Y-43355829D01*
X161392306Y-43381232D01*
X161434344Y-43438445D01*
X161441900Y-43481423D01*
X161441900Y-43806182D01*
X161421898Y-43874303D01*
X161404995Y-43895277D01*
X159998677Y-45301595D01*
X159936365Y-45335621D01*
X159909582Y-45338500D01*
X159072216Y-45338500D01*
X159045436Y-45335621D01*
X159040651Y-45334580D01*
X159040647Y-45334580D01*
X158990327Y-45338179D01*
X158981338Y-45338500D01*
X158967631Y-45338500D01*
X158954064Y-45340450D01*
X158945134Y-45341410D01*
X158894798Y-45345011D01*
X158894791Y-45345012D01*
X158890194Y-45346727D01*
X158864124Y-45353381D01*
X158859275Y-45354078D01*
X158859264Y-45354081D01*
X158813368Y-45375040D01*
X158805067Y-45378478D01*
X158757795Y-45396111D01*
X158757792Y-45396112D01*
X158753864Y-45399053D01*
X158730722Y-45412783D01*
X158726261Y-45414820D01*
X158726258Y-45414822D01*
X158688124Y-45447865D01*
X158681125Y-45453505D01*
X158670158Y-45461715D01*
X158670149Y-45461723D01*
X158660444Y-45471426D01*
X158653874Y-45477542D01*
X158615752Y-45510576D01*
X158615747Y-45510581D01*
X158613098Y-45514704D01*
X158596201Y-45535669D01*
X157930669Y-46201201D01*
X157909704Y-46218098D01*
X157905581Y-46220747D01*
X157905576Y-46220752D01*
X157872542Y-46258874D01*
X157866426Y-46265444D01*
X157856723Y-46275149D01*
X157856715Y-46275158D01*
X157848505Y-46286125D01*
X157842865Y-46293124D01*
X157809822Y-46331258D01*
X157809820Y-46331261D01*
X157807783Y-46335722D01*
X157794053Y-46358864D01*
X157791114Y-46362791D01*
X157791109Y-46362800D01*
X157773475Y-46410073D01*
X157770037Y-46418373D01*
X157749080Y-46464266D01*
X157749079Y-46464271D01*
X157748381Y-46469123D01*
X157741726Y-46495197D01*
X157740012Y-46499793D01*
X157740011Y-46499797D01*
X157736410Y-46550133D01*
X157735450Y-46559063D01*
X157733500Y-46572630D01*
X157733500Y-46586338D01*
X157733179Y-46595327D01*
X157729579Y-46645648D01*
X157730620Y-46650429D01*
X157733500Y-46677215D01*
X157733500Y-49352700D01*
X157713498Y-49420821D01*
X157659842Y-49467314D01*
X157607500Y-49478700D01*
X152813425Y-49478700D01*
X152793715Y-49477149D01*
X152780306Y-49475025D01*
X152716322Y-49478379D01*
X152713506Y-49478527D01*
X152706914Y-49478700D01*
X152686880Y-49478700D01*
X152686876Y-49478700D01*
X152686862Y-49478701D01*
X152666951Y-49480793D01*
X152660382Y-49481310D01*
X152593586Y-49484811D01*
X152580475Y-49488324D01*
X152561045Y-49491925D01*
X152547547Y-49493344D01*
X152483917Y-49514018D01*
X152477596Y-49515890D01*
X152412975Y-49533206D01*
X152412973Y-49533206D01*
X152400878Y-49539369D01*
X152382623Y-49546930D01*
X152369721Y-49551122D01*
X152369714Y-49551125D01*
X152339381Y-49568638D01*
X152270385Y-49585374D01*
X152239247Y-49579920D01*
X152207708Y-49570192D01*
X151947682Y-49531000D01*
X151684718Y-49531000D01*
X151424692Y-49570192D01*
X151424691Y-49570192D01*
X151424685Y-49570193D01*
X151173406Y-49647704D01*
X150936487Y-49761799D01*
X150936480Y-49761803D01*
X150719226Y-49909925D01*
X150719214Y-49909935D01*
X150526457Y-50088785D01*
X150362496Y-50294386D01*
X150231015Y-50522118D01*
X150231013Y-50522122D01*
X150134947Y-50766897D01*
X150134946Y-50766900D01*
X150076431Y-51023268D01*
X150056780Y-51285500D01*
X150076431Y-51547731D01*
X150134946Y-51804099D01*
X150134947Y-51804102D01*
X150231013Y-52048877D01*
X150231015Y-52048881D01*
X150362496Y-52276613D01*
X150526457Y-52482214D01*
X150651964Y-52598666D01*
X150719220Y-52661070D01*
X150719226Y-52661074D01*
X150936480Y-52809196D01*
X150936487Y-52809200D01*
X150936490Y-52809202D01*
X151173412Y-52923298D01*
X151394107Y-52991373D01*
X151424685Y-53000806D01*
X151424692Y-53000808D01*
X151684718Y-53040000D01*
X151684722Y-53040000D01*
X151947678Y-53040000D01*
X151947682Y-53040000D01*
X152207708Y-53000808D01*
X152458988Y-52923298D01*
X152695910Y-52809202D01*
X152913180Y-52661070D01*
X153105946Y-52482210D01*
X153269901Y-52276617D01*
X153401383Y-52048884D01*
X153497454Y-51804098D01*
X153555969Y-51547728D01*
X153568966Y-51374281D01*
X153594003Y-51307849D01*
X153650983Y-51265495D01*
X153694614Y-51257700D01*
X158195380Y-51257700D01*
X159592170Y-51257700D01*
X159660291Y-51277702D01*
X159696932Y-51313695D01*
X159722316Y-51351684D01*
X159722317Y-51351685D01*
X159806497Y-51407933D01*
X159806499Y-51407934D01*
X159880733Y-51422700D01*
X161017386Y-51422699D01*
X161085507Y-51442701D01*
X161132000Y-51496357D01*
X161142104Y-51566631D01*
X161112611Y-51631211D01*
X161106481Y-51637794D01*
X160651055Y-52093220D01*
X160630882Y-52109604D01*
X160621641Y-52115641D01*
X160601890Y-52141017D01*
X160591580Y-52152695D01*
X160591491Y-52152783D01*
X160591488Y-52152787D01*
X160579212Y-52169980D01*
X160576103Y-52174150D01*
X160543442Y-52216113D01*
X160539630Y-52223158D01*
X160536125Y-52230327D01*
X160520949Y-52281300D01*
X160519362Y-52286254D01*
X160502099Y-52336542D01*
X160500784Y-52344418D01*
X160499794Y-52352360D01*
X160501992Y-52405472D01*
X160502100Y-52410680D01*
X160502100Y-57635070D01*
X160482098Y-57703191D01*
X160479796Y-57706646D01*
X160426815Y-57783401D01*
X160426812Y-57783407D01*
X160370449Y-57932020D01*
X160351293Y-58089796D01*
X160351293Y-58089803D01*
X160370449Y-58247579D01*
X160419047Y-58375719D01*
X160426813Y-58396195D01*
X160517102Y-58527001D01*
X160519797Y-58529389D01*
X160521203Y-58531629D01*
X160522154Y-58532703D01*
X160521975Y-58532861D01*
X160557522Y-58589533D01*
X160556742Y-58660525D01*
X160517704Y-58719826D01*
X160452803Y-58748607D01*
X160436243Y-58749700D01*
X159935087Y-58749700D01*
X159866966Y-58729698D01*
X159851534Y-58718012D01*
X159734134Y-58614005D01*
X159734125Y-58613998D01*
X159593397Y-58540139D01*
X159593395Y-58540138D01*
X159593393Y-58540137D01*
X159593391Y-58540136D01*
X159593390Y-58540136D01*
X159439072Y-58502100D01*
X159439071Y-58502100D01*
X159280129Y-58502100D01*
X159280127Y-58502100D01*
X159125809Y-58540136D01*
X159125802Y-58540139D01*
X158985074Y-58613998D01*
X158985069Y-58614002D01*
X158866101Y-58719400D01*
X158775815Y-58850201D01*
X158775812Y-58850207D01*
X158719449Y-58998820D01*
X158700293Y-59156596D01*
X158700293Y-59156603D01*
X158719449Y-59314379D01*
X158758959Y-59418556D01*
X158775813Y-59462995D01*
X158866102Y-59593801D01*
X158985071Y-59699199D01*
X158985072Y-59699199D01*
X158985074Y-59699201D01*
X159055986Y-59736418D01*
X159125807Y-59773063D01*
X159280129Y-59811100D01*
X159280130Y-59811100D01*
X159439070Y-59811100D01*
X159439071Y-59811100D01*
X159593393Y-59773063D01*
X159734129Y-59699199D01*
X159853098Y-59593801D01*
X159871513Y-59567122D01*
X159926671Y-59522424D01*
X159975208Y-59512700D01*
X161110366Y-59512700D01*
X161136224Y-59515381D01*
X161147017Y-59517645D01*
X161178921Y-59513667D01*
X161194508Y-59512700D01*
X161194611Y-59512700D01*
X161215439Y-59509224D01*
X161220552Y-59508478D01*
X161273360Y-59501896D01*
X161273361Y-59501895D01*
X161273363Y-59501895D01*
X161281011Y-59499617D01*
X161288584Y-59497018D01*
X161288586Y-59497018D01*
X161289067Y-59496758D01*
X161335353Y-59471708D01*
X161339989Y-59469322D01*
X161350674Y-59464099D01*
X161387746Y-59445976D01*
X161394266Y-59441320D01*
X161400558Y-59436423D01*
X161400559Y-59436421D01*
X161400562Y-59436420D01*
X161436614Y-59397255D01*
X161440175Y-59393546D01*
X161679344Y-59154377D01*
X161912105Y-58921615D01*
X161974416Y-58887591D01*
X162045231Y-58892656D01*
X162090294Y-58921616D01*
X162325273Y-59156596D01*
X162557822Y-59389145D01*
X162574206Y-59409321D01*
X162580240Y-59418556D01*
X162580243Y-59418558D01*
X162605610Y-59438302D01*
X162617316Y-59448640D01*
X162617385Y-59448709D01*
X162617398Y-59448720D01*
X162634574Y-59460982D01*
X162638731Y-59464080D01*
X162680715Y-59496758D01*
X162680717Y-59496758D01*
X162680719Y-59496760D01*
X162687742Y-59500560D01*
X162694928Y-59504073D01*
X162694931Y-59504075D01*
X162694933Y-59504075D01*
X162694934Y-59504076D01*
X162745876Y-59519242D01*
X162750840Y-59520832D01*
X162767805Y-59526656D01*
X162801139Y-59538100D01*
X162801146Y-59538100D01*
X162809049Y-59539419D01*
X162816958Y-59540405D01*
X162816958Y-59540404D01*
X162816959Y-59540405D01*
X162870084Y-59538207D01*
X162875290Y-59538100D01*
X163841524Y-59538100D01*
X163909645Y-59558102D01*
X163940835Y-59588280D01*
X163941046Y-59588094D01*
X163943461Y-59590820D01*
X163945216Y-59592518D01*
X163946102Y-59593801D01*
X164065071Y-59699199D01*
X164065072Y-59699199D01*
X164065074Y-59699201D01*
X164135986Y-59736418D01*
X164205807Y-59773063D01*
X164360129Y-59811100D01*
X164360130Y-59811100D01*
X164519070Y-59811100D01*
X164519071Y-59811100D01*
X164673393Y-59773063D01*
X164814129Y-59699199D01*
X164933098Y-59593801D01*
X165023387Y-59462995D01*
X165079749Y-59314382D01*
X165079749Y-59314381D01*
X165079750Y-59314379D01*
X165098907Y-59156603D01*
X165098907Y-59156596D01*
X165079750Y-58998820D01*
X165066138Y-58962931D01*
X165023387Y-58850205D01*
X164933098Y-58719399D01*
X164814129Y-58614001D01*
X164814128Y-58614000D01*
X164814125Y-58613998D01*
X164673397Y-58540139D01*
X164673395Y-58540138D01*
X164673393Y-58540137D01*
X164673391Y-58540136D01*
X164673390Y-58540136D01*
X164519072Y-58502100D01*
X164519071Y-58502100D01*
X164360129Y-58502100D01*
X164360127Y-58502100D01*
X164205809Y-58540136D01*
X164205802Y-58540139D01*
X164065074Y-58613998D01*
X164065069Y-58614002D01*
X163973242Y-58695354D01*
X163960036Y-58707055D01*
X163946100Y-58719401D01*
X163946099Y-58719401D01*
X163945216Y-58720682D01*
X163944328Y-58721401D01*
X163941046Y-58725106D01*
X163940429Y-58724560D01*
X163890055Y-58765379D01*
X163841524Y-58775100D01*
X163075013Y-58775100D01*
X163006892Y-58755098D01*
X162985918Y-58738195D01*
X162724405Y-58476682D01*
X162690379Y-58414370D01*
X162687500Y-58387587D01*
X162687500Y-52737411D01*
X162707502Y-52669290D01*
X162724400Y-52648321D01*
X163986342Y-51386378D01*
X164006518Y-51369994D01*
X164015756Y-51363960D01*
X164035510Y-51338578D01*
X164045856Y-51326865D01*
X164045913Y-51326809D01*
X164058200Y-51309597D01*
X164061266Y-51305486D01*
X164093958Y-51263485D01*
X164093959Y-51263479D01*
X164097757Y-51256464D01*
X164101270Y-51249276D01*
X164101275Y-51249270D01*
X164116456Y-51198273D01*
X164118021Y-51193389D01*
X164135300Y-51143061D01*
X164135300Y-51143055D01*
X164136619Y-51135149D01*
X164137605Y-51127243D01*
X164135408Y-51074127D01*
X164135300Y-51068919D01*
X164135300Y-46235012D01*
X164155302Y-46166891D01*
X164172205Y-46145917D01*
X164255917Y-46062205D01*
X164318229Y-46028179D01*
X164345012Y-46025300D01*
X165110800Y-46025300D01*
X165178921Y-46045302D01*
X165225414Y-46098958D01*
X165236800Y-46151300D01*
X165236800Y-47095600D01*
X169636800Y-47095600D01*
X169636800Y-46176700D01*
X169656802Y-46108579D01*
X169710458Y-46062086D01*
X169762800Y-46050700D01*
X170063251Y-46050700D01*
X170572524Y-46050700D01*
X170640645Y-46070702D01*
X170671835Y-46100880D01*
X170672046Y-46100694D01*
X170674461Y-46103420D01*
X170676216Y-46105118D01*
X170677102Y-46106401D01*
X170796071Y-46211799D01*
X170796072Y-46211799D01*
X170796074Y-46211801D01*
X170850739Y-46240491D01*
X170936807Y-46285663D01*
X171091129Y-46323700D01*
X171091130Y-46323700D01*
X171250070Y-46323700D01*
X171250071Y-46323700D01*
X171404393Y-46285663D01*
X171545129Y-46211799D01*
X171664098Y-46106401D01*
X171754387Y-45975595D01*
X171810749Y-45826982D01*
X171810749Y-45826981D01*
X171810750Y-45826979D01*
X171829907Y-45669203D01*
X171829907Y-45669196D01*
X171810750Y-45511420D01*
X171786646Y-45447865D01*
X171754387Y-45362805D01*
X171669603Y-45239975D01*
X171647368Y-45172551D01*
X171665115Y-45103809D01*
X171717210Y-45055573D01*
X171773300Y-45042400D01*
X173356000Y-45042400D01*
X173424121Y-45062402D01*
X173470614Y-45116058D01*
X173482000Y-45168400D01*
X173482000Y-51199200D01*
X173461998Y-51267321D01*
X173408342Y-51313814D01*
X173356000Y-51325200D01*
X170495030Y-51325200D01*
X170426909Y-51305198D01*
X170380416Y-51251542D01*
X170370312Y-51181268D01*
X170377815Y-51152976D01*
X170406161Y-51081095D01*
X170406162Y-51081090D01*
X170416799Y-50992512D01*
X170416800Y-50992507D01*
X170416800Y-50420600D01*
X169647300Y-50420600D01*
X169579179Y-50400598D01*
X169532686Y-50346942D01*
X169521300Y-50294600D01*
X169521299Y-49436205D01*
X169521299Y-49436202D01*
X169518334Y-49410636D01*
X169517535Y-49408828D01*
X169516478Y-49403815D01*
X169515845Y-49401487D01*
X169515979Y-49401450D01*
X169506800Y-49357934D01*
X169506800Y-48967611D01*
X169517383Y-48931570D01*
X169916800Y-48931570D01*
X169916800Y-50010600D01*
X170416800Y-50010600D01*
X170416800Y-49438693D01*
X170416799Y-49438687D01*
X170406162Y-49350109D01*
X170406161Y-49350103D01*
X170350571Y-49209138D01*
X170350569Y-49209135D01*
X170259008Y-49088391D01*
X170138264Y-48996830D01*
X170138261Y-48996828D01*
X169997296Y-48941238D01*
X169997291Y-48941237D01*
X169916800Y-48931570D01*
X169517383Y-48931570D01*
X169526802Y-48899490D01*
X169531933Y-48892100D01*
X169580152Y-48827689D01*
X169630399Y-48692971D01*
X169636799Y-48633440D01*
X169636800Y-48633423D01*
X169636800Y-47595600D01*
X165236800Y-47595600D01*
X165236800Y-48633440D01*
X165243200Y-48692971D01*
X165293447Y-48827689D01*
X165332447Y-48879786D01*
X165357258Y-48946306D01*
X165342167Y-49015680D01*
X165307713Y-49055693D01*
X165264589Y-49088394D01*
X165235895Y-49126234D01*
X165178797Y-49168427D01*
X165135499Y-49176100D01*
X164962405Y-49176100D01*
X164962399Y-49176101D01*
X164936837Y-49179065D01*
X164936832Y-49179067D01*
X164832267Y-49225237D01*
X164832264Y-49225239D01*
X164751439Y-49306064D01*
X164751437Y-49306067D01*
X164705266Y-49410633D01*
X164705265Y-49410638D01*
X164702300Y-49436195D01*
X164702300Y-50994994D01*
X164702301Y-50995000D01*
X164705265Y-51020562D01*
X164705267Y-51020567D01*
X164751437Y-51125132D01*
X164758036Y-51134765D01*
X164754381Y-51137268D01*
X164777357Y-51179112D01*
X164780300Y-51206185D01*
X164780300Y-51495129D01*
X164760298Y-51563250D01*
X164757996Y-51566705D01*
X164744814Y-51585801D01*
X164688449Y-51734420D01*
X164669293Y-51892196D01*
X164669293Y-51892203D01*
X164688450Y-52049980D01*
X164707730Y-52100818D01*
X164713184Y-52171605D01*
X164679501Y-52234103D01*
X164633952Y-52263553D01*
X164533133Y-52301158D01*
X164416996Y-52388096D01*
X164330057Y-52504234D01*
X164279362Y-52640150D01*
X164279360Y-52640158D01*
X164272900Y-52700237D01*
X164272900Y-53471746D01*
X164272902Y-53471770D01*
X164279359Y-53531839D01*
X164279359Y-53531841D01*
X164330057Y-53667766D01*
X164330058Y-53667767D01*
X164416996Y-53783904D01*
X164533133Y-53870842D01*
X164669058Y-53921540D01*
X164729145Y-53928000D01*
X165775654Y-53927999D01*
X165835742Y-53921540D01*
X165971667Y-53870842D01*
X166087804Y-53783904D01*
X166174742Y-53667767D01*
X166225440Y-53531842D01*
X166231484Y-53475617D01*
X166258653Y-53410026D01*
X166273361Y-53395565D01*
X166277359Y-53391221D01*
X166277362Y-53391220D01*
X166313415Y-53352054D01*
X166316950Y-53348370D01*
X166515206Y-53150115D01*
X166577517Y-53116091D01*
X166648333Y-53121156D01*
X166705168Y-53163703D01*
X166729979Y-53230224D01*
X166730300Y-53239212D01*
X166730300Y-54445387D01*
X166710298Y-54513508D01*
X166693395Y-54534482D01*
X166485282Y-54742595D01*
X166422970Y-54776621D01*
X166396187Y-54779500D01*
X166336921Y-54779500D01*
X166268800Y-54759498D01*
X166222307Y-54705842D01*
X166218876Y-54697560D01*
X166174742Y-54579233D01*
X166087804Y-54463096D01*
X165971667Y-54376158D01*
X165971665Y-54376157D01*
X165971666Y-54376157D01*
X165835749Y-54325462D01*
X165835744Y-54325460D01*
X165835742Y-54325460D01*
X165805698Y-54322230D01*
X165775656Y-54319000D01*
X164729153Y-54319000D01*
X164729129Y-54319002D01*
X164669060Y-54325459D01*
X164669058Y-54325459D01*
X164533133Y-54376157D01*
X164416996Y-54463096D01*
X164330057Y-54579234D01*
X164279362Y-54715150D01*
X164279360Y-54715158D01*
X164272900Y-54775237D01*
X164272900Y-55546746D01*
X164272902Y-55546770D01*
X164279359Y-55606839D01*
X164279359Y-55606841D01*
X164330057Y-55742766D01*
X164330058Y-55742767D01*
X164416996Y-55858904D01*
X164533133Y-55945842D01*
X164669058Y-55996540D01*
X164729145Y-56003000D01*
X165775654Y-56002999D01*
X165835742Y-55996540D01*
X165971667Y-55945842D01*
X166087804Y-55858904D01*
X166174742Y-55742767D01*
X166218867Y-55624466D01*
X166261414Y-55567631D01*
X166327934Y-55542821D01*
X166336922Y-55542500D01*
X166553766Y-55542500D01*
X166579624Y-55545181D01*
X166590417Y-55547445D01*
X166622321Y-55543467D01*
X166637908Y-55542500D01*
X166638011Y-55542500D01*
X166658839Y-55539024D01*
X166663952Y-55538278D01*
X166716760Y-55531696D01*
X166716761Y-55531695D01*
X166716763Y-55531695D01*
X166724411Y-55529417D01*
X166731980Y-55526818D01*
X166731986Y-55526818D01*
X166778760Y-55501503D01*
X166783362Y-55499135D01*
X166831146Y-55475776D01*
X166831151Y-55475770D01*
X166837665Y-55471120D01*
X166843958Y-55466222D01*
X166843957Y-55466222D01*
X166843962Y-55466220D01*
X166880015Y-55427054D01*
X166883550Y-55423370D01*
X167322307Y-54984614D01*
X167384617Y-54950591D01*
X167455433Y-54955656D01*
X167500495Y-54984617D01*
X167858616Y-55342738D01*
X167875002Y-55362915D01*
X167881037Y-55372152D01*
X167881042Y-55372158D01*
X167906416Y-55391907D01*
X167918120Y-55402243D01*
X167918184Y-55402307D01*
X167918188Y-55402310D01*
X167918191Y-55402313D01*
X167934411Y-55413893D01*
X167935374Y-55414581D01*
X167939552Y-55417697D01*
X167949167Y-55425181D01*
X167981515Y-55450358D01*
X167981516Y-55450358D01*
X167988555Y-55454168D01*
X167995727Y-55457673D01*
X167995730Y-55457675D01*
X168046705Y-55472850D01*
X168051614Y-55474422D01*
X168101939Y-55491700D01*
X168101944Y-55491700D01*
X168109850Y-55493019D01*
X168117756Y-55494005D01*
X168117757Y-55494004D01*
X168117758Y-55494005D01*
X168170873Y-55491807D01*
X168176080Y-55491700D01*
X168435079Y-55491700D01*
X168503200Y-55511702D01*
X168549693Y-55565358D01*
X168553123Y-55573639D01*
X168597258Y-55691967D01*
X168684196Y-55808104D01*
X168800333Y-55895042D01*
X168936258Y-55945740D01*
X168996345Y-55952200D01*
X170042854Y-55952199D01*
X170102942Y-55945740D01*
X170238867Y-55895042D01*
X170355004Y-55808104D01*
X170441942Y-55691967D01*
X170492640Y-55556042D01*
X170499100Y-55495955D01*
X170499099Y-54724446D01*
X170492640Y-54664358D01*
X170441942Y-54528433D01*
X170355004Y-54412296D01*
X170238867Y-54325358D01*
X170238865Y-54325357D01*
X170238866Y-54325357D01*
X170102949Y-54274662D01*
X170102944Y-54274660D01*
X170102942Y-54274660D01*
X170072898Y-54271430D01*
X170042856Y-54268200D01*
X168996353Y-54268200D01*
X168996329Y-54268202D01*
X168936260Y-54274659D01*
X168936258Y-54274659D01*
X168800333Y-54325357D01*
X168684196Y-54412296D01*
X168597258Y-54528433D01*
X168553133Y-54646734D01*
X168510586Y-54703569D01*
X168444066Y-54728379D01*
X168435078Y-54728700D01*
X168375813Y-54728700D01*
X168307692Y-54708698D01*
X168286717Y-54691795D01*
X168180204Y-54585281D01*
X168146179Y-54522969D01*
X168143300Y-54496186D01*
X168143300Y-53317050D01*
X168163302Y-53248929D01*
X168216958Y-53202436D01*
X168287232Y-53192332D01*
X168351812Y-53221826D01*
X168358381Y-53227941D01*
X168447490Y-53317050D01*
X168507309Y-53376869D01*
X168541334Y-53439181D01*
X168543491Y-53452497D01*
X168546559Y-53481039D01*
X168546559Y-53481041D01*
X168597257Y-53616966D01*
X168608718Y-53632276D01*
X168684196Y-53733104D01*
X168800333Y-53820042D01*
X168936258Y-53870740D01*
X168996345Y-53877200D01*
X170042854Y-53877199D01*
X170102942Y-53870740D01*
X170238867Y-53820042D01*
X170355004Y-53733104D01*
X170441942Y-53616967D01*
X170492640Y-53481042D01*
X170499100Y-53420955D01*
X170499099Y-52649446D01*
X170493641Y-52598666D01*
X170506248Y-52528798D01*
X170554627Y-52476837D01*
X170618919Y-52459200D01*
X173356000Y-52459200D01*
X173424121Y-52479202D01*
X173470614Y-52532858D01*
X173482000Y-52585200D01*
X173482000Y-62358000D01*
X173461998Y-62426121D01*
X173408342Y-62472614D01*
X173356000Y-62484000D01*
X171531711Y-62484000D01*
X171463590Y-62463998D01*
X171417097Y-62410342D01*
X171406993Y-62340068D01*
X171436487Y-62275488D01*
X171442599Y-62268921D01*
X171936546Y-61774974D01*
X171956718Y-61758594D01*
X171965956Y-61752560D01*
X171985710Y-61727178D01*
X171996056Y-61715465D01*
X171996113Y-61715409D01*
X172008400Y-61698197D01*
X172011466Y-61694086D01*
X172044158Y-61652085D01*
X172044159Y-61652079D01*
X172047957Y-61645064D01*
X172051470Y-61637876D01*
X172051475Y-61637870D01*
X172066656Y-61586873D01*
X172068221Y-61581989D01*
X172085500Y-61531661D01*
X172085500Y-61531655D01*
X172086819Y-61523749D01*
X172087805Y-61515843D01*
X172085608Y-61462727D01*
X172085500Y-61457519D01*
X172085500Y-60435530D01*
X172105502Y-60367409D01*
X172127947Y-60341218D01*
X172197498Y-60279601D01*
X172287787Y-60148795D01*
X172344149Y-60000182D01*
X172344149Y-60000181D01*
X172344150Y-60000179D01*
X172363307Y-59842403D01*
X172363307Y-59842396D01*
X172344150Y-59684620D01*
X172309706Y-59593801D01*
X172287787Y-59536005D01*
X172197498Y-59405199D01*
X172078529Y-59299801D01*
X172078528Y-59299800D01*
X172078525Y-59299798D01*
X171937797Y-59225939D01*
X171937795Y-59225938D01*
X171937793Y-59225937D01*
X171937791Y-59225936D01*
X171937790Y-59225936D01*
X171783472Y-59187900D01*
X171783471Y-59187900D01*
X171624529Y-59187900D01*
X171624527Y-59187900D01*
X171470209Y-59225936D01*
X171470202Y-59225939D01*
X171329474Y-59299798D01*
X171329469Y-59299802D01*
X171228623Y-59389145D01*
X171218195Y-59398384D01*
X171210501Y-59405200D01*
X171120215Y-59536001D01*
X171120212Y-59536007D01*
X171063849Y-59684620D01*
X171044693Y-59842396D01*
X171044693Y-59842403D01*
X171063849Y-60000179D01*
X171120212Y-60148792D01*
X171120215Y-60148798D01*
X171210501Y-60279600D01*
X171210503Y-60279602D01*
X171280053Y-60341218D01*
X171317779Y-60401362D01*
X171322500Y-60435530D01*
X171322500Y-61257787D01*
X171302498Y-61325908D01*
X171285595Y-61346882D01*
X170185382Y-62447095D01*
X170123070Y-62481121D01*
X170096287Y-62484000D01*
X147928600Y-62484000D01*
X147860479Y-62463998D01*
X147813986Y-62410342D01*
X147802600Y-62358000D01*
X147802600Y-59285500D01*
X149811091Y-59285500D01*
X149831499Y-59570853D01*
X149892311Y-59850402D01*
X149992288Y-60118451D01*
X150129397Y-60369547D01*
X150236082Y-60512061D01*
X150236083Y-60512062D01*
X151139003Y-59609141D01*
X151162259Y-59663053D01*
X151266956Y-59803685D01*
X151401262Y-59916382D01*
X151492865Y-59962386D01*
X150589636Y-60865615D01*
X150589637Y-60865616D01*
X150732152Y-60972302D01*
X150983249Y-61109411D01*
X150983248Y-61109411D01*
X151251297Y-61209388D01*
X151530846Y-61270200D01*
X151816200Y-61290608D01*
X152101553Y-61270200D01*
X152381102Y-61209388D01*
X152649151Y-61109411D01*
X152900243Y-60972305D01*
X153042761Y-60865615D01*
X153042762Y-60865615D01*
X152142146Y-59964998D01*
X152155091Y-59960287D01*
X152301573Y-59863945D01*
X152421888Y-59736418D01*
X152494647Y-59610394D01*
X153396315Y-60512062D01*
X153396315Y-60512061D01*
X153503005Y-60369543D01*
X153640111Y-60118451D01*
X153740088Y-59850402D01*
X153800900Y-59570853D01*
X153821308Y-59285500D01*
X153800900Y-59000146D01*
X153740088Y-58720597D01*
X153640111Y-58452548D01*
X153503002Y-58201452D01*
X153396316Y-58058937D01*
X153396315Y-58058936D01*
X152493395Y-58961856D01*
X152470141Y-58907947D01*
X152365444Y-58767315D01*
X152231138Y-58654618D01*
X152139533Y-58608612D01*
X153042762Y-57705383D01*
X153042761Y-57705382D01*
X152900247Y-57598697D01*
X152649150Y-57461588D01*
X152649151Y-57461588D01*
X152381102Y-57361611D01*
X152101553Y-57300799D01*
X151816200Y-57280391D01*
X151530846Y-57300799D01*
X151251297Y-57361611D01*
X150983248Y-57461588D01*
X150732160Y-57598692D01*
X150589636Y-57705383D01*
X151490254Y-58606001D01*
X151477309Y-58610713D01*
X151330827Y-58707055D01*
X151210512Y-58834582D01*
X151137752Y-58960605D01*
X150236083Y-58058936D01*
X150129392Y-58201460D01*
X149992288Y-58452548D01*
X149892311Y-58720597D01*
X149831499Y-59000146D01*
X149811091Y-59285500D01*
X147802600Y-59285500D01*
X147802600Y-35203248D01*
X147822602Y-35135127D01*
X147876258Y-35088634D01*
X147928445Y-35077248D01*
X168494500Y-35052500D01*
X168836590Y-35052500D01*
X168904711Y-35072502D01*
G37*
%TD.AperFunction*%
%TA.AperFunction,Conductor*%
G36*
X162858591Y-39150502D02*
G01*
X162905084Y-39204158D01*
X162908525Y-39212467D01*
X162958057Y-39345265D01*
X162958058Y-39345267D01*
X163044996Y-39461404D01*
X163161133Y-39548342D01*
X163297058Y-39599040D01*
X163357145Y-39605500D01*
X164353654Y-39605499D01*
X164413742Y-39599040D01*
X164549667Y-39548342D01*
X164615159Y-39499315D01*
X164681676Y-39474506D01*
X164751050Y-39489597D01*
X164797905Y-39534037D01*
X164819681Y-39569342D01*
X164819688Y-39569350D01*
X164943649Y-39693311D01*
X164943655Y-39693316D01*
X165099124Y-39789210D01*
X165097444Y-39791932D01*
X165139996Y-39829304D01*
X165159542Y-39897557D01*
X165139085Y-39965543D01*
X165109054Y-39997583D01*
X165051596Y-40040595D01*
X164959569Y-40163531D01*
X164902733Y-40206078D01*
X164831917Y-40211144D01*
X164769605Y-40177119D01*
X164757831Y-40163531D01*
X164665804Y-40040596D01*
X164608346Y-39997584D01*
X164549667Y-39953658D01*
X164549665Y-39953657D01*
X164549666Y-39953657D01*
X164413749Y-39902962D01*
X164413744Y-39902960D01*
X164413742Y-39902960D01*
X164383698Y-39899730D01*
X164353656Y-39896500D01*
X163357153Y-39896500D01*
X163357129Y-39896502D01*
X163297060Y-39902959D01*
X163297058Y-39902959D01*
X163161133Y-39953657D01*
X163044996Y-40040596D01*
X162958057Y-40156734D01*
X162907362Y-40292650D01*
X162907360Y-40292658D01*
X162900900Y-40352737D01*
X162900900Y-41149246D01*
X162900902Y-41149270D01*
X162907359Y-41209339D01*
X162907359Y-41209341D01*
X162958057Y-41345266D01*
X162973498Y-41365893D01*
X163044996Y-41461404D01*
X163161133Y-41548342D01*
X163297058Y-41599040D01*
X163357145Y-41605500D01*
X164353654Y-41605499D01*
X164413742Y-41599040D01*
X164549667Y-41548342D01*
X164665804Y-41461404D01*
X164752742Y-41345267D01*
X164752742Y-41345265D01*
X164757831Y-41338468D01*
X164814666Y-41295921D01*
X164885482Y-41290855D01*
X164947795Y-41324880D01*
X164959569Y-41338468D01*
X164964657Y-41345265D01*
X164964658Y-41345267D01*
X165051596Y-41461404D01*
X165167733Y-41548342D01*
X165303658Y-41599040D01*
X165363745Y-41605500D01*
X166360254Y-41605499D01*
X166420342Y-41599040D01*
X166556267Y-41548342D01*
X166556267Y-41548341D01*
X166559918Y-41546980D01*
X166630733Y-41541914D01*
X166693043Y-41575937D01*
X166693046Y-41575940D01*
X167345395Y-42228289D01*
X167379421Y-42290601D01*
X167382300Y-42317384D01*
X167382300Y-43310100D01*
X167362298Y-43378221D01*
X167308642Y-43424714D01*
X167256300Y-43436100D01*
X166912405Y-43436100D01*
X166912399Y-43436101D01*
X166886837Y-43439065D01*
X166886829Y-43439067D01*
X166837692Y-43460764D01*
X166767297Y-43469982D01*
X166735906Y-43460764D01*
X166694510Y-43442486D01*
X166686762Y-43439065D01*
X166686763Y-43439065D01*
X166661204Y-43436100D01*
X166280236Y-43436100D01*
X166212115Y-43416098D01*
X166169422Y-43370069D01*
X166152303Y-43338436D01*
X166149938Y-43333840D01*
X166126577Y-43286054D01*
X166126575Y-43286052D01*
X166121947Y-43279568D01*
X166117020Y-43273238D01*
X166077893Y-43237219D01*
X166074136Y-43233613D01*
X165838780Y-42998257D01*
X165822391Y-42978076D01*
X165816360Y-42968844D01*
X165816359Y-42968843D01*
X165790986Y-42949095D01*
X165779282Y-42938758D01*
X165779217Y-42938693D01*
X165779209Y-42938686D01*
X165761983Y-42926387D01*
X165757872Y-42923321D01*
X165717025Y-42891529D01*
X165715883Y-42890640D01*
X165708864Y-42886842D01*
X165701672Y-42883326D01*
X165701670Y-42883325D01*
X165701667Y-42883324D01*
X165650708Y-42868152D01*
X165645750Y-42866564D01*
X165595464Y-42849301D01*
X165595463Y-42849300D01*
X165595461Y-42849300D01*
X165595458Y-42849300D01*
X165587548Y-42847979D01*
X165579642Y-42846994D01*
X165528775Y-42849099D01*
X165526525Y-42849192D01*
X165521320Y-42849300D01*
X164949434Y-42849300D01*
X164923575Y-42846618D01*
X164912780Y-42844354D01*
X164880879Y-42848332D01*
X164865292Y-42849300D01*
X164865184Y-42849300D01*
X164844361Y-42852774D01*
X164839215Y-42853524D01*
X164786438Y-42860103D01*
X164778800Y-42862377D01*
X164771213Y-42864982D01*
X164724460Y-42890283D01*
X164719835Y-42892664D01*
X164672053Y-42916024D01*
X164665543Y-42920672D01*
X164659233Y-42925584D01*
X164623206Y-42964718D01*
X164619603Y-42968473D01*
X162429055Y-45159020D01*
X162408882Y-45175404D01*
X162399641Y-45181441D01*
X162379890Y-45206817D01*
X162369580Y-45218495D01*
X162369491Y-45218583D01*
X162369488Y-45218587D01*
X162357212Y-45235780D01*
X162354103Y-45239950D01*
X162321442Y-45281913D01*
X162317630Y-45288958D01*
X162314125Y-45296127D01*
X162298949Y-45347100D01*
X162297362Y-45352054D01*
X162280099Y-45402342D01*
X162278784Y-45410218D01*
X162277794Y-45418160D01*
X162279992Y-45471272D01*
X162280100Y-45476480D01*
X162280100Y-50411985D01*
X162260098Y-50480106D01*
X162243195Y-50501080D01*
X161975394Y-50768881D01*
X161913082Y-50802907D01*
X161842267Y-50797842D01*
X161785431Y-50755295D01*
X161760620Y-50688775D01*
X161760299Y-50679786D01*
X161760299Y-49543136D01*
X161760298Y-49543127D01*
X161745534Y-49468899D01*
X161723686Y-49436202D01*
X161689284Y-49384716D01*
X161689283Y-49384715D01*
X161605102Y-49328466D01*
X161530869Y-49313700D01*
X161250327Y-49313700D01*
X161182206Y-49293698D01*
X161135713Y-49240042D01*
X161125609Y-49169768D01*
X161155103Y-49105188D01*
X161197077Y-49073505D01*
X161358282Y-48998334D01*
X161358283Y-48998333D01*
X161431271Y-48947225D01*
X161431271Y-48947223D01*
X160750201Y-48266153D01*
X160830948Y-48253365D01*
X160943845Y-48195841D01*
X161033441Y-48106245D01*
X161090965Y-47993348D01*
X161103753Y-47912601D01*
X161784823Y-48593671D01*
X161784825Y-48593671D01*
X161835933Y-48520683D01*
X161835934Y-48520682D01*
X161932065Y-48314528D01*
X161932067Y-48314523D01*
X161990940Y-48094802D01*
X162010765Y-47868200D01*
X161990940Y-47641597D01*
X161932067Y-47421876D01*
X161932065Y-47421871D01*
X161835934Y-47215717D01*
X161784824Y-47142727D01*
X161103753Y-47823798D01*
X161090965Y-47743052D01*
X161033441Y-47630155D01*
X160943845Y-47540559D01*
X160830948Y-47483035D01*
X160750200Y-47470246D01*
X161431271Y-46789174D01*
X161431271Y-46789173D01*
X161358281Y-46738065D01*
X161358282Y-46738065D01*
X161152128Y-46641934D01*
X161152123Y-46641932D01*
X160932402Y-46583059D01*
X160705800Y-46563234D01*
X160479197Y-46583059D01*
X160259476Y-46641932D01*
X160259471Y-46641934D01*
X160053313Y-46738067D01*
X159980327Y-46789172D01*
X159980327Y-46789175D01*
X160661398Y-47470246D01*
X160580652Y-47483035D01*
X160467755Y-47540559D01*
X160378159Y-47630155D01*
X160320635Y-47743052D01*
X160307846Y-47823798D01*
X159626775Y-47142727D01*
X159626772Y-47142727D01*
X159575667Y-47215713D01*
X159479534Y-47421871D01*
X159479532Y-47421876D01*
X159420659Y-47641597D01*
X159400834Y-47868200D01*
X159420659Y-48094802D01*
X159479532Y-48314523D01*
X159479534Y-48314528D01*
X159575665Y-48520682D01*
X159626774Y-48593671D01*
X160307846Y-47912599D01*
X160320635Y-47993348D01*
X160378159Y-48106245D01*
X160467755Y-48195841D01*
X160580652Y-48253365D01*
X160661399Y-48266153D01*
X159980327Y-48947224D01*
X159980327Y-48947225D01*
X160053318Y-48998334D01*
X160053317Y-48998334D01*
X160214523Y-49073505D01*
X160267808Y-49120422D01*
X160287269Y-49188699D01*
X160266727Y-49256659D01*
X160212705Y-49302725D01*
X160161273Y-49313700D01*
X159880736Y-49313700D01*
X159880726Y-49313701D01*
X159806499Y-49328465D01*
X159722317Y-49384715D01*
X159722316Y-49384716D01*
X159698192Y-49420821D01*
X159696934Y-49422703D01*
X159642456Y-49468230D01*
X159592169Y-49478700D01*
X158876500Y-49478700D01*
X158808379Y-49458698D01*
X158761886Y-49405042D01*
X158750500Y-49352700D01*
X158750500Y-46871818D01*
X158770502Y-46803697D01*
X158787405Y-46782723D01*
X159177723Y-46392405D01*
X159240035Y-46358379D01*
X159266818Y-46355500D01*
X160104184Y-46355500D01*
X160130965Y-46358378D01*
X160135751Y-46359420D01*
X160135751Y-46359419D01*
X160135752Y-46359420D01*
X160166244Y-46357239D01*
X160186074Y-46355820D01*
X160195062Y-46355500D01*
X160208766Y-46355500D01*
X160208768Y-46355500D01*
X160222353Y-46353546D01*
X160231253Y-46352589D01*
X160281601Y-46348989D01*
X160286194Y-46347275D01*
X160312293Y-46340614D01*
X160317134Y-46339919D01*
X160363033Y-46318957D01*
X160371314Y-46315526D01*
X160418604Y-46297889D01*
X160422517Y-46294958D01*
X160445699Y-46281204D01*
X160450143Y-46279176D01*
X160488291Y-46246119D01*
X160495261Y-46240503D01*
X160506248Y-46232280D01*
X160515951Y-46222575D01*
X160522518Y-46216461D01*
X160560650Y-46183421D01*
X160563294Y-46179305D01*
X160580195Y-46158331D01*
X162261731Y-44476795D01*
X162282705Y-44459894D01*
X162286821Y-44457250D01*
X162319861Y-44419118D01*
X162325979Y-44412548D01*
X162335680Y-44402848D01*
X162343903Y-44391861D01*
X162349519Y-44384891D01*
X162382576Y-44346743D01*
X162384608Y-44342292D01*
X162398357Y-44319120D01*
X162401289Y-44315204D01*
X162418926Y-44267916D01*
X162422356Y-44259635D01*
X162443319Y-44213734D01*
X162444015Y-44208891D01*
X162450675Y-44182793D01*
X162452389Y-44178200D01*
X162455988Y-44127870D01*
X162456948Y-44118941D01*
X162458900Y-44105368D01*
X162458900Y-44091661D01*
X162459221Y-44082672D01*
X162462820Y-44032351D01*
X162461778Y-44027562D01*
X162458900Y-44000783D01*
X162458900Y-43162069D01*
X162478902Y-43093948D01*
X162495800Y-43072978D01*
X162563694Y-43005085D01*
X162657149Y-42856352D01*
X162715165Y-42690553D01*
X162729900Y-42559774D01*
X162729900Y-42022226D01*
X162715165Y-41891447D01*
X162657149Y-41725648D01*
X162609761Y-41650230D01*
X162563694Y-41576914D01*
X162439485Y-41452705D01*
X162290754Y-41359252D01*
X162290752Y-41359251D01*
X162124951Y-41301234D01*
X161950400Y-41281568D01*
X161775848Y-41301234D01*
X161610050Y-41359250D01*
X161610048Y-41359250D01*
X161610048Y-41359251D01*
X161601239Y-41364786D01*
X161582865Y-41376331D01*
X161514543Y-41395635D01*
X161446630Y-41374938D01*
X161418432Y-41349576D01*
X161408692Y-41337708D01*
X161252612Y-41209618D01*
X161074550Y-41114441D01*
X161074548Y-41114440D01*
X160930400Y-41070713D01*
X160930400Y-42010382D01*
X160861348Y-41956637D01*
X160742976Y-41916000D01*
X160649327Y-41916000D01*
X160556954Y-41931414D01*
X160446886Y-41990981D01*
X160430400Y-42008889D01*
X160430400Y-41070713D01*
X160286251Y-41114440D01*
X160286249Y-41114441D01*
X160108185Y-41209619D01*
X160108177Y-41209625D01*
X160049057Y-41258143D01*
X159983710Y-41285896D01*
X159966656Y-41286048D01*
X159966656Y-41286500D01*
X159890500Y-41286500D01*
X159822379Y-41266498D01*
X159775886Y-41212842D01*
X159764500Y-41160500D01*
X159764500Y-39884184D01*
X159784502Y-39816063D01*
X159801405Y-39795089D01*
X160429089Y-39167405D01*
X160491401Y-39133379D01*
X160518184Y-39130500D01*
X162790470Y-39130500D01*
X162858591Y-39150502D01*
G37*
%TD.AperFunction*%
%TD*%
%TA.AperFunction,Conductor*%
%TO.N,GND*%
G36*
X193743621Y-43454002D02*
G01*
X193790114Y-43507658D01*
X193801500Y-43560000D01*
X193801500Y-91313500D01*
X193781498Y-91381621D01*
X193727842Y-91428114D01*
X193675500Y-91439500D01*
X142416800Y-91439500D01*
X142348679Y-91419498D01*
X142302186Y-91365842D01*
X142290800Y-91313500D01*
X142290800Y-88067200D01*
X146831201Y-88067200D01*
X146831201Y-88217178D01*
X146841693Y-88319891D01*
X146896842Y-88486322D01*
X146988883Y-88635544D01*
X146988888Y-88635550D01*
X147112849Y-88759511D01*
X147112855Y-88759516D01*
X147262077Y-88851557D01*
X147428508Y-88906706D01*
X147531212Y-88917199D01*
X147781200Y-88917199D01*
X147781200Y-88067200D01*
X148281200Y-88067200D01*
X148281200Y-88917199D01*
X148531178Y-88917199D01*
X148633891Y-88906706D01*
X148800322Y-88851557D01*
X148949544Y-88759516D01*
X148949550Y-88759511D01*
X149073511Y-88635550D01*
X149073516Y-88635544D01*
X149165557Y-88486322D01*
X149220706Y-88319891D01*
X149231199Y-88217187D01*
X149231200Y-88217187D01*
X149231200Y-88067200D01*
X148281200Y-88067200D01*
X147781200Y-88067200D01*
X146831201Y-88067200D01*
X142290800Y-88067200D01*
X142290800Y-87657300D01*
X149887291Y-87657300D01*
X149907699Y-87942653D01*
X149968511Y-88222202D01*
X150068488Y-88490251D01*
X150205597Y-88741347D01*
X150312282Y-88883861D01*
X150312283Y-88883862D01*
X151215203Y-87980941D01*
X151238459Y-88034853D01*
X151343156Y-88175485D01*
X151477462Y-88288182D01*
X151569065Y-88334186D01*
X150665836Y-89237415D01*
X150665837Y-89237416D01*
X150808352Y-89344102D01*
X151059449Y-89481211D01*
X151059448Y-89481211D01*
X151327497Y-89581188D01*
X151607046Y-89642000D01*
X151892400Y-89662408D01*
X152177753Y-89642000D01*
X152457302Y-89581188D01*
X152725351Y-89481211D01*
X152838435Y-89419463D01*
X160668100Y-89419463D01*
X160668101Y-89419473D01*
X160682865Y-89493700D01*
X160739116Y-89577884D01*
X160823297Y-89634133D01*
X160823299Y-89634134D01*
X160897533Y-89648900D01*
X162647666Y-89648899D01*
X162647669Y-89648898D01*
X162647673Y-89648898D01*
X162696926Y-89639101D01*
X162721901Y-89634134D01*
X162806084Y-89577884D01*
X162862334Y-89493701D01*
X162877100Y-89419467D01*
X162877099Y-89228679D01*
X162897101Y-89160562D01*
X162950756Y-89114069D01*
X163021030Y-89103964D01*
X163085611Y-89133457D01*
X163117293Y-89175431D01*
X163138995Y-89221971D01*
X163139000Y-89221979D01*
X163274486Y-89415473D01*
X163274493Y-89415482D01*
X163441517Y-89582506D01*
X163441526Y-89582513D01*
X163635020Y-89717999D01*
X163635022Y-89718000D01*
X163849106Y-89817829D01*
X163849110Y-89817831D01*
X164062600Y-89875035D01*
X164062600Y-88979901D01*
X164170285Y-89029080D01*
X164276837Y-89044400D01*
X164348363Y-89044400D01*
X164454915Y-89029080D01*
X164562600Y-88979901D01*
X164562600Y-89875034D01*
X164776089Y-89817831D01*
X164776093Y-89817829D01*
X164990177Y-89718000D01*
X164990179Y-89717999D01*
X165183673Y-89582513D01*
X165183682Y-89582506D01*
X165350706Y-89415482D01*
X165350713Y-89415473D01*
X165486199Y-89221979D01*
X165486200Y-89221977D01*
X165586029Y-89007893D01*
X165586031Y-89007887D01*
X165592075Y-88985331D01*
X165629024Y-88924706D01*
X165692884Y-88893682D01*
X165763378Y-88902108D01*
X165818127Y-88947309D01*
X165826573Y-88961774D01*
X165909508Y-89128330D01*
X165909512Y-89128335D01*
X166032866Y-89291684D01*
X166184136Y-89429585D01*
X166358166Y-89537340D01*
X166358168Y-89537340D01*
X166358173Y-89537344D01*
X166549044Y-89611288D01*
X166750253Y-89648900D01*
X166750255Y-89648900D01*
X166954945Y-89648900D01*
X166954947Y-89648900D01*
X167156156Y-89611288D01*
X167347027Y-89537344D01*
X167521062Y-89429586D01*
X167672332Y-89291685D01*
X167795688Y-89128335D01*
X167886928Y-88945101D01*
X167942945Y-88748221D01*
X167953386Y-88635544D01*
X167961832Y-88544404D01*
X168283368Y-88544404D01*
X168302254Y-88748219D01*
X168338383Y-88875198D01*
X168358272Y-88945101D01*
X168449512Y-89128335D01*
X168449513Y-89128336D01*
X168572866Y-89291684D01*
X168724136Y-89429585D01*
X168898166Y-89537340D01*
X168898168Y-89537340D01*
X168898173Y-89537344D01*
X169089044Y-89611288D01*
X169290253Y-89648900D01*
X169290255Y-89648900D01*
X169494945Y-89648900D01*
X169494947Y-89648900D01*
X169696156Y-89611288D01*
X169887027Y-89537344D01*
X170061062Y-89429586D01*
X170212332Y-89291685D01*
X170335688Y-89128335D01*
X170426928Y-88945101D01*
X170482945Y-88748221D01*
X170493386Y-88635544D01*
X170501832Y-88544404D01*
X170823368Y-88544404D01*
X170842254Y-88748219D01*
X170878383Y-88875198D01*
X170898272Y-88945101D01*
X170989512Y-89128335D01*
X170989513Y-89128336D01*
X171112866Y-89291684D01*
X171264136Y-89429585D01*
X171438166Y-89537340D01*
X171438168Y-89537340D01*
X171438173Y-89537344D01*
X171629044Y-89611288D01*
X171830253Y-89648900D01*
X171830255Y-89648900D01*
X172034945Y-89648900D01*
X172034947Y-89648900D01*
X172236156Y-89611288D01*
X172427027Y-89537344D01*
X172601062Y-89429586D01*
X172752332Y-89291685D01*
X172875688Y-89128335D01*
X172966928Y-88945101D01*
X173022945Y-88748221D01*
X173033386Y-88635544D01*
X173041832Y-88544404D01*
X173041832Y-88544395D01*
X173022945Y-88340580D01*
X173020529Y-88332087D01*
X172966928Y-88143699D01*
X172875688Y-87960465D01*
X172835138Y-87906768D01*
X172752333Y-87797115D01*
X172601063Y-87659214D01*
X172427033Y-87551459D01*
X172427028Y-87551457D01*
X172427027Y-87551456D01*
X172361775Y-87526177D01*
X172236159Y-87477513D01*
X172236160Y-87477513D01*
X172236157Y-87477512D01*
X172236156Y-87477512D01*
X172034947Y-87439900D01*
X171830253Y-87439900D01*
X171629044Y-87477512D01*
X171629039Y-87477513D01*
X171438177Y-87551454D01*
X171438166Y-87551459D01*
X171264136Y-87659214D01*
X171112866Y-87797115D01*
X170989513Y-87960463D01*
X170898271Y-88143701D01*
X170842254Y-88340580D01*
X170823368Y-88544395D01*
X170823368Y-88544404D01*
X170501832Y-88544404D01*
X170501832Y-88544395D01*
X170482945Y-88340580D01*
X170480529Y-88332087D01*
X170426928Y-88143699D01*
X170335688Y-87960465D01*
X170295138Y-87906768D01*
X170212333Y-87797115D01*
X170061063Y-87659214D01*
X169887033Y-87551459D01*
X169887028Y-87551457D01*
X169887027Y-87551456D01*
X169821775Y-87526177D01*
X169696159Y-87477513D01*
X169696160Y-87477513D01*
X169696157Y-87477512D01*
X169696156Y-87477512D01*
X169494947Y-87439900D01*
X169290253Y-87439900D01*
X169089044Y-87477512D01*
X169089039Y-87477513D01*
X168898177Y-87551454D01*
X168898166Y-87551459D01*
X168724136Y-87659214D01*
X168572866Y-87797115D01*
X168449513Y-87960463D01*
X168358271Y-88143701D01*
X168302254Y-88340580D01*
X168283368Y-88544395D01*
X168283368Y-88544404D01*
X167961832Y-88544404D01*
X167961832Y-88544395D01*
X167942945Y-88340580D01*
X167940529Y-88332087D01*
X167886928Y-88143699D01*
X167795688Y-87960465D01*
X167755138Y-87906768D01*
X167672333Y-87797115D01*
X167521063Y-87659214D01*
X167347033Y-87551459D01*
X167347028Y-87551457D01*
X167347027Y-87551456D01*
X167281775Y-87526177D01*
X167156159Y-87477513D01*
X167156160Y-87477513D01*
X167156157Y-87477512D01*
X167156156Y-87477512D01*
X166954947Y-87439900D01*
X166750253Y-87439900D01*
X166549044Y-87477512D01*
X166549039Y-87477513D01*
X166358177Y-87551454D01*
X166358166Y-87551459D01*
X166184136Y-87659214D01*
X166032866Y-87797115D01*
X165909512Y-87960464D01*
X165909511Y-87960465D01*
X165826573Y-88127026D01*
X165778304Y-88179089D01*
X165709549Y-88196791D01*
X165642139Y-88174511D01*
X165597475Y-88119324D01*
X165592075Y-88103470D01*
X165586030Y-88080907D01*
X165586029Y-88080906D01*
X165486199Y-87866821D01*
X165350712Y-87673325D01*
X165183676Y-87506288D01*
X165183673Y-87506286D01*
X164990179Y-87370800D01*
X164990177Y-87370799D01*
X164776093Y-87270970D01*
X164776088Y-87270968D01*
X164562600Y-87213764D01*
X164562600Y-88108898D01*
X164454915Y-88059720D01*
X164348363Y-88044400D01*
X164276837Y-88044400D01*
X164170285Y-88059720D01*
X164062600Y-88108898D01*
X164062600Y-87213764D01*
X163849111Y-87270968D01*
X163849106Y-87270970D01*
X163635021Y-87370800D01*
X163441525Y-87506287D01*
X163441519Y-87506292D01*
X163274492Y-87673319D01*
X163274487Y-87673325D01*
X163139000Y-87866821D01*
X163117294Y-87913370D01*
X163070376Y-87966655D01*
X163002099Y-87986116D01*
X162934139Y-87965574D01*
X162888073Y-87911551D01*
X162877099Y-87860120D01*
X162877099Y-87669336D01*
X162877098Y-87669326D01*
X162862334Y-87595099D01*
X162806083Y-87510915D01*
X162721902Y-87454666D01*
X162647667Y-87439900D01*
X160897536Y-87439900D01*
X160897526Y-87439901D01*
X160823299Y-87454665D01*
X160739115Y-87510916D01*
X160682866Y-87595097D01*
X160668100Y-87669330D01*
X160668100Y-89419463D01*
X152838435Y-89419463D01*
X152976443Y-89344105D01*
X153118961Y-89237415D01*
X153118962Y-89237415D01*
X152218346Y-88336798D01*
X152231291Y-88332087D01*
X152377773Y-88235745D01*
X152498088Y-88108218D01*
X152570847Y-87982194D01*
X153472515Y-88883862D01*
X153472515Y-88883861D01*
X153579205Y-88741343D01*
X153716311Y-88490251D01*
X153816288Y-88222202D01*
X153877100Y-87942653D01*
X153897508Y-87657300D01*
X153877100Y-87371946D01*
X153816288Y-87092397D01*
X153716311Y-86824348D01*
X153579202Y-86573252D01*
X153472516Y-86430737D01*
X153472515Y-86430736D01*
X152569595Y-87333656D01*
X152546341Y-87279747D01*
X152441644Y-87139115D01*
X152307338Y-87026418D01*
X152215733Y-86980412D01*
X153118962Y-86077183D01*
X153118961Y-86077182D01*
X152976447Y-85970497D01*
X152725350Y-85833388D01*
X152725351Y-85833388D01*
X152457302Y-85733411D01*
X152177753Y-85672599D01*
X151892400Y-85652191D01*
X151607046Y-85672599D01*
X151327497Y-85733411D01*
X151059448Y-85833388D01*
X150808360Y-85970492D01*
X150665836Y-86077183D01*
X151566454Y-86977801D01*
X151553509Y-86982513D01*
X151407027Y-87078855D01*
X151286712Y-87206382D01*
X151213952Y-87332405D01*
X150312283Y-86430736D01*
X150205592Y-86573260D01*
X150068488Y-86824348D01*
X149968511Y-87092397D01*
X149907699Y-87371946D01*
X149887291Y-87657300D01*
X142290800Y-87657300D01*
X142290800Y-87567200D01*
X146831200Y-87567200D01*
X149231199Y-87567200D01*
X149231199Y-87417221D01*
X149220706Y-87314508D01*
X149165557Y-87148077D01*
X149073516Y-86998855D01*
X149073511Y-86998849D01*
X148949550Y-86874888D01*
X148949544Y-86874883D01*
X148794076Y-86778990D01*
X148795746Y-86776281D01*
X148753151Y-86738812D01*
X148733658Y-86670544D01*
X148754167Y-86602575D01*
X148784147Y-86570615D01*
X148841604Y-86527604D01*
X148928542Y-86411467D01*
X148979240Y-86275542D01*
X148985700Y-86215455D01*
X148985699Y-85418946D01*
X148980374Y-85369403D01*
X163500893Y-85369403D01*
X163520049Y-85527179D01*
X163559703Y-85631736D01*
X163576413Y-85675795D01*
X163666702Y-85806601D01*
X163785671Y-85911999D01*
X163785672Y-85911999D01*
X163785674Y-85912001D01*
X163860400Y-85951220D01*
X163926407Y-85985863D01*
X164080729Y-86023900D01*
X164080730Y-86023900D01*
X164239670Y-86023900D01*
X164239671Y-86023900D01*
X164393993Y-85985863D01*
X164534729Y-85911999D01*
X164653698Y-85806601D01*
X164654584Y-85805318D01*
X164655471Y-85804598D01*
X164658754Y-85800894D01*
X164659370Y-85801439D01*
X164709745Y-85760621D01*
X164758276Y-85750900D01*
X180541366Y-85750900D01*
X180567224Y-85753581D01*
X180578017Y-85755845D01*
X180609921Y-85751867D01*
X180625508Y-85750900D01*
X180625611Y-85750900D01*
X180646439Y-85747424D01*
X180651552Y-85746678D01*
X180704360Y-85740096D01*
X180704361Y-85740095D01*
X180704363Y-85740095D01*
X180712011Y-85737817D01*
X180719584Y-85735218D01*
X180719586Y-85735218D01*
X180766362Y-85709903D01*
X180770989Y-85707522D01*
X180818746Y-85684176D01*
X180825260Y-85679525D01*
X180831558Y-85674622D01*
X180831557Y-85674622D01*
X180831562Y-85674620D01*
X180867626Y-85635443D01*
X180871161Y-85631760D01*
X181512345Y-84990576D01*
X181532521Y-84974193D01*
X181541756Y-84968160D01*
X181561504Y-84942786D01*
X181571842Y-84931080D01*
X181571914Y-84931009D01*
X181584191Y-84913811D01*
X181587298Y-84909645D01*
X181592470Y-84903000D01*
X181619958Y-84867685D01*
X181619959Y-84867679D01*
X181623750Y-84860676D01*
X181627271Y-84853473D01*
X181627275Y-84853469D01*
X181642451Y-84802489D01*
X181644017Y-84797602D01*
X181661300Y-84747261D01*
X181661300Y-84747254D01*
X181662619Y-84739352D01*
X181663605Y-84731442D01*
X181661408Y-84678326D01*
X181661300Y-84673118D01*
X181661300Y-79456604D01*
X181681302Y-79388483D01*
X181734958Y-79341990D01*
X181741783Y-79339113D01*
X181746798Y-79337169D01*
X181774227Y-79326544D01*
X181948262Y-79218786D01*
X182099532Y-79080885D01*
X182222888Y-78917535D01*
X182314128Y-78734301D01*
X182370145Y-78537421D01*
X182380265Y-78428212D01*
X182389032Y-78333604D01*
X182389032Y-78333595D01*
X182370145Y-78129780D01*
X182370145Y-78129779D01*
X182314128Y-77932899D01*
X182222888Y-77749665D01*
X182162124Y-77669200D01*
X182099533Y-77586315D01*
X181948263Y-77448414D01*
X181774233Y-77340659D01*
X181774228Y-77340657D01*
X181774227Y-77340656D01*
X181734354Y-77325209D01*
X181583359Y-77266713D01*
X181583360Y-77266713D01*
X181583357Y-77266712D01*
X181583356Y-77266712D01*
X181382147Y-77229100D01*
X181177453Y-77229100D01*
X180976244Y-77266712D01*
X180976239Y-77266713D01*
X180785377Y-77340654D01*
X180785366Y-77340659D01*
X180611336Y-77448414D01*
X180460066Y-77586315D01*
X180336713Y-77749663D01*
X180245471Y-77932901D01*
X180189454Y-78129780D01*
X180170568Y-78333595D01*
X180170568Y-78333604D01*
X180189454Y-78537419D01*
X180231893Y-78686575D01*
X180245472Y-78734301D01*
X180336712Y-78917535D01*
X180336713Y-78917536D01*
X180460066Y-79080884D01*
X180611336Y-79218785D01*
X180785366Y-79326540D01*
X180785368Y-79326540D01*
X180785373Y-79326544D01*
X180810106Y-79336125D01*
X180817817Y-79339113D01*
X180874112Y-79382372D01*
X180898082Y-79449200D01*
X180898300Y-79456604D01*
X180898300Y-84473387D01*
X180878298Y-84541508D01*
X180861395Y-84562482D01*
X180472882Y-84950995D01*
X180410570Y-84985021D01*
X180383787Y-84987900D01*
X164758276Y-84987900D01*
X164690155Y-84967898D01*
X164658964Y-84937719D01*
X164658754Y-84937906D01*
X164656338Y-84935179D01*
X164654584Y-84933482D01*
X164653699Y-84932201D01*
X164653698Y-84932199D01*
X164534729Y-84826801D01*
X164534728Y-84826800D01*
X164534725Y-84826798D01*
X164393997Y-84752939D01*
X164393995Y-84752938D01*
X164393993Y-84752937D01*
X164393991Y-84752936D01*
X164393990Y-84752936D01*
X164239672Y-84714900D01*
X164239671Y-84714900D01*
X164080729Y-84714900D01*
X164080727Y-84714900D01*
X163926409Y-84752936D01*
X163926402Y-84752939D01*
X163785674Y-84826798D01*
X163785669Y-84826802D01*
X163699661Y-84903000D01*
X163668048Y-84931007D01*
X163666701Y-84932200D01*
X163576415Y-85063001D01*
X163576412Y-85063007D01*
X163520049Y-85211620D01*
X163500893Y-85369396D01*
X163500893Y-85369403D01*
X148980374Y-85369403D01*
X148979240Y-85358858D01*
X148928542Y-85222933D01*
X148841604Y-85106796D01*
X148749659Y-85037967D01*
X148707113Y-84981134D01*
X148702047Y-84910318D01*
X148736072Y-84848005D01*
X148798384Y-84813980D01*
X148825168Y-84811100D01*
X153490366Y-84811100D01*
X153516224Y-84813781D01*
X153527017Y-84816045D01*
X153558921Y-84812067D01*
X153574508Y-84811100D01*
X153574611Y-84811100D01*
X153595439Y-84807624D01*
X153600552Y-84806878D01*
X153653360Y-84800296D01*
X153653361Y-84800295D01*
X153653363Y-84800295D01*
X153661011Y-84798017D01*
X153668584Y-84795418D01*
X153668586Y-84795418D01*
X153715362Y-84770103D01*
X153719989Y-84767722D01*
X153750230Y-84752939D01*
X153767746Y-84744376D01*
X153774266Y-84739720D01*
X153780558Y-84734823D01*
X153780559Y-84734821D01*
X153780562Y-84734820D01*
X153816627Y-84695640D01*
X153820163Y-84691957D01*
X154590518Y-83921603D01*
X167336293Y-83921603D01*
X167355449Y-84079379D01*
X167363332Y-84100163D01*
X167411813Y-84227995D01*
X167502102Y-84358801D01*
X167621071Y-84464199D01*
X167621072Y-84464199D01*
X167621074Y-84464201D01*
X167638577Y-84473387D01*
X167761807Y-84538063D01*
X167916129Y-84576100D01*
X167916130Y-84576100D01*
X168075070Y-84576100D01*
X168075071Y-84576100D01*
X168229393Y-84538063D01*
X168370129Y-84464199D01*
X168489098Y-84358801D01*
X168491359Y-84355524D01*
X168493631Y-84353683D01*
X168494151Y-84353097D01*
X168494248Y-84353183D01*
X168546517Y-84310825D01*
X168595056Y-84301100D01*
X177772973Y-84301100D01*
X177798831Y-84303781D01*
X177809500Y-84306019D01*
X177841196Y-84302067D01*
X177856782Y-84301100D01*
X177856836Y-84301100D01*
X177856843Y-84301100D01*
X177877601Y-84297635D01*
X177882650Y-84296899D01*
X177935183Y-84290352D01*
X177935186Y-84290350D01*
X177935188Y-84290350D01*
X177942786Y-84288088D01*
X177950323Y-84285501D01*
X177950323Y-84285500D01*
X177950327Y-84285500D01*
X177996830Y-84260332D01*
X178001421Y-84257969D01*
X178048968Y-84234726D01*
X178048971Y-84234723D01*
X178055418Y-84230120D01*
X178061712Y-84225220D01*
X178061716Y-84225219D01*
X178097530Y-84186313D01*
X178101113Y-84182579D01*
X178971076Y-83312616D01*
X178991253Y-83296231D01*
X179000382Y-83290268D01*
X179020008Y-83265051D01*
X179030343Y-83253350D01*
X179030381Y-83253313D01*
X179042594Y-83236205D01*
X179045671Y-83232079D01*
X179078175Y-83190319D01*
X179078176Y-83190313D01*
X179081958Y-83183327D01*
X179085453Y-83176178D01*
X179100545Y-83125479D01*
X179102110Y-83120594D01*
X179119300Y-83070527D01*
X179119300Y-83070524D01*
X179120609Y-83062678D01*
X179121592Y-83054792D01*
X179119408Y-83001985D01*
X179119300Y-82996777D01*
X179119300Y-79457378D01*
X179139302Y-79389257D01*
X179192958Y-79342764D01*
X179199758Y-79339897D01*
X179234227Y-79326544D01*
X179408262Y-79218786D01*
X179559532Y-79080885D01*
X179682888Y-78917535D01*
X179774128Y-78734301D01*
X179830145Y-78537421D01*
X179840265Y-78428212D01*
X179849032Y-78333604D01*
X179849032Y-78333595D01*
X179830145Y-78129780D01*
X179830145Y-78129779D01*
X179774128Y-77932899D01*
X179682888Y-77749665D01*
X179622124Y-77669200D01*
X179559533Y-77586315D01*
X179408263Y-77448414D01*
X179234233Y-77340659D01*
X179234228Y-77340657D01*
X179234227Y-77340656D01*
X179194354Y-77325209D01*
X179043359Y-77266713D01*
X179043360Y-77266713D01*
X179043357Y-77266712D01*
X179043356Y-77266712D01*
X178842147Y-77229100D01*
X178637453Y-77229100D01*
X178436244Y-77266712D01*
X178436239Y-77266713D01*
X178245377Y-77340654D01*
X178245366Y-77340659D01*
X178071336Y-77448414D01*
X177920066Y-77586315D01*
X177796713Y-77749663D01*
X177705471Y-77932901D01*
X177649454Y-78129780D01*
X177630568Y-78333595D01*
X177630568Y-78333604D01*
X177649454Y-78537419D01*
X177691893Y-78686575D01*
X177705472Y-78734301D01*
X177796712Y-78917535D01*
X177796713Y-78917536D01*
X177920066Y-79080884D01*
X178071336Y-79218785D01*
X178245366Y-79326540D01*
X178245368Y-79326541D01*
X178245373Y-79326544D01*
X178279817Y-79339887D01*
X178336111Y-79383144D01*
X178360082Y-79449972D01*
X178360300Y-79457378D01*
X178360300Y-82797816D01*
X178340298Y-82865937D01*
X178323395Y-82886911D01*
X177705111Y-83505195D01*
X177642799Y-83539221D01*
X177616016Y-83542100D01*
X168595056Y-83542100D01*
X168526935Y-83522098D01*
X168491359Y-83487675D01*
X168489098Y-83484399D01*
X168467957Y-83465670D01*
X168392934Y-83399205D01*
X168370129Y-83379001D01*
X168370128Y-83379000D01*
X168370125Y-83378998D01*
X168229397Y-83305139D01*
X168229395Y-83305138D01*
X168229393Y-83305137D01*
X168229391Y-83305136D01*
X168229390Y-83305136D01*
X168075072Y-83267100D01*
X168075071Y-83267100D01*
X167916129Y-83267100D01*
X167916127Y-83267100D01*
X167761809Y-83305136D01*
X167761802Y-83305139D01*
X167621074Y-83378998D01*
X167621069Y-83379002D01*
X167502101Y-83484400D01*
X167411815Y-83615201D01*
X167411812Y-83615207D01*
X167355449Y-83763820D01*
X167336293Y-83921596D01*
X167336293Y-83921603D01*
X154590518Y-83921603D01*
X155053345Y-83458776D01*
X155073521Y-83442393D01*
X155082756Y-83436360D01*
X155102501Y-83410990D01*
X155112851Y-83399271D01*
X155112914Y-83399209D01*
X155125197Y-83382004D01*
X155128282Y-83377865D01*
X155160958Y-83335885D01*
X155160959Y-83335879D01*
X155164756Y-83328865D01*
X155168270Y-83321676D01*
X155168275Y-83321670D01*
X155183455Y-83270676D01*
X155185020Y-83265791D01*
X155202300Y-83215461D01*
X155202300Y-83215455D01*
X155203619Y-83207552D01*
X155204605Y-83199642D01*
X155202408Y-83146526D01*
X155202300Y-83141318D01*
X155202300Y-78503721D01*
X155222302Y-78435600D01*
X155275958Y-78389107D01*
X155284239Y-78385676D01*
X155402567Y-78341542D01*
X155518704Y-78254604D01*
X155605642Y-78138467D01*
X155609504Y-78128111D01*
X155652047Y-78071278D01*
X155718566Y-78046465D01*
X155787941Y-78061555D01*
X155838145Y-78111755D01*
X155847163Y-78132510D01*
X155873941Y-78213319D01*
X155965983Y-78362544D01*
X155965988Y-78362550D01*
X156089949Y-78486511D01*
X156089955Y-78486516D01*
X156239177Y-78578557D01*
X156405608Y-78633706D01*
X156508312Y-78644199D01*
X156645800Y-78644199D01*
X156645800Y-77669200D01*
X157145800Y-77669200D01*
X157145800Y-78644199D01*
X157283278Y-78644199D01*
X157385991Y-78633706D01*
X157552422Y-78578557D01*
X157701644Y-78486516D01*
X157701650Y-78486511D01*
X157825611Y-78362550D01*
X157825616Y-78362544D01*
X157917657Y-78213322D01*
X157972806Y-78046891D01*
X157983299Y-77944187D01*
X157983300Y-77944187D01*
X157983300Y-77669200D01*
X157145800Y-77669200D01*
X156645800Y-77669200D01*
X156645800Y-77470003D01*
X171527293Y-77470003D01*
X171546449Y-77627779D01*
X171587814Y-77736846D01*
X171602813Y-77776395D01*
X171693102Y-77907201D01*
X171812071Y-78012599D01*
X171812072Y-78012599D01*
X171812074Y-78012601D01*
X171825227Y-78019504D01*
X171952807Y-78086463D01*
X172107129Y-78124500D01*
X172107130Y-78124500D01*
X172266070Y-78124500D01*
X172266071Y-78124500D01*
X172420393Y-78086463D01*
X172434487Y-78079065D01*
X172504098Y-78065118D01*
X172570201Y-78091019D01*
X172593911Y-78115123D01*
X172658346Y-78201198D01*
X172660596Y-78204204D01*
X172776733Y-78291142D01*
X172912658Y-78341840D01*
X172972745Y-78348300D01*
X173769254Y-78348299D01*
X173829342Y-78341840D01*
X173965267Y-78291142D01*
X174081404Y-78204204D01*
X174168342Y-78088067D01*
X174219040Y-77952142D01*
X174225500Y-77892055D01*
X174225500Y-77892046D01*
X174516500Y-77892046D01*
X174516502Y-77892070D01*
X174522959Y-77952139D01*
X174522959Y-77952141D01*
X174573657Y-78088066D01*
X174590970Y-78111193D01*
X174660596Y-78204204D01*
X174776733Y-78291142D01*
X174912658Y-78341840D01*
X174972745Y-78348300D01*
X175769254Y-78348299D01*
X175829342Y-78341840D01*
X175965267Y-78291142D01*
X176081404Y-78204204D01*
X176168342Y-78088067D01*
X176219040Y-77952142D01*
X176225500Y-77892055D01*
X176225499Y-77012299D01*
X176245501Y-76944179D01*
X176299157Y-76897686D01*
X176351499Y-76886300D01*
X183279388Y-76886300D01*
X183347509Y-76906302D01*
X183368483Y-76923205D01*
X183401395Y-76956117D01*
X183435421Y-77018429D01*
X183438300Y-77045212D01*
X183438300Y-77210595D01*
X183418298Y-77278716D01*
X183364642Y-77325209D01*
X183357818Y-77328086D01*
X183325376Y-77340654D01*
X183325369Y-77340658D01*
X183151336Y-77448414D01*
X183000066Y-77586315D01*
X182876713Y-77749663D01*
X182785471Y-77932901D01*
X182729454Y-78129780D01*
X182710568Y-78333595D01*
X182710568Y-78333604D01*
X182729454Y-78537419D01*
X182771893Y-78686575D01*
X182785472Y-78734301D01*
X182876712Y-78917535D01*
X182876713Y-78917536D01*
X183000066Y-79080884D01*
X183151336Y-79218785D01*
X183325366Y-79326540D01*
X183325368Y-79326540D01*
X183325373Y-79326544D01*
X183516244Y-79400488D01*
X183717453Y-79438100D01*
X183717455Y-79438100D01*
X183922145Y-79438100D01*
X183922147Y-79438100D01*
X184123356Y-79400488D01*
X184314227Y-79326544D01*
X184488262Y-79218786D01*
X184639532Y-79080885D01*
X184762888Y-78917535D01*
X184771009Y-78901226D01*
X184819278Y-78849162D01*
X184888032Y-78831459D01*
X184955442Y-78853738D01*
X185000107Y-78908925D01*
X185009800Y-78957388D01*
X185009800Y-79231440D01*
X185016200Y-79290971D01*
X185066447Y-79425689D01*
X185152610Y-79540789D01*
X185267710Y-79626952D01*
X185402428Y-79677199D01*
X185461959Y-79683599D01*
X185461976Y-79683600D01*
X186109800Y-79683600D01*
X186109800Y-78769101D01*
X186217485Y-78818280D01*
X186324037Y-78833600D01*
X186395563Y-78833600D01*
X186502115Y-78818280D01*
X186609800Y-78769101D01*
X186609800Y-79683600D01*
X187257624Y-79683600D01*
X187257640Y-79683599D01*
X187317171Y-79677199D01*
X187451889Y-79626952D01*
X187566989Y-79540789D01*
X187653152Y-79425689D01*
X187703399Y-79290971D01*
X187709799Y-79231440D01*
X187709800Y-79231423D01*
X187709800Y-78583600D01*
X186793486Y-78583600D01*
X186819293Y-78543444D01*
X186859800Y-78405489D01*
X186859800Y-78261711D01*
X186819293Y-78123756D01*
X186793486Y-78083600D01*
X187709800Y-78083600D01*
X187709800Y-77435776D01*
X187709799Y-77435759D01*
X187703399Y-77376228D01*
X187653152Y-77241510D01*
X187566989Y-77126410D01*
X187451889Y-77040247D01*
X187317171Y-76990000D01*
X187257640Y-76983600D01*
X186609800Y-76983600D01*
X186609800Y-77898098D01*
X186502115Y-77848920D01*
X186395563Y-77833600D01*
X186324037Y-77833600D01*
X186217485Y-77848920D01*
X186109800Y-77898098D01*
X186109800Y-76983600D01*
X185461959Y-76983600D01*
X185402428Y-76990000D01*
X185267710Y-77040247D01*
X185152610Y-77126410D01*
X185066447Y-77241510D01*
X185016200Y-77376228D01*
X185009800Y-77435759D01*
X185009800Y-77709811D01*
X184989798Y-77777932D01*
X184936142Y-77824425D01*
X184865868Y-77834529D01*
X184801288Y-77805035D01*
X184771010Y-77765975D01*
X184762888Y-77749666D01*
X184762887Y-77749664D01*
X184753219Y-77736862D01*
X184702124Y-77669200D01*
X184639533Y-77586315D01*
X184488263Y-77448414D01*
X184314230Y-77340658D01*
X184314227Y-77340656D01*
X184314225Y-77340655D01*
X184314223Y-77340654D01*
X184281782Y-77328086D01*
X184225487Y-77284825D01*
X184201518Y-77217997D01*
X184201300Y-77210595D01*
X184201300Y-76887633D01*
X184203982Y-76861773D01*
X184205710Y-76853536D01*
X184206245Y-76850983D01*
X184202267Y-76819077D01*
X184201300Y-76803491D01*
X184201300Y-76803388D01*
X184197824Y-76782560D01*
X184197077Y-76777440D01*
X184190496Y-76724639D01*
X184190495Y-76724637D01*
X184190495Y-76724635D01*
X184188217Y-76716985D01*
X184185618Y-76709414D01*
X184160319Y-76662666D01*
X184157935Y-76658035D01*
X184134577Y-76610256D01*
X184129929Y-76603746D01*
X184125022Y-76597443D01*
X184125020Y-76597438D01*
X184085869Y-76561397D01*
X184082136Y-76557814D01*
X183796582Y-76272260D01*
X183780190Y-76252074D01*
X183774160Y-76242844D01*
X183774159Y-76242842D01*
X183748788Y-76223096D01*
X183737082Y-76212758D01*
X183737017Y-76212693D01*
X183737009Y-76212686D01*
X183719783Y-76200387D01*
X183715672Y-76197321D01*
X183674825Y-76165529D01*
X183673683Y-76164640D01*
X183666664Y-76160842D01*
X183659472Y-76157326D01*
X183659470Y-76157325D01*
X183659467Y-76157324D01*
X183608508Y-76142152D01*
X183603550Y-76140564D01*
X183553264Y-76123301D01*
X183553263Y-76123300D01*
X183553261Y-76123300D01*
X183553258Y-76123300D01*
X183545348Y-76121979D01*
X183537442Y-76120994D01*
X183486575Y-76123099D01*
X183484325Y-76123192D01*
X183479120Y-76123300D01*
X175846035Y-76123300D01*
X175820176Y-76120618D01*
X175809381Y-76118354D01*
X175780779Y-76121920D01*
X175777477Y-76122332D01*
X175761893Y-76123300D01*
X175761789Y-76123300D01*
X175758787Y-76123800D01*
X175740940Y-76126778D01*
X175735796Y-76127527D01*
X175683042Y-76134103D01*
X175675383Y-76136383D01*
X175667813Y-76138982D01*
X175621060Y-76164283D01*
X175616434Y-76166664D01*
X175568657Y-76190021D01*
X175562132Y-76194680D01*
X175555836Y-76199580D01*
X175519820Y-76238704D01*
X175516215Y-76242460D01*
X175356280Y-76402395D01*
X175293968Y-76436421D01*
X175267185Y-76439300D01*
X174972753Y-76439300D01*
X174972729Y-76439302D01*
X174912660Y-76445759D01*
X174912658Y-76445759D01*
X174776733Y-76496457D01*
X174660596Y-76583396D01*
X174573657Y-76699534D01*
X174522962Y-76835450D01*
X174522960Y-76835458D01*
X174516500Y-76895537D01*
X174516500Y-77892046D01*
X174225500Y-77892046D01*
X174225499Y-76895546D01*
X174219040Y-76835458D01*
X174168342Y-76699533D01*
X174081404Y-76583396D01*
X173965267Y-76496458D01*
X173965265Y-76496457D01*
X173965266Y-76496457D01*
X173829349Y-76445762D01*
X173829344Y-76445760D01*
X173829342Y-76445760D01*
X173799298Y-76442530D01*
X173769256Y-76439300D01*
X172972753Y-76439300D01*
X172972729Y-76439302D01*
X172912660Y-76445759D01*
X172912658Y-76445759D01*
X172776733Y-76496457D01*
X172660596Y-76583396D01*
X172573658Y-76699533D01*
X172547374Y-76770000D01*
X172504826Y-76826835D01*
X172438306Y-76851645D01*
X172399166Y-76848305D01*
X172280588Y-76819078D01*
X172266072Y-76815500D01*
X172266071Y-76815500D01*
X172107129Y-76815500D01*
X172107127Y-76815500D01*
X171952809Y-76853536D01*
X171952802Y-76853539D01*
X171812074Y-76927398D01*
X171812069Y-76927402D01*
X171693101Y-77032800D01*
X171602815Y-77163601D01*
X171602812Y-77163607D01*
X171546449Y-77312220D01*
X171527293Y-77469996D01*
X171527293Y-77470003D01*
X156645800Y-77470003D01*
X156645800Y-76194200D01*
X157145800Y-76194200D01*
X157145800Y-77169200D01*
X157983299Y-77169200D01*
X157983299Y-76894221D01*
X157972806Y-76791508D01*
X157917657Y-76625077D01*
X157825616Y-76475855D01*
X157825611Y-76475849D01*
X157701650Y-76351888D01*
X157701644Y-76351883D01*
X157552422Y-76259842D01*
X157385991Y-76204693D01*
X157283287Y-76194200D01*
X157145800Y-76194200D01*
X156645800Y-76194200D01*
X156508321Y-76194200D01*
X156405608Y-76204693D01*
X156239177Y-76259842D01*
X156089955Y-76351883D01*
X156089949Y-76351888D01*
X155965988Y-76475849D01*
X155965983Y-76475855D01*
X155873941Y-76625080D01*
X155847163Y-76705889D01*
X155806749Y-76764260D01*
X155741192Y-76791515D01*
X155671307Y-76779001D01*
X155619282Y-76730691D01*
X155609505Y-76710290D01*
X155605642Y-76699933D01*
X155518704Y-76583796D01*
X155402567Y-76496858D01*
X155402565Y-76496857D01*
X155402566Y-76496857D01*
X155315521Y-76464391D01*
X155258685Y-76421845D01*
X155233875Y-76355324D01*
X155248967Y-76285950D01*
X155276001Y-76252024D01*
X155286363Y-76242844D01*
X155357298Y-76180001D01*
X155447587Y-76049195D01*
X155503949Y-75900582D01*
X155503949Y-75900581D01*
X155503950Y-75900579D01*
X155523107Y-75742803D01*
X155523107Y-75742796D01*
X155503950Y-75585020D01*
X155465941Y-75484800D01*
X161853501Y-75484800D01*
X161853501Y-75759778D01*
X161863993Y-75862491D01*
X161919142Y-76028922D01*
X162011183Y-76178144D01*
X162011188Y-76178150D01*
X162135149Y-76302111D01*
X162135155Y-76302116D01*
X162284377Y-76394157D01*
X162450808Y-76449306D01*
X162553512Y-76459799D01*
X162691000Y-76459799D01*
X162691000Y-75484800D01*
X161853501Y-75484800D01*
X155465941Y-75484800D01*
X155447587Y-75436405D01*
X155357298Y-75305599D01*
X155238329Y-75200201D01*
X155238328Y-75200200D01*
X155238325Y-75200198D01*
X155097597Y-75126339D01*
X155097595Y-75126338D01*
X155097593Y-75126337D01*
X155097591Y-75126336D01*
X155097590Y-75126336D01*
X154943272Y-75088300D01*
X154943271Y-75088300D01*
X154784329Y-75088300D01*
X154784327Y-75088300D01*
X154630009Y-75126336D01*
X154630002Y-75126339D01*
X154489274Y-75200198D01*
X154489269Y-75200202D01*
X154370301Y-75305600D01*
X154280015Y-75436401D01*
X154280012Y-75436407D01*
X154223649Y-75585020D01*
X154204493Y-75742796D01*
X154204493Y-75742803D01*
X154223649Y-75900579D01*
X154243935Y-75954067D01*
X154280013Y-76049195D01*
X154370302Y-76180001D01*
X154396854Y-76203524D01*
X154434579Y-76263666D01*
X154439300Y-76297835D01*
X154439300Y-76334678D01*
X154419298Y-76402799D01*
X154365642Y-76449292D01*
X154357334Y-76452733D01*
X154239033Y-76496858D01*
X154122896Y-76583796D01*
X154035957Y-76699934D01*
X153985262Y-76835850D01*
X153985260Y-76835858D01*
X153978800Y-76895937D01*
X153978800Y-77942446D01*
X153978802Y-77942470D01*
X153985259Y-78002539D01*
X153985259Y-78002541D01*
X154035957Y-78138466D01*
X154057815Y-78167665D01*
X154122896Y-78254604D01*
X154239033Y-78341542D01*
X154357336Y-78385667D01*
X154414168Y-78428212D01*
X154438979Y-78494733D01*
X154439300Y-78503721D01*
X154439300Y-82941587D01*
X154419298Y-83009708D01*
X154402395Y-83030682D01*
X153421882Y-84011195D01*
X153359570Y-84045221D01*
X153332787Y-84048100D01*
X148859099Y-84048100D01*
X148790978Y-84028098D01*
X148744485Y-83974442D01*
X148734381Y-83904168D01*
X148763875Y-83839588D01*
X148783588Y-83821233D01*
X148841604Y-83777804D01*
X148928542Y-83661667D01*
X148979240Y-83525742D01*
X148985700Y-83465655D01*
X148985699Y-82669146D01*
X148979240Y-82609058D01*
X148928542Y-82473133D01*
X148841604Y-82356996D01*
X148725467Y-82270058D01*
X148725465Y-82270057D01*
X148725466Y-82270057D01*
X148589549Y-82219362D01*
X148589544Y-82219360D01*
X148589542Y-82219360D01*
X148559498Y-82216130D01*
X148529456Y-82212900D01*
X147532953Y-82212900D01*
X147532929Y-82212902D01*
X147472860Y-82219359D01*
X147472858Y-82219359D01*
X147336933Y-82270057D01*
X147220796Y-82356996D01*
X147133857Y-82473134D01*
X147083162Y-82609050D01*
X147083160Y-82609058D01*
X147076700Y-82669137D01*
X147076700Y-83465646D01*
X147076702Y-83465670D01*
X147083159Y-83525739D01*
X147083159Y-83525741D01*
X147133857Y-83661666D01*
X147133858Y-83661667D01*
X147220796Y-83777804D01*
X147336933Y-83864742D01*
X147340621Y-83866117D01*
X147343772Y-83868476D01*
X147344841Y-83869060D01*
X147344757Y-83869213D01*
X147397456Y-83908661D01*
X147422269Y-83975181D01*
X147407179Y-84044555D01*
X147403277Y-84051209D01*
X147372519Y-84100159D01*
X147372518Y-84100162D01*
X147372518Y-84100163D01*
X147316363Y-84260646D01*
X147297326Y-84429600D01*
X147316363Y-84598554D01*
X147357074Y-84714900D01*
X147372518Y-84759037D01*
X147372519Y-84759039D01*
X147416206Y-84828567D01*
X147435512Y-84896888D01*
X147414817Y-84964801D01*
X147360690Y-85010745D01*
X147353557Y-85013657D01*
X147336932Y-85019858D01*
X147220796Y-85106796D01*
X147133857Y-85222934D01*
X147083162Y-85358850D01*
X147083160Y-85358858D01*
X147076700Y-85418937D01*
X147076700Y-86215446D01*
X147076702Y-86215470D01*
X147083159Y-86275539D01*
X147083159Y-86275541D01*
X147133857Y-86411466D01*
X147133858Y-86411467D01*
X147220796Y-86527604D01*
X147278253Y-86570615D01*
X147320800Y-86627451D01*
X147325866Y-86698266D01*
X147291841Y-86760579D01*
X147267488Y-86777634D01*
X147268324Y-86778990D01*
X147112855Y-86874883D01*
X147112849Y-86874888D01*
X146988888Y-86998849D01*
X146988883Y-86998855D01*
X146896842Y-87148077D01*
X146841693Y-87314508D01*
X146831200Y-87417212D01*
X146831200Y-87567200D01*
X142290800Y-87567200D01*
X142290800Y-77736846D01*
X143875500Y-77736846D01*
X143875502Y-77736870D01*
X143881958Y-77796936D01*
X143881959Y-77796940D01*
X143882555Y-77798536D01*
X143883259Y-77802437D01*
X143883773Y-77804613D01*
X143883656Y-77804640D01*
X143890500Y-77842571D01*
X143890500Y-78101274D01*
X143888949Y-78120984D01*
X143886825Y-78134390D01*
X143890327Y-78201198D01*
X143890500Y-78207793D01*
X143890500Y-78227823D01*
X143892593Y-78247734D01*
X143893110Y-78254312D01*
X143896610Y-78321108D01*
X143896611Y-78321119D01*
X143900125Y-78334233D01*
X143903726Y-78353663D01*
X143905144Y-78367157D01*
X143925818Y-78430782D01*
X143927691Y-78437106D01*
X143940929Y-78486511D01*
X143945006Y-78501724D01*
X143951165Y-78513813D01*
X143958729Y-78532072D01*
X143960467Y-78537421D01*
X143962925Y-78544985D01*
X143996385Y-78602939D01*
X143999523Y-78608720D01*
X144029891Y-78668323D01*
X144038430Y-78678867D01*
X144049629Y-78695161D01*
X144056415Y-78706915D01*
X144101182Y-78756634D01*
X144105465Y-78761649D01*
X144118064Y-78777207D01*
X144118069Y-78777213D01*
X144132210Y-78791354D01*
X144136751Y-78796138D01*
X144181530Y-78845869D01*
X144192509Y-78853846D01*
X144207545Y-78866688D01*
X145570609Y-80229752D01*
X145583448Y-80244783D01*
X145591431Y-80255770D01*
X145591432Y-80255771D01*
X145591433Y-80255772D01*
X145641150Y-80300537D01*
X145645919Y-80305062D01*
X145660092Y-80319235D01*
X145675661Y-80331843D01*
X145680652Y-80336106D01*
X145730385Y-80380885D01*
X145739951Y-80386407D01*
X145742134Y-80387668D01*
X145758433Y-80398870D01*
X145768972Y-80407405D01*
X145768977Y-80407408D01*
X145828569Y-80437771D01*
X145834367Y-80440919D01*
X145876055Y-80464987D01*
X145892315Y-80474375D01*
X145905226Y-80478570D01*
X145923479Y-80486130D01*
X145935576Y-80492294D01*
X146000209Y-80509612D01*
X146006494Y-80511473D01*
X146070144Y-80532155D01*
X146083630Y-80533572D01*
X146103069Y-80537174D01*
X146116185Y-80540689D01*
X146116191Y-80540689D01*
X146116194Y-80540690D01*
X146182990Y-80544189D01*
X146189571Y-80544706D01*
X146209480Y-80546800D01*
X146229507Y-80546800D01*
X146236100Y-80546972D01*
X146253152Y-80547866D01*
X146302908Y-80550474D01*
X146302908Y-80550473D01*
X146302910Y-80550474D01*
X146316314Y-80548350D01*
X146336025Y-80546800D01*
X146950700Y-80546800D01*
X147018821Y-80566802D01*
X147065314Y-80620458D01*
X147076700Y-80672800D01*
X147076700Y-81465646D01*
X147076702Y-81465670D01*
X147083159Y-81525739D01*
X147083159Y-81525741D01*
X147133857Y-81661666D01*
X147133858Y-81661667D01*
X147220796Y-81777804D01*
X147336933Y-81864742D01*
X147472858Y-81915440D01*
X147532945Y-81921900D01*
X148529454Y-81921899D01*
X148589542Y-81915440D01*
X148725467Y-81864742D01*
X148841604Y-81777804D01*
X148928542Y-81661667D01*
X148979240Y-81525742D01*
X148985700Y-81465655D01*
X148985699Y-80672799D01*
X149005701Y-80604679D01*
X149059357Y-80558186D01*
X149111699Y-80546800D01*
X150307284Y-80546800D01*
X150375405Y-80566802D01*
X150416403Y-80609800D01*
X150438696Y-80648413D01*
X150602657Y-80854014D01*
X150744826Y-80985926D01*
X150795420Y-81032870D01*
X150795426Y-81032874D01*
X151012680Y-81180996D01*
X151012687Y-81181000D01*
X151012690Y-81181002D01*
X151249612Y-81295098D01*
X151470307Y-81363173D01*
X151500885Y-81372606D01*
X151500892Y-81372608D01*
X151760918Y-81411800D01*
X151760922Y-81411800D01*
X152023878Y-81411800D01*
X152023882Y-81411800D01*
X152283908Y-81372608D01*
X152535188Y-81295098D01*
X152772110Y-81181002D01*
X152989380Y-81032870D01*
X153182146Y-80854010D01*
X153346101Y-80648417D01*
X153477583Y-80420684D01*
X153482794Y-80407408D01*
X153542306Y-80255772D01*
X153573654Y-80175898D01*
X153632169Y-79919528D01*
X153651820Y-79657300D01*
X153632169Y-79395072D01*
X153573654Y-79138702D01*
X153502494Y-78957388D01*
X153477586Y-78893922D01*
X153477584Y-78893918D01*
X153454448Y-78853846D01*
X153404770Y-78767800D01*
X153346103Y-78666186D01*
X153346098Y-78666179D01*
X153269989Y-78570740D01*
X153243155Y-78505010D01*
X153242500Y-78492181D01*
X153242500Y-75315499D01*
X153262502Y-75247378D01*
X153316158Y-75200885D01*
X153368500Y-75189499D01*
X153511316Y-75189499D01*
X153511318Y-75189499D01*
X153608966Y-75174034D01*
X153726662Y-75114065D01*
X153820065Y-75020662D01*
X153838338Y-74984800D01*
X161853500Y-74984800D01*
X162691000Y-74984800D01*
X162691000Y-74009800D01*
X163191000Y-74009800D01*
X163191000Y-76459799D01*
X163328478Y-76459799D01*
X163431191Y-76449306D01*
X163597622Y-76394157D01*
X163746844Y-76302116D01*
X163746850Y-76302111D01*
X163870811Y-76178150D01*
X163870816Y-76178144D01*
X163962857Y-76028921D01*
X163989635Y-75948112D01*
X164030049Y-75889740D01*
X164095605Y-75862484D01*
X164165491Y-75874997D01*
X164217517Y-75923307D01*
X164227294Y-75943709D01*
X164231158Y-75954067D01*
X164318096Y-76070204D01*
X164434233Y-76157142D01*
X164570158Y-76207840D01*
X164630245Y-76214300D01*
X165401754Y-76214299D01*
X165461842Y-76207840D01*
X165597767Y-76157142D01*
X165713904Y-76070204D01*
X165800842Y-75954067D01*
X165800842Y-75954066D01*
X165806242Y-75946853D01*
X165807498Y-75947793D01*
X165850586Y-75904710D01*
X165910967Y-75889300D01*
X166068470Y-75889300D01*
X166068471Y-75889300D01*
X166222793Y-75851263D01*
X166363529Y-75777399D01*
X166482498Y-75672001D01*
X166572787Y-75541195D01*
X166629149Y-75392582D01*
X166629149Y-75392581D01*
X166629150Y-75392579D01*
X166648307Y-75234803D01*
X166648307Y-75234796D01*
X166629150Y-75077020D01*
X166594175Y-74984800D01*
X166572787Y-74928405D01*
X166482498Y-74797599D01*
X166363529Y-74692201D01*
X166363528Y-74692200D01*
X166363525Y-74692198D01*
X166222797Y-74618339D01*
X166222795Y-74618338D01*
X166222793Y-74618337D01*
X166222791Y-74618336D01*
X166222790Y-74618336D01*
X166068472Y-74580300D01*
X166068471Y-74580300D01*
X165910967Y-74580300D01*
X165842846Y-74560298D01*
X165807209Y-74522022D01*
X165806242Y-74522747D01*
X165800842Y-74515533D01*
X165713904Y-74399396D01*
X165597767Y-74312458D01*
X165597765Y-74312457D01*
X165597766Y-74312457D01*
X165461849Y-74261762D01*
X165461844Y-74261760D01*
X165461842Y-74261760D01*
X165431798Y-74258530D01*
X165401756Y-74255300D01*
X164630253Y-74255300D01*
X164630229Y-74255302D01*
X164570160Y-74261759D01*
X164570158Y-74261759D01*
X164434233Y-74312457D01*
X164318096Y-74399396D01*
X164231157Y-74515534D01*
X164227294Y-74525891D01*
X164184746Y-74582726D01*
X164118225Y-74607534D01*
X164048851Y-74592441D01*
X163998650Y-74542237D01*
X163989636Y-74521488D01*
X163962859Y-74440681D01*
X163870816Y-74291455D01*
X163870811Y-74291449D01*
X163746850Y-74167488D01*
X163746844Y-74167483D01*
X163597622Y-74075442D01*
X163431191Y-74020293D01*
X163328487Y-74009800D01*
X163191000Y-74009800D01*
X162691000Y-74009800D01*
X162553521Y-74009800D01*
X162450808Y-74020293D01*
X162284377Y-74075442D01*
X162135155Y-74167483D01*
X162135149Y-74167488D01*
X162011188Y-74291449D01*
X162011183Y-74291455D01*
X161919142Y-74440677D01*
X161863993Y-74607108D01*
X161853500Y-74709812D01*
X161853500Y-74984800D01*
X153838338Y-74984800D01*
X153880034Y-74902966D01*
X153895500Y-74805319D01*
X153895499Y-74414682D01*
X153880034Y-74317034D01*
X153831002Y-74220803D01*
X153817898Y-74151026D01*
X153844598Y-74085241D01*
X153902626Y-74044335D01*
X153943269Y-74037600D01*
X154109479Y-74037600D01*
X154177600Y-74057602D01*
X154224093Y-74111258D01*
X154227523Y-74119539D01*
X154271658Y-74237867D01*
X154358596Y-74354004D01*
X154474733Y-74440942D01*
X154610658Y-74491640D01*
X154670745Y-74498100D01*
X155717254Y-74498099D01*
X155777342Y-74491640D01*
X155913267Y-74440942D01*
X156029404Y-74354004D01*
X156100821Y-74258600D01*
X156157654Y-74216055D01*
X156228470Y-74210989D01*
X156268724Y-74227423D01*
X156413959Y-74318680D01*
X156413960Y-74318680D01*
X156413963Y-74318682D01*
X156574446Y-74374837D01*
X156743400Y-74393874D01*
X156912354Y-74374837D01*
X157072837Y-74318682D01*
X157216800Y-74228224D01*
X157337024Y-74108000D01*
X157427482Y-73964037D01*
X157483637Y-73803554D01*
X157502674Y-73634600D01*
X157483637Y-73465646D01*
X157427482Y-73305163D01*
X157337024Y-73161200D01*
X157337022Y-73161197D01*
X157267468Y-73091643D01*
X157233442Y-73029331D01*
X157238507Y-72958516D01*
X157267465Y-72913455D01*
X158566319Y-71614604D01*
X158628631Y-71580579D01*
X158655414Y-71577700D01*
X167803924Y-71577700D01*
X167872045Y-71597702D01*
X167903235Y-71627880D01*
X167903446Y-71627694D01*
X167905861Y-71630420D01*
X167907616Y-71632118D01*
X167908502Y-71633401D01*
X168027471Y-71738799D01*
X168027472Y-71738799D01*
X168027474Y-71738801D01*
X168102200Y-71778020D01*
X168168207Y-71812663D01*
X168322529Y-71850700D01*
X168322530Y-71850700D01*
X168481470Y-71850700D01*
X168481471Y-71850700D01*
X168635793Y-71812663D01*
X168776529Y-71738799D01*
X168895498Y-71633401D01*
X168985787Y-71502595D01*
X169042149Y-71353982D01*
X169042149Y-71353981D01*
X169042150Y-71353979D01*
X169061307Y-71196203D01*
X169061307Y-71196196D01*
X169042150Y-71038420D01*
X169001792Y-70932007D01*
X168985787Y-70889805D01*
X168895498Y-70758999D01*
X168776529Y-70653601D01*
X168776528Y-70653600D01*
X168776525Y-70653598D01*
X168635797Y-70579739D01*
X168635795Y-70579738D01*
X168635793Y-70579737D01*
X168635791Y-70579736D01*
X168635790Y-70579736D01*
X168481472Y-70541700D01*
X168481471Y-70541700D01*
X168322529Y-70541700D01*
X168322527Y-70541700D01*
X168168209Y-70579736D01*
X168168202Y-70579739D01*
X168027474Y-70653598D01*
X168027469Y-70653602D01*
X167908500Y-70759001D01*
X167908499Y-70759001D01*
X167907616Y-70760282D01*
X167906728Y-70761001D01*
X167903446Y-70764706D01*
X167902829Y-70764160D01*
X167852455Y-70804979D01*
X167803924Y-70814700D01*
X158497835Y-70814700D01*
X158471976Y-70812018D01*
X158461181Y-70809754D01*
X158432579Y-70813320D01*
X158429277Y-70813732D01*
X158413693Y-70814700D01*
X158413589Y-70814700D01*
X158410587Y-70815200D01*
X158392740Y-70818178D01*
X158387596Y-70818927D01*
X158334842Y-70825503D01*
X158327174Y-70827786D01*
X158319611Y-70830382D01*
X158272861Y-70855681D01*
X158268237Y-70858062D01*
X158220453Y-70881423D01*
X158213960Y-70886059D01*
X158207638Y-70890980D01*
X158171617Y-70930107D01*
X158168014Y-70933861D01*
X156510855Y-72591020D01*
X156490682Y-72607404D01*
X156481441Y-72613441D01*
X156461690Y-72638817D01*
X156451380Y-72650495D01*
X156451291Y-72650583D01*
X156451288Y-72650587D01*
X156439012Y-72667780D01*
X156435903Y-72671950D01*
X156403242Y-72713913D01*
X156399430Y-72720958D01*
X156395925Y-72728127D01*
X156380749Y-72779100D01*
X156379162Y-72784054D01*
X156361899Y-72834342D01*
X156360584Y-72842218D01*
X156359594Y-72850160D01*
X156361792Y-72903272D01*
X156361900Y-72908480D01*
X156361900Y-72913593D01*
X156341898Y-72981714D01*
X156302938Y-73020279D01*
X156269998Y-73040976D01*
X156264466Y-73045389D01*
X156263526Y-73044211D01*
X156208339Y-73074338D01*
X156137524Y-73069265D01*
X156080701Y-73026722D01*
X156062918Y-73002967D01*
X156029404Y-72958196D01*
X155913267Y-72871258D01*
X155902909Y-72867394D01*
X155846075Y-72824847D01*
X155821265Y-72758327D01*
X155836357Y-72688953D01*
X155886560Y-72638752D01*
X155907312Y-72629735D01*
X155988121Y-72602957D01*
X156137344Y-72510916D01*
X156137350Y-72510911D01*
X156261311Y-72386950D01*
X156261316Y-72386944D01*
X156353357Y-72237722D01*
X156408506Y-72071291D01*
X156418999Y-71968587D01*
X156419000Y-71968587D01*
X156419000Y-71831100D01*
X153969001Y-71831100D01*
X153969001Y-71846468D01*
X153948999Y-71914589D01*
X153895343Y-71961082D01*
X153825069Y-71971186D01*
X153777817Y-71954297D01*
X153752395Y-71938929D01*
X153598792Y-71891065D01*
X153532043Y-71885000D01*
X153111000Y-71885000D01*
X153111000Y-72460000D01*
X154147548Y-72460000D01*
X154215669Y-72480002D01*
X154236643Y-72496905D01*
X154250649Y-72510911D01*
X154250655Y-72510916D01*
X154399881Y-72602959D01*
X154480688Y-72629736D01*
X154539059Y-72670149D01*
X154566315Y-72735706D01*
X154553802Y-72805591D01*
X154505492Y-72857617D01*
X154485091Y-72867394D01*
X154474734Y-72871257D01*
X154358594Y-72958197D01*
X154349683Y-72970101D01*
X154292847Y-73012647D01*
X154222031Y-73017711D01*
X154159719Y-72983685D01*
X154155777Y-72979560D01*
X154137914Y-72960000D01*
X151584085Y-72960000D01*
X151587065Y-72992790D01*
X151587065Y-72992794D01*
X151634929Y-73146395D01*
X151634929Y-73146396D01*
X151718161Y-73284077D01*
X151790984Y-73356899D01*
X151825009Y-73419211D01*
X151826167Y-73459693D01*
X151826888Y-73459750D01*
X151826500Y-73464678D01*
X151826500Y-73855316D01*
X151841965Y-73952964D01*
X151841965Y-73952965D01*
X151841966Y-73952966D01*
X151881471Y-74030500D01*
X151889011Y-74045297D01*
X151902115Y-74115074D01*
X151875415Y-74180859D01*
X151817387Y-74221765D01*
X151776744Y-74228500D01*
X151201418Y-74228500D01*
X151133297Y-74208498D01*
X151112323Y-74191596D01*
X151071753Y-74151026D01*
X151026662Y-74105935D01*
X151026660Y-74105934D01*
X151026661Y-74105934D01*
X150908967Y-74045966D01*
X150883004Y-74041854D01*
X150811319Y-74030500D01*
X150811315Y-74030500D01*
X149510683Y-74030500D01*
X149413035Y-74045965D01*
X149295338Y-74105934D01*
X149201934Y-74199338D01*
X149141966Y-74317032D01*
X149126500Y-74414684D01*
X149126500Y-74805316D01*
X149141965Y-74902964D01*
X149197267Y-75011502D01*
X149201935Y-75020662D01*
X149295338Y-75114065D01*
X149413034Y-75174034D01*
X149510681Y-75189500D01*
X150811318Y-75189499D01*
X150908966Y-75174034D01*
X151026662Y-75114065D01*
X151112323Y-75028404D01*
X151174635Y-74994379D01*
X151201418Y-74991500D01*
X151820582Y-74991500D01*
X151888703Y-75011502D01*
X151909677Y-75028404D01*
X151995338Y-75114065D01*
X152113034Y-75174034D01*
X152210681Y-75189500D01*
X152353500Y-75189499D01*
X152421620Y-75209501D01*
X152468113Y-75263156D01*
X152479500Y-75315499D01*
X152479500Y-77831600D01*
X152459498Y-77899721D01*
X152405842Y-77946214D01*
X152335568Y-77956318D01*
X152316361Y-77952002D01*
X152283918Y-77941994D01*
X152283910Y-77941992D01*
X152283908Y-77941992D01*
X152023882Y-77902800D01*
X151760918Y-77902800D01*
X151500892Y-77941992D01*
X151500891Y-77941992D01*
X151500885Y-77941993D01*
X151249606Y-78019504D01*
X151012687Y-78133599D01*
X151012680Y-78133603D01*
X150795426Y-78281725D01*
X150795414Y-78281735D01*
X150602657Y-78460585D01*
X150438696Y-78666186D01*
X150416403Y-78704800D01*
X150365020Y-78753793D01*
X150307284Y-78767800D01*
X146676733Y-78767800D01*
X146608612Y-78747798D01*
X146587638Y-78730895D01*
X145718302Y-77861559D01*
X145684276Y-77799247D01*
X145682119Y-77758997D01*
X145684500Y-77736855D01*
X145684499Y-76390346D01*
X145678040Y-76330258D01*
X145677443Y-76328657D01*
X145676736Y-76324743D01*
X145676227Y-76322585D01*
X145676342Y-76322557D01*
X145669500Y-76284627D01*
X145669500Y-74552571D01*
X145676342Y-74514644D01*
X145676226Y-74514617D01*
X145676741Y-74512435D01*
X145677445Y-74508536D01*
X145678040Y-74506942D01*
X145684500Y-74446855D01*
X145684499Y-73100346D01*
X145678040Y-73040258D01*
X145677443Y-73038657D01*
X145676736Y-73034743D01*
X145676227Y-73032585D01*
X145676342Y-73032557D01*
X145669500Y-72994627D01*
X145669500Y-71262571D01*
X145676342Y-71224644D01*
X145676226Y-71224617D01*
X145676741Y-71222435D01*
X145677445Y-71218536D01*
X145678040Y-71216942D01*
X145684500Y-71156855D01*
X145684499Y-69810346D01*
X145678040Y-69750258D01*
X145677443Y-69748657D01*
X145676736Y-69744743D01*
X145676227Y-69742585D01*
X145676342Y-69742557D01*
X145669500Y-69704627D01*
X145669500Y-67972571D01*
X145676342Y-67934644D01*
X145676226Y-67934617D01*
X145676741Y-67932435D01*
X145677445Y-67928536D01*
X145678040Y-67926942D01*
X145684500Y-67866855D01*
X145684499Y-66520346D01*
X145678040Y-66460258D01*
X145627342Y-66324333D01*
X145540404Y-66208196D01*
X145424267Y-66121258D01*
X145424265Y-66121257D01*
X145424266Y-66121257D01*
X145288349Y-66070562D01*
X145288344Y-66070560D01*
X145288342Y-66070560D01*
X145258298Y-66067330D01*
X145228256Y-66064100D01*
X144331753Y-66064100D01*
X144331729Y-66064102D01*
X144271660Y-66070559D01*
X144271658Y-66070559D01*
X144135733Y-66121257D01*
X144019596Y-66208196D01*
X143932657Y-66324334D01*
X143881962Y-66460250D01*
X143881960Y-66460258D01*
X143875500Y-66520337D01*
X143875500Y-67866846D01*
X143875502Y-67866870D01*
X143881958Y-67926936D01*
X143881959Y-67926940D01*
X143882555Y-67928536D01*
X143883259Y-67932437D01*
X143883773Y-67934613D01*
X143883656Y-67934640D01*
X143890500Y-67972571D01*
X143890500Y-69704628D01*
X143883656Y-69742566D01*
X143883771Y-69742594D01*
X143883265Y-69744731D01*
X143882558Y-69748655D01*
X143881959Y-69750261D01*
X143875500Y-69810332D01*
X143875500Y-71156846D01*
X143875502Y-71156870D01*
X143881958Y-71216936D01*
X143881959Y-71216940D01*
X143882555Y-71218536D01*
X143883259Y-71222437D01*
X143883773Y-71224613D01*
X143883656Y-71224640D01*
X143890500Y-71262571D01*
X143890500Y-72994628D01*
X143883656Y-73032566D01*
X143883771Y-73032594D01*
X143883265Y-73034731D01*
X143882558Y-73038655D01*
X143881959Y-73040261D01*
X143875500Y-73100332D01*
X143875500Y-74446846D01*
X143875502Y-74446870D01*
X143881958Y-74506936D01*
X143881959Y-74506940D01*
X143882555Y-74508536D01*
X143883259Y-74512437D01*
X143883773Y-74514613D01*
X143883656Y-74514640D01*
X143890500Y-74552571D01*
X143890500Y-76284628D01*
X143883656Y-76322566D01*
X143883771Y-76322594D01*
X143883265Y-76324731D01*
X143882558Y-76328655D01*
X143881959Y-76330261D01*
X143875500Y-76390332D01*
X143875500Y-77736846D01*
X142290800Y-77736846D01*
X142290800Y-64134000D01*
X142310802Y-64065879D01*
X142364458Y-64019386D01*
X142416800Y-64008000D01*
X168320286Y-64008000D01*
X168388407Y-64028002D01*
X168434900Y-64081658D01*
X168445004Y-64151932D01*
X168415510Y-64216512D01*
X168409381Y-64223095D01*
X168401481Y-64230995D01*
X168339169Y-64265021D01*
X168312386Y-64267900D01*
X168170127Y-64267900D01*
X168015809Y-64305936D01*
X168015802Y-64305939D01*
X167875074Y-64379798D01*
X167875069Y-64379802D01*
X167756101Y-64485200D01*
X167665815Y-64616001D01*
X167665812Y-64616007D01*
X167609449Y-64764620D01*
X167590293Y-64922396D01*
X167590293Y-64922403D01*
X167609449Y-65080179D01*
X167658047Y-65208319D01*
X167665813Y-65228795D01*
X167756102Y-65359601D01*
X167875071Y-65464999D01*
X167875072Y-65464999D01*
X167875074Y-65465001D01*
X167949800Y-65504220D01*
X168015807Y-65538863D01*
X168170129Y-65576900D01*
X168170130Y-65576900D01*
X168329070Y-65576900D01*
X168329071Y-65576900D01*
X168483393Y-65538863D01*
X168624129Y-65464999D01*
X168667698Y-65426400D01*
X172906401Y-65426400D01*
X172906401Y-65701378D01*
X172916893Y-65804091D01*
X172972042Y-65970522D01*
X173064083Y-66119744D01*
X173064088Y-66119750D01*
X173188049Y-66243711D01*
X173188055Y-66243716D01*
X173337277Y-66335757D01*
X173503708Y-66390906D01*
X173606412Y-66401399D01*
X173743900Y-66401399D01*
X173743900Y-65426400D01*
X172906401Y-65426400D01*
X168667698Y-65426400D01*
X168743098Y-65359601D01*
X168833387Y-65228795D01*
X168889749Y-65080182D01*
X168889749Y-65080181D01*
X168889750Y-65080179D01*
X168908907Y-64922402D01*
X168908907Y-64922397D01*
X168903332Y-64876485D01*
X168914977Y-64806450D01*
X168939313Y-64772207D01*
X169666618Y-64044902D01*
X169728928Y-64010879D01*
X169755711Y-64008000D01*
X172984948Y-64008000D01*
X173053069Y-64028002D01*
X173099562Y-64081658D01*
X173109666Y-64151932D01*
X173080172Y-64216512D01*
X173074043Y-64223095D01*
X173064088Y-64233049D01*
X173064083Y-64233055D01*
X172972042Y-64382277D01*
X172916893Y-64548708D01*
X172906400Y-64651412D01*
X172906400Y-64926400D01*
X174117900Y-64926400D01*
X174186021Y-64946402D01*
X174232514Y-65000058D01*
X174243900Y-65052400D01*
X174243900Y-66401399D01*
X174381378Y-66401399D01*
X174484091Y-66390906D01*
X174650522Y-66335757D01*
X174799744Y-66243716D01*
X174799750Y-66243711D01*
X174923711Y-66119750D01*
X174923716Y-66119744D01*
X175015757Y-65970521D01*
X175042535Y-65889712D01*
X175082949Y-65831340D01*
X175148505Y-65804084D01*
X175218391Y-65816597D01*
X175270417Y-65864907D01*
X175280194Y-65885309D01*
X175284058Y-65895667D01*
X175370996Y-66011804D01*
X175487133Y-66098742D01*
X175605436Y-66142867D01*
X175662268Y-66185412D01*
X175687079Y-66251933D01*
X175687400Y-66260921D01*
X175687400Y-66330100D01*
X175667398Y-66398221D01*
X175613742Y-66444714D01*
X175561401Y-66456100D01*
X175422483Y-66456100D01*
X175324835Y-66471565D01*
X175207138Y-66531534D01*
X175113734Y-66624938D01*
X175053766Y-66742632D01*
X175038300Y-66840284D01*
X175038300Y-67023635D01*
X175018298Y-67091756D01*
X174964642Y-67138249D01*
X174894368Y-67148353D01*
X174860366Y-67137573D01*
X174860290Y-67137773D01*
X174856938Y-67136486D01*
X174855101Y-67135904D01*
X174854124Y-67135406D01*
X174854121Y-67135405D01*
X174789506Y-67118091D01*
X174783182Y-67116218D01*
X174719557Y-67095544D01*
X174706063Y-67094126D01*
X174686633Y-67090525D01*
X174673519Y-67087011D01*
X174673508Y-67087010D01*
X174606712Y-67083510D01*
X174600134Y-67082993D01*
X174580223Y-67080900D01*
X174580220Y-67080900D01*
X174560193Y-67080900D01*
X174553599Y-67080727D01*
X174551393Y-67080611D01*
X174486791Y-67077225D01*
X174473386Y-67079349D01*
X174453675Y-67080900D01*
X148910499Y-67080900D01*
X148842378Y-67060898D01*
X148795885Y-67007242D01*
X148784499Y-66954900D01*
X148784499Y-66520353D01*
X148784499Y-66520346D01*
X148778040Y-66460258D01*
X148727342Y-66324333D01*
X148640404Y-66208196D01*
X148524267Y-66121258D01*
X148524265Y-66121257D01*
X148524266Y-66121257D01*
X148388349Y-66070562D01*
X148388344Y-66070560D01*
X148388342Y-66070560D01*
X148358298Y-66067330D01*
X148328256Y-66064100D01*
X147431753Y-66064100D01*
X147431729Y-66064102D01*
X147371660Y-66070559D01*
X147371658Y-66070559D01*
X147235733Y-66121257D01*
X147119596Y-66208196D01*
X147032657Y-66324334D01*
X146981962Y-66460250D01*
X146981960Y-66460258D01*
X146975500Y-66520337D01*
X146975500Y-67866846D01*
X146975502Y-67866870D01*
X146981958Y-67926936D01*
X146981959Y-67926940D01*
X146982555Y-67928536D01*
X146983259Y-67932437D01*
X146983773Y-67934613D01*
X146983656Y-67934640D01*
X146990500Y-67972571D01*
X146990500Y-68070806D01*
X146990327Y-68077400D01*
X146986825Y-68144207D01*
X146988949Y-68157612D01*
X146990500Y-68177324D01*
X146990500Y-69704628D01*
X146983656Y-69742566D01*
X146983771Y-69742594D01*
X146983265Y-69744731D01*
X146982558Y-69748655D01*
X146981959Y-69750261D01*
X146975500Y-69810332D01*
X146975500Y-71156846D01*
X146975502Y-71156870D01*
X146981958Y-71216936D01*
X146981959Y-71216940D01*
X146982555Y-71218536D01*
X146983259Y-71222437D01*
X146983773Y-71224613D01*
X146983656Y-71224640D01*
X146990500Y-71262571D01*
X146990500Y-72994628D01*
X146983656Y-73032566D01*
X146983771Y-73032594D01*
X146983265Y-73034731D01*
X146982558Y-73038655D01*
X146981959Y-73040261D01*
X146975500Y-73100332D01*
X146975500Y-74446846D01*
X146975502Y-74446870D01*
X146981958Y-74506936D01*
X146981959Y-74506940D01*
X146982555Y-74508536D01*
X146983259Y-74512437D01*
X146983773Y-74514613D01*
X146983656Y-74514640D01*
X146990500Y-74552571D01*
X146990500Y-76284628D01*
X146983656Y-76322566D01*
X146983771Y-76322594D01*
X146983265Y-76324731D01*
X146982558Y-76328655D01*
X146981959Y-76330261D01*
X146975500Y-76390332D01*
X146975500Y-77736846D01*
X146975502Y-77736870D01*
X146981959Y-77796939D01*
X146981959Y-77796941D01*
X147032657Y-77932866D01*
X147041132Y-77944187D01*
X147119596Y-78049004D01*
X147235733Y-78135942D01*
X147371658Y-78186640D01*
X147431745Y-78193100D01*
X148328254Y-78193099D01*
X148388342Y-78186640D01*
X148524267Y-78135942D01*
X148640404Y-78049004D01*
X148727342Y-77932867D01*
X148778040Y-77796942D01*
X148784500Y-77736855D01*
X148784499Y-76390346D01*
X148778040Y-76330258D01*
X148777443Y-76328657D01*
X148776736Y-76324743D01*
X148776227Y-76322585D01*
X148776342Y-76322557D01*
X148769500Y-76284627D01*
X148769500Y-74552571D01*
X148776342Y-74514644D01*
X148776226Y-74514617D01*
X148776741Y-74512435D01*
X148777445Y-74508536D01*
X148778040Y-74506942D01*
X148784500Y-74446855D01*
X148784499Y-73217499D01*
X148804501Y-73149379D01*
X148858157Y-73102886D01*
X148910499Y-73091500D01*
X149120582Y-73091500D01*
X149188703Y-73111502D01*
X149209677Y-73128404D01*
X149295338Y-73214065D01*
X149413034Y-73274034D01*
X149510681Y-73289500D01*
X150811318Y-73289499D01*
X150908966Y-73274034D01*
X151026662Y-73214065D01*
X151120065Y-73120662D01*
X151180034Y-73002966D01*
X151195500Y-72905319D01*
X151195499Y-72514682D01*
X151186839Y-72459999D01*
X151584085Y-72459999D01*
X151584087Y-72460000D01*
X152611000Y-72460000D01*
X152611000Y-71885000D01*
X152189957Y-71885000D01*
X152123207Y-71891065D01*
X151969604Y-71938929D01*
X151969603Y-71938929D01*
X151831922Y-72022161D01*
X151831917Y-72022165D01*
X151718165Y-72135917D01*
X151718161Y-72135922D01*
X151634929Y-72273603D01*
X151634929Y-72273604D01*
X151587065Y-72427205D01*
X151587065Y-72427209D01*
X151584085Y-72459999D01*
X151186839Y-72459999D01*
X151180034Y-72417034D01*
X151120065Y-72299338D01*
X151026662Y-72205935D01*
X151026661Y-72205934D01*
X150908967Y-72145966D01*
X150889436Y-72142872D01*
X150811319Y-72130500D01*
X150811315Y-72130500D01*
X149510683Y-72130500D01*
X149413035Y-72145965D01*
X149295339Y-72205934D01*
X149209677Y-72291596D01*
X149147365Y-72325621D01*
X149120582Y-72328500D01*
X148895500Y-72328500D01*
X148827379Y-72308498D01*
X148780886Y-72254842D01*
X148769500Y-72202500D01*
X148769500Y-71331100D01*
X153969000Y-71331100D01*
X154944000Y-71331100D01*
X154944000Y-70493600D01*
X155444000Y-70493600D01*
X155444000Y-71331100D01*
X156418999Y-71331100D01*
X156418999Y-71193621D01*
X156408506Y-71090908D01*
X156353357Y-70924477D01*
X156261316Y-70775255D01*
X156261311Y-70775249D01*
X156137350Y-70651288D01*
X156137344Y-70651283D01*
X155988122Y-70559242D01*
X155821691Y-70504093D01*
X155718987Y-70493600D01*
X155444000Y-70493600D01*
X154944000Y-70493600D01*
X154669021Y-70493600D01*
X154566308Y-70504093D01*
X154399877Y-70559242D01*
X154250655Y-70651283D01*
X154250649Y-70651288D01*
X154126688Y-70775249D01*
X154126683Y-70775255D01*
X154034642Y-70924477D01*
X153979493Y-71090908D01*
X153969000Y-71193612D01*
X153969000Y-71331100D01*
X148769500Y-71331100D01*
X148769500Y-71262571D01*
X148776342Y-71224644D01*
X148776226Y-71224617D01*
X148776741Y-71222435D01*
X148777445Y-71218536D01*
X148778040Y-71216942D01*
X148784500Y-71156855D01*
X148784499Y-69810346D01*
X148778040Y-69750258D01*
X148777443Y-69748657D01*
X148776736Y-69744743D01*
X148776227Y-69742585D01*
X148776342Y-69742557D01*
X148769500Y-69704627D01*
X148769500Y-68985900D01*
X148789502Y-68917779D01*
X148843158Y-68871286D01*
X148895500Y-68859900D01*
X174358379Y-68859900D01*
X174390988Y-68864192D01*
X174408885Y-68868988D01*
X174533368Y-68875512D01*
X174595608Y-68878774D01*
X174595608Y-68878773D01*
X174595610Y-68878774D01*
X174780288Y-68849524D01*
X174867147Y-68816181D01*
X174937909Y-68810443D01*
X175000542Y-68843872D01*
X175035160Y-68905858D01*
X175038300Y-68933812D01*
X175038300Y-69130916D01*
X175053765Y-69228564D01*
X175107937Y-69334884D01*
X175113735Y-69346262D01*
X175207138Y-69439665D01*
X175324834Y-69499634D01*
X175422481Y-69515100D01*
X176723118Y-69515099D01*
X176820766Y-69499634D01*
X176938462Y-69439665D01*
X177031865Y-69346262D01*
X177091834Y-69228566D01*
X177098639Y-69185600D01*
X177495885Y-69185600D01*
X177498865Y-69218390D01*
X177498865Y-69218394D01*
X177546729Y-69371995D01*
X177546729Y-69371996D01*
X177629961Y-69509677D01*
X177629965Y-69509682D01*
X177743717Y-69623434D01*
X177743722Y-69623438D01*
X177881403Y-69706670D01*
X178035007Y-69754534D01*
X178101757Y-69760600D01*
X178522800Y-69760600D01*
X178522800Y-69185600D01*
X177495885Y-69185600D01*
X177098639Y-69185600D01*
X177107300Y-69130919D01*
X177107299Y-68740282D01*
X177098639Y-68685599D01*
X177495885Y-68685599D01*
X177495887Y-68685600D01*
X178896800Y-68685600D01*
X178964921Y-68705602D01*
X179011414Y-68759258D01*
X179022800Y-68811600D01*
X179022800Y-69760600D01*
X179443843Y-69760600D01*
X179510592Y-69754534D01*
X179664195Y-69706670D01*
X179664196Y-69706670D01*
X179801877Y-69623438D01*
X179801882Y-69623434D01*
X179915634Y-69509682D01*
X179915638Y-69509677D01*
X179998870Y-69371996D01*
X179998870Y-69371995D01*
X180036268Y-69251981D01*
X180075630Y-69192895D01*
X180140688Y-69164470D01*
X180210786Y-69175730D01*
X180263669Y-69223100D01*
X180272973Y-69241250D01*
X180276886Y-69250698D01*
X180276887Y-69250701D01*
X180333136Y-69334883D01*
X180333137Y-69334884D01*
X180417318Y-69391133D01*
X180417320Y-69391134D01*
X180491554Y-69405900D01*
X182141687Y-69405899D01*
X182141690Y-69405898D01*
X182141694Y-69405898D01*
X182190947Y-69396101D01*
X182215922Y-69391134D01*
X182300105Y-69334884D01*
X182356355Y-69250701D01*
X182371121Y-69176467D01*
X182371120Y-68895924D01*
X182391122Y-68827807D01*
X182444777Y-68781314D01*
X182515051Y-68771209D01*
X182579632Y-68800702D01*
X182611315Y-68842677D01*
X182686486Y-69003882D01*
X182737595Y-69076871D01*
X183418667Y-68395799D01*
X183431456Y-68476548D01*
X183488980Y-68589445D01*
X183578576Y-68679041D01*
X183691473Y-68736565D01*
X183772220Y-68749353D01*
X183091148Y-69430424D01*
X183091148Y-69430425D01*
X183164139Y-69481534D01*
X183164138Y-69481534D01*
X183370292Y-69577665D01*
X183370297Y-69577667D01*
X183590018Y-69636540D01*
X183816621Y-69656365D01*
X184043223Y-69636540D01*
X184262944Y-69577667D01*
X184262949Y-69577665D01*
X184469103Y-69481534D01*
X184469104Y-69481533D01*
X184542092Y-69430425D01*
X184542092Y-69430423D01*
X183861022Y-68749353D01*
X183941769Y-68736565D01*
X184054666Y-68679041D01*
X184144262Y-68589445D01*
X184201786Y-68476548D01*
X184214574Y-68395801D01*
X184895644Y-69076871D01*
X184895646Y-69076871D01*
X184946754Y-69003883D01*
X184946755Y-69003882D01*
X185042886Y-68797728D01*
X185042888Y-68797723D01*
X185101761Y-68578002D01*
X185121586Y-68351400D01*
X185101761Y-68124797D01*
X185042888Y-67905076D01*
X185042886Y-67905071D01*
X184946755Y-67698917D01*
X184895645Y-67625927D01*
X184214574Y-68306998D01*
X184201786Y-68226252D01*
X184144262Y-68113355D01*
X184054666Y-68023759D01*
X183941769Y-67966235D01*
X183861021Y-67953446D01*
X184542092Y-67272374D01*
X184542092Y-67272373D01*
X184469102Y-67221265D01*
X184469103Y-67221265D01*
X184262949Y-67125134D01*
X184262944Y-67125132D01*
X184043223Y-67066259D01*
X183816621Y-67046434D01*
X183590018Y-67066259D01*
X183370297Y-67125132D01*
X183370292Y-67125134D01*
X183164134Y-67221267D01*
X183091148Y-67272372D01*
X183091148Y-67272375D01*
X183772219Y-67953446D01*
X183691473Y-67966235D01*
X183578576Y-68023759D01*
X183488980Y-68113355D01*
X183431456Y-68226252D01*
X183418667Y-68306998D01*
X182737596Y-67625927D01*
X182737593Y-67625927D01*
X182686488Y-67698913D01*
X182611315Y-67860123D01*
X182564397Y-67913408D01*
X182496120Y-67932869D01*
X182428160Y-67912327D01*
X182382095Y-67858304D01*
X182371120Y-67806873D01*
X182371120Y-67526336D01*
X182371119Y-67526326D01*
X182356355Y-67452099D01*
X182304590Y-67374628D01*
X182300105Y-67367916D01*
X182300104Y-67367915D01*
X182215923Y-67311666D01*
X182141688Y-67296900D01*
X180491557Y-67296900D01*
X180491547Y-67296901D01*
X180417320Y-67311665D01*
X180333134Y-67367917D01*
X180324361Y-67376691D01*
X180322298Y-67374628D01*
X180282203Y-67408133D01*
X180231922Y-67418600D01*
X179925101Y-67418600D01*
X179856980Y-67398598D01*
X179810487Y-67344942D01*
X179800383Y-67274668D01*
X179800641Y-67272959D01*
X179807300Y-67230919D01*
X179807299Y-66840282D01*
X179791834Y-66742634D01*
X179731865Y-66624938D01*
X179638462Y-66531535D01*
X179616502Y-66520346D01*
X179518143Y-66470229D01*
X179466528Y-66421480D01*
X179450265Y-66373149D01*
X179430750Y-66212420D01*
X179396176Y-66121258D01*
X179374387Y-66063805D01*
X179284098Y-65932999D01*
X179165129Y-65827601D01*
X179165128Y-65827600D01*
X179165125Y-65827598D01*
X179024397Y-65753739D01*
X179024395Y-65753738D01*
X179024393Y-65753737D01*
X179024391Y-65753736D01*
X179024390Y-65753736D01*
X178870072Y-65715700D01*
X178870071Y-65715700D01*
X178711129Y-65715700D01*
X178711127Y-65715700D01*
X178556809Y-65753736D01*
X178556802Y-65753739D01*
X178416074Y-65827598D01*
X178416069Y-65827602D01*
X178297101Y-65933000D01*
X178206815Y-66063801D01*
X178206812Y-66063807D01*
X178150450Y-66212420D01*
X178132291Y-66361974D01*
X178104224Y-66427187D01*
X178045356Y-66466873D01*
X178026925Y-66471234D01*
X178024836Y-66471564D01*
X177907138Y-66531534D01*
X177813734Y-66624938D01*
X177753766Y-66742632D01*
X177738300Y-66840284D01*
X177738300Y-67230916D01*
X177753765Y-67328566D01*
X177817370Y-67453398D01*
X177830474Y-67523175D01*
X177817370Y-67567802D01*
X177753767Y-67692630D01*
X177753766Y-67692632D01*
X177753766Y-67692634D01*
X177752772Y-67698913D01*
X177738300Y-67790284D01*
X177738300Y-68180921D01*
X177738689Y-68185850D01*
X177737362Y-68185954D01*
X177729026Y-68250332D01*
X177702785Y-68288698D01*
X177629961Y-68361522D01*
X177546729Y-68499203D01*
X177546729Y-68499204D01*
X177498865Y-68652805D01*
X177498865Y-68652809D01*
X177495885Y-68685599D01*
X177098639Y-68685599D01*
X177091834Y-68642634D01*
X177031865Y-68524938D01*
X177031863Y-68524936D01*
X177028229Y-68517803D01*
X177015125Y-68448026D01*
X177028229Y-68403397D01*
X177031863Y-68396263D01*
X177031865Y-68396262D01*
X177091834Y-68278566D01*
X177107300Y-68180919D01*
X177107299Y-67790282D01*
X177091834Y-67692634D01*
X177031865Y-67574938D01*
X177031863Y-67574936D01*
X177028229Y-67567803D01*
X177015125Y-67498026D01*
X177028229Y-67453397D01*
X177031863Y-67446263D01*
X177031865Y-67446262D01*
X177091834Y-67328566D01*
X177107300Y-67230919D01*
X177107299Y-66840282D01*
X177091834Y-66742634D01*
X177031865Y-66624938D01*
X176938462Y-66531535D01*
X176938461Y-66531534D01*
X176820767Y-66471566D01*
X176791136Y-66466873D01*
X176723119Y-66456100D01*
X176723116Y-66456100D01*
X176576400Y-66456100D01*
X176508279Y-66436098D01*
X176461786Y-66382442D01*
X176450400Y-66330100D01*
X176450400Y-66260921D01*
X176470402Y-66192800D01*
X176524058Y-66146307D01*
X176532339Y-66142876D01*
X176650667Y-66098742D01*
X176766804Y-66011804D01*
X176853742Y-65895667D01*
X176904440Y-65759742D01*
X176910900Y-65699655D01*
X176910899Y-64653146D01*
X176904440Y-64593058D01*
X176853742Y-64457133D01*
X176766804Y-64340996D01*
X176650667Y-64254058D01*
X176645294Y-64252054D01*
X176588462Y-64209509D01*
X176563651Y-64142989D01*
X176578743Y-64073615D01*
X176628945Y-64023412D01*
X176689330Y-64008000D01*
X178816000Y-64008000D01*
X178816000Y-60601500D01*
X178836002Y-60533379D01*
X178889658Y-60486886D01*
X178942000Y-60475500D01*
X179114478Y-60475500D01*
X179114482Y-60475500D01*
X179374508Y-60436308D01*
X179431072Y-60418859D01*
X179502059Y-60417894D01*
X179562302Y-60455461D01*
X179592672Y-60519634D01*
X179586266Y-60583294D01*
X179559111Y-60656097D01*
X179498299Y-60935646D01*
X179477891Y-61221000D01*
X179498299Y-61506353D01*
X179559111Y-61785902D01*
X179659088Y-62053951D01*
X179796197Y-62305047D01*
X179902882Y-62447561D01*
X179902883Y-62447562D01*
X180766338Y-61584107D01*
X180853577Y-61722948D01*
X180981052Y-61850423D01*
X181119890Y-61937660D01*
X180256436Y-62801115D01*
X180256437Y-62801116D01*
X180398952Y-62907802D01*
X180650049Y-63044911D01*
X180650048Y-63044911D01*
X180918097Y-63144888D01*
X181197646Y-63205700D01*
X181483000Y-63226108D01*
X181768353Y-63205700D01*
X182047902Y-63144888D01*
X182315951Y-63044911D01*
X182567043Y-62907805D01*
X182709561Y-62801115D01*
X182709562Y-62801115D01*
X181846108Y-61937661D01*
X181984948Y-61850423D01*
X182112423Y-61722948D01*
X182199661Y-61584108D01*
X183063115Y-62447562D01*
X183063115Y-62447561D01*
X183169805Y-62305043D01*
X183306911Y-62053951D01*
X183406888Y-61785902D01*
X183467700Y-61506353D01*
X183488108Y-61221000D01*
X183467700Y-60935646D01*
X183406888Y-60656097D01*
X183306911Y-60388048D01*
X183169802Y-60136952D01*
X183063116Y-59994437D01*
X183063115Y-59994436D01*
X182199660Y-60857890D01*
X182112423Y-60719052D01*
X181984948Y-60591577D01*
X181846108Y-60504338D01*
X182709562Y-59640883D01*
X182709561Y-59640882D01*
X182567047Y-59534197D01*
X182315950Y-59397088D01*
X182315951Y-59397088D01*
X182047902Y-59297111D01*
X181768353Y-59236299D01*
X181483000Y-59215891D01*
X181197646Y-59236299D01*
X180918097Y-59297111D01*
X180845133Y-59324326D01*
X180774317Y-59329390D01*
X180712005Y-59295365D01*
X180677980Y-59233053D01*
X180678260Y-59178232D01*
X180683198Y-59156600D01*
X180722769Y-58983228D01*
X180742420Y-58721000D01*
X189477891Y-58721000D01*
X189498299Y-59006353D01*
X189559111Y-59285902D01*
X189659088Y-59553951D01*
X189796197Y-59805047D01*
X189902882Y-59947561D01*
X189902883Y-59947562D01*
X190766338Y-59084107D01*
X190853577Y-59222948D01*
X190981052Y-59350423D01*
X191119890Y-59437660D01*
X190256436Y-60301115D01*
X190256437Y-60301116D01*
X190398952Y-60407802D01*
X190650049Y-60544911D01*
X190650048Y-60544911D01*
X190918097Y-60644888D01*
X191197646Y-60705700D01*
X191483000Y-60726108D01*
X191768353Y-60705700D01*
X192047902Y-60644888D01*
X192315951Y-60544911D01*
X192567043Y-60407805D01*
X192709561Y-60301115D01*
X192709562Y-60301115D01*
X191846108Y-59437661D01*
X191984948Y-59350423D01*
X192112423Y-59222948D01*
X192199661Y-59084108D01*
X193063115Y-59947562D01*
X193063115Y-59947561D01*
X193169805Y-59805043D01*
X193306911Y-59553951D01*
X193406888Y-59285902D01*
X193467700Y-59006353D01*
X193488108Y-58721000D01*
X193467700Y-58435646D01*
X193406888Y-58156097D01*
X193306911Y-57888048D01*
X193169802Y-57636952D01*
X193063116Y-57494437D01*
X193063115Y-57494436D01*
X192199660Y-58357890D01*
X192112423Y-58219052D01*
X191984948Y-58091577D01*
X191846108Y-58004338D01*
X192709562Y-57140883D01*
X192709561Y-57140882D01*
X192567047Y-57034197D01*
X192315950Y-56897088D01*
X192315951Y-56897088D01*
X192047902Y-56797111D01*
X191768353Y-56736299D01*
X191483000Y-56715891D01*
X191197646Y-56736299D01*
X190918097Y-56797111D01*
X190650048Y-56897088D01*
X190398960Y-57034192D01*
X190256436Y-57140883D01*
X191119891Y-58004338D01*
X190981052Y-58091577D01*
X190853577Y-58219052D01*
X190766338Y-58357891D01*
X189902883Y-57494436D01*
X189796192Y-57636960D01*
X189659088Y-57888048D01*
X189559111Y-58156097D01*
X189498299Y-58435646D01*
X189477891Y-58721000D01*
X180742420Y-58721000D01*
X180722769Y-58458772D01*
X180664254Y-58202402D01*
X180583116Y-57995664D01*
X180568186Y-57957622D01*
X180568184Y-57957618D01*
X180436703Y-57729886D01*
X180272742Y-57524285D01*
X180079985Y-57345435D01*
X180079979Y-57345429D01*
X179927521Y-57241484D01*
X179882505Y-57186583D01*
X179872500Y-57137378D01*
X179872500Y-55030136D01*
X179892502Y-54962015D01*
X179909405Y-54941041D01*
X180766338Y-54084107D01*
X180853577Y-54222948D01*
X180981052Y-54350423D01*
X181119890Y-54437660D01*
X180256436Y-55301115D01*
X180256437Y-55301116D01*
X180398952Y-55407802D01*
X180650049Y-55544911D01*
X180650048Y-55544911D01*
X180918097Y-55644888D01*
X181197646Y-55705700D01*
X181483000Y-55726108D01*
X181768353Y-55705700D01*
X182047902Y-55644888D01*
X182315951Y-55544911D01*
X182567043Y-55407805D01*
X182709561Y-55301115D01*
X182709562Y-55301115D01*
X181846108Y-54437661D01*
X181984948Y-54350423D01*
X182112423Y-54222948D01*
X182199661Y-54084108D01*
X183063115Y-54947562D01*
X183063115Y-54947561D01*
X183169805Y-54805043D01*
X183306911Y-54553951D01*
X183406888Y-54285902D01*
X183467700Y-54006353D01*
X183488108Y-53721000D01*
X183467700Y-53435646D01*
X183406888Y-53156097D01*
X183306911Y-52888048D01*
X183169802Y-52636952D01*
X183063116Y-52494437D01*
X183063115Y-52494436D01*
X182199660Y-53357890D01*
X182112423Y-53219052D01*
X181984948Y-53091577D01*
X181846108Y-53004338D01*
X182709562Y-52140883D01*
X182709561Y-52140882D01*
X182567047Y-52034197D01*
X182315950Y-51897088D01*
X182315951Y-51897088D01*
X182047902Y-51797111D01*
X181768353Y-51736299D01*
X181483000Y-51715891D01*
X181197646Y-51736299D01*
X180918097Y-51797111D01*
X180650048Y-51897088D01*
X180398960Y-52034192D01*
X180256436Y-52140883D01*
X181119891Y-53004338D01*
X180981052Y-53091577D01*
X180853577Y-53219052D01*
X180766338Y-53357891D01*
X179909405Y-52500958D01*
X179875379Y-52438646D01*
X179872500Y-52411863D01*
X179872500Y-50304619D01*
X179892502Y-50236498D01*
X179927516Y-50200517D01*
X180079980Y-50096570D01*
X180272746Y-49917710D01*
X180436701Y-49712117D01*
X180568183Y-49484384D01*
X180574261Y-49468899D01*
X180607300Y-49384716D01*
X180664254Y-49239598D01*
X180722769Y-48983228D01*
X180742420Y-48721000D01*
X189477891Y-48721000D01*
X189498299Y-49006353D01*
X189559111Y-49285902D01*
X189659088Y-49553951D01*
X189796197Y-49805047D01*
X189902882Y-49947561D01*
X189902883Y-49947562D01*
X190766338Y-49084107D01*
X190853577Y-49222948D01*
X190981052Y-49350423D01*
X191119890Y-49437660D01*
X190256436Y-50301115D01*
X190256437Y-50301116D01*
X190398952Y-50407802D01*
X190650049Y-50544911D01*
X190650048Y-50544911D01*
X190918097Y-50644888D01*
X191197646Y-50705700D01*
X191483000Y-50726108D01*
X191768353Y-50705700D01*
X192047902Y-50644888D01*
X192315951Y-50544911D01*
X192567043Y-50407805D01*
X192709561Y-50301115D01*
X192709562Y-50301115D01*
X191846108Y-49437661D01*
X191984948Y-49350423D01*
X192112423Y-49222948D01*
X192199661Y-49084108D01*
X193063115Y-49947562D01*
X193063115Y-49947561D01*
X193169805Y-49805043D01*
X193306911Y-49553951D01*
X193406888Y-49285902D01*
X193467700Y-49006353D01*
X193488108Y-48721000D01*
X193467700Y-48435646D01*
X193406888Y-48156097D01*
X193306911Y-47888048D01*
X193169802Y-47636952D01*
X193063116Y-47494437D01*
X193063115Y-47494436D01*
X192199660Y-48357890D01*
X192112423Y-48219052D01*
X191984948Y-48091577D01*
X191846108Y-48004338D01*
X192709562Y-47140883D01*
X192709561Y-47140882D01*
X192567047Y-47034197D01*
X192315950Y-46897088D01*
X192315951Y-46897088D01*
X192047902Y-46797111D01*
X191768353Y-46736299D01*
X191483000Y-46715891D01*
X191197646Y-46736299D01*
X190918097Y-46797111D01*
X190650048Y-46897088D01*
X190398960Y-47034192D01*
X190256436Y-47140883D01*
X191119891Y-48004338D01*
X190981052Y-48091577D01*
X190853577Y-48219052D01*
X190766338Y-48357891D01*
X189902883Y-47494436D01*
X189796192Y-47636960D01*
X189659088Y-47888048D01*
X189559111Y-48156097D01*
X189498299Y-48435646D01*
X189477891Y-48721000D01*
X180742420Y-48721000D01*
X180722769Y-48458772D01*
X180678260Y-48263766D01*
X180682602Y-48192903D01*
X180724567Y-48135636D01*
X180790831Y-48110148D01*
X180845134Y-48117674D01*
X180918093Y-48144887D01*
X181197646Y-48205700D01*
X181483000Y-48226108D01*
X181768353Y-48205700D01*
X182047902Y-48144888D01*
X182315951Y-48044911D01*
X182567043Y-47907805D01*
X182709561Y-47801115D01*
X182709562Y-47801115D01*
X181846108Y-46937661D01*
X181984948Y-46850423D01*
X182112423Y-46722948D01*
X182199661Y-46584108D01*
X183063115Y-47447562D01*
X183063115Y-47447561D01*
X183169805Y-47305043D01*
X183306911Y-47053951D01*
X183406888Y-46785902D01*
X183467700Y-46506353D01*
X183488108Y-46221000D01*
X183467700Y-45935646D01*
X183406888Y-45656097D01*
X183306911Y-45388048D01*
X183169802Y-45136952D01*
X183063116Y-44994437D01*
X183063115Y-44994436D01*
X182199660Y-45857890D01*
X182112423Y-45719052D01*
X181984948Y-45591577D01*
X181846108Y-45504338D01*
X182709562Y-44640883D01*
X182709561Y-44640882D01*
X182567047Y-44534197D01*
X182315953Y-44397089D01*
X182151956Y-44335922D01*
X182095121Y-44293375D01*
X182070310Y-44226855D01*
X182085402Y-44157481D01*
X182088749Y-44151718D01*
X182119956Y-44101123D01*
X182175106Y-43934691D01*
X182185599Y-43831987D01*
X182185600Y-43831987D01*
X182185600Y-43560000D01*
X182205602Y-43491879D01*
X182259258Y-43445386D01*
X182311600Y-43434000D01*
X193675500Y-43434000D01*
X193743621Y-43454002D01*
G37*
%TD.AperFunction*%
%TA.AperFunction,Conductor*%
G36*
X179990241Y-43949355D02*
G01*
X180040445Y-43999555D01*
X180049463Y-44020310D01*
X180076241Y-44101119D01*
X180168283Y-44250344D01*
X180168288Y-44250350D01*
X180292249Y-44374311D01*
X180292255Y-44374316D01*
X180310298Y-44385445D01*
X180357776Y-44438231D01*
X180369179Y-44508306D01*
X180340887Y-44573422D01*
X180319660Y-44593554D01*
X180256437Y-44640882D01*
X180256436Y-44640883D01*
X181119891Y-45504338D01*
X180981052Y-45591577D01*
X180853577Y-45719052D01*
X180766338Y-45857891D01*
X179902883Y-44994436D01*
X179796192Y-45136960D01*
X179659089Y-45388046D01*
X179608556Y-45523533D01*
X179566009Y-45580368D01*
X179499489Y-45605179D01*
X179430114Y-45590087D01*
X179379912Y-45539885D01*
X179364500Y-45479500D01*
X179364500Y-44404415D01*
X179384502Y-44336294D01*
X179438158Y-44289801D01*
X179461528Y-44281791D01*
X179468927Y-44280041D01*
X179468942Y-44280040D01*
X179604867Y-44229342D01*
X179721004Y-44142404D01*
X179807942Y-44026267D01*
X179811804Y-44015911D01*
X179854347Y-43959078D01*
X179920866Y-43934265D01*
X179990241Y-43949355D01*
G37*
%TD.AperFunction*%
%TD*%
M02*
