%TF.GenerationSoftware,KiCad,Pcbnew,7.0.11-7.0.11~ubuntu22.04.1*%
%TF.CreationDate,2025-02-08T19:00:29-05:00*%
%TF.ProjectId,C64UltimatePSU,43363455-6c74-4696-9d61-74655053552e,rev?*%
%TF.SameCoordinates,Original*%
%TF.FileFunction,Drillmap*%
%TF.FilePolarity,Positive*%
%FSLAX45Y45*%
G04 Gerber Fmt 4.5, Leading zero omitted, Abs format (unit mm)*
G04 Created by KiCad (PCBNEW 7.0.11-7.0.11~ubuntu22.04.1) date 2025-02-08 19:00:29*
%MOMM*%
%LPD*%
G01*
G04 APERTURE LIST*
%ADD10C,0.100000*%
%ADD11C,0.200000*%
%ADD12C,0.350000*%
G04 APERTURE END LIST*
D10*
X9300000Y-3505200D02*
X19380200Y-3505200D01*
X19380200Y-9144000D01*
X9300000Y-9144000D01*
X9300000Y-3505200D01*
D11*
D12*
X9527800Y-8562600D02*
X9877800Y-8912600D01*
X9877800Y-8562600D02*
X9527800Y-8912600D01*
X17375000Y-3725000D02*
X17725000Y-4075000D01*
X17725000Y-3725000D02*
X17375000Y-4075000D01*
D11*
X9555777Y-9460484D02*
X9555777Y-9260484D01*
X9555777Y-9260484D02*
X9603396Y-9260484D01*
X9603396Y-9260484D02*
X9631967Y-9270008D01*
X9631967Y-9270008D02*
X9651015Y-9289055D01*
X9651015Y-9289055D02*
X9660539Y-9308103D01*
X9660539Y-9308103D02*
X9670063Y-9346198D01*
X9670063Y-9346198D02*
X9670063Y-9374770D01*
X9670063Y-9374770D02*
X9660539Y-9412865D01*
X9660539Y-9412865D02*
X9651015Y-9431912D01*
X9651015Y-9431912D02*
X9631967Y-9450960D01*
X9631967Y-9450960D02*
X9603396Y-9460484D01*
X9603396Y-9460484D02*
X9555777Y-9460484D01*
X9755777Y-9460484D02*
X9755777Y-9327150D01*
X9755777Y-9365246D02*
X9765301Y-9346198D01*
X9765301Y-9346198D02*
X9774824Y-9336674D01*
X9774824Y-9336674D02*
X9793872Y-9327150D01*
X9793872Y-9327150D02*
X9812920Y-9327150D01*
X9879586Y-9460484D02*
X9879586Y-9327150D01*
X9879586Y-9260484D02*
X9870063Y-9270008D01*
X9870063Y-9270008D02*
X9879586Y-9279531D01*
X9879586Y-9279531D02*
X9889110Y-9270008D01*
X9889110Y-9270008D02*
X9879586Y-9260484D01*
X9879586Y-9260484D02*
X9879586Y-9279531D01*
X10003396Y-9460484D02*
X9984348Y-9450960D01*
X9984348Y-9450960D02*
X9974824Y-9431912D01*
X9974824Y-9431912D02*
X9974824Y-9260484D01*
X10108158Y-9460484D02*
X10089110Y-9450960D01*
X10089110Y-9450960D02*
X10079586Y-9431912D01*
X10079586Y-9431912D02*
X10079586Y-9260484D01*
X10336729Y-9460484D02*
X10336729Y-9260484D01*
X10336729Y-9260484D02*
X10403396Y-9403341D01*
X10403396Y-9403341D02*
X10470063Y-9260484D01*
X10470063Y-9260484D02*
X10470063Y-9460484D01*
X10651015Y-9460484D02*
X10651015Y-9355722D01*
X10651015Y-9355722D02*
X10641491Y-9336674D01*
X10641491Y-9336674D02*
X10622444Y-9327150D01*
X10622444Y-9327150D02*
X10584348Y-9327150D01*
X10584348Y-9327150D02*
X10565301Y-9336674D01*
X10651015Y-9450960D02*
X10631967Y-9460484D01*
X10631967Y-9460484D02*
X10584348Y-9460484D01*
X10584348Y-9460484D02*
X10565301Y-9450960D01*
X10565301Y-9450960D02*
X10555777Y-9431912D01*
X10555777Y-9431912D02*
X10555777Y-9412865D01*
X10555777Y-9412865D02*
X10565301Y-9393817D01*
X10565301Y-9393817D02*
X10584348Y-9384293D01*
X10584348Y-9384293D02*
X10631967Y-9384293D01*
X10631967Y-9384293D02*
X10651015Y-9374770D01*
X10746253Y-9327150D02*
X10746253Y-9527150D01*
X10746253Y-9336674D02*
X10765301Y-9327150D01*
X10765301Y-9327150D02*
X10803396Y-9327150D01*
X10803396Y-9327150D02*
X10822444Y-9336674D01*
X10822444Y-9336674D02*
X10831967Y-9346198D01*
X10831967Y-9346198D02*
X10841491Y-9365246D01*
X10841491Y-9365246D02*
X10841491Y-9422389D01*
X10841491Y-9422389D02*
X10831967Y-9441436D01*
X10831967Y-9441436D02*
X10822444Y-9450960D01*
X10822444Y-9450960D02*
X10803396Y-9460484D01*
X10803396Y-9460484D02*
X10765301Y-9460484D01*
X10765301Y-9460484D02*
X10746253Y-9450960D01*
X10927205Y-9441436D02*
X10936729Y-9450960D01*
X10936729Y-9450960D02*
X10927205Y-9460484D01*
X10927205Y-9460484D02*
X10917682Y-9450960D01*
X10917682Y-9450960D02*
X10927205Y-9441436D01*
X10927205Y-9441436D02*
X10927205Y-9460484D01*
X10927205Y-9336674D02*
X10936729Y-9346198D01*
X10936729Y-9346198D02*
X10927205Y-9355722D01*
X10927205Y-9355722D02*
X10917682Y-9346198D01*
X10917682Y-9346198D02*
X10927205Y-9336674D01*
X10927205Y-9336674D02*
X10927205Y-9355722D01*
X9095000Y-9689000D02*
X9295000Y-9889000D01*
X9295000Y-9689000D02*
X9095000Y-9889000D01*
X9536729Y-9680484D02*
X9660539Y-9680484D01*
X9660539Y-9680484D02*
X9593872Y-9756674D01*
X9593872Y-9756674D02*
X9622444Y-9756674D01*
X9622444Y-9756674D02*
X9641491Y-9766198D01*
X9641491Y-9766198D02*
X9651015Y-9775722D01*
X9651015Y-9775722D02*
X9660539Y-9794770D01*
X9660539Y-9794770D02*
X9660539Y-9842389D01*
X9660539Y-9842389D02*
X9651015Y-9861436D01*
X9651015Y-9861436D02*
X9641491Y-9870960D01*
X9641491Y-9870960D02*
X9622444Y-9880484D01*
X9622444Y-9880484D02*
X9565301Y-9880484D01*
X9565301Y-9880484D02*
X9546253Y-9870960D01*
X9546253Y-9870960D02*
X9536729Y-9861436D01*
X9746253Y-9861436D02*
X9755777Y-9870960D01*
X9755777Y-9870960D02*
X9746253Y-9880484D01*
X9746253Y-9880484D02*
X9736729Y-9870960D01*
X9736729Y-9870960D02*
X9746253Y-9861436D01*
X9746253Y-9861436D02*
X9746253Y-9880484D01*
X9936729Y-9680484D02*
X9841491Y-9680484D01*
X9841491Y-9680484D02*
X9831967Y-9775722D01*
X9831967Y-9775722D02*
X9841491Y-9766198D01*
X9841491Y-9766198D02*
X9860539Y-9756674D01*
X9860539Y-9756674D02*
X9908158Y-9756674D01*
X9908158Y-9756674D02*
X9927205Y-9766198D01*
X9927205Y-9766198D02*
X9936729Y-9775722D01*
X9936729Y-9775722D02*
X9946253Y-9794770D01*
X9946253Y-9794770D02*
X9946253Y-9842389D01*
X9946253Y-9842389D02*
X9936729Y-9861436D01*
X9936729Y-9861436D02*
X9927205Y-9870960D01*
X9927205Y-9870960D02*
X9908158Y-9880484D01*
X9908158Y-9880484D02*
X9860539Y-9880484D01*
X9860539Y-9880484D02*
X9841491Y-9870960D01*
X9841491Y-9870960D02*
X9831967Y-9861436D01*
X10070063Y-9680484D02*
X10089110Y-9680484D01*
X10089110Y-9680484D02*
X10108158Y-9690008D01*
X10108158Y-9690008D02*
X10117682Y-9699531D01*
X10117682Y-9699531D02*
X10127205Y-9718579D01*
X10127205Y-9718579D02*
X10136729Y-9756674D01*
X10136729Y-9756674D02*
X10136729Y-9804293D01*
X10136729Y-9804293D02*
X10127205Y-9842389D01*
X10127205Y-9842389D02*
X10117682Y-9861436D01*
X10117682Y-9861436D02*
X10108158Y-9870960D01*
X10108158Y-9870960D02*
X10089110Y-9880484D01*
X10089110Y-9880484D02*
X10070063Y-9880484D01*
X10070063Y-9880484D02*
X10051015Y-9870960D01*
X10051015Y-9870960D02*
X10041491Y-9861436D01*
X10041491Y-9861436D02*
X10031967Y-9842389D01*
X10031967Y-9842389D02*
X10022444Y-9804293D01*
X10022444Y-9804293D02*
X10022444Y-9756674D01*
X10022444Y-9756674D02*
X10031967Y-9718579D01*
X10031967Y-9718579D02*
X10041491Y-9699531D01*
X10041491Y-9699531D02*
X10051015Y-9690008D01*
X10051015Y-9690008D02*
X10070063Y-9680484D01*
X10260539Y-9680484D02*
X10279586Y-9680484D01*
X10279586Y-9680484D02*
X10298634Y-9690008D01*
X10298634Y-9690008D02*
X10308158Y-9699531D01*
X10308158Y-9699531D02*
X10317682Y-9718579D01*
X10317682Y-9718579D02*
X10327205Y-9756674D01*
X10327205Y-9756674D02*
X10327205Y-9804293D01*
X10327205Y-9804293D02*
X10317682Y-9842389D01*
X10317682Y-9842389D02*
X10308158Y-9861436D01*
X10308158Y-9861436D02*
X10298634Y-9870960D01*
X10298634Y-9870960D02*
X10279586Y-9880484D01*
X10279586Y-9880484D02*
X10260539Y-9880484D01*
X10260539Y-9880484D02*
X10241491Y-9870960D01*
X10241491Y-9870960D02*
X10231967Y-9861436D01*
X10231967Y-9861436D02*
X10222444Y-9842389D01*
X10222444Y-9842389D02*
X10212920Y-9804293D01*
X10212920Y-9804293D02*
X10212920Y-9756674D01*
X10212920Y-9756674D02*
X10222444Y-9718579D01*
X10222444Y-9718579D02*
X10231967Y-9699531D01*
X10231967Y-9699531D02*
X10241491Y-9690008D01*
X10241491Y-9690008D02*
X10260539Y-9680484D01*
X10412920Y-9880484D02*
X10412920Y-9747150D01*
X10412920Y-9766198D02*
X10422444Y-9756674D01*
X10422444Y-9756674D02*
X10441491Y-9747150D01*
X10441491Y-9747150D02*
X10470063Y-9747150D01*
X10470063Y-9747150D02*
X10489110Y-9756674D01*
X10489110Y-9756674D02*
X10498634Y-9775722D01*
X10498634Y-9775722D02*
X10498634Y-9880484D01*
X10498634Y-9775722D02*
X10508158Y-9756674D01*
X10508158Y-9756674D02*
X10527205Y-9747150D01*
X10527205Y-9747150D02*
X10555777Y-9747150D01*
X10555777Y-9747150D02*
X10574825Y-9756674D01*
X10574825Y-9756674D02*
X10584348Y-9775722D01*
X10584348Y-9775722D02*
X10584348Y-9880484D01*
X10679586Y-9880484D02*
X10679586Y-9747150D01*
X10679586Y-9766198D02*
X10689110Y-9756674D01*
X10689110Y-9756674D02*
X10708158Y-9747150D01*
X10708158Y-9747150D02*
X10736729Y-9747150D01*
X10736729Y-9747150D02*
X10755777Y-9756674D01*
X10755777Y-9756674D02*
X10765301Y-9775722D01*
X10765301Y-9775722D02*
X10765301Y-9880484D01*
X10765301Y-9775722D02*
X10774825Y-9756674D01*
X10774825Y-9756674D02*
X10793872Y-9747150D01*
X10793872Y-9747150D02*
X10822444Y-9747150D01*
X10822444Y-9747150D02*
X10841491Y-9756674D01*
X10841491Y-9756674D02*
X10851015Y-9775722D01*
X10851015Y-9775722D02*
X10851015Y-9880484D01*
X11241491Y-9670960D02*
X11070063Y-9928103D01*
X11498634Y-9680484D02*
X11517682Y-9680484D01*
X11517682Y-9680484D02*
X11536729Y-9690008D01*
X11536729Y-9690008D02*
X11546253Y-9699531D01*
X11546253Y-9699531D02*
X11555777Y-9718579D01*
X11555777Y-9718579D02*
X11565301Y-9756674D01*
X11565301Y-9756674D02*
X11565301Y-9804293D01*
X11565301Y-9804293D02*
X11555777Y-9842389D01*
X11555777Y-9842389D02*
X11546253Y-9861436D01*
X11546253Y-9861436D02*
X11536729Y-9870960D01*
X11536729Y-9870960D02*
X11517682Y-9880484D01*
X11517682Y-9880484D02*
X11498634Y-9880484D01*
X11498634Y-9880484D02*
X11479586Y-9870960D01*
X11479586Y-9870960D02*
X11470063Y-9861436D01*
X11470063Y-9861436D02*
X11460539Y-9842389D01*
X11460539Y-9842389D02*
X11451015Y-9804293D01*
X11451015Y-9804293D02*
X11451015Y-9756674D01*
X11451015Y-9756674D02*
X11460539Y-9718579D01*
X11460539Y-9718579D02*
X11470063Y-9699531D01*
X11470063Y-9699531D02*
X11479586Y-9690008D01*
X11479586Y-9690008D02*
X11498634Y-9680484D01*
X11651015Y-9861436D02*
X11660539Y-9870960D01*
X11660539Y-9870960D02*
X11651015Y-9880484D01*
X11651015Y-9880484D02*
X11641491Y-9870960D01*
X11641491Y-9870960D02*
X11651015Y-9861436D01*
X11651015Y-9861436D02*
X11651015Y-9880484D01*
X11851015Y-9880484D02*
X11736729Y-9880484D01*
X11793872Y-9880484D02*
X11793872Y-9680484D01*
X11793872Y-9680484D02*
X11774825Y-9709055D01*
X11774825Y-9709055D02*
X11755777Y-9728103D01*
X11755777Y-9728103D02*
X11736729Y-9737627D01*
X11917682Y-9680484D02*
X12041491Y-9680484D01*
X12041491Y-9680484D02*
X11974825Y-9756674D01*
X11974825Y-9756674D02*
X12003396Y-9756674D01*
X12003396Y-9756674D02*
X12022444Y-9766198D01*
X12022444Y-9766198D02*
X12031967Y-9775722D01*
X12031967Y-9775722D02*
X12041491Y-9794770D01*
X12041491Y-9794770D02*
X12041491Y-9842389D01*
X12041491Y-9842389D02*
X12031967Y-9861436D01*
X12031967Y-9861436D02*
X12022444Y-9870960D01*
X12022444Y-9870960D02*
X12003396Y-9880484D01*
X12003396Y-9880484D02*
X11946253Y-9880484D01*
X11946253Y-9880484D02*
X11927206Y-9870960D01*
X11927206Y-9870960D02*
X11917682Y-9861436D01*
X12108158Y-9680484D02*
X12241491Y-9680484D01*
X12241491Y-9680484D02*
X12155777Y-9880484D01*
X12346253Y-9766198D02*
X12327206Y-9756674D01*
X12327206Y-9756674D02*
X12317682Y-9747150D01*
X12317682Y-9747150D02*
X12308158Y-9728103D01*
X12308158Y-9728103D02*
X12308158Y-9718579D01*
X12308158Y-9718579D02*
X12317682Y-9699531D01*
X12317682Y-9699531D02*
X12327206Y-9690008D01*
X12327206Y-9690008D02*
X12346253Y-9680484D01*
X12346253Y-9680484D02*
X12384348Y-9680484D01*
X12384348Y-9680484D02*
X12403396Y-9690008D01*
X12403396Y-9690008D02*
X12412920Y-9699531D01*
X12412920Y-9699531D02*
X12422444Y-9718579D01*
X12422444Y-9718579D02*
X12422444Y-9728103D01*
X12422444Y-9728103D02*
X12412920Y-9747150D01*
X12412920Y-9747150D02*
X12403396Y-9756674D01*
X12403396Y-9756674D02*
X12384348Y-9766198D01*
X12384348Y-9766198D02*
X12346253Y-9766198D01*
X12346253Y-9766198D02*
X12327206Y-9775722D01*
X12327206Y-9775722D02*
X12317682Y-9785246D01*
X12317682Y-9785246D02*
X12308158Y-9804293D01*
X12308158Y-9804293D02*
X12308158Y-9842389D01*
X12308158Y-9842389D02*
X12317682Y-9861436D01*
X12317682Y-9861436D02*
X12327206Y-9870960D01*
X12327206Y-9870960D02*
X12346253Y-9880484D01*
X12346253Y-9880484D02*
X12384348Y-9880484D01*
X12384348Y-9880484D02*
X12403396Y-9870960D01*
X12403396Y-9870960D02*
X12412920Y-9861436D01*
X12412920Y-9861436D02*
X12422444Y-9842389D01*
X12422444Y-9842389D02*
X12422444Y-9804293D01*
X12422444Y-9804293D02*
X12412920Y-9785246D01*
X12412920Y-9785246D02*
X12403396Y-9775722D01*
X12403396Y-9775722D02*
X12384348Y-9766198D01*
X12498634Y-9680484D02*
X12498634Y-9718579D01*
X12574825Y-9680484D02*
X12574825Y-9718579D01*
X12870063Y-9956674D02*
X12860539Y-9947150D01*
X12860539Y-9947150D02*
X12841491Y-9918579D01*
X12841491Y-9918579D02*
X12831968Y-9899531D01*
X12831968Y-9899531D02*
X12822444Y-9870960D01*
X12822444Y-9870960D02*
X12812920Y-9823341D01*
X12812920Y-9823341D02*
X12812920Y-9785246D01*
X12812920Y-9785246D02*
X12822444Y-9737627D01*
X12822444Y-9737627D02*
X12831968Y-9709055D01*
X12831968Y-9709055D02*
X12841491Y-9690008D01*
X12841491Y-9690008D02*
X12860539Y-9661436D01*
X12860539Y-9661436D02*
X12870063Y-9651912D01*
X12936729Y-9699531D02*
X12946253Y-9690008D01*
X12946253Y-9690008D02*
X12965301Y-9680484D01*
X12965301Y-9680484D02*
X13012920Y-9680484D01*
X13012920Y-9680484D02*
X13031968Y-9690008D01*
X13031968Y-9690008D02*
X13041491Y-9699531D01*
X13041491Y-9699531D02*
X13051015Y-9718579D01*
X13051015Y-9718579D02*
X13051015Y-9737627D01*
X13051015Y-9737627D02*
X13041491Y-9766198D01*
X13041491Y-9766198D02*
X12927206Y-9880484D01*
X12927206Y-9880484D02*
X13051015Y-9880484D01*
X13289110Y-9880484D02*
X13289110Y-9680484D01*
X13374825Y-9880484D02*
X13374825Y-9775722D01*
X13374825Y-9775722D02*
X13365301Y-9756674D01*
X13365301Y-9756674D02*
X13346253Y-9747150D01*
X13346253Y-9747150D02*
X13317682Y-9747150D01*
X13317682Y-9747150D02*
X13298634Y-9756674D01*
X13298634Y-9756674D02*
X13289110Y-9766198D01*
X13498634Y-9880484D02*
X13479587Y-9870960D01*
X13479587Y-9870960D02*
X13470063Y-9861436D01*
X13470063Y-9861436D02*
X13460539Y-9842389D01*
X13460539Y-9842389D02*
X13460539Y-9785246D01*
X13460539Y-9785246D02*
X13470063Y-9766198D01*
X13470063Y-9766198D02*
X13479587Y-9756674D01*
X13479587Y-9756674D02*
X13498634Y-9747150D01*
X13498634Y-9747150D02*
X13527206Y-9747150D01*
X13527206Y-9747150D02*
X13546253Y-9756674D01*
X13546253Y-9756674D02*
X13555777Y-9766198D01*
X13555777Y-9766198D02*
X13565301Y-9785246D01*
X13565301Y-9785246D02*
X13565301Y-9842389D01*
X13565301Y-9842389D02*
X13555777Y-9861436D01*
X13555777Y-9861436D02*
X13546253Y-9870960D01*
X13546253Y-9870960D02*
X13527206Y-9880484D01*
X13527206Y-9880484D02*
X13498634Y-9880484D01*
X13679587Y-9880484D02*
X13660539Y-9870960D01*
X13660539Y-9870960D02*
X13651015Y-9851912D01*
X13651015Y-9851912D02*
X13651015Y-9680484D01*
X13831968Y-9870960D02*
X13812920Y-9880484D01*
X13812920Y-9880484D02*
X13774825Y-9880484D01*
X13774825Y-9880484D02*
X13755777Y-9870960D01*
X13755777Y-9870960D02*
X13746253Y-9851912D01*
X13746253Y-9851912D02*
X13746253Y-9775722D01*
X13746253Y-9775722D02*
X13755777Y-9756674D01*
X13755777Y-9756674D02*
X13774825Y-9747150D01*
X13774825Y-9747150D02*
X13812920Y-9747150D01*
X13812920Y-9747150D02*
X13831968Y-9756674D01*
X13831968Y-9756674D02*
X13841491Y-9775722D01*
X13841491Y-9775722D02*
X13841491Y-9794770D01*
X13841491Y-9794770D02*
X13746253Y-9813817D01*
X13917682Y-9870960D02*
X13936730Y-9880484D01*
X13936730Y-9880484D02*
X13974825Y-9880484D01*
X13974825Y-9880484D02*
X13993872Y-9870960D01*
X13993872Y-9870960D02*
X14003396Y-9851912D01*
X14003396Y-9851912D02*
X14003396Y-9842389D01*
X14003396Y-9842389D02*
X13993872Y-9823341D01*
X13993872Y-9823341D02*
X13974825Y-9813817D01*
X13974825Y-9813817D02*
X13946253Y-9813817D01*
X13946253Y-9813817D02*
X13927206Y-9804293D01*
X13927206Y-9804293D02*
X13917682Y-9785246D01*
X13917682Y-9785246D02*
X13917682Y-9775722D01*
X13917682Y-9775722D02*
X13927206Y-9756674D01*
X13927206Y-9756674D02*
X13946253Y-9747150D01*
X13946253Y-9747150D02*
X13974825Y-9747150D01*
X13974825Y-9747150D02*
X13993872Y-9756674D01*
X14070063Y-9956674D02*
X14079587Y-9947150D01*
X14079587Y-9947150D02*
X14098634Y-9918579D01*
X14098634Y-9918579D02*
X14108158Y-9899531D01*
X14108158Y-9899531D02*
X14117682Y-9870960D01*
X14117682Y-9870960D02*
X14127206Y-9823341D01*
X14127206Y-9823341D02*
X14127206Y-9785246D01*
X14127206Y-9785246D02*
X14117682Y-9737627D01*
X14117682Y-9737627D02*
X14108158Y-9709055D01*
X14108158Y-9709055D02*
X14098634Y-9690008D01*
X14098634Y-9690008D02*
X14079587Y-9661436D01*
X14079587Y-9661436D02*
X14070063Y-9651912D01*
X14431968Y-9956674D02*
X14422444Y-9947150D01*
X14422444Y-9947150D02*
X14403396Y-9918579D01*
X14403396Y-9918579D02*
X14393872Y-9899531D01*
X14393872Y-9899531D02*
X14384349Y-9870960D01*
X14384349Y-9870960D02*
X14374825Y-9823341D01*
X14374825Y-9823341D02*
X14374825Y-9785246D01*
X14374825Y-9785246D02*
X14384349Y-9737627D01*
X14384349Y-9737627D02*
X14393872Y-9709055D01*
X14393872Y-9709055D02*
X14403396Y-9690008D01*
X14403396Y-9690008D02*
X14422444Y-9661436D01*
X14422444Y-9661436D02*
X14431968Y-9651912D01*
X14508158Y-9747150D02*
X14508158Y-9880484D01*
X14508158Y-9766198D02*
X14517682Y-9756674D01*
X14517682Y-9756674D02*
X14536730Y-9747150D01*
X14536730Y-9747150D02*
X14565301Y-9747150D01*
X14565301Y-9747150D02*
X14584349Y-9756674D01*
X14584349Y-9756674D02*
X14593872Y-9775722D01*
X14593872Y-9775722D02*
X14593872Y-9880484D01*
X14717682Y-9880484D02*
X14698634Y-9870960D01*
X14698634Y-9870960D02*
X14689111Y-9861436D01*
X14689111Y-9861436D02*
X14679587Y-9842389D01*
X14679587Y-9842389D02*
X14679587Y-9785246D01*
X14679587Y-9785246D02*
X14689111Y-9766198D01*
X14689111Y-9766198D02*
X14698634Y-9756674D01*
X14698634Y-9756674D02*
X14717682Y-9747150D01*
X14717682Y-9747150D02*
X14746253Y-9747150D01*
X14746253Y-9747150D02*
X14765301Y-9756674D01*
X14765301Y-9756674D02*
X14774825Y-9766198D01*
X14774825Y-9766198D02*
X14784349Y-9785246D01*
X14784349Y-9785246D02*
X14784349Y-9842389D01*
X14784349Y-9842389D02*
X14774825Y-9861436D01*
X14774825Y-9861436D02*
X14765301Y-9870960D01*
X14765301Y-9870960D02*
X14746253Y-9880484D01*
X14746253Y-9880484D02*
X14717682Y-9880484D01*
X14841492Y-9747150D02*
X14917682Y-9747150D01*
X14870063Y-9680484D02*
X14870063Y-9851912D01*
X14870063Y-9851912D02*
X14879587Y-9870960D01*
X14879587Y-9870960D02*
X14898634Y-9880484D01*
X14898634Y-9880484D02*
X14917682Y-9880484D01*
X15136730Y-9747150D02*
X15136730Y-9947150D01*
X15136730Y-9756674D02*
X15155777Y-9747150D01*
X15155777Y-9747150D02*
X15193873Y-9747150D01*
X15193873Y-9747150D02*
X15212920Y-9756674D01*
X15212920Y-9756674D02*
X15222444Y-9766198D01*
X15222444Y-9766198D02*
X15231968Y-9785246D01*
X15231968Y-9785246D02*
X15231968Y-9842389D01*
X15231968Y-9842389D02*
X15222444Y-9861436D01*
X15222444Y-9861436D02*
X15212920Y-9870960D01*
X15212920Y-9870960D02*
X15193873Y-9880484D01*
X15193873Y-9880484D02*
X15155777Y-9880484D01*
X15155777Y-9880484D02*
X15136730Y-9870960D01*
X15346253Y-9880484D02*
X15327206Y-9870960D01*
X15327206Y-9870960D02*
X15317682Y-9851912D01*
X15317682Y-9851912D02*
X15317682Y-9680484D01*
X15508158Y-9880484D02*
X15508158Y-9775722D01*
X15508158Y-9775722D02*
X15498634Y-9756674D01*
X15498634Y-9756674D02*
X15479587Y-9747150D01*
X15479587Y-9747150D02*
X15441492Y-9747150D01*
X15441492Y-9747150D02*
X15422444Y-9756674D01*
X15508158Y-9870960D02*
X15489111Y-9880484D01*
X15489111Y-9880484D02*
X15441492Y-9880484D01*
X15441492Y-9880484D02*
X15422444Y-9870960D01*
X15422444Y-9870960D02*
X15412920Y-9851912D01*
X15412920Y-9851912D02*
X15412920Y-9832865D01*
X15412920Y-9832865D02*
X15422444Y-9813817D01*
X15422444Y-9813817D02*
X15441492Y-9804293D01*
X15441492Y-9804293D02*
X15489111Y-9804293D01*
X15489111Y-9804293D02*
X15508158Y-9794770D01*
X15574825Y-9747150D02*
X15651015Y-9747150D01*
X15603396Y-9680484D02*
X15603396Y-9851912D01*
X15603396Y-9851912D02*
X15612920Y-9870960D01*
X15612920Y-9870960D02*
X15631968Y-9880484D01*
X15631968Y-9880484D02*
X15651015Y-9880484D01*
X15793873Y-9870960D02*
X15774825Y-9880484D01*
X15774825Y-9880484D02*
X15736730Y-9880484D01*
X15736730Y-9880484D02*
X15717682Y-9870960D01*
X15717682Y-9870960D02*
X15708158Y-9851912D01*
X15708158Y-9851912D02*
X15708158Y-9775722D01*
X15708158Y-9775722D02*
X15717682Y-9756674D01*
X15717682Y-9756674D02*
X15736730Y-9747150D01*
X15736730Y-9747150D02*
X15774825Y-9747150D01*
X15774825Y-9747150D02*
X15793873Y-9756674D01*
X15793873Y-9756674D02*
X15803396Y-9775722D01*
X15803396Y-9775722D02*
X15803396Y-9794770D01*
X15803396Y-9794770D02*
X15708158Y-9813817D01*
X15974825Y-9880484D02*
X15974825Y-9680484D01*
X15974825Y-9870960D02*
X15955777Y-9880484D01*
X15955777Y-9880484D02*
X15917682Y-9880484D01*
X15917682Y-9880484D02*
X15898634Y-9870960D01*
X15898634Y-9870960D02*
X15889111Y-9861436D01*
X15889111Y-9861436D02*
X15879587Y-9842389D01*
X15879587Y-9842389D02*
X15879587Y-9785246D01*
X15879587Y-9785246D02*
X15889111Y-9766198D01*
X15889111Y-9766198D02*
X15898634Y-9756674D01*
X15898634Y-9756674D02*
X15917682Y-9747150D01*
X15917682Y-9747150D02*
X15955777Y-9747150D01*
X15955777Y-9747150D02*
X15974825Y-9756674D01*
X16051015Y-9956674D02*
X16060539Y-9947150D01*
X16060539Y-9947150D02*
X16079587Y-9918579D01*
X16079587Y-9918579D02*
X16089111Y-9899531D01*
X16089111Y-9899531D02*
X16098634Y-9870960D01*
X16098634Y-9870960D02*
X16108158Y-9823341D01*
X16108158Y-9823341D02*
X16108158Y-9785246D01*
X16108158Y-9785246D02*
X16098634Y-9737627D01*
X16098634Y-9737627D02*
X16089111Y-9709055D01*
X16089111Y-9709055D02*
X16079587Y-9690008D01*
X16079587Y-9690008D02*
X16060539Y-9661436D01*
X16060539Y-9661436D02*
X16051015Y-9651912D01*
M02*
