%TF.GenerationSoftware,KiCad,Pcbnew,7.0.11-7.0.11~ubuntu22.04.1*%
%TF.CreationDate,2025-02-08T19:00:34-05:00*%
%TF.ProjectId,C64UltimatePSU,43363455-6c74-4696-9d61-74655053552e,rev?*%
%TF.SameCoordinates,Original*%
%TF.FileFunction,Legend,Bot*%
%TF.FilePolarity,Positive*%
%FSLAX46Y46*%
G04 Gerber Fmt 4.6, Leading zero omitted, Abs format (unit mm)*
G04 Created by KiCad (PCBNEW 7.0.11-7.0.11~ubuntu22.04.1) date 2025-02-08 19:00:34*
%MOMM*%
%LPD*%
G01*
G04 APERTURE LIST*
%ADD10C,0.150000*%
%ADD11C,0.125000*%
%ADD12C,0.120000*%
%ADD13C,0.127000*%
%ADD14C,0.200000*%
G04 APERTURE END LIST*
D10*
X145554458Y-42235219D02*
X145316363Y-43235219D01*
X145316363Y-43235219D02*
X145125887Y-42520933D01*
X145125887Y-42520933D02*
X144935411Y-43235219D01*
X144935411Y-43235219D02*
X144697316Y-42235219D01*
X144363982Y-42949504D02*
X143887792Y-42949504D01*
X144459220Y-43235219D02*
X144125887Y-42235219D01*
X144125887Y-42235219D02*
X143792554Y-43235219D01*
X142887792Y-43235219D02*
X143221125Y-42759028D01*
X143459220Y-43235219D02*
X143459220Y-42235219D01*
X143459220Y-42235219D02*
X143078268Y-42235219D01*
X143078268Y-42235219D02*
X142983030Y-42282838D01*
X142983030Y-42282838D02*
X142935411Y-42330457D01*
X142935411Y-42330457D02*
X142887792Y-42425695D01*
X142887792Y-42425695D02*
X142887792Y-42568552D01*
X142887792Y-42568552D02*
X142935411Y-42663790D01*
X142935411Y-42663790D02*
X142983030Y-42711409D01*
X142983030Y-42711409D02*
X143078268Y-42759028D01*
X143078268Y-42759028D02*
X143459220Y-42759028D01*
X142459220Y-43235219D02*
X142459220Y-42235219D01*
X142459220Y-42235219D02*
X141887792Y-43235219D01*
X141887792Y-43235219D02*
X141887792Y-42235219D01*
X141411601Y-43235219D02*
X141411601Y-42235219D01*
X140935411Y-43235219D02*
X140935411Y-42235219D01*
X140935411Y-42235219D02*
X140363983Y-43235219D01*
X140363983Y-43235219D02*
X140363983Y-42235219D01*
X139363983Y-42282838D02*
X139459221Y-42235219D01*
X139459221Y-42235219D02*
X139602078Y-42235219D01*
X139602078Y-42235219D02*
X139744935Y-42282838D01*
X139744935Y-42282838D02*
X139840173Y-42378076D01*
X139840173Y-42378076D02*
X139887792Y-42473314D01*
X139887792Y-42473314D02*
X139935411Y-42663790D01*
X139935411Y-42663790D02*
X139935411Y-42806647D01*
X139935411Y-42806647D02*
X139887792Y-42997123D01*
X139887792Y-42997123D02*
X139840173Y-43092361D01*
X139840173Y-43092361D02*
X139744935Y-43187600D01*
X139744935Y-43187600D02*
X139602078Y-43235219D01*
X139602078Y-43235219D02*
X139506840Y-43235219D01*
X139506840Y-43235219D02*
X139363983Y-43187600D01*
X139363983Y-43187600D02*
X139316364Y-43139980D01*
X139316364Y-43139980D02*
X139316364Y-42806647D01*
X139316364Y-42806647D02*
X139506840Y-42806647D01*
X138887792Y-43139980D02*
X138840173Y-43187600D01*
X138840173Y-43187600D02*
X138887792Y-43235219D01*
X138887792Y-43235219D02*
X138935411Y-43187600D01*
X138935411Y-43187600D02*
X138887792Y-43139980D01*
X138887792Y-43139980D02*
X138887792Y-43235219D01*
X138887792Y-42854266D02*
X138935411Y-42282838D01*
X138935411Y-42282838D02*
X138887792Y-42235219D01*
X138887792Y-42235219D02*
X138840173Y-42282838D01*
X138840173Y-42282838D02*
X138887792Y-42854266D01*
X138887792Y-42854266D02*
X138887792Y-42235219D01*
X138411602Y-43139980D02*
X138363983Y-43187600D01*
X138363983Y-43187600D02*
X138411602Y-43235219D01*
X138411602Y-43235219D02*
X138459221Y-43187600D01*
X138459221Y-43187600D02*
X138411602Y-43139980D01*
X138411602Y-43139980D02*
X138411602Y-43235219D01*
X138411602Y-42854266D02*
X138459221Y-42282838D01*
X138459221Y-42282838D02*
X138411602Y-42235219D01*
X138411602Y-42235219D02*
X138363983Y-42282838D01*
X138363983Y-42282838D02*
X138411602Y-42854266D01*
X138411602Y-42854266D02*
X138411602Y-42235219D01*
X137935412Y-43139980D02*
X137887793Y-43187600D01*
X137887793Y-43187600D02*
X137935412Y-43235219D01*
X137935412Y-43235219D02*
X137983031Y-43187600D01*
X137983031Y-43187600D02*
X137935412Y-43139980D01*
X137935412Y-43139980D02*
X137935412Y-43235219D01*
X137935412Y-42854266D02*
X137983031Y-42282838D01*
X137983031Y-42282838D02*
X137935412Y-42235219D01*
X137935412Y-42235219D02*
X137887793Y-42282838D01*
X137887793Y-42282838D02*
X137935412Y-42854266D01*
X137935412Y-42854266D02*
X137935412Y-42235219D01*
X137459222Y-43139980D02*
X137411603Y-43187600D01*
X137411603Y-43187600D02*
X137459222Y-43235219D01*
X137459222Y-43235219D02*
X137506841Y-43187600D01*
X137506841Y-43187600D02*
X137459222Y-43139980D01*
X137459222Y-43139980D02*
X137459222Y-43235219D01*
X137459222Y-42854266D02*
X137506841Y-42282838D01*
X137506841Y-42282838D02*
X137459222Y-42235219D01*
X137459222Y-42235219D02*
X137411603Y-42282838D01*
X137411603Y-42282838D02*
X137459222Y-42854266D01*
X137459222Y-42854266D02*
X137459222Y-42235219D01*
X145602077Y-43845219D02*
X145030649Y-43845219D01*
X145316363Y-44845219D02*
X145316363Y-43845219D01*
X144697315Y-44845219D02*
X144697315Y-43845219D01*
X144268744Y-44845219D02*
X144268744Y-44321409D01*
X144268744Y-44321409D02*
X144316363Y-44226171D01*
X144316363Y-44226171D02*
X144411601Y-44178552D01*
X144411601Y-44178552D02*
X144554458Y-44178552D01*
X144554458Y-44178552D02*
X144649696Y-44226171D01*
X144649696Y-44226171D02*
X144697315Y-44273790D01*
X143792553Y-44845219D02*
X143792553Y-44178552D01*
X143792553Y-43845219D02*
X143840172Y-43892838D01*
X143840172Y-43892838D02*
X143792553Y-43940457D01*
X143792553Y-43940457D02*
X143744934Y-43892838D01*
X143744934Y-43892838D02*
X143792553Y-43845219D01*
X143792553Y-43845219D02*
X143792553Y-43940457D01*
X143363982Y-44797600D02*
X143268744Y-44845219D01*
X143268744Y-44845219D02*
X143078268Y-44845219D01*
X143078268Y-44845219D02*
X142983030Y-44797600D01*
X142983030Y-44797600D02*
X142935411Y-44702361D01*
X142935411Y-44702361D02*
X142935411Y-44654742D01*
X142935411Y-44654742D02*
X142983030Y-44559504D01*
X142983030Y-44559504D02*
X143078268Y-44511885D01*
X143078268Y-44511885D02*
X143221125Y-44511885D01*
X143221125Y-44511885D02*
X143316363Y-44464266D01*
X143316363Y-44464266D02*
X143363982Y-44369028D01*
X143363982Y-44369028D02*
X143363982Y-44321409D01*
X143363982Y-44321409D02*
X143316363Y-44226171D01*
X143316363Y-44226171D02*
X143221125Y-44178552D01*
X143221125Y-44178552D02*
X143078268Y-44178552D01*
X143078268Y-44178552D02*
X142983030Y-44226171D01*
X141316363Y-44797600D02*
X141411601Y-44845219D01*
X141411601Y-44845219D02*
X141602077Y-44845219D01*
X141602077Y-44845219D02*
X141697315Y-44797600D01*
X141697315Y-44797600D02*
X141744934Y-44749980D01*
X141744934Y-44749980D02*
X141792553Y-44654742D01*
X141792553Y-44654742D02*
X141792553Y-44369028D01*
X141792553Y-44369028D02*
X141744934Y-44273790D01*
X141744934Y-44273790D02*
X141697315Y-44226171D01*
X141697315Y-44226171D02*
X141602077Y-44178552D01*
X141602077Y-44178552D02*
X141411601Y-44178552D01*
X141411601Y-44178552D02*
X141316363Y-44226171D01*
X140887791Y-44845219D02*
X140887791Y-44178552D01*
X140887791Y-43845219D02*
X140935410Y-43892838D01*
X140935410Y-43892838D02*
X140887791Y-43940457D01*
X140887791Y-43940457D02*
X140840172Y-43892838D01*
X140840172Y-43892838D02*
X140887791Y-43845219D01*
X140887791Y-43845219D02*
X140887791Y-43940457D01*
X140411601Y-44845219D02*
X140411601Y-44178552D01*
X140411601Y-44369028D02*
X140363982Y-44273790D01*
X140363982Y-44273790D02*
X140316363Y-44226171D01*
X140316363Y-44226171D02*
X140221125Y-44178552D01*
X140221125Y-44178552D02*
X140125887Y-44178552D01*
X139363982Y-44797600D02*
X139459220Y-44845219D01*
X139459220Y-44845219D02*
X139649696Y-44845219D01*
X139649696Y-44845219D02*
X139744934Y-44797600D01*
X139744934Y-44797600D02*
X139792553Y-44749980D01*
X139792553Y-44749980D02*
X139840172Y-44654742D01*
X139840172Y-44654742D02*
X139840172Y-44369028D01*
X139840172Y-44369028D02*
X139792553Y-44273790D01*
X139792553Y-44273790D02*
X139744934Y-44226171D01*
X139744934Y-44226171D02*
X139649696Y-44178552D01*
X139649696Y-44178552D02*
X139459220Y-44178552D01*
X139459220Y-44178552D02*
X139363982Y-44226171D01*
X138506839Y-44178552D02*
X138506839Y-44845219D01*
X138935410Y-44178552D02*
X138935410Y-44702361D01*
X138935410Y-44702361D02*
X138887791Y-44797600D01*
X138887791Y-44797600D02*
X138792553Y-44845219D01*
X138792553Y-44845219D02*
X138649696Y-44845219D01*
X138649696Y-44845219D02*
X138554458Y-44797600D01*
X138554458Y-44797600D02*
X138506839Y-44749980D01*
X138030648Y-44845219D02*
X138030648Y-44178552D01*
X138030648Y-43845219D02*
X138078267Y-43892838D01*
X138078267Y-43892838D02*
X138030648Y-43940457D01*
X138030648Y-43940457D02*
X137983029Y-43892838D01*
X137983029Y-43892838D02*
X138030648Y-43845219D01*
X138030648Y-43845219D02*
X138030648Y-43940457D01*
X137697315Y-44178552D02*
X137316363Y-44178552D01*
X137554458Y-43845219D02*
X137554458Y-44702361D01*
X137554458Y-44702361D02*
X137506839Y-44797600D01*
X137506839Y-44797600D02*
X137411601Y-44845219D01*
X137411601Y-44845219D02*
X137316363Y-44845219D01*
X136221124Y-44845219D02*
X136221124Y-44178552D01*
X136221124Y-43845219D02*
X136268743Y-43892838D01*
X136268743Y-43892838D02*
X136221124Y-43940457D01*
X136221124Y-43940457D02*
X136173505Y-43892838D01*
X136173505Y-43892838D02*
X136221124Y-43845219D01*
X136221124Y-43845219D02*
X136221124Y-43940457D01*
X135792553Y-44797600D02*
X135697315Y-44845219D01*
X135697315Y-44845219D02*
X135506839Y-44845219D01*
X135506839Y-44845219D02*
X135411601Y-44797600D01*
X135411601Y-44797600D02*
X135363982Y-44702361D01*
X135363982Y-44702361D02*
X135363982Y-44654742D01*
X135363982Y-44654742D02*
X135411601Y-44559504D01*
X135411601Y-44559504D02*
X135506839Y-44511885D01*
X135506839Y-44511885D02*
X135649696Y-44511885D01*
X135649696Y-44511885D02*
X135744934Y-44464266D01*
X135744934Y-44464266D02*
X135792553Y-44369028D01*
X135792553Y-44369028D02*
X135792553Y-44321409D01*
X135792553Y-44321409D02*
X135744934Y-44226171D01*
X135744934Y-44226171D02*
X135649696Y-44178552D01*
X135649696Y-44178552D02*
X135506839Y-44178552D01*
X135506839Y-44178552D02*
X135411601Y-44226171D01*
X133744934Y-44845219D02*
X133744934Y-44321409D01*
X133744934Y-44321409D02*
X133792553Y-44226171D01*
X133792553Y-44226171D02*
X133887791Y-44178552D01*
X133887791Y-44178552D02*
X134078267Y-44178552D01*
X134078267Y-44178552D02*
X134173505Y-44226171D01*
X133744934Y-44797600D02*
X133840172Y-44845219D01*
X133840172Y-44845219D02*
X134078267Y-44845219D01*
X134078267Y-44845219D02*
X134173505Y-44797600D01*
X134173505Y-44797600D02*
X134221124Y-44702361D01*
X134221124Y-44702361D02*
X134221124Y-44607123D01*
X134221124Y-44607123D02*
X134173505Y-44511885D01*
X134173505Y-44511885D02*
X134078267Y-44464266D01*
X134078267Y-44464266D02*
X133840172Y-44464266D01*
X133840172Y-44464266D02*
X133744934Y-44416647D01*
X133268743Y-44178552D02*
X133268743Y-44845219D01*
X133268743Y-44273790D02*
X133221124Y-44226171D01*
X133221124Y-44226171D02*
X133125886Y-44178552D01*
X133125886Y-44178552D02*
X132983029Y-44178552D01*
X132983029Y-44178552D02*
X132887791Y-44226171D01*
X132887791Y-44226171D02*
X132840172Y-44321409D01*
X132840172Y-44321409D02*
X132840172Y-44845219D01*
X131221124Y-44797600D02*
X131316362Y-44845219D01*
X131316362Y-44845219D02*
X131506838Y-44845219D01*
X131506838Y-44845219D02*
X131602076Y-44797600D01*
X131602076Y-44797600D02*
X131649695Y-44702361D01*
X131649695Y-44702361D02*
X131649695Y-44321409D01*
X131649695Y-44321409D02*
X131602076Y-44226171D01*
X131602076Y-44226171D02*
X131506838Y-44178552D01*
X131506838Y-44178552D02*
X131316362Y-44178552D01*
X131316362Y-44178552D02*
X131221124Y-44226171D01*
X131221124Y-44226171D02*
X131173505Y-44321409D01*
X131173505Y-44321409D02*
X131173505Y-44416647D01*
X131173505Y-44416647D02*
X131649695Y-44511885D01*
X130840171Y-44845219D02*
X130316362Y-44178552D01*
X130840171Y-44178552D02*
X130316362Y-44845219D01*
X129935409Y-44178552D02*
X129935409Y-45178552D01*
X129935409Y-44226171D02*
X129840171Y-44178552D01*
X129840171Y-44178552D02*
X129649695Y-44178552D01*
X129649695Y-44178552D02*
X129554457Y-44226171D01*
X129554457Y-44226171D02*
X129506838Y-44273790D01*
X129506838Y-44273790D02*
X129459219Y-44369028D01*
X129459219Y-44369028D02*
X129459219Y-44654742D01*
X129459219Y-44654742D02*
X129506838Y-44749980D01*
X129506838Y-44749980D02*
X129554457Y-44797600D01*
X129554457Y-44797600D02*
X129649695Y-44845219D01*
X129649695Y-44845219D02*
X129840171Y-44845219D01*
X129840171Y-44845219D02*
X129935409Y-44797600D01*
X128649695Y-44797600D02*
X128744933Y-44845219D01*
X128744933Y-44845219D02*
X128935409Y-44845219D01*
X128935409Y-44845219D02*
X129030647Y-44797600D01*
X129030647Y-44797600D02*
X129078266Y-44702361D01*
X129078266Y-44702361D02*
X129078266Y-44321409D01*
X129078266Y-44321409D02*
X129030647Y-44226171D01*
X129030647Y-44226171D02*
X128935409Y-44178552D01*
X128935409Y-44178552D02*
X128744933Y-44178552D01*
X128744933Y-44178552D02*
X128649695Y-44226171D01*
X128649695Y-44226171D02*
X128602076Y-44321409D01*
X128602076Y-44321409D02*
X128602076Y-44416647D01*
X128602076Y-44416647D02*
X129078266Y-44511885D01*
X128173504Y-44845219D02*
X128173504Y-44178552D01*
X128173504Y-44369028D02*
X128125885Y-44273790D01*
X128125885Y-44273790D02*
X128078266Y-44226171D01*
X128078266Y-44226171D02*
X127983028Y-44178552D01*
X127983028Y-44178552D02*
X127887790Y-44178552D01*
X127554456Y-44845219D02*
X127554456Y-44178552D01*
X127554456Y-43845219D02*
X127602075Y-43892838D01*
X127602075Y-43892838D02*
X127554456Y-43940457D01*
X127554456Y-43940457D02*
X127506837Y-43892838D01*
X127506837Y-43892838D02*
X127554456Y-43845219D01*
X127554456Y-43845219D02*
X127554456Y-43940457D01*
X127078266Y-44845219D02*
X127078266Y-44178552D01*
X127078266Y-44273790D02*
X127030647Y-44226171D01*
X127030647Y-44226171D02*
X126935409Y-44178552D01*
X126935409Y-44178552D02*
X126792552Y-44178552D01*
X126792552Y-44178552D02*
X126697314Y-44226171D01*
X126697314Y-44226171D02*
X126649695Y-44321409D01*
X126649695Y-44321409D02*
X126649695Y-44845219D01*
X126649695Y-44321409D02*
X126602076Y-44226171D01*
X126602076Y-44226171D02*
X126506838Y-44178552D01*
X126506838Y-44178552D02*
X126363981Y-44178552D01*
X126363981Y-44178552D02*
X126268742Y-44226171D01*
X126268742Y-44226171D02*
X126221123Y-44321409D01*
X126221123Y-44321409D02*
X126221123Y-44845219D01*
X125363981Y-44797600D02*
X125459219Y-44845219D01*
X125459219Y-44845219D02*
X125649695Y-44845219D01*
X125649695Y-44845219D02*
X125744933Y-44797600D01*
X125744933Y-44797600D02*
X125792552Y-44702361D01*
X125792552Y-44702361D02*
X125792552Y-44321409D01*
X125792552Y-44321409D02*
X125744933Y-44226171D01*
X125744933Y-44226171D02*
X125649695Y-44178552D01*
X125649695Y-44178552D02*
X125459219Y-44178552D01*
X125459219Y-44178552D02*
X125363981Y-44226171D01*
X125363981Y-44226171D02*
X125316362Y-44321409D01*
X125316362Y-44321409D02*
X125316362Y-44416647D01*
X125316362Y-44416647D02*
X125792552Y-44511885D01*
X124887790Y-44178552D02*
X124887790Y-44845219D01*
X124887790Y-44273790D02*
X124840171Y-44226171D01*
X124840171Y-44226171D02*
X124744933Y-44178552D01*
X124744933Y-44178552D02*
X124602076Y-44178552D01*
X124602076Y-44178552D02*
X124506838Y-44226171D01*
X124506838Y-44226171D02*
X124459219Y-44321409D01*
X124459219Y-44321409D02*
X124459219Y-44845219D01*
X124125885Y-44178552D02*
X123744933Y-44178552D01*
X123983028Y-43845219D02*
X123983028Y-44702361D01*
X123983028Y-44702361D02*
X123935409Y-44797600D01*
X123935409Y-44797600D02*
X123840171Y-44845219D01*
X123840171Y-44845219D02*
X123744933Y-44845219D01*
X122983028Y-44845219D02*
X122983028Y-44321409D01*
X122983028Y-44321409D02*
X123030647Y-44226171D01*
X123030647Y-44226171D02*
X123125885Y-44178552D01*
X123125885Y-44178552D02*
X123316361Y-44178552D01*
X123316361Y-44178552D02*
X123411599Y-44226171D01*
X122983028Y-44797600D02*
X123078266Y-44845219D01*
X123078266Y-44845219D02*
X123316361Y-44845219D01*
X123316361Y-44845219D02*
X123411599Y-44797600D01*
X123411599Y-44797600D02*
X123459218Y-44702361D01*
X123459218Y-44702361D02*
X123459218Y-44607123D01*
X123459218Y-44607123D02*
X123411599Y-44511885D01*
X123411599Y-44511885D02*
X123316361Y-44464266D01*
X123316361Y-44464266D02*
X123078266Y-44464266D01*
X123078266Y-44464266D02*
X122983028Y-44416647D01*
X122363980Y-44845219D02*
X122459218Y-44797600D01*
X122459218Y-44797600D02*
X122506837Y-44702361D01*
X122506837Y-44702361D02*
X122506837Y-43845219D01*
X121078265Y-44845219D02*
X121173503Y-44797600D01*
X121173503Y-44797600D02*
X121221122Y-44749980D01*
X121221122Y-44749980D02*
X121268741Y-44654742D01*
X121268741Y-44654742D02*
X121268741Y-44369028D01*
X121268741Y-44369028D02*
X121221122Y-44273790D01*
X121221122Y-44273790D02*
X121173503Y-44226171D01*
X121173503Y-44226171D02*
X121078265Y-44178552D01*
X121078265Y-44178552D02*
X120935408Y-44178552D01*
X120935408Y-44178552D02*
X120840170Y-44226171D01*
X120840170Y-44226171D02*
X120792551Y-44273790D01*
X120792551Y-44273790D02*
X120744932Y-44369028D01*
X120744932Y-44369028D02*
X120744932Y-44654742D01*
X120744932Y-44654742D02*
X120792551Y-44749980D01*
X120792551Y-44749980D02*
X120840170Y-44797600D01*
X120840170Y-44797600D02*
X120935408Y-44845219D01*
X120935408Y-44845219D02*
X121078265Y-44845219D01*
X120316360Y-44178552D02*
X120316360Y-45178552D01*
X120316360Y-44226171D02*
X120221122Y-44178552D01*
X120221122Y-44178552D02*
X120030646Y-44178552D01*
X120030646Y-44178552D02*
X119935408Y-44226171D01*
X119935408Y-44226171D02*
X119887789Y-44273790D01*
X119887789Y-44273790D02*
X119840170Y-44369028D01*
X119840170Y-44369028D02*
X119840170Y-44654742D01*
X119840170Y-44654742D02*
X119887789Y-44749980D01*
X119887789Y-44749980D02*
X119935408Y-44797600D01*
X119935408Y-44797600D02*
X120030646Y-44845219D01*
X120030646Y-44845219D02*
X120221122Y-44845219D01*
X120221122Y-44845219D02*
X120316360Y-44797600D01*
X119030646Y-44797600D02*
X119125884Y-44845219D01*
X119125884Y-44845219D02*
X119316360Y-44845219D01*
X119316360Y-44845219D02*
X119411598Y-44797600D01*
X119411598Y-44797600D02*
X119459217Y-44702361D01*
X119459217Y-44702361D02*
X119459217Y-44321409D01*
X119459217Y-44321409D02*
X119411598Y-44226171D01*
X119411598Y-44226171D02*
X119316360Y-44178552D01*
X119316360Y-44178552D02*
X119125884Y-44178552D01*
X119125884Y-44178552D02*
X119030646Y-44226171D01*
X119030646Y-44226171D02*
X118983027Y-44321409D01*
X118983027Y-44321409D02*
X118983027Y-44416647D01*
X118983027Y-44416647D02*
X119459217Y-44511885D01*
X118554455Y-44178552D02*
X118554455Y-44845219D01*
X118554455Y-44273790D02*
X118506836Y-44226171D01*
X118506836Y-44226171D02*
X118411598Y-44178552D01*
X118411598Y-44178552D02*
X118268741Y-44178552D01*
X118268741Y-44178552D02*
X118173503Y-44226171D01*
X118173503Y-44226171D02*
X118125884Y-44321409D01*
X118125884Y-44321409D02*
X118125884Y-44845219D01*
X117649693Y-44464266D02*
X116887789Y-44464266D01*
X116459217Y-44797600D02*
X116363979Y-44845219D01*
X116363979Y-44845219D02*
X116173503Y-44845219D01*
X116173503Y-44845219D02*
X116078265Y-44797600D01*
X116078265Y-44797600D02*
X116030646Y-44702361D01*
X116030646Y-44702361D02*
X116030646Y-44654742D01*
X116030646Y-44654742D02*
X116078265Y-44559504D01*
X116078265Y-44559504D02*
X116173503Y-44511885D01*
X116173503Y-44511885D02*
X116316360Y-44511885D01*
X116316360Y-44511885D02*
X116411598Y-44464266D01*
X116411598Y-44464266D02*
X116459217Y-44369028D01*
X116459217Y-44369028D02*
X116459217Y-44321409D01*
X116459217Y-44321409D02*
X116411598Y-44226171D01*
X116411598Y-44226171D02*
X116316360Y-44178552D01*
X116316360Y-44178552D02*
X116173503Y-44178552D01*
X116173503Y-44178552D02*
X116078265Y-44226171D01*
X115459217Y-44845219D02*
X115554455Y-44797600D01*
X115554455Y-44797600D02*
X115602074Y-44749980D01*
X115602074Y-44749980D02*
X115649693Y-44654742D01*
X115649693Y-44654742D02*
X115649693Y-44369028D01*
X115649693Y-44369028D02*
X115602074Y-44273790D01*
X115602074Y-44273790D02*
X115554455Y-44226171D01*
X115554455Y-44226171D02*
X115459217Y-44178552D01*
X115459217Y-44178552D02*
X115316360Y-44178552D01*
X115316360Y-44178552D02*
X115221122Y-44226171D01*
X115221122Y-44226171D02*
X115173503Y-44273790D01*
X115173503Y-44273790D02*
X115125884Y-44369028D01*
X115125884Y-44369028D02*
X115125884Y-44654742D01*
X115125884Y-44654742D02*
X115173503Y-44749980D01*
X115173503Y-44749980D02*
X115221122Y-44797600D01*
X115221122Y-44797600D02*
X115316360Y-44845219D01*
X115316360Y-44845219D02*
X115459217Y-44845219D01*
X114268741Y-44178552D02*
X114268741Y-44845219D01*
X114697312Y-44178552D02*
X114697312Y-44702361D01*
X114697312Y-44702361D02*
X114649693Y-44797600D01*
X114649693Y-44797600D02*
X114554455Y-44845219D01*
X114554455Y-44845219D02*
X114411598Y-44845219D01*
X114411598Y-44845219D02*
X114316360Y-44797600D01*
X114316360Y-44797600D02*
X114268741Y-44749980D01*
X113792550Y-44845219D02*
X113792550Y-44178552D01*
X113792550Y-44369028D02*
X113744931Y-44273790D01*
X113744931Y-44273790D02*
X113697312Y-44226171D01*
X113697312Y-44226171D02*
X113602074Y-44178552D01*
X113602074Y-44178552D02*
X113506836Y-44178552D01*
X112744931Y-44797600D02*
X112840169Y-44845219D01*
X112840169Y-44845219D02*
X113030645Y-44845219D01*
X113030645Y-44845219D02*
X113125883Y-44797600D01*
X113125883Y-44797600D02*
X113173502Y-44749980D01*
X113173502Y-44749980D02*
X113221121Y-44654742D01*
X113221121Y-44654742D02*
X113221121Y-44369028D01*
X113221121Y-44369028D02*
X113173502Y-44273790D01*
X113173502Y-44273790D02*
X113125883Y-44226171D01*
X113125883Y-44226171D02*
X113030645Y-44178552D01*
X113030645Y-44178552D02*
X112840169Y-44178552D01*
X112840169Y-44178552D02*
X112744931Y-44226171D01*
X111935407Y-44797600D02*
X112030645Y-44845219D01*
X112030645Y-44845219D02*
X112221121Y-44845219D01*
X112221121Y-44845219D02*
X112316359Y-44797600D01*
X112316359Y-44797600D02*
X112363978Y-44702361D01*
X112363978Y-44702361D02*
X112363978Y-44321409D01*
X112363978Y-44321409D02*
X112316359Y-44226171D01*
X112316359Y-44226171D02*
X112221121Y-44178552D01*
X112221121Y-44178552D02*
X112030645Y-44178552D01*
X112030645Y-44178552D02*
X111935407Y-44226171D01*
X111935407Y-44226171D02*
X111887788Y-44321409D01*
X111887788Y-44321409D02*
X111887788Y-44416647D01*
X111887788Y-44416647D02*
X112363978Y-44511885D01*
X145030649Y-46455219D02*
X145030649Y-45455219D01*
X145030649Y-46407600D02*
X145125887Y-46455219D01*
X145125887Y-46455219D02*
X145316363Y-46455219D01*
X145316363Y-46455219D02*
X145411601Y-46407600D01*
X145411601Y-46407600D02*
X145459220Y-46359980D01*
X145459220Y-46359980D02*
X145506839Y-46264742D01*
X145506839Y-46264742D02*
X145506839Y-45979028D01*
X145506839Y-45979028D02*
X145459220Y-45883790D01*
X145459220Y-45883790D02*
X145411601Y-45836171D01*
X145411601Y-45836171D02*
X145316363Y-45788552D01*
X145316363Y-45788552D02*
X145125887Y-45788552D01*
X145125887Y-45788552D02*
X145030649Y-45836171D01*
X144173506Y-46407600D02*
X144268744Y-46455219D01*
X144268744Y-46455219D02*
X144459220Y-46455219D01*
X144459220Y-46455219D02*
X144554458Y-46407600D01*
X144554458Y-46407600D02*
X144602077Y-46312361D01*
X144602077Y-46312361D02*
X144602077Y-45931409D01*
X144602077Y-45931409D02*
X144554458Y-45836171D01*
X144554458Y-45836171D02*
X144459220Y-45788552D01*
X144459220Y-45788552D02*
X144268744Y-45788552D01*
X144268744Y-45788552D02*
X144173506Y-45836171D01*
X144173506Y-45836171D02*
X144125887Y-45931409D01*
X144125887Y-45931409D02*
X144125887Y-46026647D01*
X144125887Y-46026647D02*
X144602077Y-46121885D01*
X143744934Y-46407600D02*
X143649696Y-46455219D01*
X143649696Y-46455219D02*
X143459220Y-46455219D01*
X143459220Y-46455219D02*
X143363982Y-46407600D01*
X143363982Y-46407600D02*
X143316363Y-46312361D01*
X143316363Y-46312361D02*
X143316363Y-46264742D01*
X143316363Y-46264742D02*
X143363982Y-46169504D01*
X143363982Y-46169504D02*
X143459220Y-46121885D01*
X143459220Y-46121885D02*
X143602077Y-46121885D01*
X143602077Y-46121885D02*
X143697315Y-46074266D01*
X143697315Y-46074266D02*
X143744934Y-45979028D01*
X143744934Y-45979028D02*
X143744934Y-45931409D01*
X143744934Y-45931409D02*
X143697315Y-45836171D01*
X143697315Y-45836171D02*
X143602077Y-45788552D01*
X143602077Y-45788552D02*
X143459220Y-45788552D01*
X143459220Y-45788552D02*
X143363982Y-45836171D01*
X142887791Y-46455219D02*
X142887791Y-45788552D01*
X142887791Y-45455219D02*
X142935410Y-45502838D01*
X142935410Y-45502838D02*
X142887791Y-45550457D01*
X142887791Y-45550457D02*
X142840172Y-45502838D01*
X142840172Y-45502838D02*
X142887791Y-45455219D01*
X142887791Y-45455219D02*
X142887791Y-45550457D01*
X141983030Y-45788552D02*
X141983030Y-46598076D01*
X141983030Y-46598076D02*
X142030649Y-46693314D01*
X142030649Y-46693314D02*
X142078268Y-46740933D01*
X142078268Y-46740933D02*
X142173506Y-46788552D01*
X142173506Y-46788552D02*
X142316363Y-46788552D01*
X142316363Y-46788552D02*
X142411601Y-46740933D01*
X141983030Y-46407600D02*
X142078268Y-46455219D01*
X142078268Y-46455219D02*
X142268744Y-46455219D01*
X142268744Y-46455219D02*
X142363982Y-46407600D01*
X142363982Y-46407600D02*
X142411601Y-46359980D01*
X142411601Y-46359980D02*
X142459220Y-46264742D01*
X142459220Y-46264742D02*
X142459220Y-45979028D01*
X142459220Y-45979028D02*
X142411601Y-45883790D01*
X142411601Y-45883790D02*
X142363982Y-45836171D01*
X142363982Y-45836171D02*
X142268744Y-45788552D01*
X142268744Y-45788552D02*
X142078268Y-45788552D01*
X142078268Y-45788552D02*
X141983030Y-45836171D01*
X141506839Y-45788552D02*
X141506839Y-46455219D01*
X141506839Y-45883790D02*
X141459220Y-45836171D01*
X141459220Y-45836171D02*
X141363982Y-45788552D01*
X141363982Y-45788552D02*
X141221125Y-45788552D01*
X141221125Y-45788552D02*
X141125887Y-45836171D01*
X141125887Y-45836171D02*
X141078268Y-45931409D01*
X141078268Y-45931409D02*
X141078268Y-46455219D01*
X140602077Y-46359980D02*
X140554458Y-46407600D01*
X140554458Y-46407600D02*
X140602077Y-46455219D01*
X140602077Y-46455219D02*
X140649696Y-46407600D01*
X140649696Y-46407600D02*
X140602077Y-46359980D01*
X140602077Y-46359980D02*
X140602077Y-46455219D01*
X139030649Y-45931409D02*
X138887792Y-45979028D01*
X138887792Y-45979028D02*
X138840173Y-46026647D01*
X138840173Y-46026647D02*
X138792554Y-46121885D01*
X138792554Y-46121885D02*
X138792554Y-46264742D01*
X138792554Y-46264742D02*
X138840173Y-46359980D01*
X138840173Y-46359980D02*
X138887792Y-46407600D01*
X138887792Y-46407600D02*
X138983030Y-46455219D01*
X138983030Y-46455219D02*
X139363982Y-46455219D01*
X139363982Y-46455219D02*
X139363982Y-45455219D01*
X139363982Y-45455219D02*
X139030649Y-45455219D01*
X139030649Y-45455219D02*
X138935411Y-45502838D01*
X138935411Y-45502838D02*
X138887792Y-45550457D01*
X138887792Y-45550457D02*
X138840173Y-45645695D01*
X138840173Y-45645695D02*
X138840173Y-45740933D01*
X138840173Y-45740933D02*
X138887792Y-45836171D01*
X138887792Y-45836171D02*
X138935411Y-45883790D01*
X138935411Y-45883790D02*
X139030649Y-45931409D01*
X139030649Y-45931409D02*
X139363982Y-45931409D01*
X138459220Y-45788552D02*
X138221125Y-46455219D01*
X137983030Y-45788552D02*
X138221125Y-46455219D01*
X138221125Y-46455219D02*
X138316363Y-46693314D01*
X138316363Y-46693314D02*
X138363982Y-46740933D01*
X138363982Y-46740933D02*
X138459220Y-46788552D01*
X136411601Y-45788552D02*
X136411601Y-46455219D01*
X136840172Y-45788552D02*
X136840172Y-46312361D01*
X136840172Y-46312361D02*
X136792553Y-46407600D01*
X136792553Y-46407600D02*
X136697315Y-46455219D01*
X136697315Y-46455219D02*
X136554458Y-46455219D01*
X136554458Y-46455219D02*
X136459220Y-46407600D01*
X136459220Y-46407600D02*
X136411601Y-46359980D01*
X135983029Y-46407600D02*
X135887791Y-46455219D01*
X135887791Y-46455219D02*
X135697315Y-46455219D01*
X135697315Y-46455219D02*
X135602077Y-46407600D01*
X135602077Y-46407600D02*
X135554458Y-46312361D01*
X135554458Y-46312361D02*
X135554458Y-46264742D01*
X135554458Y-46264742D02*
X135602077Y-46169504D01*
X135602077Y-46169504D02*
X135697315Y-46121885D01*
X135697315Y-46121885D02*
X135840172Y-46121885D01*
X135840172Y-46121885D02*
X135935410Y-46074266D01*
X135935410Y-46074266D02*
X135983029Y-45979028D01*
X135983029Y-45979028D02*
X135983029Y-45931409D01*
X135983029Y-45931409D02*
X135935410Y-45836171D01*
X135935410Y-45836171D02*
X135840172Y-45788552D01*
X135840172Y-45788552D02*
X135697315Y-45788552D01*
X135697315Y-45788552D02*
X135602077Y-45836171D01*
X135125886Y-46455219D02*
X135125886Y-45788552D01*
X135125886Y-45455219D02*
X135173505Y-45502838D01*
X135173505Y-45502838D02*
X135125886Y-45550457D01*
X135125886Y-45550457D02*
X135078267Y-45502838D01*
X135078267Y-45502838D02*
X135125886Y-45455219D01*
X135125886Y-45455219D02*
X135125886Y-45550457D01*
X134649696Y-45788552D02*
X134649696Y-46455219D01*
X134649696Y-45883790D02*
X134602077Y-45836171D01*
X134602077Y-45836171D02*
X134506839Y-45788552D01*
X134506839Y-45788552D02*
X134363982Y-45788552D01*
X134363982Y-45788552D02*
X134268744Y-45836171D01*
X134268744Y-45836171D02*
X134221125Y-45931409D01*
X134221125Y-45931409D02*
X134221125Y-46455219D01*
X133316363Y-45788552D02*
X133316363Y-46598076D01*
X133316363Y-46598076D02*
X133363982Y-46693314D01*
X133363982Y-46693314D02*
X133411601Y-46740933D01*
X133411601Y-46740933D02*
X133506839Y-46788552D01*
X133506839Y-46788552D02*
X133649696Y-46788552D01*
X133649696Y-46788552D02*
X133744934Y-46740933D01*
X133316363Y-46407600D02*
X133411601Y-46455219D01*
X133411601Y-46455219D02*
X133602077Y-46455219D01*
X133602077Y-46455219D02*
X133697315Y-46407600D01*
X133697315Y-46407600D02*
X133744934Y-46359980D01*
X133744934Y-46359980D02*
X133792553Y-46264742D01*
X133792553Y-46264742D02*
X133792553Y-45979028D01*
X133792553Y-45979028D02*
X133744934Y-45883790D01*
X133744934Y-45883790D02*
X133697315Y-45836171D01*
X133697315Y-45836171D02*
X133602077Y-45788552D01*
X133602077Y-45788552D02*
X133411601Y-45788552D01*
X133411601Y-45788552D02*
X133316363Y-45836171D01*
X132221124Y-45788552D02*
X131840172Y-45788552D01*
X132078267Y-45455219D02*
X132078267Y-46312361D01*
X132078267Y-46312361D02*
X132030648Y-46407600D01*
X132030648Y-46407600D02*
X131935410Y-46455219D01*
X131935410Y-46455219D02*
X131840172Y-46455219D01*
X131506838Y-46455219D02*
X131506838Y-45455219D01*
X131078267Y-46455219D02*
X131078267Y-45931409D01*
X131078267Y-45931409D02*
X131125886Y-45836171D01*
X131125886Y-45836171D02*
X131221124Y-45788552D01*
X131221124Y-45788552D02*
X131363981Y-45788552D01*
X131363981Y-45788552D02*
X131459219Y-45836171D01*
X131459219Y-45836171D02*
X131506838Y-45883790D01*
X130602076Y-46455219D02*
X130602076Y-45788552D01*
X130602076Y-45455219D02*
X130649695Y-45502838D01*
X130649695Y-45502838D02*
X130602076Y-45550457D01*
X130602076Y-45550457D02*
X130554457Y-45502838D01*
X130554457Y-45502838D02*
X130602076Y-45455219D01*
X130602076Y-45455219D02*
X130602076Y-45550457D01*
X130173505Y-46407600D02*
X130078267Y-46455219D01*
X130078267Y-46455219D02*
X129887791Y-46455219D01*
X129887791Y-46455219D02*
X129792553Y-46407600D01*
X129792553Y-46407600D02*
X129744934Y-46312361D01*
X129744934Y-46312361D02*
X129744934Y-46264742D01*
X129744934Y-46264742D02*
X129792553Y-46169504D01*
X129792553Y-46169504D02*
X129887791Y-46121885D01*
X129887791Y-46121885D02*
X130030648Y-46121885D01*
X130030648Y-46121885D02*
X130125886Y-46074266D01*
X130125886Y-46074266D02*
X130173505Y-45979028D01*
X130173505Y-45979028D02*
X130173505Y-45931409D01*
X130173505Y-45931409D02*
X130125886Y-45836171D01*
X130125886Y-45836171D02*
X130030648Y-45788552D01*
X130030648Y-45788552D02*
X129887791Y-45788552D01*
X129887791Y-45788552D02*
X129792553Y-45836171D01*
X128125886Y-46407600D02*
X128221124Y-46455219D01*
X128221124Y-46455219D02*
X128411600Y-46455219D01*
X128411600Y-46455219D02*
X128506838Y-46407600D01*
X128506838Y-46407600D02*
X128554457Y-46359980D01*
X128554457Y-46359980D02*
X128602076Y-46264742D01*
X128602076Y-46264742D02*
X128602076Y-45979028D01*
X128602076Y-45979028D02*
X128554457Y-45883790D01*
X128554457Y-45883790D02*
X128506838Y-45836171D01*
X128506838Y-45836171D02*
X128411600Y-45788552D01*
X128411600Y-45788552D02*
X128221124Y-45788552D01*
X128221124Y-45788552D02*
X128125886Y-45836171D01*
X127697314Y-46455219D02*
X127697314Y-45788552D01*
X127697314Y-45455219D02*
X127744933Y-45502838D01*
X127744933Y-45502838D02*
X127697314Y-45550457D01*
X127697314Y-45550457D02*
X127649695Y-45502838D01*
X127649695Y-45502838D02*
X127697314Y-45455219D01*
X127697314Y-45455219D02*
X127697314Y-45550457D01*
X127221124Y-46455219D02*
X127221124Y-45788552D01*
X127221124Y-45979028D02*
X127173505Y-45883790D01*
X127173505Y-45883790D02*
X127125886Y-45836171D01*
X127125886Y-45836171D02*
X127030648Y-45788552D01*
X127030648Y-45788552D02*
X126935410Y-45788552D01*
X126173505Y-46407600D02*
X126268743Y-46455219D01*
X126268743Y-46455219D02*
X126459219Y-46455219D01*
X126459219Y-46455219D02*
X126554457Y-46407600D01*
X126554457Y-46407600D02*
X126602076Y-46359980D01*
X126602076Y-46359980D02*
X126649695Y-46264742D01*
X126649695Y-46264742D02*
X126649695Y-45979028D01*
X126649695Y-45979028D02*
X126602076Y-45883790D01*
X126602076Y-45883790D02*
X126554457Y-45836171D01*
X126554457Y-45836171D02*
X126459219Y-45788552D01*
X126459219Y-45788552D02*
X126268743Y-45788552D01*
X126268743Y-45788552D02*
X126173505Y-45836171D01*
X125316362Y-45788552D02*
X125316362Y-46455219D01*
X125744933Y-45788552D02*
X125744933Y-46312361D01*
X125744933Y-46312361D02*
X125697314Y-46407600D01*
X125697314Y-46407600D02*
X125602076Y-46455219D01*
X125602076Y-46455219D02*
X125459219Y-46455219D01*
X125459219Y-46455219D02*
X125363981Y-46407600D01*
X125363981Y-46407600D02*
X125316362Y-46359980D01*
X124840171Y-46455219D02*
X124840171Y-45788552D01*
X124840171Y-45455219D02*
X124887790Y-45502838D01*
X124887790Y-45502838D02*
X124840171Y-45550457D01*
X124840171Y-45550457D02*
X124792552Y-45502838D01*
X124792552Y-45502838D02*
X124840171Y-45455219D01*
X124840171Y-45455219D02*
X124840171Y-45550457D01*
X124506838Y-45788552D02*
X124125886Y-45788552D01*
X124363981Y-45455219D02*
X124363981Y-46312361D01*
X124363981Y-46312361D02*
X124316362Y-46407600D01*
X124316362Y-46407600D02*
X124221124Y-46455219D01*
X124221124Y-46455219D02*
X124125886Y-46455219D01*
X123125885Y-45788552D02*
X122887790Y-46455219D01*
X122649695Y-45788552D02*
X122887790Y-46455219D01*
X122887790Y-46455219D02*
X122983028Y-46693314D01*
X122983028Y-46693314D02*
X123030647Y-46740933D01*
X123030647Y-46740933D02*
X123125885Y-46788552D01*
X122125885Y-46455219D02*
X122221123Y-46407600D01*
X122221123Y-46407600D02*
X122268742Y-46359980D01*
X122268742Y-46359980D02*
X122316361Y-46264742D01*
X122316361Y-46264742D02*
X122316361Y-45979028D01*
X122316361Y-45979028D02*
X122268742Y-45883790D01*
X122268742Y-45883790D02*
X122221123Y-45836171D01*
X122221123Y-45836171D02*
X122125885Y-45788552D01*
X122125885Y-45788552D02*
X121983028Y-45788552D01*
X121983028Y-45788552D02*
X121887790Y-45836171D01*
X121887790Y-45836171D02*
X121840171Y-45883790D01*
X121840171Y-45883790D02*
X121792552Y-45979028D01*
X121792552Y-45979028D02*
X121792552Y-46264742D01*
X121792552Y-46264742D02*
X121840171Y-46359980D01*
X121840171Y-46359980D02*
X121887790Y-46407600D01*
X121887790Y-46407600D02*
X121983028Y-46455219D01*
X121983028Y-46455219D02*
X122125885Y-46455219D01*
X120935409Y-45788552D02*
X120935409Y-46455219D01*
X121363980Y-45788552D02*
X121363980Y-46312361D01*
X121363980Y-46312361D02*
X121316361Y-46407600D01*
X121316361Y-46407600D02*
X121221123Y-46455219D01*
X121221123Y-46455219D02*
X121078266Y-46455219D01*
X121078266Y-46455219D02*
X120983028Y-46407600D01*
X120983028Y-46407600D02*
X120935409Y-46359980D01*
X119268742Y-46455219D02*
X119268742Y-45931409D01*
X119268742Y-45931409D02*
X119316361Y-45836171D01*
X119316361Y-45836171D02*
X119411599Y-45788552D01*
X119411599Y-45788552D02*
X119602075Y-45788552D01*
X119602075Y-45788552D02*
X119697313Y-45836171D01*
X119268742Y-46407600D02*
X119363980Y-46455219D01*
X119363980Y-46455219D02*
X119602075Y-46455219D01*
X119602075Y-46455219D02*
X119697313Y-46407600D01*
X119697313Y-46407600D02*
X119744932Y-46312361D01*
X119744932Y-46312361D02*
X119744932Y-46217123D01*
X119744932Y-46217123D02*
X119697313Y-46121885D01*
X119697313Y-46121885D02*
X119602075Y-46074266D01*
X119602075Y-46074266D02*
X119363980Y-46074266D01*
X119363980Y-46074266D02*
X119268742Y-46026647D01*
X118840170Y-46407600D02*
X118744932Y-46455219D01*
X118744932Y-46455219D02*
X118554456Y-46455219D01*
X118554456Y-46455219D02*
X118459218Y-46407600D01*
X118459218Y-46407600D02*
X118411599Y-46312361D01*
X118411599Y-46312361D02*
X118411599Y-46264742D01*
X118411599Y-46264742D02*
X118459218Y-46169504D01*
X118459218Y-46169504D02*
X118554456Y-46121885D01*
X118554456Y-46121885D02*
X118697313Y-46121885D01*
X118697313Y-46121885D02*
X118792551Y-46074266D01*
X118792551Y-46074266D02*
X118840170Y-45979028D01*
X118840170Y-45979028D02*
X118840170Y-45931409D01*
X118840170Y-45931409D02*
X118792551Y-45836171D01*
X118792551Y-45836171D02*
X118697313Y-45788552D01*
X118697313Y-45788552D02*
X118554456Y-45788552D01*
X118554456Y-45788552D02*
X118459218Y-45836171D01*
X118030646Y-46407600D02*
X117935408Y-46455219D01*
X117935408Y-46455219D02*
X117744932Y-46455219D01*
X117744932Y-46455219D02*
X117649694Y-46407600D01*
X117649694Y-46407600D02*
X117602075Y-46312361D01*
X117602075Y-46312361D02*
X117602075Y-46264742D01*
X117602075Y-46264742D02*
X117649694Y-46169504D01*
X117649694Y-46169504D02*
X117744932Y-46121885D01*
X117744932Y-46121885D02*
X117887789Y-46121885D01*
X117887789Y-46121885D02*
X117983027Y-46074266D01*
X117983027Y-46074266D02*
X118030646Y-45979028D01*
X118030646Y-45979028D02*
X118030646Y-45931409D01*
X118030646Y-45931409D02*
X117983027Y-45836171D01*
X117983027Y-45836171D02*
X117887789Y-45788552D01*
X117887789Y-45788552D02*
X117744932Y-45788552D01*
X117744932Y-45788552D02*
X117649694Y-45836171D01*
X116744932Y-45788552D02*
X116744932Y-46455219D01*
X117173503Y-45788552D02*
X117173503Y-46312361D01*
X117173503Y-46312361D02*
X117125884Y-46407600D01*
X117125884Y-46407600D02*
X117030646Y-46455219D01*
X117030646Y-46455219D02*
X116887789Y-46455219D01*
X116887789Y-46455219D02*
X116792551Y-46407600D01*
X116792551Y-46407600D02*
X116744932Y-46359980D01*
X116268741Y-46455219D02*
X116268741Y-45788552D01*
X116268741Y-45883790D02*
X116221122Y-45836171D01*
X116221122Y-45836171D02*
X116125884Y-45788552D01*
X116125884Y-45788552D02*
X115983027Y-45788552D01*
X115983027Y-45788552D02*
X115887789Y-45836171D01*
X115887789Y-45836171D02*
X115840170Y-45931409D01*
X115840170Y-45931409D02*
X115840170Y-46455219D01*
X115840170Y-45931409D02*
X115792551Y-45836171D01*
X115792551Y-45836171D02*
X115697313Y-45788552D01*
X115697313Y-45788552D02*
X115554456Y-45788552D01*
X115554456Y-45788552D02*
X115459217Y-45836171D01*
X115459217Y-45836171D02*
X115411598Y-45931409D01*
X115411598Y-45931409D02*
X115411598Y-46455219D01*
X114554456Y-46407600D02*
X114649694Y-46455219D01*
X114649694Y-46455219D02*
X114840170Y-46455219D01*
X114840170Y-46455219D02*
X114935408Y-46407600D01*
X114935408Y-46407600D02*
X114983027Y-46312361D01*
X114983027Y-46312361D02*
X114983027Y-45931409D01*
X114983027Y-45931409D02*
X114935408Y-45836171D01*
X114935408Y-45836171D02*
X114840170Y-45788552D01*
X114840170Y-45788552D02*
X114649694Y-45788552D01*
X114649694Y-45788552D02*
X114554456Y-45836171D01*
X114554456Y-45836171D02*
X114506837Y-45931409D01*
X114506837Y-45931409D02*
X114506837Y-46026647D01*
X114506837Y-46026647D02*
X114983027Y-46121885D01*
X145030649Y-48065219D02*
X145030649Y-47541409D01*
X145030649Y-47541409D02*
X145078268Y-47446171D01*
X145078268Y-47446171D02*
X145173506Y-47398552D01*
X145173506Y-47398552D02*
X145363982Y-47398552D01*
X145363982Y-47398552D02*
X145459220Y-47446171D01*
X145030649Y-48017600D02*
X145125887Y-48065219D01*
X145125887Y-48065219D02*
X145363982Y-48065219D01*
X145363982Y-48065219D02*
X145459220Y-48017600D01*
X145459220Y-48017600D02*
X145506839Y-47922361D01*
X145506839Y-47922361D02*
X145506839Y-47827123D01*
X145506839Y-47827123D02*
X145459220Y-47731885D01*
X145459220Y-47731885D02*
X145363982Y-47684266D01*
X145363982Y-47684266D02*
X145125887Y-47684266D01*
X145125887Y-47684266D02*
X145030649Y-47636647D01*
X144554458Y-47398552D02*
X144554458Y-48065219D01*
X144554458Y-47493790D02*
X144506839Y-47446171D01*
X144506839Y-47446171D02*
X144411601Y-47398552D01*
X144411601Y-47398552D02*
X144268744Y-47398552D01*
X144268744Y-47398552D02*
X144173506Y-47446171D01*
X144173506Y-47446171D02*
X144125887Y-47541409D01*
X144125887Y-47541409D02*
X144125887Y-48065219D01*
X143744934Y-47398552D02*
X143506839Y-48065219D01*
X143268744Y-47398552D02*
X143506839Y-48065219D01*
X143506839Y-48065219D02*
X143602077Y-48303314D01*
X143602077Y-48303314D02*
X143649696Y-48350933D01*
X143649696Y-48350933D02*
X143744934Y-48398552D01*
X141697315Y-48065219D02*
X141697315Y-47541409D01*
X141697315Y-47541409D02*
X141744934Y-47446171D01*
X141744934Y-47446171D02*
X141840172Y-47398552D01*
X141840172Y-47398552D02*
X142030648Y-47398552D01*
X142030648Y-47398552D02*
X142125886Y-47446171D01*
X141697315Y-48017600D02*
X141792553Y-48065219D01*
X141792553Y-48065219D02*
X142030648Y-48065219D01*
X142030648Y-48065219D02*
X142125886Y-48017600D01*
X142125886Y-48017600D02*
X142173505Y-47922361D01*
X142173505Y-47922361D02*
X142173505Y-47827123D01*
X142173505Y-47827123D02*
X142125886Y-47731885D01*
X142125886Y-47731885D02*
X142030648Y-47684266D01*
X142030648Y-47684266D02*
X141792553Y-47684266D01*
X141792553Y-47684266D02*
X141697315Y-47636647D01*
X141221124Y-47398552D02*
X141221124Y-48065219D01*
X141221124Y-47493790D02*
X141173505Y-47446171D01*
X141173505Y-47446171D02*
X141078267Y-47398552D01*
X141078267Y-47398552D02*
X140935410Y-47398552D01*
X140935410Y-47398552D02*
X140840172Y-47446171D01*
X140840172Y-47446171D02*
X140792553Y-47541409D01*
X140792553Y-47541409D02*
X140792553Y-48065219D01*
X139887791Y-48065219D02*
X139887791Y-47065219D01*
X139887791Y-48017600D02*
X139983029Y-48065219D01*
X139983029Y-48065219D02*
X140173505Y-48065219D01*
X140173505Y-48065219D02*
X140268743Y-48017600D01*
X140268743Y-48017600D02*
X140316362Y-47969980D01*
X140316362Y-47969980D02*
X140363981Y-47874742D01*
X140363981Y-47874742D02*
X140363981Y-47589028D01*
X140363981Y-47589028D02*
X140316362Y-47493790D01*
X140316362Y-47493790D02*
X140268743Y-47446171D01*
X140268743Y-47446171D02*
X140173505Y-47398552D01*
X140173505Y-47398552D02*
X139983029Y-47398552D01*
X139983029Y-47398552D02*
X139887791Y-47446171D01*
X138221124Y-48065219D02*
X138221124Y-47541409D01*
X138221124Y-47541409D02*
X138268743Y-47446171D01*
X138268743Y-47446171D02*
X138363981Y-47398552D01*
X138363981Y-47398552D02*
X138554457Y-47398552D01*
X138554457Y-47398552D02*
X138649695Y-47446171D01*
X138221124Y-48017600D02*
X138316362Y-48065219D01*
X138316362Y-48065219D02*
X138554457Y-48065219D01*
X138554457Y-48065219D02*
X138649695Y-48017600D01*
X138649695Y-48017600D02*
X138697314Y-47922361D01*
X138697314Y-47922361D02*
X138697314Y-47827123D01*
X138697314Y-47827123D02*
X138649695Y-47731885D01*
X138649695Y-47731885D02*
X138554457Y-47684266D01*
X138554457Y-47684266D02*
X138316362Y-47684266D01*
X138316362Y-47684266D02*
X138221124Y-47636647D01*
X137602076Y-48065219D02*
X137697314Y-48017600D01*
X137697314Y-48017600D02*
X137744933Y-47922361D01*
X137744933Y-47922361D02*
X137744933Y-47065219D01*
X137078266Y-48065219D02*
X137173504Y-48017600D01*
X137173504Y-48017600D02*
X137221123Y-47922361D01*
X137221123Y-47922361D02*
X137221123Y-47065219D01*
X135935408Y-48065219D02*
X135935408Y-47398552D01*
X135935408Y-47589028D02*
X135887789Y-47493790D01*
X135887789Y-47493790D02*
X135840170Y-47446171D01*
X135840170Y-47446171D02*
X135744932Y-47398552D01*
X135744932Y-47398552D02*
X135649694Y-47398552D01*
X135316360Y-48065219D02*
X135316360Y-47398552D01*
X135316360Y-47065219D02*
X135363979Y-47112838D01*
X135363979Y-47112838D02*
X135316360Y-47160457D01*
X135316360Y-47160457D02*
X135268741Y-47112838D01*
X135268741Y-47112838D02*
X135316360Y-47065219D01*
X135316360Y-47065219D02*
X135316360Y-47160457D01*
X134887789Y-48017600D02*
X134792551Y-48065219D01*
X134792551Y-48065219D02*
X134602075Y-48065219D01*
X134602075Y-48065219D02*
X134506837Y-48017600D01*
X134506837Y-48017600D02*
X134459218Y-47922361D01*
X134459218Y-47922361D02*
X134459218Y-47874742D01*
X134459218Y-47874742D02*
X134506837Y-47779504D01*
X134506837Y-47779504D02*
X134602075Y-47731885D01*
X134602075Y-47731885D02*
X134744932Y-47731885D01*
X134744932Y-47731885D02*
X134840170Y-47684266D01*
X134840170Y-47684266D02*
X134887789Y-47589028D01*
X134887789Y-47589028D02*
X134887789Y-47541409D01*
X134887789Y-47541409D02*
X134840170Y-47446171D01*
X134840170Y-47446171D02*
X134744932Y-47398552D01*
X134744932Y-47398552D02*
X134602075Y-47398552D01*
X134602075Y-47398552D02*
X134506837Y-47446171D01*
X134030646Y-48065219D02*
X134030646Y-47065219D01*
X133935408Y-47684266D02*
X133649694Y-48065219D01*
X133649694Y-47398552D02*
X134030646Y-47779504D01*
X133268741Y-48017600D02*
X133173503Y-48065219D01*
X133173503Y-48065219D02*
X132983027Y-48065219D01*
X132983027Y-48065219D02*
X132887789Y-48017600D01*
X132887789Y-48017600D02*
X132840170Y-47922361D01*
X132840170Y-47922361D02*
X132840170Y-47874742D01*
X132840170Y-47874742D02*
X132887789Y-47779504D01*
X132887789Y-47779504D02*
X132983027Y-47731885D01*
X132983027Y-47731885D02*
X133125884Y-47731885D01*
X133125884Y-47731885D02*
X133221122Y-47684266D01*
X133221122Y-47684266D02*
X133268741Y-47589028D01*
X133268741Y-47589028D02*
X133268741Y-47541409D01*
X133268741Y-47541409D02*
X133221122Y-47446171D01*
X133221122Y-47446171D02*
X133125884Y-47398552D01*
X133125884Y-47398552D02*
X132983027Y-47398552D01*
X132983027Y-47398552D02*
X132887789Y-47446171D01*
X131221122Y-48065219D02*
X131221122Y-47541409D01*
X131221122Y-47541409D02*
X131268741Y-47446171D01*
X131268741Y-47446171D02*
X131363979Y-47398552D01*
X131363979Y-47398552D02*
X131554455Y-47398552D01*
X131554455Y-47398552D02*
X131649693Y-47446171D01*
X131221122Y-48017600D02*
X131316360Y-48065219D01*
X131316360Y-48065219D02*
X131554455Y-48065219D01*
X131554455Y-48065219D02*
X131649693Y-48017600D01*
X131649693Y-48017600D02*
X131697312Y-47922361D01*
X131697312Y-47922361D02*
X131697312Y-47827123D01*
X131697312Y-47827123D02*
X131649693Y-47731885D01*
X131649693Y-47731885D02*
X131554455Y-47684266D01*
X131554455Y-47684266D02*
X131316360Y-47684266D01*
X131316360Y-47684266D02*
X131221122Y-47636647D01*
X130792550Y-48017600D02*
X130697312Y-48065219D01*
X130697312Y-48065219D02*
X130506836Y-48065219D01*
X130506836Y-48065219D02*
X130411598Y-48017600D01*
X130411598Y-48017600D02*
X130363979Y-47922361D01*
X130363979Y-47922361D02*
X130363979Y-47874742D01*
X130363979Y-47874742D02*
X130411598Y-47779504D01*
X130411598Y-47779504D02*
X130506836Y-47731885D01*
X130506836Y-47731885D02*
X130649693Y-47731885D01*
X130649693Y-47731885D02*
X130744931Y-47684266D01*
X130744931Y-47684266D02*
X130792550Y-47589028D01*
X130792550Y-47589028D02*
X130792550Y-47541409D01*
X130792550Y-47541409D02*
X130744931Y-47446171D01*
X130744931Y-47446171D02*
X130649693Y-47398552D01*
X130649693Y-47398552D02*
X130506836Y-47398552D01*
X130506836Y-47398552D02*
X130411598Y-47446171D01*
X129983026Y-48017600D02*
X129887788Y-48065219D01*
X129887788Y-48065219D02*
X129697312Y-48065219D01*
X129697312Y-48065219D02*
X129602074Y-48017600D01*
X129602074Y-48017600D02*
X129554455Y-47922361D01*
X129554455Y-47922361D02*
X129554455Y-47874742D01*
X129554455Y-47874742D02*
X129602074Y-47779504D01*
X129602074Y-47779504D02*
X129697312Y-47731885D01*
X129697312Y-47731885D02*
X129840169Y-47731885D01*
X129840169Y-47731885D02*
X129935407Y-47684266D01*
X129935407Y-47684266D02*
X129983026Y-47589028D01*
X129983026Y-47589028D02*
X129983026Y-47541409D01*
X129983026Y-47541409D02*
X129935407Y-47446171D01*
X129935407Y-47446171D02*
X129840169Y-47398552D01*
X129840169Y-47398552D02*
X129697312Y-47398552D01*
X129697312Y-47398552D02*
X129602074Y-47446171D01*
X128983026Y-48065219D02*
X129078264Y-48017600D01*
X129078264Y-48017600D02*
X129125883Y-47969980D01*
X129125883Y-47969980D02*
X129173502Y-47874742D01*
X129173502Y-47874742D02*
X129173502Y-47589028D01*
X129173502Y-47589028D02*
X129125883Y-47493790D01*
X129125883Y-47493790D02*
X129078264Y-47446171D01*
X129078264Y-47446171D02*
X128983026Y-47398552D01*
X128983026Y-47398552D02*
X128840169Y-47398552D01*
X128840169Y-47398552D02*
X128744931Y-47446171D01*
X128744931Y-47446171D02*
X128697312Y-47493790D01*
X128697312Y-47493790D02*
X128649693Y-47589028D01*
X128649693Y-47589028D02*
X128649693Y-47874742D01*
X128649693Y-47874742D02*
X128697312Y-47969980D01*
X128697312Y-47969980D02*
X128744931Y-48017600D01*
X128744931Y-48017600D02*
X128840169Y-48065219D01*
X128840169Y-48065219D02*
X128983026Y-48065219D01*
X127792550Y-48017600D02*
X127887788Y-48065219D01*
X127887788Y-48065219D02*
X128078264Y-48065219D01*
X128078264Y-48065219D02*
X128173502Y-48017600D01*
X128173502Y-48017600D02*
X128221121Y-47969980D01*
X128221121Y-47969980D02*
X128268740Y-47874742D01*
X128268740Y-47874742D02*
X128268740Y-47589028D01*
X128268740Y-47589028D02*
X128221121Y-47493790D01*
X128221121Y-47493790D02*
X128173502Y-47446171D01*
X128173502Y-47446171D02*
X128078264Y-47398552D01*
X128078264Y-47398552D02*
X127887788Y-47398552D01*
X127887788Y-47398552D02*
X127792550Y-47446171D01*
X127363978Y-48065219D02*
X127363978Y-47398552D01*
X127363978Y-47065219D02*
X127411597Y-47112838D01*
X127411597Y-47112838D02*
X127363978Y-47160457D01*
X127363978Y-47160457D02*
X127316359Y-47112838D01*
X127316359Y-47112838D02*
X127363978Y-47065219D01*
X127363978Y-47065219D02*
X127363978Y-47160457D01*
X126459217Y-48065219D02*
X126459217Y-47541409D01*
X126459217Y-47541409D02*
X126506836Y-47446171D01*
X126506836Y-47446171D02*
X126602074Y-47398552D01*
X126602074Y-47398552D02*
X126792550Y-47398552D01*
X126792550Y-47398552D02*
X126887788Y-47446171D01*
X126459217Y-48017600D02*
X126554455Y-48065219D01*
X126554455Y-48065219D02*
X126792550Y-48065219D01*
X126792550Y-48065219D02*
X126887788Y-48017600D01*
X126887788Y-48017600D02*
X126935407Y-47922361D01*
X126935407Y-47922361D02*
X126935407Y-47827123D01*
X126935407Y-47827123D02*
X126887788Y-47731885D01*
X126887788Y-47731885D02*
X126792550Y-47684266D01*
X126792550Y-47684266D02*
X126554455Y-47684266D01*
X126554455Y-47684266D02*
X126459217Y-47636647D01*
X126125883Y-47398552D02*
X125744931Y-47398552D01*
X125983026Y-47065219D02*
X125983026Y-47922361D01*
X125983026Y-47922361D02*
X125935407Y-48017600D01*
X125935407Y-48017600D02*
X125840169Y-48065219D01*
X125840169Y-48065219D02*
X125744931Y-48065219D01*
X125030645Y-48017600D02*
X125125883Y-48065219D01*
X125125883Y-48065219D02*
X125316359Y-48065219D01*
X125316359Y-48065219D02*
X125411597Y-48017600D01*
X125411597Y-48017600D02*
X125459216Y-47922361D01*
X125459216Y-47922361D02*
X125459216Y-47541409D01*
X125459216Y-47541409D02*
X125411597Y-47446171D01*
X125411597Y-47446171D02*
X125316359Y-47398552D01*
X125316359Y-47398552D02*
X125125883Y-47398552D01*
X125125883Y-47398552D02*
X125030645Y-47446171D01*
X125030645Y-47446171D02*
X124983026Y-47541409D01*
X124983026Y-47541409D02*
X124983026Y-47636647D01*
X124983026Y-47636647D02*
X125459216Y-47731885D01*
X124125883Y-48065219D02*
X124125883Y-47065219D01*
X124125883Y-48017600D02*
X124221121Y-48065219D01*
X124221121Y-48065219D02*
X124411597Y-48065219D01*
X124411597Y-48065219D02*
X124506835Y-48017600D01*
X124506835Y-48017600D02*
X124554454Y-47969980D01*
X124554454Y-47969980D02*
X124602073Y-47874742D01*
X124602073Y-47874742D02*
X124602073Y-47589028D01*
X124602073Y-47589028D02*
X124554454Y-47493790D01*
X124554454Y-47493790D02*
X124506835Y-47446171D01*
X124506835Y-47446171D02*
X124411597Y-47398552D01*
X124411597Y-47398552D02*
X124221121Y-47398552D01*
X124221121Y-47398552D02*
X124125883Y-47446171D01*
X122983025Y-47398552D02*
X122792549Y-48065219D01*
X122792549Y-48065219D02*
X122602073Y-47589028D01*
X122602073Y-47589028D02*
X122411597Y-48065219D01*
X122411597Y-48065219D02*
X122221121Y-47398552D01*
X121840168Y-48065219D02*
X121840168Y-47398552D01*
X121840168Y-47065219D02*
X121887787Y-47112838D01*
X121887787Y-47112838D02*
X121840168Y-47160457D01*
X121840168Y-47160457D02*
X121792549Y-47112838D01*
X121792549Y-47112838D02*
X121840168Y-47065219D01*
X121840168Y-47065219D02*
X121840168Y-47160457D01*
X121506835Y-47398552D02*
X121125883Y-47398552D01*
X121363978Y-47065219D02*
X121363978Y-47922361D01*
X121363978Y-47922361D02*
X121316359Y-48017600D01*
X121316359Y-48017600D02*
X121221121Y-48065219D01*
X121221121Y-48065219D02*
X121125883Y-48065219D01*
X120792549Y-48065219D02*
X120792549Y-47065219D01*
X120363978Y-48065219D02*
X120363978Y-47541409D01*
X120363978Y-47541409D02*
X120411597Y-47446171D01*
X120411597Y-47446171D02*
X120506835Y-47398552D01*
X120506835Y-47398552D02*
X120649692Y-47398552D01*
X120649692Y-47398552D02*
X120744930Y-47446171D01*
X120744930Y-47446171D02*
X120792549Y-47493790D01*
X119125882Y-48065219D02*
X119125882Y-47398552D01*
X119125882Y-47065219D02*
X119173501Y-47112838D01*
X119173501Y-47112838D02*
X119125882Y-47160457D01*
X119125882Y-47160457D02*
X119078263Y-47112838D01*
X119078263Y-47112838D02*
X119125882Y-47065219D01*
X119125882Y-47065219D02*
X119125882Y-47160457D01*
X118792549Y-47398552D02*
X118411597Y-47398552D01*
X118649692Y-47065219D02*
X118649692Y-47922361D01*
X118649692Y-47922361D02*
X118602073Y-48017600D01*
X118602073Y-48017600D02*
X118506835Y-48065219D01*
X118506835Y-48065219D02*
X118411597Y-48065219D01*
X117316358Y-48065219D02*
X117316358Y-47398552D01*
X117316358Y-47065219D02*
X117363977Y-47112838D01*
X117363977Y-47112838D02*
X117316358Y-47160457D01*
X117316358Y-47160457D02*
X117268739Y-47112838D01*
X117268739Y-47112838D02*
X117316358Y-47065219D01*
X117316358Y-47065219D02*
X117316358Y-47160457D01*
X116840168Y-47398552D02*
X116840168Y-48065219D01*
X116840168Y-47493790D02*
X116792549Y-47446171D01*
X116792549Y-47446171D02*
X116697311Y-47398552D01*
X116697311Y-47398552D02*
X116554454Y-47398552D01*
X116554454Y-47398552D02*
X116459216Y-47446171D01*
X116459216Y-47446171D02*
X116411597Y-47541409D01*
X116411597Y-47541409D02*
X116411597Y-48065219D01*
X115506835Y-48017600D02*
X115602073Y-48065219D01*
X115602073Y-48065219D02*
X115792549Y-48065219D01*
X115792549Y-48065219D02*
X115887787Y-48017600D01*
X115887787Y-48017600D02*
X115935406Y-47969980D01*
X115935406Y-47969980D02*
X115983025Y-47874742D01*
X115983025Y-47874742D02*
X115983025Y-47589028D01*
X115983025Y-47589028D02*
X115935406Y-47493790D01*
X115935406Y-47493790D02*
X115887787Y-47446171D01*
X115887787Y-47446171D02*
X115792549Y-47398552D01*
X115792549Y-47398552D02*
X115602073Y-47398552D01*
X115602073Y-47398552D02*
X115506835Y-47446171D01*
X114935406Y-48065219D02*
X115030644Y-48017600D01*
X115030644Y-48017600D02*
X115078263Y-47922361D01*
X115078263Y-47922361D02*
X115078263Y-47065219D01*
X114125882Y-47398552D02*
X114125882Y-48065219D01*
X114554453Y-47398552D02*
X114554453Y-47922361D01*
X114554453Y-47922361D02*
X114506834Y-48017600D01*
X114506834Y-48017600D02*
X114411596Y-48065219D01*
X114411596Y-48065219D02*
X114268739Y-48065219D01*
X114268739Y-48065219D02*
X114173501Y-48017600D01*
X114173501Y-48017600D02*
X114125882Y-47969980D01*
X113221120Y-48065219D02*
X113221120Y-47065219D01*
X113221120Y-48017600D02*
X113316358Y-48065219D01*
X113316358Y-48065219D02*
X113506834Y-48065219D01*
X113506834Y-48065219D02*
X113602072Y-48017600D01*
X113602072Y-48017600D02*
X113649691Y-47969980D01*
X113649691Y-47969980D02*
X113697310Y-47874742D01*
X113697310Y-47874742D02*
X113697310Y-47589028D01*
X113697310Y-47589028D02*
X113649691Y-47493790D01*
X113649691Y-47493790D02*
X113602072Y-47446171D01*
X113602072Y-47446171D02*
X113506834Y-47398552D01*
X113506834Y-47398552D02*
X113316358Y-47398552D01*
X113316358Y-47398552D02*
X113221120Y-47446171D01*
X112744929Y-48065219D02*
X112744929Y-47398552D01*
X112744929Y-47065219D02*
X112792548Y-47112838D01*
X112792548Y-47112838D02*
X112744929Y-47160457D01*
X112744929Y-47160457D02*
X112697310Y-47112838D01*
X112697310Y-47112838D02*
X112744929Y-47065219D01*
X112744929Y-47065219D02*
X112744929Y-47160457D01*
X112268739Y-47398552D02*
X112268739Y-48065219D01*
X112268739Y-47493790D02*
X112221120Y-47446171D01*
X112221120Y-47446171D02*
X112125882Y-47398552D01*
X112125882Y-47398552D02*
X111983025Y-47398552D01*
X111983025Y-47398552D02*
X111887787Y-47446171D01*
X111887787Y-47446171D02*
X111840168Y-47541409D01*
X111840168Y-47541409D02*
X111840168Y-48065219D01*
X110935406Y-47398552D02*
X110935406Y-48208076D01*
X110935406Y-48208076D02*
X110983025Y-48303314D01*
X110983025Y-48303314D02*
X111030644Y-48350933D01*
X111030644Y-48350933D02*
X111125882Y-48398552D01*
X111125882Y-48398552D02*
X111268739Y-48398552D01*
X111268739Y-48398552D02*
X111363977Y-48350933D01*
X110935406Y-48017600D02*
X111030644Y-48065219D01*
X111030644Y-48065219D02*
X111221120Y-48065219D01*
X111221120Y-48065219D02*
X111316358Y-48017600D01*
X111316358Y-48017600D02*
X111363977Y-47969980D01*
X111363977Y-47969980D02*
X111411596Y-47874742D01*
X111411596Y-47874742D02*
X111411596Y-47589028D01*
X111411596Y-47589028D02*
X111363977Y-47493790D01*
X111363977Y-47493790D02*
X111316358Y-47446171D01*
X111316358Y-47446171D02*
X111221120Y-47398552D01*
X111221120Y-47398552D02*
X111030644Y-47398552D01*
X111030644Y-47398552D02*
X110935406Y-47446171D01*
X110459215Y-47969980D02*
X110411596Y-48017600D01*
X110411596Y-48017600D02*
X110459215Y-48065219D01*
X110459215Y-48065219D02*
X110506834Y-48017600D01*
X110506834Y-48017600D02*
X110459215Y-47969980D01*
X110459215Y-47969980D02*
X110459215Y-48065219D01*
X110459215Y-47446171D02*
X110411596Y-47493790D01*
X110411596Y-47493790D02*
X110459215Y-47541409D01*
X110459215Y-47541409D02*
X110506834Y-47493790D01*
X110506834Y-47493790D02*
X110459215Y-47446171D01*
X110459215Y-47446171D02*
X110459215Y-47541409D01*
X145030649Y-49675219D02*
X145030649Y-48675219D01*
X145030649Y-49627600D02*
X145125887Y-49675219D01*
X145125887Y-49675219D02*
X145316363Y-49675219D01*
X145316363Y-49675219D02*
X145411601Y-49627600D01*
X145411601Y-49627600D02*
X145459220Y-49579980D01*
X145459220Y-49579980D02*
X145506839Y-49484742D01*
X145506839Y-49484742D02*
X145506839Y-49199028D01*
X145506839Y-49199028D02*
X145459220Y-49103790D01*
X145459220Y-49103790D02*
X145411601Y-49056171D01*
X145411601Y-49056171D02*
X145316363Y-49008552D01*
X145316363Y-49008552D02*
X145125887Y-49008552D01*
X145125887Y-49008552D02*
X145030649Y-49056171D01*
X144125887Y-49675219D02*
X144125887Y-49151409D01*
X144125887Y-49151409D02*
X144173506Y-49056171D01*
X144173506Y-49056171D02*
X144268744Y-49008552D01*
X144268744Y-49008552D02*
X144459220Y-49008552D01*
X144459220Y-49008552D02*
X144554458Y-49056171D01*
X144125887Y-49627600D02*
X144221125Y-49675219D01*
X144221125Y-49675219D02*
X144459220Y-49675219D01*
X144459220Y-49675219D02*
X144554458Y-49627600D01*
X144554458Y-49627600D02*
X144602077Y-49532361D01*
X144602077Y-49532361D02*
X144602077Y-49437123D01*
X144602077Y-49437123D02*
X144554458Y-49341885D01*
X144554458Y-49341885D02*
X144459220Y-49294266D01*
X144459220Y-49294266D02*
X144221125Y-49294266D01*
X144221125Y-49294266D02*
X144125887Y-49246647D01*
X143649696Y-49675219D02*
X143649696Y-49008552D01*
X143649696Y-49103790D02*
X143602077Y-49056171D01*
X143602077Y-49056171D02*
X143506839Y-49008552D01*
X143506839Y-49008552D02*
X143363982Y-49008552D01*
X143363982Y-49008552D02*
X143268744Y-49056171D01*
X143268744Y-49056171D02*
X143221125Y-49151409D01*
X143221125Y-49151409D02*
X143221125Y-49675219D01*
X143221125Y-49151409D02*
X143173506Y-49056171D01*
X143173506Y-49056171D02*
X143078268Y-49008552D01*
X143078268Y-49008552D02*
X142935411Y-49008552D01*
X142935411Y-49008552D02*
X142840172Y-49056171D01*
X142840172Y-49056171D02*
X142792553Y-49151409D01*
X142792553Y-49151409D02*
X142792553Y-49675219D01*
X141887792Y-49675219D02*
X141887792Y-49151409D01*
X141887792Y-49151409D02*
X141935411Y-49056171D01*
X141935411Y-49056171D02*
X142030649Y-49008552D01*
X142030649Y-49008552D02*
X142221125Y-49008552D01*
X142221125Y-49008552D02*
X142316363Y-49056171D01*
X141887792Y-49627600D02*
X141983030Y-49675219D01*
X141983030Y-49675219D02*
X142221125Y-49675219D01*
X142221125Y-49675219D02*
X142316363Y-49627600D01*
X142316363Y-49627600D02*
X142363982Y-49532361D01*
X142363982Y-49532361D02*
X142363982Y-49437123D01*
X142363982Y-49437123D02*
X142316363Y-49341885D01*
X142316363Y-49341885D02*
X142221125Y-49294266D01*
X142221125Y-49294266D02*
X141983030Y-49294266D01*
X141983030Y-49294266D02*
X141887792Y-49246647D01*
X140983030Y-49008552D02*
X140983030Y-49818076D01*
X140983030Y-49818076D02*
X141030649Y-49913314D01*
X141030649Y-49913314D02*
X141078268Y-49960933D01*
X141078268Y-49960933D02*
X141173506Y-50008552D01*
X141173506Y-50008552D02*
X141316363Y-50008552D01*
X141316363Y-50008552D02*
X141411601Y-49960933D01*
X140983030Y-49627600D02*
X141078268Y-49675219D01*
X141078268Y-49675219D02*
X141268744Y-49675219D01*
X141268744Y-49675219D02*
X141363982Y-49627600D01*
X141363982Y-49627600D02*
X141411601Y-49579980D01*
X141411601Y-49579980D02*
X141459220Y-49484742D01*
X141459220Y-49484742D02*
X141459220Y-49199028D01*
X141459220Y-49199028D02*
X141411601Y-49103790D01*
X141411601Y-49103790D02*
X141363982Y-49056171D01*
X141363982Y-49056171D02*
X141268744Y-49008552D01*
X141268744Y-49008552D02*
X141078268Y-49008552D01*
X141078268Y-49008552D02*
X140983030Y-49056171D01*
X140125887Y-49627600D02*
X140221125Y-49675219D01*
X140221125Y-49675219D02*
X140411601Y-49675219D01*
X140411601Y-49675219D02*
X140506839Y-49627600D01*
X140506839Y-49627600D02*
X140554458Y-49532361D01*
X140554458Y-49532361D02*
X140554458Y-49151409D01*
X140554458Y-49151409D02*
X140506839Y-49056171D01*
X140506839Y-49056171D02*
X140411601Y-49008552D01*
X140411601Y-49008552D02*
X140221125Y-49008552D01*
X140221125Y-49008552D02*
X140125887Y-49056171D01*
X140125887Y-49056171D02*
X140078268Y-49151409D01*
X140078268Y-49151409D02*
X140078268Y-49246647D01*
X140078268Y-49246647D02*
X140554458Y-49341885D01*
X139602077Y-49627600D02*
X139602077Y-49675219D01*
X139602077Y-49675219D02*
X139649696Y-49770457D01*
X139649696Y-49770457D02*
X139697315Y-49818076D01*
X138030649Y-49627600D02*
X138125887Y-49675219D01*
X138125887Y-49675219D02*
X138316363Y-49675219D01*
X138316363Y-49675219D02*
X138411601Y-49627600D01*
X138411601Y-49627600D02*
X138459220Y-49532361D01*
X138459220Y-49532361D02*
X138459220Y-49151409D01*
X138459220Y-49151409D02*
X138411601Y-49056171D01*
X138411601Y-49056171D02*
X138316363Y-49008552D01*
X138316363Y-49008552D02*
X138125887Y-49008552D01*
X138125887Y-49008552D02*
X138030649Y-49056171D01*
X138030649Y-49056171D02*
X137983030Y-49151409D01*
X137983030Y-49151409D02*
X137983030Y-49246647D01*
X137983030Y-49246647D02*
X138459220Y-49341885D01*
X137411601Y-49675219D02*
X137506839Y-49627600D01*
X137506839Y-49627600D02*
X137554458Y-49532361D01*
X137554458Y-49532361D02*
X137554458Y-48675219D01*
X136649696Y-49627600D02*
X136744934Y-49675219D01*
X136744934Y-49675219D02*
X136935410Y-49675219D01*
X136935410Y-49675219D02*
X137030648Y-49627600D01*
X137030648Y-49627600D02*
X137078267Y-49532361D01*
X137078267Y-49532361D02*
X137078267Y-49151409D01*
X137078267Y-49151409D02*
X137030648Y-49056171D01*
X137030648Y-49056171D02*
X136935410Y-49008552D01*
X136935410Y-49008552D02*
X136744934Y-49008552D01*
X136744934Y-49008552D02*
X136649696Y-49056171D01*
X136649696Y-49056171D02*
X136602077Y-49151409D01*
X136602077Y-49151409D02*
X136602077Y-49246647D01*
X136602077Y-49246647D02*
X137078267Y-49341885D01*
X135744934Y-49627600D02*
X135840172Y-49675219D01*
X135840172Y-49675219D02*
X136030648Y-49675219D01*
X136030648Y-49675219D02*
X136125886Y-49627600D01*
X136125886Y-49627600D02*
X136173505Y-49579980D01*
X136173505Y-49579980D02*
X136221124Y-49484742D01*
X136221124Y-49484742D02*
X136221124Y-49199028D01*
X136221124Y-49199028D02*
X136173505Y-49103790D01*
X136173505Y-49103790D02*
X136125886Y-49056171D01*
X136125886Y-49056171D02*
X136030648Y-49008552D01*
X136030648Y-49008552D02*
X135840172Y-49008552D01*
X135840172Y-49008552D02*
X135744934Y-49056171D01*
X135459219Y-49008552D02*
X135078267Y-49008552D01*
X135316362Y-48675219D02*
X135316362Y-49532361D01*
X135316362Y-49532361D02*
X135268743Y-49627600D01*
X135268743Y-49627600D02*
X135173505Y-49675219D01*
X135173505Y-49675219D02*
X135078267Y-49675219D01*
X134744933Y-49675219D02*
X134744933Y-49008552D01*
X134744933Y-49199028D02*
X134697314Y-49103790D01*
X134697314Y-49103790D02*
X134649695Y-49056171D01*
X134649695Y-49056171D02*
X134554457Y-49008552D01*
X134554457Y-49008552D02*
X134459219Y-49008552D01*
X134125885Y-49675219D02*
X134125885Y-49008552D01*
X134125885Y-48675219D02*
X134173504Y-48722838D01*
X134173504Y-48722838D02*
X134125885Y-48770457D01*
X134125885Y-48770457D02*
X134078266Y-48722838D01*
X134078266Y-48722838D02*
X134125885Y-48675219D01*
X134125885Y-48675219D02*
X134125885Y-48770457D01*
X133221124Y-49627600D02*
X133316362Y-49675219D01*
X133316362Y-49675219D02*
X133506838Y-49675219D01*
X133506838Y-49675219D02*
X133602076Y-49627600D01*
X133602076Y-49627600D02*
X133649695Y-49579980D01*
X133649695Y-49579980D02*
X133697314Y-49484742D01*
X133697314Y-49484742D02*
X133697314Y-49199028D01*
X133697314Y-49199028D02*
X133649695Y-49103790D01*
X133649695Y-49103790D02*
X133602076Y-49056171D01*
X133602076Y-49056171D02*
X133506838Y-49008552D01*
X133506838Y-49008552D02*
X133316362Y-49008552D01*
X133316362Y-49008552D02*
X133221124Y-49056171D01*
X132363981Y-49675219D02*
X132363981Y-49151409D01*
X132363981Y-49151409D02*
X132411600Y-49056171D01*
X132411600Y-49056171D02*
X132506838Y-49008552D01*
X132506838Y-49008552D02*
X132697314Y-49008552D01*
X132697314Y-49008552D02*
X132792552Y-49056171D01*
X132363981Y-49627600D02*
X132459219Y-49675219D01*
X132459219Y-49675219D02*
X132697314Y-49675219D01*
X132697314Y-49675219D02*
X132792552Y-49627600D01*
X132792552Y-49627600D02*
X132840171Y-49532361D01*
X132840171Y-49532361D02*
X132840171Y-49437123D01*
X132840171Y-49437123D02*
X132792552Y-49341885D01*
X132792552Y-49341885D02*
X132697314Y-49294266D01*
X132697314Y-49294266D02*
X132459219Y-49294266D01*
X132459219Y-49294266D02*
X132363981Y-49246647D01*
X131744933Y-49675219D02*
X131840171Y-49627600D01*
X131840171Y-49627600D02*
X131887790Y-49532361D01*
X131887790Y-49532361D02*
X131887790Y-48675219D01*
X130649694Y-49627600D02*
X130554456Y-49675219D01*
X130554456Y-49675219D02*
X130363980Y-49675219D01*
X130363980Y-49675219D02*
X130268742Y-49627600D01*
X130268742Y-49627600D02*
X130221123Y-49532361D01*
X130221123Y-49532361D02*
X130221123Y-49484742D01*
X130221123Y-49484742D02*
X130268742Y-49389504D01*
X130268742Y-49389504D02*
X130363980Y-49341885D01*
X130363980Y-49341885D02*
X130506837Y-49341885D01*
X130506837Y-49341885D02*
X130602075Y-49294266D01*
X130602075Y-49294266D02*
X130649694Y-49199028D01*
X130649694Y-49199028D02*
X130649694Y-49151409D01*
X130649694Y-49151409D02*
X130602075Y-49056171D01*
X130602075Y-49056171D02*
X130506837Y-49008552D01*
X130506837Y-49008552D02*
X130363980Y-49008552D01*
X130363980Y-49008552D02*
X130268742Y-49056171D01*
X129792551Y-49675219D02*
X129792551Y-48675219D01*
X129363980Y-49675219D02*
X129363980Y-49151409D01*
X129363980Y-49151409D02*
X129411599Y-49056171D01*
X129411599Y-49056171D02*
X129506837Y-49008552D01*
X129506837Y-49008552D02*
X129649694Y-49008552D01*
X129649694Y-49008552D02*
X129744932Y-49056171D01*
X129744932Y-49056171D02*
X129792551Y-49103790D01*
X128744932Y-49675219D02*
X128840170Y-49627600D01*
X128840170Y-49627600D02*
X128887789Y-49579980D01*
X128887789Y-49579980D02*
X128935408Y-49484742D01*
X128935408Y-49484742D02*
X128935408Y-49199028D01*
X128935408Y-49199028D02*
X128887789Y-49103790D01*
X128887789Y-49103790D02*
X128840170Y-49056171D01*
X128840170Y-49056171D02*
X128744932Y-49008552D01*
X128744932Y-49008552D02*
X128602075Y-49008552D01*
X128602075Y-49008552D02*
X128506837Y-49056171D01*
X128506837Y-49056171D02*
X128459218Y-49103790D01*
X128459218Y-49103790D02*
X128411599Y-49199028D01*
X128411599Y-49199028D02*
X128411599Y-49484742D01*
X128411599Y-49484742D02*
X128459218Y-49579980D01*
X128459218Y-49579980D02*
X128506837Y-49627600D01*
X128506837Y-49627600D02*
X128602075Y-49675219D01*
X128602075Y-49675219D02*
X128744932Y-49675219D01*
X127554456Y-49627600D02*
X127649694Y-49675219D01*
X127649694Y-49675219D02*
X127840170Y-49675219D01*
X127840170Y-49675219D02*
X127935408Y-49627600D01*
X127935408Y-49627600D02*
X127983027Y-49579980D01*
X127983027Y-49579980D02*
X128030646Y-49484742D01*
X128030646Y-49484742D02*
X128030646Y-49199028D01*
X128030646Y-49199028D02*
X127983027Y-49103790D01*
X127983027Y-49103790D02*
X127935408Y-49056171D01*
X127935408Y-49056171D02*
X127840170Y-49008552D01*
X127840170Y-49008552D02*
X127649694Y-49008552D01*
X127649694Y-49008552D02*
X127554456Y-49056171D01*
X127125884Y-49675219D02*
X127125884Y-48675219D01*
X127030646Y-49294266D02*
X126744932Y-49675219D01*
X126744932Y-49008552D02*
X127125884Y-49389504D01*
X126268741Y-49627600D02*
X126268741Y-49675219D01*
X126268741Y-49675219D02*
X126316360Y-49770457D01*
X126316360Y-49770457D02*
X126363979Y-49818076D01*
X125221122Y-49008552D02*
X124840170Y-49008552D01*
X125078265Y-49675219D02*
X125078265Y-48818076D01*
X125078265Y-48818076D02*
X125030646Y-48722838D01*
X125030646Y-48722838D02*
X124935408Y-48675219D01*
X124935408Y-48675219D02*
X124840170Y-48675219D01*
X124506836Y-49675219D02*
X124506836Y-49008552D01*
X124506836Y-48675219D02*
X124554455Y-48722838D01*
X124554455Y-48722838D02*
X124506836Y-48770457D01*
X124506836Y-48770457D02*
X124459217Y-48722838D01*
X124459217Y-48722838D02*
X124506836Y-48675219D01*
X124506836Y-48675219D02*
X124506836Y-48770457D01*
X124030646Y-49675219D02*
X124030646Y-49008552D01*
X124030646Y-49199028D02*
X123983027Y-49103790D01*
X123983027Y-49103790D02*
X123935408Y-49056171D01*
X123935408Y-49056171D02*
X123840170Y-49008552D01*
X123840170Y-49008552D02*
X123744932Y-49008552D01*
X123030646Y-49627600D02*
X123125884Y-49675219D01*
X123125884Y-49675219D02*
X123316360Y-49675219D01*
X123316360Y-49675219D02*
X123411598Y-49627600D01*
X123411598Y-49627600D02*
X123459217Y-49532361D01*
X123459217Y-49532361D02*
X123459217Y-49151409D01*
X123459217Y-49151409D02*
X123411598Y-49056171D01*
X123411598Y-49056171D02*
X123316360Y-49008552D01*
X123316360Y-49008552D02*
X123125884Y-49008552D01*
X123125884Y-49008552D02*
X123030646Y-49056171D01*
X123030646Y-49056171D02*
X122983027Y-49151409D01*
X122983027Y-49151409D02*
X122983027Y-49246647D01*
X122983027Y-49246647D02*
X123459217Y-49341885D01*
X122506836Y-49627600D02*
X122506836Y-49675219D01*
X122506836Y-49675219D02*
X122554455Y-49770457D01*
X122554455Y-49770457D02*
X122602074Y-49818076D01*
X121316360Y-49008552D02*
X121316360Y-50008552D01*
X121316360Y-49056171D02*
X121221122Y-49008552D01*
X121221122Y-49008552D02*
X121030646Y-49008552D01*
X121030646Y-49008552D02*
X120935408Y-49056171D01*
X120935408Y-49056171D02*
X120887789Y-49103790D01*
X120887789Y-49103790D02*
X120840170Y-49199028D01*
X120840170Y-49199028D02*
X120840170Y-49484742D01*
X120840170Y-49484742D02*
X120887789Y-49579980D01*
X120887789Y-49579980D02*
X120935408Y-49627600D01*
X120935408Y-49627600D02*
X121030646Y-49675219D01*
X121030646Y-49675219D02*
X121221122Y-49675219D01*
X121221122Y-49675219D02*
X121316360Y-49627600D01*
X120030646Y-49627600D02*
X120125884Y-49675219D01*
X120125884Y-49675219D02*
X120316360Y-49675219D01*
X120316360Y-49675219D02*
X120411598Y-49627600D01*
X120411598Y-49627600D02*
X120459217Y-49532361D01*
X120459217Y-49532361D02*
X120459217Y-49151409D01*
X120459217Y-49151409D02*
X120411598Y-49056171D01*
X120411598Y-49056171D02*
X120316360Y-49008552D01*
X120316360Y-49008552D02*
X120125884Y-49008552D01*
X120125884Y-49008552D02*
X120030646Y-49056171D01*
X120030646Y-49056171D02*
X119983027Y-49151409D01*
X119983027Y-49151409D02*
X119983027Y-49246647D01*
X119983027Y-49246647D02*
X120459217Y-49341885D01*
X119554455Y-49675219D02*
X119554455Y-49008552D01*
X119554455Y-49199028D02*
X119506836Y-49103790D01*
X119506836Y-49103790D02*
X119459217Y-49056171D01*
X119459217Y-49056171D02*
X119363979Y-49008552D01*
X119363979Y-49008552D02*
X119268741Y-49008552D01*
X118983026Y-49627600D02*
X118887788Y-49675219D01*
X118887788Y-49675219D02*
X118697312Y-49675219D01*
X118697312Y-49675219D02*
X118602074Y-49627600D01*
X118602074Y-49627600D02*
X118554455Y-49532361D01*
X118554455Y-49532361D02*
X118554455Y-49484742D01*
X118554455Y-49484742D02*
X118602074Y-49389504D01*
X118602074Y-49389504D02*
X118697312Y-49341885D01*
X118697312Y-49341885D02*
X118840169Y-49341885D01*
X118840169Y-49341885D02*
X118935407Y-49294266D01*
X118935407Y-49294266D02*
X118983026Y-49199028D01*
X118983026Y-49199028D02*
X118983026Y-49151409D01*
X118983026Y-49151409D02*
X118935407Y-49056171D01*
X118935407Y-49056171D02*
X118840169Y-49008552D01*
X118840169Y-49008552D02*
X118697312Y-49008552D01*
X118697312Y-49008552D02*
X118602074Y-49056171D01*
X117983026Y-49675219D02*
X118078264Y-49627600D01*
X118078264Y-49627600D02*
X118125883Y-49579980D01*
X118125883Y-49579980D02*
X118173502Y-49484742D01*
X118173502Y-49484742D02*
X118173502Y-49199028D01*
X118173502Y-49199028D02*
X118125883Y-49103790D01*
X118125883Y-49103790D02*
X118078264Y-49056171D01*
X118078264Y-49056171D02*
X117983026Y-49008552D01*
X117983026Y-49008552D02*
X117840169Y-49008552D01*
X117840169Y-49008552D02*
X117744931Y-49056171D01*
X117744931Y-49056171D02*
X117697312Y-49103790D01*
X117697312Y-49103790D02*
X117649693Y-49199028D01*
X117649693Y-49199028D02*
X117649693Y-49484742D01*
X117649693Y-49484742D02*
X117697312Y-49579980D01*
X117697312Y-49579980D02*
X117744931Y-49627600D01*
X117744931Y-49627600D02*
X117840169Y-49675219D01*
X117840169Y-49675219D02*
X117983026Y-49675219D01*
X117221121Y-49008552D02*
X117221121Y-49675219D01*
X117221121Y-49103790D02*
X117173502Y-49056171D01*
X117173502Y-49056171D02*
X117078264Y-49008552D01*
X117078264Y-49008552D02*
X116935407Y-49008552D01*
X116935407Y-49008552D02*
X116840169Y-49056171D01*
X116840169Y-49056171D02*
X116792550Y-49151409D01*
X116792550Y-49151409D02*
X116792550Y-49675219D01*
X115887788Y-49675219D02*
X115887788Y-49151409D01*
X115887788Y-49151409D02*
X115935407Y-49056171D01*
X115935407Y-49056171D02*
X116030645Y-49008552D01*
X116030645Y-49008552D02*
X116221121Y-49008552D01*
X116221121Y-49008552D02*
X116316359Y-49056171D01*
X115887788Y-49627600D02*
X115983026Y-49675219D01*
X115983026Y-49675219D02*
X116221121Y-49675219D01*
X116221121Y-49675219D02*
X116316359Y-49627600D01*
X116316359Y-49627600D02*
X116363978Y-49532361D01*
X116363978Y-49532361D02*
X116363978Y-49437123D01*
X116363978Y-49437123D02*
X116316359Y-49341885D01*
X116316359Y-49341885D02*
X116221121Y-49294266D01*
X116221121Y-49294266D02*
X115983026Y-49294266D01*
X115983026Y-49294266D02*
X115887788Y-49246647D01*
X115268740Y-49675219D02*
X115363978Y-49627600D01*
X115363978Y-49627600D02*
X115411597Y-49532361D01*
X115411597Y-49532361D02*
X115411597Y-48675219D01*
X114125882Y-49675219D02*
X114125882Y-49008552D01*
X114125882Y-48675219D02*
X114173501Y-48722838D01*
X114173501Y-48722838D02*
X114125882Y-48770457D01*
X114125882Y-48770457D02*
X114078263Y-48722838D01*
X114078263Y-48722838D02*
X114125882Y-48675219D01*
X114125882Y-48675219D02*
X114125882Y-48770457D01*
X113649692Y-49008552D02*
X113649692Y-49675219D01*
X113649692Y-49103790D02*
X113602073Y-49056171D01*
X113602073Y-49056171D02*
X113506835Y-49008552D01*
X113506835Y-49008552D02*
X113363978Y-49008552D01*
X113363978Y-49008552D02*
X113268740Y-49056171D01*
X113268740Y-49056171D02*
X113221121Y-49151409D01*
X113221121Y-49151409D02*
X113221121Y-49675219D01*
X112744930Y-49294266D02*
X111983026Y-49294266D01*
X145459220Y-50618552D02*
X145459220Y-51475695D01*
X145459220Y-51475695D02*
X145506839Y-51570933D01*
X145506839Y-51570933D02*
X145602077Y-51618552D01*
X145602077Y-51618552D02*
X145649696Y-51618552D01*
X145459220Y-50285219D02*
X145506839Y-50332838D01*
X145506839Y-50332838D02*
X145459220Y-50380457D01*
X145459220Y-50380457D02*
X145411601Y-50332838D01*
X145411601Y-50332838D02*
X145459220Y-50285219D01*
X145459220Y-50285219D02*
X145459220Y-50380457D01*
X144554459Y-50618552D02*
X144554459Y-51285219D01*
X144983030Y-50618552D02*
X144983030Y-51142361D01*
X144983030Y-51142361D02*
X144935411Y-51237600D01*
X144935411Y-51237600D02*
X144840173Y-51285219D01*
X144840173Y-51285219D02*
X144697316Y-51285219D01*
X144697316Y-51285219D02*
X144602078Y-51237600D01*
X144602078Y-51237600D02*
X144554459Y-51189980D01*
X144078268Y-51285219D02*
X144078268Y-50618552D01*
X144078268Y-50809028D02*
X144030649Y-50713790D01*
X144030649Y-50713790D02*
X143983030Y-50666171D01*
X143983030Y-50666171D02*
X143887792Y-50618552D01*
X143887792Y-50618552D02*
X143792554Y-50618552D01*
X143554458Y-50618552D02*
X143316363Y-51285219D01*
X143078268Y-50618552D02*
X143316363Y-51285219D01*
X143316363Y-51285219D02*
X143411601Y-51523314D01*
X143411601Y-51523314D02*
X143459220Y-51570933D01*
X143459220Y-51570933D02*
X143554458Y-51618552D01*
X141506839Y-51285219D02*
X141506839Y-50761409D01*
X141506839Y-50761409D02*
X141554458Y-50666171D01*
X141554458Y-50666171D02*
X141649696Y-50618552D01*
X141649696Y-50618552D02*
X141840172Y-50618552D01*
X141840172Y-50618552D02*
X141935410Y-50666171D01*
X141506839Y-51237600D02*
X141602077Y-51285219D01*
X141602077Y-51285219D02*
X141840172Y-51285219D01*
X141840172Y-51285219D02*
X141935410Y-51237600D01*
X141935410Y-51237600D02*
X141983029Y-51142361D01*
X141983029Y-51142361D02*
X141983029Y-51047123D01*
X141983029Y-51047123D02*
X141935410Y-50951885D01*
X141935410Y-50951885D02*
X141840172Y-50904266D01*
X141840172Y-50904266D02*
X141602077Y-50904266D01*
X141602077Y-50904266D02*
X141506839Y-50856647D01*
X141030648Y-50618552D02*
X141030648Y-51285219D01*
X141030648Y-50713790D02*
X140983029Y-50666171D01*
X140983029Y-50666171D02*
X140887791Y-50618552D01*
X140887791Y-50618552D02*
X140744934Y-50618552D01*
X140744934Y-50618552D02*
X140649696Y-50666171D01*
X140649696Y-50666171D02*
X140602077Y-50761409D01*
X140602077Y-50761409D02*
X140602077Y-51285219D01*
X139697315Y-51285219D02*
X139697315Y-50285219D01*
X139697315Y-51237600D02*
X139792553Y-51285219D01*
X139792553Y-51285219D02*
X139983029Y-51285219D01*
X139983029Y-51285219D02*
X140078267Y-51237600D01*
X140078267Y-51237600D02*
X140125886Y-51189980D01*
X140125886Y-51189980D02*
X140173505Y-51094742D01*
X140173505Y-51094742D02*
X140173505Y-50809028D01*
X140173505Y-50809028D02*
X140125886Y-50713790D01*
X140125886Y-50713790D02*
X140078267Y-50666171D01*
X140078267Y-50666171D02*
X139983029Y-50618552D01*
X139983029Y-50618552D02*
X139792553Y-50618552D01*
X139792553Y-50618552D02*
X139697315Y-50666171D01*
X138030648Y-51285219D02*
X138030648Y-50285219D01*
X138030648Y-51237600D02*
X138125886Y-51285219D01*
X138125886Y-51285219D02*
X138316362Y-51285219D01*
X138316362Y-51285219D02*
X138411600Y-51237600D01*
X138411600Y-51237600D02*
X138459219Y-51189980D01*
X138459219Y-51189980D02*
X138506838Y-51094742D01*
X138506838Y-51094742D02*
X138506838Y-50809028D01*
X138506838Y-50809028D02*
X138459219Y-50713790D01*
X138459219Y-50713790D02*
X138411600Y-50666171D01*
X138411600Y-50666171D02*
X138316362Y-50618552D01*
X138316362Y-50618552D02*
X138125886Y-50618552D01*
X138125886Y-50618552D02*
X138030648Y-50666171D01*
X137173505Y-51237600D02*
X137268743Y-51285219D01*
X137268743Y-51285219D02*
X137459219Y-51285219D01*
X137459219Y-51285219D02*
X137554457Y-51237600D01*
X137554457Y-51237600D02*
X137602076Y-51142361D01*
X137602076Y-51142361D02*
X137602076Y-50761409D01*
X137602076Y-50761409D02*
X137554457Y-50666171D01*
X137554457Y-50666171D02*
X137459219Y-50618552D01*
X137459219Y-50618552D02*
X137268743Y-50618552D01*
X137268743Y-50618552D02*
X137173505Y-50666171D01*
X137173505Y-50666171D02*
X137125886Y-50761409D01*
X137125886Y-50761409D02*
X137125886Y-50856647D01*
X137125886Y-50856647D02*
X137602076Y-50951885D01*
X136268743Y-51285219D02*
X136268743Y-50761409D01*
X136268743Y-50761409D02*
X136316362Y-50666171D01*
X136316362Y-50666171D02*
X136411600Y-50618552D01*
X136411600Y-50618552D02*
X136602076Y-50618552D01*
X136602076Y-50618552D02*
X136697314Y-50666171D01*
X136268743Y-51237600D02*
X136363981Y-51285219D01*
X136363981Y-51285219D02*
X136602076Y-51285219D01*
X136602076Y-51285219D02*
X136697314Y-51237600D01*
X136697314Y-51237600D02*
X136744933Y-51142361D01*
X136744933Y-51142361D02*
X136744933Y-51047123D01*
X136744933Y-51047123D02*
X136697314Y-50951885D01*
X136697314Y-50951885D02*
X136602076Y-50904266D01*
X136602076Y-50904266D02*
X136363981Y-50904266D01*
X136363981Y-50904266D02*
X136268743Y-50856647D01*
X135935409Y-50618552D02*
X135554457Y-50618552D01*
X135792552Y-50285219D02*
X135792552Y-51142361D01*
X135792552Y-51142361D02*
X135744933Y-51237600D01*
X135744933Y-51237600D02*
X135649695Y-51285219D01*
X135649695Y-51285219D02*
X135554457Y-51285219D01*
X135221123Y-51285219D02*
X135221123Y-50285219D01*
X134792552Y-51285219D02*
X134792552Y-50761409D01*
X134792552Y-50761409D02*
X134840171Y-50666171D01*
X134840171Y-50666171D02*
X134935409Y-50618552D01*
X134935409Y-50618552D02*
X135078266Y-50618552D01*
X135078266Y-50618552D02*
X135173504Y-50666171D01*
X135173504Y-50666171D02*
X135221123Y-50713790D01*
X134316361Y-51189980D02*
X134268742Y-51237600D01*
X134268742Y-51237600D02*
X134316361Y-51285219D01*
X134316361Y-51285219D02*
X134363980Y-51237600D01*
X134363980Y-51237600D02*
X134316361Y-51189980D01*
X134316361Y-51189980D02*
X134316361Y-51285219D01*
X133221123Y-50285219D02*
X132649695Y-50285219D01*
X132935409Y-51285219D02*
X132935409Y-50285219D01*
X132316361Y-51285219D02*
X132316361Y-50285219D01*
X131887790Y-51285219D02*
X131887790Y-50761409D01*
X131887790Y-50761409D02*
X131935409Y-50666171D01*
X131935409Y-50666171D02*
X132030647Y-50618552D01*
X132030647Y-50618552D02*
X132173504Y-50618552D01*
X132173504Y-50618552D02*
X132268742Y-50666171D01*
X132268742Y-50666171D02*
X132316361Y-50713790D01*
X131030647Y-51237600D02*
X131125885Y-51285219D01*
X131125885Y-51285219D02*
X131316361Y-51285219D01*
X131316361Y-51285219D02*
X131411599Y-51237600D01*
X131411599Y-51237600D02*
X131459218Y-51142361D01*
X131459218Y-51142361D02*
X131459218Y-50761409D01*
X131459218Y-50761409D02*
X131411599Y-50666171D01*
X131411599Y-50666171D02*
X131316361Y-50618552D01*
X131316361Y-50618552D02*
X131125885Y-50618552D01*
X131125885Y-50618552D02*
X131030647Y-50666171D01*
X131030647Y-50666171D02*
X130983028Y-50761409D01*
X130983028Y-50761409D02*
X130983028Y-50856647D01*
X130983028Y-50856647D02*
X131459218Y-50951885D01*
X129363980Y-51285219D02*
X129363980Y-50761409D01*
X129363980Y-50761409D02*
X129411599Y-50666171D01*
X129411599Y-50666171D02*
X129506837Y-50618552D01*
X129506837Y-50618552D02*
X129697313Y-50618552D01*
X129697313Y-50618552D02*
X129792551Y-50666171D01*
X129363980Y-51237600D02*
X129459218Y-51285219D01*
X129459218Y-51285219D02*
X129697313Y-51285219D01*
X129697313Y-51285219D02*
X129792551Y-51237600D01*
X129792551Y-51237600D02*
X129840170Y-51142361D01*
X129840170Y-51142361D02*
X129840170Y-51047123D01*
X129840170Y-51047123D02*
X129792551Y-50951885D01*
X129792551Y-50951885D02*
X129697313Y-50904266D01*
X129697313Y-50904266D02*
X129459218Y-50904266D01*
X129459218Y-50904266D02*
X129363980Y-50856647D01*
X128459218Y-50618552D02*
X128459218Y-51285219D01*
X128887789Y-50618552D02*
X128887789Y-51142361D01*
X128887789Y-51142361D02*
X128840170Y-51237600D01*
X128840170Y-51237600D02*
X128744932Y-51285219D01*
X128744932Y-51285219D02*
X128602075Y-51285219D01*
X128602075Y-51285219D02*
X128506837Y-51237600D01*
X128506837Y-51237600D02*
X128459218Y-51189980D01*
X128125884Y-50618552D02*
X127744932Y-50618552D01*
X127983027Y-50285219D02*
X127983027Y-51142361D01*
X127983027Y-51142361D02*
X127935408Y-51237600D01*
X127935408Y-51237600D02*
X127840170Y-51285219D01*
X127840170Y-51285219D02*
X127744932Y-51285219D01*
X127411598Y-51285219D02*
X127411598Y-50285219D01*
X126983027Y-51285219D02*
X126983027Y-50761409D01*
X126983027Y-50761409D02*
X127030646Y-50666171D01*
X127030646Y-50666171D02*
X127125884Y-50618552D01*
X127125884Y-50618552D02*
X127268741Y-50618552D01*
X127268741Y-50618552D02*
X127363979Y-50666171D01*
X127363979Y-50666171D02*
X127411598Y-50713790D01*
X126363979Y-51285219D02*
X126459217Y-51237600D01*
X126459217Y-51237600D02*
X126506836Y-51189980D01*
X126506836Y-51189980D02*
X126554455Y-51094742D01*
X126554455Y-51094742D02*
X126554455Y-50809028D01*
X126554455Y-50809028D02*
X126506836Y-50713790D01*
X126506836Y-50713790D02*
X126459217Y-50666171D01*
X126459217Y-50666171D02*
X126363979Y-50618552D01*
X126363979Y-50618552D02*
X126221122Y-50618552D01*
X126221122Y-50618552D02*
X126125884Y-50666171D01*
X126125884Y-50666171D02*
X126078265Y-50713790D01*
X126078265Y-50713790D02*
X126030646Y-50809028D01*
X126030646Y-50809028D02*
X126030646Y-51094742D01*
X126030646Y-51094742D02*
X126078265Y-51189980D01*
X126078265Y-51189980D02*
X126125884Y-51237600D01*
X126125884Y-51237600D02*
X126221122Y-51285219D01*
X126221122Y-51285219D02*
X126363979Y-51285219D01*
X125602074Y-51285219D02*
X125602074Y-50618552D01*
X125602074Y-50809028D02*
X125554455Y-50713790D01*
X125554455Y-50713790D02*
X125506836Y-50666171D01*
X125506836Y-50666171D02*
X125411598Y-50618552D01*
X125411598Y-50618552D02*
X125316360Y-50618552D01*
X124221121Y-51285219D02*
X124221121Y-50618552D01*
X124221121Y-50285219D02*
X124268740Y-50332838D01*
X124268740Y-50332838D02*
X124221121Y-50380457D01*
X124221121Y-50380457D02*
X124173502Y-50332838D01*
X124173502Y-50332838D02*
X124221121Y-50285219D01*
X124221121Y-50285219D02*
X124221121Y-50380457D01*
X123792550Y-51237600D02*
X123697312Y-51285219D01*
X123697312Y-51285219D02*
X123506836Y-51285219D01*
X123506836Y-51285219D02*
X123411598Y-51237600D01*
X123411598Y-51237600D02*
X123363979Y-51142361D01*
X123363979Y-51142361D02*
X123363979Y-51094742D01*
X123363979Y-51094742D02*
X123411598Y-50999504D01*
X123411598Y-50999504D02*
X123506836Y-50951885D01*
X123506836Y-50951885D02*
X123649693Y-50951885D01*
X123649693Y-50951885D02*
X123744931Y-50904266D01*
X123744931Y-50904266D02*
X123792550Y-50809028D01*
X123792550Y-50809028D02*
X123792550Y-50761409D01*
X123792550Y-50761409D02*
X123744931Y-50666171D01*
X123744931Y-50666171D02*
X123649693Y-50618552D01*
X123649693Y-50618552D02*
X123506836Y-50618552D01*
X123506836Y-50618552D02*
X123411598Y-50666171D01*
X122173502Y-50618552D02*
X122173502Y-51285219D01*
X122173502Y-50713790D02*
X122125883Y-50666171D01*
X122125883Y-50666171D02*
X122030645Y-50618552D01*
X122030645Y-50618552D02*
X121887788Y-50618552D01*
X121887788Y-50618552D02*
X121792550Y-50666171D01*
X121792550Y-50666171D02*
X121744931Y-50761409D01*
X121744931Y-50761409D02*
X121744931Y-51285219D01*
X121125883Y-51285219D02*
X121221121Y-51237600D01*
X121221121Y-51237600D02*
X121268740Y-51189980D01*
X121268740Y-51189980D02*
X121316359Y-51094742D01*
X121316359Y-51094742D02*
X121316359Y-50809028D01*
X121316359Y-50809028D02*
X121268740Y-50713790D01*
X121268740Y-50713790D02*
X121221121Y-50666171D01*
X121221121Y-50666171D02*
X121125883Y-50618552D01*
X121125883Y-50618552D02*
X120983026Y-50618552D01*
X120983026Y-50618552D02*
X120887788Y-50666171D01*
X120887788Y-50666171D02*
X120840169Y-50713790D01*
X120840169Y-50713790D02*
X120792550Y-50809028D01*
X120792550Y-50809028D02*
X120792550Y-51094742D01*
X120792550Y-51094742D02*
X120840169Y-51189980D01*
X120840169Y-51189980D02*
X120887788Y-51237600D01*
X120887788Y-51237600D02*
X120983026Y-51285219D01*
X120983026Y-51285219D02*
X121125883Y-51285219D01*
X120506835Y-50618552D02*
X120125883Y-50618552D01*
X120363978Y-50285219D02*
X120363978Y-51142361D01*
X120363978Y-51142361D02*
X120316359Y-51237600D01*
X120316359Y-51237600D02*
X120221121Y-51285219D01*
X120221121Y-51285219D02*
X120125883Y-51285219D01*
X118887787Y-51285219D02*
X118983025Y-51237600D01*
X118983025Y-51237600D02*
X119030644Y-51142361D01*
X119030644Y-51142361D02*
X119030644Y-50285219D01*
X118506834Y-51285219D02*
X118506834Y-50618552D01*
X118506834Y-50285219D02*
X118554453Y-50332838D01*
X118554453Y-50332838D02*
X118506834Y-50380457D01*
X118506834Y-50380457D02*
X118459215Y-50332838D01*
X118459215Y-50332838D02*
X118506834Y-50285219D01*
X118506834Y-50285219D02*
X118506834Y-50380457D01*
X117602073Y-51285219D02*
X117602073Y-50761409D01*
X117602073Y-50761409D02*
X117649692Y-50666171D01*
X117649692Y-50666171D02*
X117744930Y-50618552D01*
X117744930Y-50618552D02*
X117935406Y-50618552D01*
X117935406Y-50618552D02*
X118030644Y-50666171D01*
X117602073Y-51237600D02*
X117697311Y-51285219D01*
X117697311Y-51285219D02*
X117935406Y-51285219D01*
X117935406Y-51285219D02*
X118030644Y-51237600D01*
X118030644Y-51237600D02*
X118078263Y-51142361D01*
X118078263Y-51142361D02*
X118078263Y-51047123D01*
X118078263Y-51047123D02*
X118030644Y-50951885D01*
X118030644Y-50951885D02*
X117935406Y-50904266D01*
X117935406Y-50904266D02*
X117697311Y-50904266D01*
X117697311Y-50904266D02*
X117602073Y-50856647D01*
X117125882Y-51285219D02*
X117125882Y-50285219D01*
X117125882Y-50666171D02*
X117030644Y-50618552D01*
X117030644Y-50618552D02*
X116840168Y-50618552D01*
X116840168Y-50618552D02*
X116744930Y-50666171D01*
X116744930Y-50666171D02*
X116697311Y-50713790D01*
X116697311Y-50713790D02*
X116649692Y-50809028D01*
X116649692Y-50809028D02*
X116649692Y-51094742D01*
X116649692Y-51094742D02*
X116697311Y-51189980D01*
X116697311Y-51189980D02*
X116744930Y-51237600D01*
X116744930Y-51237600D02*
X116840168Y-51285219D01*
X116840168Y-51285219D02*
X117030644Y-51285219D01*
X117030644Y-51285219D02*
X117125882Y-51237600D01*
X116078263Y-51285219D02*
X116173501Y-51237600D01*
X116173501Y-51237600D02*
X116221120Y-51142361D01*
X116221120Y-51142361D02*
X116221120Y-50285219D01*
X115316358Y-51237600D02*
X115411596Y-51285219D01*
X115411596Y-51285219D02*
X115602072Y-51285219D01*
X115602072Y-51285219D02*
X115697310Y-51237600D01*
X115697310Y-51237600D02*
X115744929Y-51142361D01*
X115744929Y-51142361D02*
X115744929Y-50761409D01*
X115744929Y-50761409D02*
X115697310Y-50666171D01*
X115697310Y-50666171D02*
X115602072Y-50618552D01*
X115602072Y-50618552D02*
X115411596Y-50618552D01*
X115411596Y-50618552D02*
X115316358Y-50666171D01*
X115316358Y-50666171D02*
X115268739Y-50761409D01*
X115268739Y-50761409D02*
X115268739Y-50856647D01*
X115268739Y-50856647D02*
X115744929Y-50951885D01*
X114221119Y-50618552D02*
X113840167Y-50618552D01*
X114078262Y-51285219D02*
X114078262Y-50428076D01*
X114078262Y-50428076D02*
X114030643Y-50332838D01*
X114030643Y-50332838D02*
X113935405Y-50285219D01*
X113935405Y-50285219D02*
X113840167Y-50285219D01*
X113363976Y-51285219D02*
X113459214Y-51237600D01*
X113459214Y-51237600D02*
X113506833Y-51189980D01*
X113506833Y-51189980D02*
X113554452Y-51094742D01*
X113554452Y-51094742D02*
X113554452Y-50809028D01*
X113554452Y-50809028D02*
X113506833Y-50713790D01*
X113506833Y-50713790D02*
X113459214Y-50666171D01*
X113459214Y-50666171D02*
X113363976Y-50618552D01*
X113363976Y-50618552D02*
X113221119Y-50618552D01*
X113221119Y-50618552D02*
X113125881Y-50666171D01*
X113125881Y-50666171D02*
X113078262Y-50713790D01*
X113078262Y-50713790D02*
X113030643Y-50809028D01*
X113030643Y-50809028D02*
X113030643Y-51094742D01*
X113030643Y-51094742D02*
X113078262Y-51189980D01*
X113078262Y-51189980D02*
X113125881Y-51237600D01*
X113125881Y-51237600D02*
X113221119Y-51285219D01*
X113221119Y-51285219D02*
X113363976Y-51285219D01*
X112602071Y-51285219D02*
X112602071Y-50618552D01*
X112602071Y-50809028D02*
X112554452Y-50713790D01*
X112554452Y-50713790D02*
X112506833Y-50666171D01*
X112506833Y-50666171D02*
X112411595Y-50618552D01*
X112411595Y-50618552D02*
X112316357Y-50618552D01*
X145030649Y-52895219D02*
X145030649Y-52371409D01*
X145030649Y-52371409D02*
X145078268Y-52276171D01*
X145078268Y-52276171D02*
X145173506Y-52228552D01*
X145173506Y-52228552D02*
X145363982Y-52228552D01*
X145363982Y-52228552D02*
X145459220Y-52276171D01*
X145030649Y-52847600D02*
X145125887Y-52895219D01*
X145125887Y-52895219D02*
X145363982Y-52895219D01*
X145363982Y-52895219D02*
X145459220Y-52847600D01*
X145459220Y-52847600D02*
X145506839Y-52752361D01*
X145506839Y-52752361D02*
X145506839Y-52657123D01*
X145506839Y-52657123D02*
X145459220Y-52561885D01*
X145459220Y-52561885D02*
X145363982Y-52514266D01*
X145363982Y-52514266D02*
X145125887Y-52514266D01*
X145125887Y-52514266D02*
X145030649Y-52466647D01*
X144554458Y-52228552D02*
X144554458Y-52895219D01*
X144554458Y-52323790D02*
X144506839Y-52276171D01*
X144506839Y-52276171D02*
X144411601Y-52228552D01*
X144411601Y-52228552D02*
X144268744Y-52228552D01*
X144268744Y-52228552D02*
X144173506Y-52276171D01*
X144173506Y-52276171D02*
X144125887Y-52371409D01*
X144125887Y-52371409D02*
X144125887Y-52895219D01*
X143744934Y-52228552D02*
X143506839Y-52895219D01*
X143268744Y-52228552D02*
X143506839Y-52895219D01*
X143506839Y-52895219D02*
X143602077Y-53133314D01*
X143602077Y-53133314D02*
X143649696Y-53180933D01*
X143649696Y-53180933D02*
X143744934Y-53228552D01*
X141697315Y-52895219D02*
X141697315Y-51895219D01*
X141697315Y-52847600D02*
X141792553Y-52895219D01*
X141792553Y-52895219D02*
X141983029Y-52895219D01*
X141983029Y-52895219D02*
X142078267Y-52847600D01*
X142078267Y-52847600D02*
X142125886Y-52799980D01*
X142125886Y-52799980D02*
X142173505Y-52704742D01*
X142173505Y-52704742D02*
X142173505Y-52419028D01*
X142173505Y-52419028D02*
X142125886Y-52323790D01*
X142125886Y-52323790D02*
X142078267Y-52276171D01*
X142078267Y-52276171D02*
X141983029Y-52228552D01*
X141983029Y-52228552D02*
X141792553Y-52228552D01*
X141792553Y-52228552D02*
X141697315Y-52276171D01*
X140792553Y-52895219D02*
X140792553Y-52371409D01*
X140792553Y-52371409D02*
X140840172Y-52276171D01*
X140840172Y-52276171D02*
X140935410Y-52228552D01*
X140935410Y-52228552D02*
X141125886Y-52228552D01*
X141125886Y-52228552D02*
X141221124Y-52276171D01*
X140792553Y-52847600D02*
X140887791Y-52895219D01*
X140887791Y-52895219D02*
X141125886Y-52895219D01*
X141125886Y-52895219D02*
X141221124Y-52847600D01*
X141221124Y-52847600D02*
X141268743Y-52752361D01*
X141268743Y-52752361D02*
X141268743Y-52657123D01*
X141268743Y-52657123D02*
X141221124Y-52561885D01*
X141221124Y-52561885D02*
X141125886Y-52514266D01*
X141125886Y-52514266D02*
X140887791Y-52514266D01*
X140887791Y-52514266D02*
X140792553Y-52466647D01*
X140316362Y-52895219D02*
X140316362Y-52228552D01*
X140316362Y-52323790D02*
X140268743Y-52276171D01*
X140268743Y-52276171D02*
X140173505Y-52228552D01*
X140173505Y-52228552D02*
X140030648Y-52228552D01*
X140030648Y-52228552D02*
X139935410Y-52276171D01*
X139935410Y-52276171D02*
X139887791Y-52371409D01*
X139887791Y-52371409D02*
X139887791Y-52895219D01*
X139887791Y-52371409D02*
X139840172Y-52276171D01*
X139840172Y-52276171D02*
X139744934Y-52228552D01*
X139744934Y-52228552D02*
X139602077Y-52228552D01*
X139602077Y-52228552D02*
X139506838Y-52276171D01*
X139506838Y-52276171D02*
X139459219Y-52371409D01*
X139459219Y-52371409D02*
X139459219Y-52895219D01*
X138554458Y-52895219D02*
X138554458Y-52371409D01*
X138554458Y-52371409D02*
X138602077Y-52276171D01*
X138602077Y-52276171D02*
X138697315Y-52228552D01*
X138697315Y-52228552D02*
X138887791Y-52228552D01*
X138887791Y-52228552D02*
X138983029Y-52276171D01*
X138554458Y-52847600D02*
X138649696Y-52895219D01*
X138649696Y-52895219D02*
X138887791Y-52895219D01*
X138887791Y-52895219D02*
X138983029Y-52847600D01*
X138983029Y-52847600D02*
X139030648Y-52752361D01*
X139030648Y-52752361D02*
X139030648Y-52657123D01*
X139030648Y-52657123D02*
X138983029Y-52561885D01*
X138983029Y-52561885D02*
X138887791Y-52514266D01*
X138887791Y-52514266D02*
X138649696Y-52514266D01*
X138649696Y-52514266D02*
X138554458Y-52466647D01*
X137649696Y-52228552D02*
X137649696Y-53038076D01*
X137649696Y-53038076D02*
X137697315Y-53133314D01*
X137697315Y-53133314D02*
X137744934Y-53180933D01*
X137744934Y-53180933D02*
X137840172Y-53228552D01*
X137840172Y-53228552D02*
X137983029Y-53228552D01*
X137983029Y-53228552D02*
X138078267Y-53180933D01*
X137649696Y-52847600D02*
X137744934Y-52895219D01*
X137744934Y-52895219D02*
X137935410Y-52895219D01*
X137935410Y-52895219D02*
X138030648Y-52847600D01*
X138030648Y-52847600D02*
X138078267Y-52799980D01*
X138078267Y-52799980D02*
X138125886Y-52704742D01*
X138125886Y-52704742D02*
X138125886Y-52419028D01*
X138125886Y-52419028D02*
X138078267Y-52323790D01*
X138078267Y-52323790D02*
X138030648Y-52276171D01*
X138030648Y-52276171D02*
X137935410Y-52228552D01*
X137935410Y-52228552D02*
X137744934Y-52228552D01*
X137744934Y-52228552D02*
X137649696Y-52276171D01*
X136792553Y-52847600D02*
X136887791Y-52895219D01*
X136887791Y-52895219D02*
X137078267Y-52895219D01*
X137078267Y-52895219D02*
X137173505Y-52847600D01*
X137173505Y-52847600D02*
X137221124Y-52752361D01*
X137221124Y-52752361D02*
X137221124Y-52371409D01*
X137221124Y-52371409D02*
X137173505Y-52276171D01*
X137173505Y-52276171D02*
X137078267Y-52228552D01*
X137078267Y-52228552D02*
X136887791Y-52228552D01*
X136887791Y-52228552D02*
X136792553Y-52276171D01*
X136792553Y-52276171D02*
X136744934Y-52371409D01*
X136744934Y-52371409D02*
X136744934Y-52466647D01*
X136744934Y-52466647D02*
X137221124Y-52561885D01*
X135411600Y-52895219D02*
X135506838Y-52847600D01*
X135506838Y-52847600D02*
X135554457Y-52799980D01*
X135554457Y-52799980D02*
X135602076Y-52704742D01*
X135602076Y-52704742D02*
X135602076Y-52419028D01*
X135602076Y-52419028D02*
X135554457Y-52323790D01*
X135554457Y-52323790D02*
X135506838Y-52276171D01*
X135506838Y-52276171D02*
X135411600Y-52228552D01*
X135411600Y-52228552D02*
X135268743Y-52228552D01*
X135268743Y-52228552D02*
X135173505Y-52276171D01*
X135173505Y-52276171D02*
X135125886Y-52323790D01*
X135125886Y-52323790D02*
X135078267Y-52419028D01*
X135078267Y-52419028D02*
X135078267Y-52704742D01*
X135078267Y-52704742D02*
X135125886Y-52799980D01*
X135125886Y-52799980D02*
X135173505Y-52847600D01*
X135173505Y-52847600D02*
X135268743Y-52895219D01*
X135268743Y-52895219D02*
X135411600Y-52895219D01*
X134649695Y-52895219D02*
X134649695Y-52228552D01*
X134649695Y-52419028D02*
X134602076Y-52323790D01*
X134602076Y-52323790D02*
X134554457Y-52276171D01*
X134554457Y-52276171D02*
X134459219Y-52228552D01*
X134459219Y-52228552D02*
X134363981Y-52228552D01*
X133268742Y-52895219D02*
X133268742Y-52228552D01*
X133268742Y-51895219D02*
X133316361Y-51942838D01*
X133316361Y-51942838D02*
X133268742Y-51990457D01*
X133268742Y-51990457D02*
X133221123Y-51942838D01*
X133221123Y-51942838D02*
X133268742Y-51895219D01*
X133268742Y-51895219D02*
X133268742Y-51990457D01*
X132792552Y-52228552D02*
X132792552Y-52895219D01*
X132792552Y-52323790D02*
X132744933Y-52276171D01*
X132744933Y-52276171D02*
X132649695Y-52228552D01*
X132649695Y-52228552D02*
X132506838Y-52228552D01*
X132506838Y-52228552D02*
X132411600Y-52276171D01*
X132411600Y-52276171D02*
X132363981Y-52371409D01*
X132363981Y-52371409D02*
X132363981Y-52895219D01*
X131887790Y-52228552D02*
X131887790Y-53085695D01*
X131887790Y-53085695D02*
X131935409Y-53180933D01*
X131935409Y-53180933D02*
X132030647Y-53228552D01*
X132030647Y-53228552D02*
X132078266Y-53228552D01*
X131887790Y-51895219D02*
X131935409Y-51942838D01*
X131935409Y-51942838D02*
X131887790Y-51990457D01*
X131887790Y-51990457D02*
X131840171Y-51942838D01*
X131840171Y-51942838D02*
X131887790Y-51895219D01*
X131887790Y-51895219D02*
X131887790Y-51990457D01*
X130983029Y-52228552D02*
X130983029Y-52895219D01*
X131411600Y-52228552D02*
X131411600Y-52752361D01*
X131411600Y-52752361D02*
X131363981Y-52847600D01*
X131363981Y-52847600D02*
X131268743Y-52895219D01*
X131268743Y-52895219D02*
X131125886Y-52895219D01*
X131125886Y-52895219D02*
X131030648Y-52847600D01*
X131030648Y-52847600D02*
X130983029Y-52799980D01*
X130506838Y-52895219D02*
X130506838Y-52228552D01*
X130506838Y-52419028D02*
X130459219Y-52323790D01*
X130459219Y-52323790D02*
X130411600Y-52276171D01*
X130411600Y-52276171D02*
X130316362Y-52228552D01*
X130316362Y-52228552D02*
X130221124Y-52228552D01*
X129983028Y-52228552D02*
X129744933Y-52895219D01*
X129506838Y-52228552D02*
X129744933Y-52895219D01*
X129744933Y-52895219D02*
X129840171Y-53133314D01*
X129840171Y-53133314D02*
X129887790Y-53180933D01*
X129887790Y-53180933D02*
X129983028Y-53228552D01*
X128363980Y-52895219D02*
X128363980Y-52228552D01*
X128363980Y-52419028D02*
X128316361Y-52323790D01*
X128316361Y-52323790D02*
X128268742Y-52276171D01*
X128268742Y-52276171D02*
X128173504Y-52228552D01*
X128173504Y-52228552D02*
X128078266Y-52228552D01*
X127363980Y-52847600D02*
X127459218Y-52895219D01*
X127459218Y-52895219D02*
X127649694Y-52895219D01*
X127649694Y-52895219D02*
X127744932Y-52847600D01*
X127744932Y-52847600D02*
X127792551Y-52752361D01*
X127792551Y-52752361D02*
X127792551Y-52371409D01*
X127792551Y-52371409D02*
X127744932Y-52276171D01*
X127744932Y-52276171D02*
X127649694Y-52228552D01*
X127649694Y-52228552D02*
X127459218Y-52228552D01*
X127459218Y-52228552D02*
X127363980Y-52276171D01*
X127363980Y-52276171D02*
X127316361Y-52371409D01*
X127316361Y-52371409D02*
X127316361Y-52466647D01*
X127316361Y-52466647D02*
X127792551Y-52561885D01*
X126935408Y-52847600D02*
X126840170Y-52895219D01*
X126840170Y-52895219D02*
X126649694Y-52895219D01*
X126649694Y-52895219D02*
X126554456Y-52847600D01*
X126554456Y-52847600D02*
X126506837Y-52752361D01*
X126506837Y-52752361D02*
X126506837Y-52704742D01*
X126506837Y-52704742D02*
X126554456Y-52609504D01*
X126554456Y-52609504D02*
X126649694Y-52561885D01*
X126649694Y-52561885D02*
X126792551Y-52561885D01*
X126792551Y-52561885D02*
X126887789Y-52514266D01*
X126887789Y-52514266D02*
X126935408Y-52419028D01*
X126935408Y-52419028D02*
X126935408Y-52371409D01*
X126935408Y-52371409D02*
X126887789Y-52276171D01*
X126887789Y-52276171D02*
X126792551Y-52228552D01*
X126792551Y-52228552D02*
X126649694Y-52228552D01*
X126649694Y-52228552D02*
X126554456Y-52276171D01*
X125649694Y-52228552D02*
X125649694Y-52895219D01*
X126078265Y-52228552D02*
X126078265Y-52752361D01*
X126078265Y-52752361D02*
X126030646Y-52847600D01*
X126030646Y-52847600D02*
X125935408Y-52895219D01*
X125935408Y-52895219D02*
X125792551Y-52895219D01*
X125792551Y-52895219D02*
X125697313Y-52847600D01*
X125697313Y-52847600D02*
X125649694Y-52799980D01*
X125030646Y-52895219D02*
X125125884Y-52847600D01*
X125125884Y-52847600D02*
X125173503Y-52752361D01*
X125173503Y-52752361D02*
X125173503Y-51895219D01*
X124792550Y-52228552D02*
X124411598Y-52228552D01*
X124649693Y-51895219D02*
X124649693Y-52752361D01*
X124649693Y-52752361D02*
X124602074Y-52847600D01*
X124602074Y-52847600D02*
X124506836Y-52895219D01*
X124506836Y-52895219D02*
X124411598Y-52895219D01*
X124078264Y-52895219D02*
X124078264Y-52228552D01*
X124078264Y-51895219D02*
X124125883Y-51942838D01*
X124125883Y-51942838D02*
X124078264Y-51990457D01*
X124078264Y-51990457D02*
X124030645Y-51942838D01*
X124030645Y-51942838D02*
X124078264Y-51895219D01*
X124078264Y-51895219D02*
X124078264Y-51990457D01*
X123602074Y-52228552D02*
X123602074Y-52895219D01*
X123602074Y-52323790D02*
X123554455Y-52276171D01*
X123554455Y-52276171D02*
X123459217Y-52228552D01*
X123459217Y-52228552D02*
X123316360Y-52228552D01*
X123316360Y-52228552D02*
X123221122Y-52276171D01*
X123221122Y-52276171D02*
X123173503Y-52371409D01*
X123173503Y-52371409D02*
X123173503Y-52895219D01*
X122268741Y-52228552D02*
X122268741Y-53038076D01*
X122268741Y-53038076D02*
X122316360Y-53133314D01*
X122316360Y-53133314D02*
X122363979Y-53180933D01*
X122363979Y-53180933D02*
X122459217Y-53228552D01*
X122459217Y-53228552D02*
X122602074Y-53228552D01*
X122602074Y-53228552D02*
X122697312Y-53180933D01*
X122268741Y-52847600D02*
X122363979Y-52895219D01*
X122363979Y-52895219D02*
X122554455Y-52895219D01*
X122554455Y-52895219D02*
X122649693Y-52847600D01*
X122649693Y-52847600D02*
X122697312Y-52799980D01*
X122697312Y-52799980D02*
X122744931Y-52704742D01*
X122744931Y-52704742D02*
X122744931Y-52419028D01*
X122744931Y-52419028D02*
X122697312Y-52323790D01*
X122697312Y-52323790D02*
X122649693Y-52276171D01*
X122649693Y-52276171D02*
X122554455Y-52228552D01*
X122554455Y-52228552D02*
X122363979Y-52228552D01*
X122363979Y-52228552D02*
X122268741Y-52276171D01*
X120887788Y-52895219D02*
X120983026Y-52847600D01*
X120983026Y-52847600D02*
X121030645Y-52799980D01*
X121030645Y-52799980D02*
X121078264Y-52704742D01*
X121078264Y-52704742D02*
X121078264Y-52419028D01*
X121078264Y-52419028D02*
X121030645Y-52323790D01*
X121030645Y-52323790D02*
X120983026Y-52276171D01*
X120983026Y-52276171D02*
X120887788Y-52228552D01*
X120887788Y-52228552D02*
X120744931Y-52228552D01*
X120744931Y-52228552D02*
X120649693Y-52276171D01*
X120649693Y-52276171D02*
X120602074Y-52323790D01*
X120602074Y-52323790D02*
X120554455Y-52419028D01*
X120554455Y-52419028D02*
X120554455Y-52704742D01*
X120554455Y-52704742D02*
X120602074Y-52799980D01*
X120602074Y-52799980D02*
X120649693Y-52847600D01*
X120649693Y-52847600D02*
X120744931Y-52895219D01*
X120744931Y-52895219D02*
X120887788Y-52895219D01*
X120268740Y-52228552D02*
X119887788Y-52228552D01*
X120125883Y-52895219D02*
X120125883Y-52038076D01*
X120125883Y-52038076D02*
X120078264Y-51942838D01*
X120078264Y-51942838D02*
X119983026Y-51895219D01*
X119983026Y-51895219D02*
X119887788Y-51895219D01*
X118935406Y-52228552D02*
X118554454Y-52228552D01*
X118792549Y-51895219D02*
X118792549Y-52752361D01*
X118792549Y-52752361D02*
X118744930Y-52847600D01*
X118744930Y-52847600D02*
X118649692Y-52895219D01*
X118649692Y-52895219D02*
X118554454Y-52895219D01*
X118221120Y-52895219D02*
X118221120Y-51895219D01*
X117792549Y-52895219D02*
X117792549Y-52371409D01*
X117792549Y-52371409D02*
X117840168Y-52276171D01*
X117840168Y-52276171D02*
X117935406Y-52228552D01*
X117935406Y-52228552D02*
X118078263Y-52228552D01*
X118078263Y-52228552D02*
X118173501Y-52276171D01*
X118173501Y-52276171D02*
X118221120Y-52323790D01*
X116935406Y-52847600D02*
X117030644Y-52895219D01*
X117030644Y-52895219D02*
X117221120Y-52895219D01*
X117221120Y-52895219D02*
X117316358Y-52847600D01*
X117316358Y-52847600D02*
X117363977Y-52752361D01*
X117363977Y-52752361D02*
X117363977Y-52371409D01*
X117363977Y-52371409D02*
X117316358Y-52276171D01*
X117316358Y-52276171D02*
X117221120Y-52228552D01*
X117221120Y-52228552D02*
X117030644Y-52228552D01*
X117030644Y-52228552D02*
X116935406Y-52276171D01*
X116935406Y-52276171D02*
X116887787Y-52371409D01*
X116887787Y-52371409D02*
X116887787Y-52466647D01*
X116887787Y-52466647D02*
X117363977Y-52561885D01*
X115268739Y-52228552D02*
X115268739Y-52895219D01*
X115697310Y-52228552D02*
X115697310Y-52752361D01*
X115697310Y-52752361D02*
X115649691Y-52847600D01*
X115649691Y-52847600D02*
X115554453Y-52895219D01*
X115554453Y-52895219D02*
X115411596Y-52895219D01*
X115411596Y-52895219D02*
X115316358Y-52847600D01*
X115316358Y-52847600D02*
X115268739Y-52799980D01*
X114840167Y-52847600D02*
X114744929Y-52895219D01*
X114744929Y-52895219D02*
X114554453Y-52895219D01*
X114554453Y-52895219D02*
X114459215Y-52847600D01*
X114459215Y-52847600D02*
X114411596Y-52752361D01*
X114411596Y-52752361D02*
X114411596Y-52704742D01*
X114411596Y-52704742D02*
X114459215Y-52609504D01*
X114459215Y-52609504D02*
X114554453Y-52561885D01*
X114554453Y-52561885D02*
X114697310Y-52561885D01*
X114697310Y-52561885D02*
X114792548Y-52514266D01*
X114792548Y-52514266D02*
X114840167Y-52419028D01*
X114840167Y-52419028D02*
X114840167Y-52371409D01*
X114840167Y-52371409D02*
X114792548Y-52276171D01*
X114792548Y-52276171D02*
X114697310Y-52228552D01*
X114697310Y-52228552D02*
X114554453Y-52228552D01*
X114554453Y-52228552D02*
X114459215Y-52276171D01*
X113602072Y-52847600D02*
X113697310Y-52895219D01*
X113697310Y-52895219D02*
X113887786Y-52895219D01*
X113887786Y-52895219D02*
X113983024Y-52847600D01*
X113983024Y-52847600D02*
X114030643Y-52752361D01*
X114030643Y-52752361D02*
X114030643Y-52371409D01*
X114030643Y-52371409D02*
X113983024Y-52276171D01*
X113983024Y-52276171D02*
X113887786Y-52228552D01*
X113887786Y-52228552D02*
X113697310Y-52228552D01*
X113697310Y-52228552D02*
X113602072Y-52276171D01*
X113602072Y-52276171D02*
X113554453Y-52371409D01*
X113554453Y-52371409D02*
X113554453Y-52466647D01*
X113554453Y-52466647D02*
X114030643Y-52561885D01*
X112221119Y-52895219D02*
X112316357Y-52847600D01*
X112316357Y-52847600D02*
X112363976Y-52799980D01*
X112363976Y-52799980D02*
X112411595Y-52704742D01*
X112411595Y-52704742D02*
X112411595Y-52419028D01*
X112411595Y-52419028D02*
X112363976Y-52323790D01*
X112363976Y-52323790D02*
X112316357Y-52276171D01*
X112316357Y-52276171D02*
X112221119Y-52228552D01*
X112221119Y-52228552D02*
X112078262Y-52228552D01*
X112078262Y-52228552D02*
X111983024Y-52276171D01*
X111983024Y-52276171D02*
X111935405Y-52323790D01*
X111935405Y-52323790D02*
X111887786Y-52419028D01*
X111887786Y-52419028D02*
X111887786Y-52704742D01*
X111887786Y-52704742D02*
X111935405Y-52799980D01*
X111935405Y-52799980D02*
X111983024Y-52847600D01*
X111983024Y-52847600D02*
X112078262Y-52895219D01*
X112078262Y-52895219D02*
X112221119Y-52895219D01*
X111602071Y-52228552D02*
X111221119Y-52228552D01*
X111459214Y-52895219D02*
X111459214Y-52038076D01*
X111459214Y-52038076D02*
X111411595Y-51942838D01*
X111411595Y-51942838D02*
X111316357Y-51895219D01*
X111316357Y-51895219D02*
X111221119Y-51895219D01*
X145602077Y-53838552D02*
X145221125Y-53838552D01*
X145459220Y-53505219D02*
X145459220Y-54362361D01*
X145459220Y-54362361D02*
X145411601Y-54457600D01*
X145411601Y-54457600D02*
X145316363Y-54505219D01*
X145316363Y-54505219D02*
X145221125Y-54505219D01*
X144887791Y-54505219D02*
X144887791Y-53505219D01*
X144459220Y-54505219D02*
X144459220Y-53981409D01*
X144459220Y-53981409D02*
X144506839Y-53886171D01*
X144506839Y-53886171D02*
X144602077Y-53838552D01*
X144602077Y-53838552D02*
X144744934Y-53838552D01*
X144744934Y-53838552D02*
X144840172Y-53886171D01*
X144840172Y-53886171D02*
X144887791Y-53933790D01*
X143983029Y-54505219D02*
X143983029Y-53838552D01*
X143983029Y-53505219D02*
X144030648Y-53552838D01*
X144030648Y-53552838D02*
X143983029Y-53600457D01*
X143983029Y-53600457D02*
X143935410Y-53552838D01*
X143935410Y-53552838D02*
X143983029Y-53505219D01*
X143983029Y-53505219D02*
X143983029Y-53600457D01*
X143554458Y-54457600D02*
X143459220Y-54505219D01*
X143459220Y-54505219D02*
X143268744Y-54505219D01*
X143268744Y-54505219D02*
X143173506Y-54457600D01*
X143173506Y-54457600D02*
X143125887Y-54362361D01*
X143125887Y-54362361D02*
X143125887Y-54314742D01*
X143125887Y-54314742D02*
X143173506Y-54219504D01*
X143173506Y-54219504D02*
X143268744Y-54171885D01*
X143268744Y-54171885D02*
X143411601Y-54171885D01*
X143411601Y-54171885D02*
X143506839Y-54124266D01*
X143506839Y-54124266D02*
X143554458Y-54029028D01*
X143554458Y-54029028D02*
X143554458Y-53981409D01*
X143554458Y-53981409D02*
X143506839Y-53886171D01*
X143506839Y-53886171D02*
X143411601Y-53838552D01*
X143411601Y-53838552D02*
X143268744Y-53838552D01*
X143268744Y-53838552D02*
X143173506Y-53886171D01*
X141506839Y-54505219D02*
X141506839Y-53505219D01*
X141506839Y-54457600D02*
X141602077Y-54505219D01*
X141602077Y-54505219D02*
X141792553Y-54505219D01*
X141792553Y-54505219D02*
X141887791Y-54457600D01*
X141887791Y-54457600D02*
X141935410Y-54409980D01*
X141935410Y-54409980D02*
X141983029Y-54314742D01*
X141983029Y-54314742D02*
X141983029Y-54029028D01*
X141983029Y-54029028D02*
X141935410Y-53933790D01*
X141935410Y-53933790D02*
X141887791Y-53886171D01*
X141887791Y-53886171D02*
X141792553Y-53838552D01*
X141792553Y-53838552D02*
X141602077Y-53838552D01*
X141602077Y-53838552D02*
X141506839Y-53886171D01*
X140649696Y-54457600D02*
X140744934Y-54505219D01*
X140744934Y-54505219D02*
X140935410Y-54505219D01*
X140935410Y-54505219D02*
X141030648Y-54457600D01*
X141030648Y-54457600D02*
X141078267Y-54362361D01*
X141078267Y-54362361D02*
X141078267Y-53981409D01*
X141078267Y-53981409D02*
X141030648Y-53886171D01*
X141030648Y-53886171D02*
X140935410Y-53838552D01*
X140935410Y-53838552D02*
X140744934Y-53838552D01*
X140744934Y-53838552D02*
X140649696Y-53886171D01*
X140649696Y-53886171D02*
X140602077Y-53981409D01*
X140602077Y-53981409D02*
X140602077Y-54076647D01*
X140602077Y-54076647D02*
X141078267Y-54171885D01*
X140268743Y-53838552D02*
X140030648Y-54505219D01*
X140030648Y-54505219D02*
X139792553Y-53838552D01*
X139411600Y-54505219D02*
X139411600Y-53838552D01*
X139411600Y-53505219D02*
X139459219Y-53552838D01*
X139459219Y-53552838D02*
X139411600Y-53600457D01*
X139411600Y-53600457D02*
X139363981Y-53552838D01*
X139363981Y-53552838D02*
X139411600Y-53505219D01*
X139411600Y-53505219D02*
X139411600Y-53600457D01*
X138506839Y-54457600D02*
X138602077Y-54505219D01*
X138602077Y-54505219D02*
X138792553Y-54505219D01*
X138792553Y-54505219D02*
X138887791Y-54457600D01*
X138887791Y-54457600D02*
X138935410Y-54409980D01*
X138935410Y-54409980D02*
X138983029Y-54314742D01*
X138983029Y-54314742D02*
X138983029Y-54029028D01*
X138983029Y-54029028D02*
X138935410Y-53933790D01*
X138935410Y-53933790D02*
X138887791Y-53886171D01*
X138887791Y-53886171D02*
X138792553Y-53838552D01*
X138792553Y-53838552D02*
X138602077Y-53838552D01*
X138602077Y-53838552D02*
X138506839Y-53886171D01*
X137697315Y-54457600D02*
X137792553Y-54505219D01*
X137792553Y-54505219D02*
X137983029Y-54505219D01*
X137983029Y-54505219D02*
X138078267Y-54457600D01*
X138078267Y-54457600D02*
X138125886Y-54362361D01*
X138125886Y-54362361D02*
X138125886Y-53981409D01*
X138125886Y-53981409D02*
X138078267Y-53886171D01*
X138078267Y-53886171D02*
X137983029Y-53838552D01*
X137983029Y-53838552D02*
X137792553Y-53838552D01*
X137792553Y-53838552D02*
X137697315Y-53886171D01*
X137697315Y-53886171D02*
X137649696Y-53981409D01*
X137649696Y-53981409D02*
X137649696Y-54076647D01*
X137649696Y-54076647D02*
X138125886Y-54171885D01*
X137221124Y-54409980D02*
X137173505Y-54457600D01*
X137173505Y-54457600D02*
X137221124Y-54505219D01*
X137221124Y-54505219D02*
X137268743Y-54457600D01*
X137268743Y-54457600D02*
X137221124Y-54409980D01*
X137221124Y-54409980D02*
X137221124Y-54505219D01*
D11*
X169587028Y-38655009D02*
X169753694Y-38416914D01*
X169872742Y-38655009D02*
X169872742Y-38155009D01*
X169872742Y-38155009D02*
X169682266Y-38155009D01*
X169682266Y-38155009D02*
X169634647Y-38178819D01*
X169634647Y-38178819D02*
X169610837Y-38202628D01*
X169610837Y-38202628D02*
X169587028Y-38250247D01*
X169587028Y-38250247D02*
X169587028Y-38321676D01*
X169587028Y-38321676D02*
X169610837Y-38369295D01*
X169610837Y-38369295D02*
X169634647Y-38393104D01*
X169634647Y-38393104D02*
X169682266Y-38416914D01*
X169682266Y-38416914D02*
X169872742Y-38416914D01*
X169110837Y-38655009D02*
X169396551Y-38655009D01*
X169253694Y-38655009D02*
X169253694Y-38155009D01*
X169253694Y-38155009D02*
X169301313Y-38226438D01*
X169301313Y-38226438D02*
X169348932Y-38274057D01*
X169348932Y-38274057D02*
X169396551Y-38297866D01*
X168682266Y-38321676D02*
X168682266Y-38655009D01*
X168801314Y-38131200D02*
X168920361Y-38488342D01*
X168920361Y-38488342D02*
X168610838Y-38488342D01*
X164061833Y-74040390D02*
X164085642Y-74064200D01*
X164085642Y-74064200D02*
X164157071Y-74088009D01*
X164157071Y-74088009D02*
X164204690Y-74088009D01*
X164204690Y-74088009D02*
X164276118Y-74064200D01*
X164276118Y-74064200D02*
X164323737Y-74016580D01*
X164323737Y-74016580D02*
X164347547Y-73968961D01*
X164347547Y-73968961D02*
X164371356Y-73873723D01*
X164371356Y-73873723D02*
X164371356Y-73802295D01*
X164371356Y-73802295D02*
X164347547Y-73707057D01*
X164347547Y-73707057D02*
X164323737Y-73659438D01*
X164323737Y-73659438D02*
X164276118Y-73611819D01*
X164276118Y-73611819D02*
X164204690Y-73588009D01*
X164204690Y-73588009D02*
X164157071Y-73588009D01*
X164157071Y-73588009D02*
X164085642Y-73611819D01*
X164085642Y-73611819D02*
X164061833Y-73635628D01*
X163823737Y-74088009D02*
X163728499Y-74088009D01*
X163728499Y-74088009D02*
X163680880Y-74064200D01*
X163680880Y-74064200D02*
X163657071Y-74040390D01*
X163657071Y-74040390D02*
X163609452Y-73968961D01*
X163609452Y-73968961D02*
X163585642Y-73873723D01*
X163585642Y-73873723D02*
X163585642Y-73683247D01*
X163585642Y-73683247D02*
X163609452Y-73635628D01*
X163609452Y-73635628D02*
X163633261Y-73611819D01*
X163633261Y-73611819D02*
X163680880Y-73588009D01*
X163680880Y-73588009D02*
X163776118Y-73588009D01*
X163776118Y-73588009D02*
X163823737Y-73611819D01*
X163823737Y-73611819D02*
X163847547Y-73635628D01*
X163847547Y-73635628D02*
X163871356Y-73683247D01*
X163871356Y-73683247D02*
X163871356Y-73802295D01*
X163871356Y-73802295D02*
X163847547Y-73849914D01*
X163847547Y-73849914D02*
X163823737Y-73873723D01*
X163823737Y-73873723D02*
X163776118Y-73897533D01*
X163776118Y-73897533D02*
X163680880Y-73897533D01*
X163680880Y-73897533D02*
X163633261Y-73873723D01*
X163633261Y-73873723D02*
X163609452Y-73849914D01*
X163609452Y-73849914D02*
X163585642Y-73802295D01*
X169993428Y-52297990D02*
X170017237Y-52321800D01*
X170017237Y-52321800D02*
X170088666Y-52345609D01*
X170088666Y-52345609D02*
X170136285Y-52345609D01*
X170136285Y-52345609D02*
X170207713Y-52321800D01*
X170207713Y-52321800D02*
X170255332Y-52274180D01*
X170255332Y-52274180D02*
X170279142Y-52226561D01*
X170279142Y-52226561D02*
X170302951Y-52131323D01*
X170302951Y-52131323D02*
X170302951Y-52059895D01*
X170302951Y-52059895D02*
X170279142Y-51964657D01*
X170279142Y-51964657D02*
X170255332Y-51917038D01*
X170255332Y-51917038D02*
X170207713Y-51869419D01*
X170207713Y-51869419D02*
X170136285Y-51845609D01*
X170136285Y-51845609D02*
X170088666Y-51845609D01*
X170088666Y-51845609D02*
X170017237Y-51869419D01*
X170017237Y-51869419D02*
X169993428Y-51893228D01*
X169517237Y-52345609D02*
X169802951Y-52345609D01*
X169660094Y-52345609D02*
X169660094Y-51845609D01*
X169660094Y-51845609D02*
X169707713Y-51917038D01*
X169707713Y-51917038D02*
X169755332Y-51964657D01*
X169755332Y-51964657D02*
X169802951Y-51988466D01*
X169350571Y-51845609D02*
X169017238Y-51845609D01*
X169017238Y-51845609D02*
X169231523Y-52345609D01*
X149409933Y-87000609D02*
X149576599Y-86762514D01*
X149695647Y-87000609D02*
X149695647Y-86500609D01*
X149695647Y-86500609D02*
X149505171Y-86500609D01*
X149505171Y-86500609D02*
X149457552Y-86524419D01*
X149457552Y-86524419D02*
X149433742Y-86548228D01*
X149433742Y-86548228D02*
X149409933Y-86595847D01*
X149409933Y-86595847D02*
X149409933Y-86667276D01*
X149409933Y-86667276D02*
X149433742Y-86714895D01*
X149433742Y-86714895D02*
X149457552Y-86738704D01*
X149457552Y-86738704D02*
X149505171Y-86762514D01*
X149505171Y-86762514D02*
X149695647Y-86762514D01*
X148981361Y-86667276D02*
X148981361Y-87000609D01*
X149100409Y-86476800D02*
X149219456Y-86833942D01*
X149219456Y-86833942D02*
X148909933Y-86833942D01*
X175352828Y-64210590D02*
X175376637Y-64234400D01*
X175376637Y-64234400D02*
X175448066Y-64258209D01*
X175448066Y-64258209D02*
X175495685Y-64258209D01*
X175495685Y-64258209D02*
X175567113Y-64234400D01*
X175567113Y-64234400D02*
X175614732Y-64186780D01*
X175614732Y-64186780D02*
X175638542Y-64139161D01*
X175638542Y-64139161D02*
X175662351Y-64043923D01*
X175662351Y-64043923D02*
X175662351Y-63972495D01*
X175662351Y-63972495D02*
X175638542Y-63877257D01*
X175638542Y-63877257D02*
X175614732Y-63829638D01*
X175614732Y-63829638D02*
X175567113Y-63782019D01*
X175567113Y-63782019D02*
X175495685Y-63758209D01*
X175495685Y-63758209D02*
X175448066Y-63758209D01*
X175448066Y-63758209D02*
X175376637Y-63782019D01*
X175376637Y-63782019D02*
X175352828Y-63805828D01*
X174876637Y-64258209D02*
X175162351Y-64258209D01*
X175019494Y-64258209D02*
X175019494Y-63758209D01*
X175019494Y-63758209D02*
X175067113Y-63829638D01*
X175067113Y-63829638D02*
X175114732Y-63877257D01*
X175114732Y-63877257D02*
X175162351Y-63901066D01*
X174424257Y-63758209D02*
X174662352Y-63758209D01*
X174662352Y-63758209D02*
X174686161Y-63996304D01*
X174686161Y-63996304D02*
X174662352Y-63972495D01*
X174662352Y-63972495D02*
X174614733Y-63948685D01*
X174614733Y-63948685D02*
X174495685Y-63948685D01*
X174495685Y-63948685D02*
X174448066Y-63972495D01*
X174448066Y-63972495D02*
X174424257Y-63996304D01*
X174424257Y-63996304D02*
X174400447Y-64043923D01*
X174400447Y-64043923D02*
X174400447Y-64162971D01*
X174400447Y-64162971D02*
X174424257Y-64210590D01*
X174424257Y-64210590D02*
X174448066Y-64234400D01*
X174448066Y-64234400D02*
X174495685Y-64258209D01*
X174495685Y-64258209D02*
X174614733Y-64258209D01*
X174614733Y-64258209D02*
X174662352Y-64234400D01*
X174662352Y-64234400D02*
X174686161Y-64210590D01*
X165573828Y-52323390D02*
X165597637Y-52347200D01*
X165597637Y-52347200D02*
X165669066Y-52371009D01*
X165669066Y-52371009D02*
X165716685Y-52371009D01*
X165716685Y-52371009D02*
X165788113Y-52347200D01*
X165788113Y-52347200D02*
X165835732Y-52299580D01*
X165835732Y-52299580D02*
X165859542Y-52251961D01*
X165859542Y-52251961D02*
X165883351Y-52156723D01*
X165883351Y-52156723D02*
X165883351Y-52085295D01*
X165883351Y-52085295D02*
X165859542Y-51990057D01*
X165859542Y-51990057D02*
X165835732Y-51942438D01*
X165835732Y-51942438D02*
X165788113Y-51894819D01*
X165788113Y-51894819D02*
X165716685Y-51871009D01*
X165716685Y-51871009D02*
X165669066Y-51871009D01*
X165669066Y-51871009D02*
X165597637Y-51894819D01*
X165597637Y-51894819D02*
X165573828Y-51918628D01*
X165097637Y-52371009D02*
X165383351Y-52371009D01*
X165240494Y-52371009D02*
X165240494Y-51871009D01*
X165240494Y-51871009D02*
X165288113Y-51942438D01*
X165288113Y-51942438D02*
X165335732Y-51990057D01*
X165335732Y-51990057D02*
X165383351Y-52013866D01*
X164930971Y-51871009D02*
X164621447Y-51871009D01*
X164621447Y-51871009D02*
X164788114Y-52061485D01*
X164788114Y-52061485D02*
X164716685Y-52061485D01*
X164716685Y-52061485D02*
X164669066Y-52085295D01*
X164669066Y-52085295D02*
X164645257Y-52109104D01*
X164645257Y-52109104D02*
X164621447Y-52156723D01*
X164621447Y-52156723D02*
X164621447Y-52275771D01*
X164621447Y-52275771D02*
X164645257Y-52323390D01*
X164645257Y-52323390D02*
X164669066Y-52347200D01*
X164669066Y-52347200D02*
X164716685Y-52371009D01*
X164716685Y-52371009D02*
X164859542Y-52371009D01*
X164859542Y-52371009D02*
X164907161Y-52347200D01*
X164907161Y-52347200D02*
X164930971Y-52323390D01*
X149435333Y-82301609D02*
X149601999Y-82063514D01*
X149721047Y-82301609D02*
X149721047Y-81801609D01*
X149721047Y-81801609D02*
X149530571Y-81801609D01*
X149530571Y-81801609D02*
X149482952Y-81825419D01*
X149482952Y-81825419D02*
X149459142Y-81849228D01*
X149459142Y-81849228D02*
X149435333Y-81896847D01*
X149435333Y-81896847D02*
X149435333Y-81968276D01*
X149435333Y-81968276D02*
X149459142Y-82015895D01*
X149459142Y-82015895D02*
X149482952Y-82039704D01*
X149482952Y-82039704D02*
X149530571Y-82063514D01*
X149530571Y-82063514D02*
X149721047Y-82063514D01*
X149268666Y-81801609D02*
X148959142Y-81801609D01*
X148959142Y-81801609D02*
X149125809Y-81992085D01*
X149125809Y-81992085D02*
X149054380Y-81992085D01*
X149054380Y-81992085D02*
X149006761Y-82015895D01*
X149006761Y-82015895D02*
X148982952Y-82039704D01*
X148982952Y-82039704D02*
X148959142Y-82087323D01*
X148959142Y-82087323D02*
X148959142Y-82206371D01*
X148959142Y-82206371D02*
X148982952Y-82253990D01*
X148982952Y-82253990D02*
X149006761Y-82277800D01*
X149006761Y-82277800D02*
X149054380Y-82301609D01*
X149054380Y-82301609D02*
X149197237Y-82301609D01*
X149197237Y-82301609D02*
X149244856Y-82277800D01*
X149244856Y-82277800D02*
X149268666Y-82253990D01*
X179151694Y-65706009D02*
X179151694Y-65206009D01*
X178627885Y-65658390D02*
X178651694Y-65682200D01*
X178651694Y-65682200D02*
X178723123Y-65706009D01*
X178723123Y-65706009D02*
X178770742Y-65706009D01*
X178770742Y-65706009D02*
X178842170Y-65682200D01*
X178842170Y-65682200D02*
X178889789Y-65634580D01*
X178889789Y-65634580D02*
X178913599Y-65586961D01*
X178913599Y-65586961D02*
X178937408Y-65491723D01*
X178937408Y-65491723D02*
X178937408Y-65420295D01*
X178937408Y-65420295D02*
X178913599Y-65325057D01*
X178913599Y-65325057D02*
X178889789Y-65277438D01*
X178889789Y-65277438D02*
X178842170Y-65229819D01*
X178842170Y-65229819D02*
X178770742Y-65206009D01*
X178770742Y-65206009D02*
X178723123Y-65206009D01*
X178723123Y-65206009D02*
X178651694Y-65229819D01*
X178651694Y-65229819D02*
X178627885Y-65253628D01*
X178437408Y-65253628D02*
X178413599Y-65229819D01*
X178413599Y-65229819D02*
X178365980Y-65206009D01*
X178365980Y-65206009D02*
X178246932Y-65206009D01*
X178246932Y-65206009D02*
X178199313Y-65229819D01*
X178199313Y-65229819D02*
X178175504Y-65253628D01*
X178175504Y-65253628D02*
X178151694Y-65301247D01*
X178151694Y-65301247D02*
X178151694Y-65348866D01*
X178151694Y-65348866D02*
X178175504Y-65420295D01*
X178175504Y-65420295D02*
X178461218Y-65706009D01*
X178461218Y-65706009D02*
X178151694Y-65706009D01*
X146412733Y-69439809D02*
X146579399Y-69201714D01*
X146698447Y-69439809D02*
X146698447Y-68939809D01*
X146698447Y-68939809D02*
X146507971Y-68939809D01*
X146507971Y-68939809D02*
X146460352Y-68963619D01*
X146460352Y-68963619D02*
X146436542Y-68987428D01*
X146436542Y-68987428D02*
X146412733Y-69035047D01*
X146412733Y-69035047D02*
X146412733Y-69106476D01*
X146412733Y-69106476D02*
X146436542Y-69154095D01*
X146436542Y-69154095D02*
X146460352Y-69177904D01*
X146460352Y-69177904D02*
X146507971Y-69201714D01*
X146507971Y-69201714D02*
X146698447Y-69201714D01*
X146174637Y-69439809D02*
X146079399Y-69439809D01*
X146079399Y-69439809D02*
X146031780Y-69416000D01*
X146031780Y-69416000D02*
X146007971Y-69392190D01*
X146007971Y-69392190D02*
X145960352Y-69320761D01*
X145960352Y-69320761D02*
X145936542Y-69225523D01*
X145936542Y-69225523D02*
X145936542Y-69035047D01*
X145936542Y-69035047D02*
X145960352Y-68987428D01*
X145960352Y-68987428D02*
X145984161Y-68963619D01*
X145984161Y-68963619D02*
X146031780Y-68939809D01*
X146031780Y-68939809D02*
X146127018Y-68939809D01*
X146127018Y-68939809D02*
X146174637Y-68963619D01*
X146174637Y-68963619D02*
X146198447Y-68987428D01*
X146198447Y-68987428D02*
X146222256Y-69035047D01*
X146222256Y-69035047D02*
X146222256Y-69154095D01*
X146222256Y-69154095D02*
X146198447Y-69201714D01*
X146198447Y-69201714D02*
X146174637Y-69225523D01*
X146174637Y-69225523D02*
X146127018Y-69249333D01*
X146127018Y-69249333D02*
X146031780Y-69249333D01*
X146031780Y-69249333D02*
X145984161Y-69225523D01*
X145984161Y-69225523D02*
X145960352Y-69201714D01*
X145960352Y-69201714D02*
X145936542Y-69154095D01*
X164648294Y-44643009D02*
X164648294Y-44143009D01*
X164124485Y-44595390D02*
X164148294Y-44619200D01*
X164148294Y-44619200D02*
X164219723Y-44643009D01*
X164219723Y-44643009D02*
X164267342Y-44643009D01*
X164267342Y-44643009D02*
X164338770Y-44619200D01*
X164338770Y-44619200D02*
X164386389Y-44571580D01*
X164386389Y-44571580D02*
X164410199Y-44523961D01*
X164410199Y-44523961D02*
X164434008Y-44428723D01*
X164434008Y-44428723D02*
X164434008Y-44357295D01*
X164434008Y-44357295D02*
X164410199Y-44262057D01*
X164410199Y-44262057D02*
X164386389Y-44214438D01*
X164386389Y-44214438D02*
X164338770Y-44166819D01*
X164338770Y-44166819D02*
X164267342Y-44143009D01*
X164267342Y-44143009D02*
X164219723Y-44143009D01*
X164219723Y-44143009D02*
X164148294Y-44166819D01*
X164148294Y-44166819D02*
X164124485Y-44190628D01*
X163695913Y-44309676D02*
X163695913Y-44643009D01*
X163814961Y-44119200D02*
X163934008Y-44476342D01*
X163934008Y-44476342D02*
X163624485Y-44476342D01*
X180118533Y-42366590D02*
X180142342Y-42390400D01*
X180142342Y-42390400D02*
X180213771Y-42414209D01*
X180213771Y-42414209D02*
X180261390Y-42414209D01*
X180261390Y-42414209D02*
X180332818Y-42390400D01*
X180332818Y-42390400D02*
X180380437Y-42342780D01*
X180380437Y-42342780D02*
X180404247Y-42295161D01*
X180404247Y-42295161D02*
X180428056Y-42199923D01*
X180428056Y-42199923D02*
X180428056Y-42128495D01*
X180428056Y-42128495D02*
X180404247Y-42033257D01*
X180404247Y-42033257D02*
X180380437Y-41985638D01*
X180380437Y-41985638D02*
X180332818Y-41938019D01*
X180332818Y-41938019D02*
X180261390Y-41914209D01*
X180261390Y-41914209D02*
X180213771Y-41914209D01*
X180213771Y-41914209D02*
X180142342Y-41938019D01*
X180142342Y-41938019D02*
X180118533Y-41961828D01*
X179951866Y-41914209D02*
X179642342Y-41914209D01*
X179642342Y-41914209D02*
X179809009Y-42104685D01*
X179809009Y-42104685D02*
X179737580Y-42104685D01*
X179737580Y-42104685D02*
X179689961Y-42128495D01*
X179689961Y-42128495D02*
X179666152Y-42152304D01*
X179666152Y-42152304D02*
X179642342Y-42199923D01*
X179642342Y-42199923D02*
X179642342Y-42318971D01*
X179642342Y-42318971D02*
X179666152Y-42366590D01*
X179666152Y-42366590D02*
X179689961Y-42390400D01*
X179689961Y-42390400D02*
X179737580Y-42414209D01*
X179737580Y-42414209D02*
X179880437Y-42414209D01*
X179880437Y-42414209D02*
X179928056Y-42390400D01*
X179928056Y-42390400D02*
X179951866Y-42366590D01*
X146412733Y-72691009D02*
X146579399Y-72452914D01*
X146698447Y-72691009D02*
X146698447Y-72191009D01*
X146698447Y-72191009D02*
X146507971Y-72191009D01*
X146507971Y-72191009D02*
X146460352Y-72214819D01*
X146460352Y-72214819D02*
X146436542Y-72238628D01*
X146436542Y-72238628D02*
X146412733Y-72286247D01*
X146412733Y-72286247D02*
X146412733Y-72357676D01*
X146412733Y-72357676D02*
X146436542Y-72405295D01*
X146436542Y-72405295D02*
X146460352Y-72429104D01*
X146460352Y-72429104D02*
X146507971Y-72452914D01*
X146507971Y-72452914D02*
X146698447Y-72452914D01*
X146127018Y-72405295D02*
X146174637Y-72381485D01*
X146174637Y-72381485D02*
X146198447Y-72357676D01*
X146198447Y-72357676D02*
X146222256Y-72310057D01*
X146222256Y-72310057D02*
X146222256Y-72286247D01*
X146222256Y-72286247D02*
X146198447Y-72238628D01*
X146198447Y-72238628D02*
X146174637Y-72214819D01*
X146174637Y-72214819D02*
X146127018Y-72191009D01*
X146127018Y-72191009D02*
X146031780Y-72191009D01*
X146031780Y-72191009D02*
X145984161Y-72214819D01*
X145984161Y-72214819D02*
X145960352Y-72238628D01*
X145960352Y-72238628D02*
X145936542Y-72286247D01*
X145936542Y-72286247D02*
X145936542Y-72310057D01*
X145936542Y-72310057D02*
X145960352Y-72357676D01*
X145960352Y-72357676D02*
X145984161Y-72381485D01*
X145984161Y-72381485D02*
X146031780Y-72405295D01*
X146031780Y-72405295D02*
X146127018Y-72405295D01*
X146127018Y-72405295D02*
X146174637Y-72429104D01*
X146174637Y-72429104D02*
X146198447Y-72452914D01*
X146198447Y-72452914D02*
X146222256Y-72500533D01*
X146222256Y-72500533D02*
X146222256Y-72595771D01*
X146222256Y-72595771D02*
X146198447Y-72643390D01*
X146198447Y-72643390D02*
X146174637Y-72667200D01*
X146174637Y-72667200D02*
X146127018Y-72691009D01*
X146127018Y-72691009D02*
X146031780Y-72691009D01*
X146031780Y-72691009D02*
X145984161Y-72667200D01*
X145984161Y-72667200D02*
X145960352Y-72643390D01*
X145960352Y-72643390D02*
X145936542Y-72595771D01*
X145936542Y-72595771D02*
X145936542Y-72500533D01*
X145936542Y-72500533D02*
X145960352Y-72452914D01*
X145960352Y-72452914D02*
X145984161Y-72429104D01*
X145984161Y-72429104D02*
X146031780Y-72405295D01*
X152227694Y-71827409D02*
X152227694Y-71327409D01*
X151703885Y-71779790D02*
X151727694Y-71803600D01*
X151727694Y-71803600D02*
X151799123Y-71827409D01*
X151799123Y-71827409D02*
X151846742Y-71827409D01*
X151846742Y-71827409D02*
X151918170Y-71803600D01*
X151918170Y-71803600D02*
X151965789Y-71755980D01*
X151965789Y-71755980D02*
X151989599Y-71708361D01*
X151989599Y-71708361D02*
X152013408Y-71613123D01*
X152013408Y-71613123D02*
X152013408Y-71541695D01*
X152013408Y-71541695D02*
X151989599Y-71446457D01*
X151989599Y-71446457D02*
X151965789Y-71398838D01*
X151965789Y-71398838D02*
X151918170Y-71351219D01*
X151918170Y-71351219D02*
X151846742Y-71327409D01*
X151846742Y-71327409D02*
X151799123Y-71327409D01*
X151799123Y-71327409D02*
X151727694Y-71351219D01*
X151727694Y-71351219D02*
X151703885Y-71375028D01*
X151537218Y-71327409D02*
X151227694Y-71327409D01*
X151227694Y-71327409D02*
X151394361Y-71517885D01*
X151394361Y-71517885D02*
X151322932Y-71517885D01*
X151322932Y-71517885D02*
X151275313Y-71541695D01*
X151275313Y-71541695D02*
X151251504Y-71565504D01*
X151251504Y-71565504D02*
X151227694Y-71613123D01*
X151227694Y-71613123D02*
X151227694Y-71732171D01*
X151227694Y-71732171D02*
X151251504Y-71779790D01*
X151251504Y-71779790D02*
X151275313Y-71803600D01*
X151275313Y-71803600D02*
X151322932Y-71827409D01*
X151322932Y-71827409D02*
X151465789Y-71827409D01*
X151465789Y-71827409D02*
X151513408Y-71803600D01*
X151513408Y-71803600D02*
X151537218Y-71779790D01*
X171009428Y-41169609D02*
X171176094Y-40931514D01*
X171295142Y-41169609D02*
X171295142Y-40669609D01*
X171295142Y-40669609D02*
X171104666Y-40669609D01*
X171104666Y-40669609D02*
X171057047Y-40693419D01*
X171057047Y-40693419D02*
X171033237Y-40717228D01*
X171033237Y-40717228D02*
X171009428Y-40764847D01*
X171009428Y-40764847D02*
X171009428Y-40836276D01*
X171009428Y-40836276D02*
X171033237Y-40883895D01*
X171033237Y-40883895D02*
X171057047Y-40907704D01*
X171057047Y-40907704D02*
X171104666Y-40931514D01*
X171104666Y-40931514D02*
X171295142Y-40931514D01*
X170533237Y-41169609D02*
X170818951Y-41169609D01*
X170676094Y-41169609D02*
X170676094Y-40669609D01*
X170676094Y-40669609D02*
X170723713Y-40741038D01*
X170723713Y-40741038D02*
X170771332Y-40788657D01*
X170771332Y-40788657D02*
X170818951Y-40812466D01*
X170366571Y-40669609D02*
X170057047Y-40669609D01*
X170057047Y-40669609D02*
X170223714Y-40860085D01*
X170223714Y-40860085D02*
X170152285Y-40860085D01*
X170152285Y-40860085D02*
X170104666Y-40883895D01*
X170104666Y-40883895D02*
X170080857Y-40907704D01*
X170080857Y-40907704D02*
X170057047Y-40955323D01*
X170057047Y-40955323D02*
X170057047Y-41074371D01*
X170057047Y-41074371D02*
X170080857Y-41121990D01*
X170080857Y-41121990D02*
X170104666Y-41145800D01*
X170104666Y-41145800D02*
X170152285Y-41169609D01*
X170152285Y-41169609D02*
X170295142Y-41169609D01*
X170295142Y-41169609D02*
X170342761Y-41145800D01*
X170342761Y-41145800D02*
X170366571Y-41121990D01*
X166158028Y-37943809D02*
X166324694Y-37705714D01*
X166443742Y-37943809D02*
X166443742Y-37443809D01*
X166443742Y-37443809D02*
X166253266Y-37443809D01*
X166253266Y-37443809D02*
X166205647Y-37467619D01*
X166205647Y-37467619D02*
X166181837Y-37491428D01*
X166181837Y-37491428D02*
X166158028Y-37539047D01*
X166158028Y-37539047D02*
X166158028Y-37610476D01*
X166158028Y-37610476D02*
X166181837Y-37658095D01*
X166181837Y-37658095D02*
X166205647Y-37681904D01*
X166205647Y-37681904D02*
X166253266Y-37705714D01*
X166253266Y-37705714D02*
X166443742Y-37705714D01*
X165681837Y-37943809D02*
X165967551Y-37943809D01*
X165824694Y-37943809D02*
X165824694Y-37443809D01*
X165824694Y-37443809D02*
X165872313Y-37515238D01*
X165872313Y-37515238D02*
X165919932Y-37562857D01*
X165919932Y-37562857D02*
X165967551Y-37586666D01*
X165491361Y-37491428D02*
X165467552Y-37467619D01*
X165467552Y-37467619D02*
X165419933Y-37443809D01*
X165419933Y-37443809D02*
X165300885Y-37443809D01*
X165300885Y-37443809D02*
X165253266Y-37467619D01*
X165253266Y-37467619D02*
X165229457Y-37491428D01*
X165229457Y-37491428D02*
X165205647Y-37539047D01*
X165205647Y-37539047D02*
X165205647Y-37586666D01*
X165205647Y-37586666D02*
X165229457Y-37658095D01*
X165229457Y-37658095D02*
X165515171Y-37943809D01*
X165515171Y-37943809D02*
X165205647Y-37943809D01*
X155540828Y-70839990D02*
X155564637Y-70863800D01*
X155564637Y-70863800D02*
X155636066Y-70887609D01*
X155636066Y-70887609D02*
X155683685Y-70887609D01*
X155683685Y-70887609D02*
X155755113Y-70863800D01*
X155755113Y-70863800D02*
X155802732Y-70816180D01*
X155802732Y-70816180D02*
X155826542Y-70768561D01*
X155826542Y-70768561D02*
X155850351Y-70673323D01*
X155850351Y-70673323D02*
X155850351Y-70601895D01*
X155850351Y-70601895D02*
X155826542Y-70506657D01*
X155826542Y-70506657D02*
X155802732Y-70459038D01*
X155802732Y-70459038D02*
X155755113Y-70411419D01*
X155755113Y-70411419D02*
X155683685Y-70387609D01*
X155683685Y-70387609D02*
X155636066Y-70387609D01*
X155636066Y-70387609D02*
X155564637Y-70411419D01*
X155564637Y-70411419D02*
X155540828Y-70435228D01*
X155064637Y-70887609D02*
X155350351Y-70887609D01*
X155207494Y-70887609D02*
X155207494Y-70387609D01*
X155207494Y-70387609D02*
X155255113Y-70459038D01*
X155255113Y-70459038D02*
X155302732Y-70506657D01*
X155302732Y-70506657D02*
X155350351Y-70530466D01*
X154636066Y-70554276D02*
X154636066Y-70887609D01*
X154755114Y-70363800D02*
X154874161Y-70720942D01*
X154874161Y-70720942D02*
X154564638Y-70720942D01*
X146387333Y-76069209D02*
X146553999Y-75831114D01*
X146673047Y-76069209D02*
X146673047Y-75569209D01*
X146673047Y-75569209D02*
X146482571Y-75569209D01*
X146482571Y-75569209D02*
X146434952Y-75593019D01*
X146434952Y-75593019D02*
X146411142Y-75616828D01*
X146411142Y-75616828D02*
X146387333Y-75664447D01*
X146387333Y-75664447D02*
X146387333Y-75735876D01*
X146387333Y-75735876D02*
X146411142Y-75783495D01*
X146411142Y-75783495D02*
X146434952Y-75807304D01*
X146434952Y-75807304D02*
X146482571Y-75831114D01*
X146482571Y-75831114D02*
X146673047Y-75831114D01*
X146220666Y-75569209D02*
X145887333Y-75569209D01*
X145887333Y-75569209D02*
X146101618Y-76069209D01*
X146650828Y-66112409D02*
X146817494Y-65874314D01*
X146936542Y-66112409D02*
X146936542Y-65612409D01*
X146936542Y-65612409D02*
X146746066Y-65612409D01*
X146746066Y-65612409D02*
X146698447Y-65636219D01*
X146698447Y-65636219D02*
X146674637Y-65660028D01*
X146674637Y-65660028D02*
X146650828Y-65707647D01*
X146650828Y-65707647D02*
X146650828Y-65779076D01*
X146650828Y-65779076D02*
X146674637Y-65826695D01*
X146674637Y-65826695D02*
X146698447Y-65850504D01*
X146698447Y-65850504D02*
X146746066Y-65874314D01*
X146746066Y-65874314D02*
X146936542Y-65874314D01*
X146174637Y-66112409D02*
X146460351Y-66112409D01*
X146317494Y-66112409D02*
X146317494Y-65612409D01*
X146317494Y-65612409D02*
X146365113Y-65683838D01*
X146365113Y-65683838D02*
X146412732Y-65731457D01*
X146412732Y-65731457D02*
X146460351Y-65755266D01*
X145865114Y-65612409D02*
X145817495Y-65612409D01*
X145817495Y-65612409D02*
X145769876Y-65636219D01*
X145769876Y-65636219D02*
X145746066Y-65660028D01*
X145746066Y-65660028D02*
X145722257Y-65707647D01*
X145722257Y-65707647D02*
X145698447Y-65802885D01*
X145698447Y-65802885D02*
X145698447Y-65921933D01*
X145698447Y-65921933D02*
X145722257Y-66017171D01*
X145722257Y-66017171D02*
X145746066Y-66064790D01*
X145746066Y-66064790D02*
X145769876Y-66088600D01*
X145769876Y-66088600D02*
X145817495Y-66112409D01*
X145817495Y-66112409D02*
X145865114Y-66112409D01*
X145865114Y-66112409D02*
X145912733Y-66088600D01*
X145912733Y-66088600D02*
X145936542Y-66064790D01*
X145936542Y-66064790D02*
X145960352Y-66017171D01*
X145960352Y-66017171D02*
X145984161Y-65921933D01*
X145984161Y-65921933D02*
X145984161Y-65802885D01*
X145984161Y-65802885D02*
X145960352Y-65707647D01*
X145960352Y-65707647D02*
X145936542Y-65660028D01*
X145936542Y-65660028D02*
X145912733Y-65636219D01*
X145912733Y-65636219D02*
X145865114Y-65612409D01*
X164176828Y-37969209D02*
X164343494Y-37731114D01*
X164462542Y-37969209D02*
X164462542Y-37469209D01*
X164462542Y-37469209D02*
X164272066Y-37469209D01*
X164272066Y-37469209D02*
X164224447Y-37493019D01*
X164224447Y-37493019D02*
X164200637Y-37516828D01*
X164200637Y-37516828D02*
X164176828Y-37564447D01*
X164176828Y-37564447D02*
X164176828Y-37635876D01*
X164176828Y-37635876D02*
X164200637Y-37683495D01*
X164200637Y-37683495D02*
X164224447Y-37707304D01*
X164224447Y-37707304D02*
X164272066Y-37731114D01*
X164272066Y-37731114D02*
X164462542Y-37731114D01*
X163700637Y-37969209D02*
X163986351Y-37969209D01*
X163843494Y-37969209D02*
X163843494Y-37469209D01*
X163843494Y-37469209D02*
X163891113Y-37540638D01*
X163891113Y-37540638D02*
X163938732Y-37588257D01*
X163938732Y-37588257D02*
X163986351Y-37612066D01*
X163224447Y-37969209D02*
X163510161Y-37969209D01*
X163367304Y-37969209D02*
X163367304Y-37469209D01*
X163367304Y-37469209D02*
X163414923Y-37540638D01*
X163414923Y-37540638D02*
X163462542Y-37588257D01*
X163462542Y-37588257D02*
X163510161Y-37612066D01*
X174683028Y-76450209D02*
X174849694Y-76212114D01*
X174968742Y-76450209D02*
X174968742Y-75950209D01*
X174968742Y-75950209D02*
X174778266Y-75950209D01*
X174778266Y-75950209D02*
X174730647Y-75974019D01*
X174730647Y-75974019D02*
X174706837Y-75997828D01*
X174706837Y-75997828D02*
X174683028Y-76045447D01*
X174683028Y-76045447D02*
X174683028Y-76116876D01*
X174683028Y-76116876D02*
X174706837Y-76164495D01*
X174706837Y-76164495D02*
X174730647Y-76188304D01*
X174730647Y-76188304D02*
X174778266Y-76212114D01*
X174778266Y-76212114D02*
X174968742Y-76212114D01*
X174206837Y-76450209D02*
X174492551Y-76450209D01*
X174349694Y-76450209D02*
X174349694Y-75950209D01*
X174349694Y-75950209D02*
X174397313Y-76021638D01*
X174397313Y-76021638D02*
X174444932Y-76069257D01*
X174444932Y-76069257D02*
X174492551Y-76093066D01*
X173778266Y-75950209D02*
X173873504Y-75950209D01*
X173873504Y-75950209D02*
X173921123Y-75974019D01*
X173921123Y-75974019D02*
X173944933Y-75997828D01*
X173944933Y-75997828D02*
X173992552Y-76069257D01*
X173992552Y-76069257D02*
X174016361Y-76164495D01*
X174016361Y-76164495D02*
X174016361Y-76354971D01*
X174016361Y-76354971D02*
X173992552Y-76402590D01*
X173992552Y-76402590D02*
X173968742Y-76426400D01*
X173968742Y-76426400D02*
X173921123Y-76450209D01*
X173921123Y-76450209D02*
X173825885Y-76450209D01*
X173825885Y-76450209D02*
X173778266Y-76426400D01*
X173778266Y-76426400D02*
X173754457Y-76402590D01*
X173754457Y-76402590D02*
X173730647Y-76354971D01*
X173730647Y-76354971D02*
X173730647Y-76235923D01*
X173730647Y-76235923D02*
X173754457Y-76188304D01*
X173754457Y-76188304D02*
X173778266Y-76164495D01*
X173778266Y-76164495D02*
X173825885Y-76140685D01*
X173825885Y-76140685D02*
X173921123Y-76140685D01*
X173921123Y-76140685D02*
X173968742Y-76164495D01*
X173968742Y-76164495D02*
X173992552Y-76188304D01*
X173992552Y-76188304D02*
X174016361Y-76235923D01*
X155937733Y-76478790D02*
X155961542Y-76502600D01*
X155961542Y-76502600D02*
X156032971Y-76526409D01*
X156032971Y-76526409D02*
X156080590Y-76526409D01*
X156080590Y-76526409D02*
X156152018Y-76502600D01*
X156152018Y-76502600D02*
X156199637Y-76454980D01*
X156199637Y-76454980D02*
X156223447Y-76407361D01*
X156223447Y-76407361D02*
X156247256Y-76312123D01*
X156247256Y-76312123D02*
X156247256Y-76240695D01*
X156247256Y-76240695D02*
X156223447Y-76145457D01*
X156223447Y-76145457D02*
X156199637Y-76097838D01*
X156199637Y-76097838D02*
X156152018Y-76050219D01*
X156152018Y-76050219D02*
X156080590Y-76026409D01*
X156080590Y-76026409D02*
X156032971Y-76026409D01*
X156032971Y-76026409D02*
X155961542Y-76050219D01*
X155961542Y-76050219D02*
X155937733Y-76074028D01*
X155485352Y-76026409D02*
X155723447Y-76026409D01*
X155723447Y-76026409D02*
X155747256Y-76264504D01*
X155747256Y-76264504D02*
X155723447Y-76240695D01*
X155723447Y-76240695D02*
X155675828Y-76216885D01*
X155675828Y-76216885D02*
X155556780Y-76216885D01*
X155556780Y-76216885D02*
X155509161Y-76240695D01*
X155509161Y-76240695D02*
X155485352Y-76264504D01*
X155485352Y-76264504D02*
X155461542Y-76312123D01*
X155461542Y-76312123D02*
X155461542Y-76431171D01*
X155461542Y-76431171D02*
X155485352Y-76478790D01*
X155485352Y-76478790D02*
X155509161Y-76502600D01*
X155509161Y-76502600D02*
X155556780Y-76526409D01*
X155556780Y-76526409D02*
X155675828Y-76526409D01*
X155675828Y-76526409D02*
X155723447Y-76502600D01*
X155723447Y-76502600D02*
X155747256Y-76478790D01*
D10*
X154326885Y-83859019D02*
X153993552Y-84859019D01*
X153993552Y-84859019D02*
X153660219Y-83859019D01*
X152850695Y-83859019D02*
X153326885Y-83859019D01*
X153326885Y-83859019D02*
X153374504Y-84335209D01*
X153374504Y-84335209D02*
X153326885Y-84287590D01*
X153326885Y-84287590D02*
X153231647Y-84239971D01*
X153231647Y-84239971D02*
X152993552Y-84239971D01*
X152993552Y-84239971D02*
X152898314Y-84287590D01*
X152898314Y-84287590D02*
X152850695Y-84335209D01*
X152850695Y-84335209D02*
X152803076Y-84430447D01*
X152803076Y-84430447D02*
X152803076Y-84668542D01*
X152803076Y-84668542D02*
X152850695Y-84763780D01*
X152850695Y-84763780D02*
X152898314Y-84811400D01*
X152898314Y-84811400D02*
X152993552Y-84859019D01*
X152993552Y-84859019D02*
X153231647Y-84859019D01*
X153231647Y-84859019D02*
X153326885Y-84811400D01*
X153326885Y-84811400D02*
X153374504Y-84763780D01*
X152422123Y-84573304D02*
X151945933Y-84573304D01*
X152517361Y-84859019D02*
X152184028Y-83859019D01*
X152184028Y-83859019D02*
X151850695Y-84859019D01*
X151517361Y-84859019D02*
X151517361Y-83859019D01*
X151517361Y-83859019D02*
X151279266Y-83859019D01*
X151279266Y-83859019D02*
X151136409Y-83906638D01*
X151136409Y-83906638D02*
X151041171Y-84001876D01*
X151041171Y-84001876D02*
X150993552Y-84097114D01*
X150993552Y-84097114D02*
X150945933Y-84287590D01*
X150945933Y-84287590D02*
X150945933Y-84430447D01*
X150945933Y-84430447D02*
X150993552Y-84620923D01*
X150993552Y-84620923D02*
X151041171Y-84716161D01*
X151041171Y-84716161D02*
X151136409Y-84811400D01*
X151136409Y-84811400D02*
X151279266Y-84859019D01*
X151279266Y-84859019D02*
X151517361Y-84859019D01*
X149945933Y-84763780D02*
X149993552Y-84811400D01*
X149993552Y-84811400D02*
X150136409Y-84859019D01*
X150136409Y-84859019D02*
X150231647Y-84859019D01*
X150231647Y-84859019D02*
X150374504Y-84811400D01*
X150374504Y-84811400D02*
X150469742Y-84716161D01*
X150469742Y-84716161D02*
X150517361Y-84620923D01*
X150517361Y-84620923D02*
X150564980Y-84430447D01*
X150564980Y-84430447D02*
X150564980Y-84287590D01*
X150564980Y-84287590D02*
X150517361Y-84097114D01*
X150517361Y-84097114D02*
X150469742Y-84001876D01*
X150469742Y-84001876D02*
X150374504Y-83906638D01*
X150374504Y-83906638D02*
X150231647Y-83859019D01*
X150231647Y-83859019D02*
X150136409Y-83859019D01*
X150136409Y-83859019D02*
X149993552Y-83906638D01*
X149993552Y-83906638D02*
X149945933Y-83954257D01*
X148993552Y-84859019D02*
X149564980Y-84859019D01*
X149279266Y-84859019D02*
X149279266Y-83859019D01*
X149279266Y-83859019D02*
X149374504Y-84001876D01*
X149374504Y-84001876D02*
X149469742Y-84097114D01*
X149469742Y-84097114D02*
X149564980Y-84144733D01*
X162632733Y-72124219D02*
X163108923Y-72124219D01*
X163108923Y-72124219D02*
X163156542Y-72600409D01*
X163156542Y-72600409D02*
X163108923Y-72552790D01*
X163108923Y-72552790D02*
X163013685Y-72505171D01*
X163013685Y-72505171D02*
X162775590Y-72505171D01*
X162775590Y-72505171D02*
X162680352Y-72552790D01*
X162680352Y-72552790D02*
X162632733Y-72600409D01*
X162632733Y-72600409D02*
X162585114Y-72695647D01*
X162585114Y-72695647D02*
X162585114Y-72933742D01*
X162585114Y-72933742D02*
X162632733Y-73028980D01*
X162632733Y-73028980D02*
X162680352Y-73076600D01*
X162680352Y-73076600D02*
X162775590Y-73124219D01*
X162775590Y-73124219D02*
X163013685Y-73124219D01*
X163013685Y-73124219D02*
X163108923Y-73076600D01*
X163108923Y-73076600D02*
X163156542Y-73028980D01*
X162299399Y-72124219D02*
X161966066Y-73124219D01*
X161966066Y-73124219D02*
X161632733Y-72124219D01*
X161299399Y-73124219D02*
X161299399Y-72124219D01*
X160870828Y-72838504D02*
X160394638Y-72838504D01*
X160966066Y-73124219D02*
X160632733Y-72124219D01*
X160632733Y-72124219D02*
X160299400Y-73124219D01*
X159966066Y-73124219D02*
X159966066Y-72124219D01*
X159966066Y-72124219D02*
X159727971Y-72124219D01*
X159727971Y-72124219D02*
X159585114Y-72171838D01*
X159585114Y-72171838D02*
X159489876Y-72267076D01*
X159489876Y-72267076D02*
X159442257Y-72362314D01*
X159442257Y-72362314D02*
X159394638Y-72552790D01*
X159394638Y-72552790D02*
X159394638Y-72695647D01*
X159394638Y-72695647D02*
X159442257Y-72886123D01*
X159442257Y-72886123D02*
X159489876Y-72981361D01*
X159489876Y-72981361D02*
X159585114Y-73076600D01*
X159585114Y-73076600D02*
X159727971Y-73124219D01*
X159727971Y-73124219D02*
X159966066Y-73124219D01*
X158394638Y-73028980D02*
X158442257Y-73076600D01*
X158442257Y-73076600D02*
X158585114Y-73124219D01*
X158585114Y-73124219D02*
X158680352Y-73124219D01*
X158680352Y-73124219D02*
X158823209Y-73076600D01*
X158823209Y-73076600D02*
X158918447Y-72981361D01*
X158918447Y-72981361D02*
X158966066Y-72886123D01*
X158966066Y-72886123D02*
X159013685Y-72695647D01*
X159013685Y-72695647D02*
X159013685Y-72552790D01*
X159013685Y-72552790D02*
X158966066Y-72362314D01*
X158966066Y-72362314D02*
X158918447Y-72267076D01*
X158918447Y-72267076D02*
X158823209Y-72171838D01*
X158823209Y-72171838D02*
X158680352Y-72124219D01*
X158680352Y-72124219D02*
X158585114Y-72124219D01*
X158585114Y-72124219D02*
X158442257Y-72171838D01*
X158442257Y-72171838D02*
X158394638Y-72219457D01*
X157442257Y-73124219D02*
X158013685Y-73124219D01*
X157727971Y-73124219D02*
X157727971Y-72124219D01*
X157727971Y-72124219D02*
X157823209Y-72267076D01*
X157823209Y-72267076D02*
X157918447Y-72362314D01*
X157918447Y-72362314D02*
X158013685Y-72409933D01*
D12*
%TO.C,R14*%
X169038536Y-38812800D02*
X169492664Y-38812800D01*
X169038536Y-40282800D02*
X169492664Y-40282800D01*
%TO.C,C9*%
X163717248Y-74499800D02*
X164239752Y-74499800D01*
X163717248Y-75969800D02*
X164239752Y-75969800D01*
%TO.C,C17*%
X168784600Y-54333952D02*
X168784600Y-53811448D01*
X170254600Y-54333952D02*
X170254600Y-53811448D01*
%TO.C,R4*%
X148766200Y-86590136D02*
X148766200Y-87044264D01*
X147296200Y-86590136D02*
X147296200Y-87044264D01*
%TO.C,C15*%
X174770148Y-64441400D02*
X175292652Y-64441400D01*
X174770148Y-65911400D02*
X175292652Y-65911400D01*
%TO.C,C13*%
X165987400Y-53862248D02*
X165987400Y-54384752D01*
X164517400Y-53862248D02*
X164517400Y-54384752D01*
%TO.C,R3*%
X148766200Y-81840336D02*
X148766200Y-82294464D01*
X147296200Y-81840336D02*
X147296200Y-82294464D01*
%TO.C,IC2*%
X178322800Y-69595600D02*
X176522800Y-69595600D01*
X177322800Y-66375600D02*
X178122800Y-66375600D01*
X177322800Y-66375600D02*
X176522800Y-66375600D01*
X178622800Y-66425600D02*
X178382800Y-66095600D01*
X178862800Y-66095600D01*
X178622800Y-66425600D01*
G36*
X178622800Y-66425600D02*
G01*
X178382800Y-66095600D01*
X178862800Y-66095600D01*
X178622800Y-66425600D01*
G37*
%TO.C,R9*%
X145602936Y-69573600D02*
X147057064Y-69573600D01*
X145602936Y-71393600D02*
X147057064Y-71393600D01*
D13*
%TO.C,IC4*%
X170236800Y-45145600D02*
X170236800Y-49545600D01*
X164636800Y-45145600D02*
X164636800Y-49545600D01*
D14*
X165136800Y-43145600D02*
G75*
G03*
X164936800Y-43145600I-100000J0D01*
G01*
X164936800Y-43145600D02*
G75*
G03*
X165136800Y-43145600I100000J0D01*
G01*
D12*
%TO.C,C3*%
X180321852Y-44042000D02*
X179799348Y-44042000D01*
X180321852Y-42572000D02*
X179799348Y-42572000D01*
%TO.C,R8*%
X145602936Y-72863600D02*
X147057064Y-72863600D01*
X145602936Y-74683600D02*
X147057064Y-74683600D01*
%TO.C,IC3*%
X152411000Y-75270000D02*
X150611000Y-75270000D01*
X151411000Y-72050000D02*
X152211000Y-72050000D01*
X151411000Y-72050000D02*
X150611000Y-72050000D01*
X152711000Y-72100000D02*
X152471000Y-71770000D01*
X152951000Y-71770000D01*
X152711000Y-72100000D01*
G36*
X152711000Y-72100000D02*
G01*
X152471000Y-71770000D01*
X152951000Y-71770000D01*
X152711000Y-72100000D01*
G37*
%TO.C,R13*%
X170451536Y-41352800D02*
X170905664Y-41352800D01*
X170451536Y-42822800D02*
X170905664Y-42822800D01*
%TO.C,R12*%
X165127000Y-39978064D02*
X165127000Y-39523936D01*
X166597000Y-39978064D02*
X166597000Y-39523936D01*
%TO.C,C14*%
X155929000Y-72357348D02*
X155929000Y-72879852D01*
X154459000Y-72357348D02*
X154459000Y-72879852D01*
%TO.C,R7*%
X145602936Y-76153600D02*
X147057064Y-76153600D01*
X145602936Y-77973600D02*
X147057064Y-77973600D01*
%TO.C,R10*%
X145602936Y-66283600D02*
X147057064Y-66283600D01*
X145602936Y-68103600D02*
X147057064Y-68103600D01*
%TO.C,R11*%
X164590400Y-39523936D02*
X164590400Y-39978064D01*
X163120400Y-39523936D02*
X163120400Y-39978064D01*
%TO.C,R16*%
X174598064Y-78128800D02*
X174143936Y-78128800D01*
X174598064Y-76658800D02*
X174143936Y-76658800D01*
%TO.C,C5*%
X156119552Y-78154200D02*
X155597048Y-78154200D01*
X156119552Y-76684200D02*
X155597048Y-76684200D01*
%TO.C,V5ADC1*%
X148756600Y-84429600D02*
G75*
G03*
X147356600Y-84429600I-700000J0D01*
G01*
X147356600Y-84429600D02*
G75*
G03*
X148756600Y-84429600I700000J0D01*
G01*
%TO.C,5VIADC1*%
X157443400Y-73634600D02*
G75*
G03*
X156043400Y-73634600I-700000J0D01*
G01*
X156043400Y-73634600D02*
G75*
G03*
X157443400Y-73634600I700000J0D01*
G01*
%TD*%
M02*
