%TF.GenerationSoftware,KiCad,Pcbnew,7.0.11-7.0.11~ubuntu22.04.1*%
%TF.CreationDate,2025-02-08T19:00:34-05:00*%
%TF.ProjectId,C64UltimatePSU,43363455-6c74-4696-9d61-74655053552e,rev?*%
%TF.SameCoordinates,Original*%
%TF.FileFunction,Soldermask,Bot*%
%TF.FilePolarity,Negative*%
%FSLAX46Y46*%
G04 Gerber Fmt 4.6, Leading zero omitted, Abs format (unit mm)*
G04 Created by KiCad (PCBNEW 7.0.11-7.0.11~ubuntu22.04.1) date 2025-02-08 19:00:34*
%MOMM*%
%LPD*%
G01*
G04 APERTURE LIST*
G04 Aperture macros list*
%AMRoundRect*
0 Rectangle with rounded corners*
0 $1 Rounding radius*
0 $2 $3 $4 $5 $6 $7 $8 $9 X,Y pos of 4 corners*
0 Add a 4 corners polygon primitive as box body*
4,1,4,$2,$3,$4,$5,$6,$7,$8,$9,$2,$3,0*
0 Add four circle primitives for the rounded corners*
1,1,$1+$1,$2,$3*
1,1,$1+$1,$4,$5*
1,1,$1+$1,$6,$7*
1,1,$1+$1,$8,$9*
0 Add four rect primitives between the rounded corners*
20,1,$1+$1,$2,$3,$4,$5,0*
20,1,$1+$1,$4,$5,$6,$7,0*
20,1,$1+$1,$6,$7,$8,$9,0*
20,1,$1+$1,$8,$9,$2,$3,0*%
G04 Aperture macros list end*
%ADD10R,3.000000X3.000000*%
%ADD11C,3.000000*%
%ADD12R,1.600000X1.600000*%
%ADD13C,1.600000*%
%ADD14R,1.700000X1.700000*%
%ADD15O,1.700000X1.700000*%
%ADD16C,5.000000*%
%ADD17C,3.500000*%
%ADD18R,1.050000X1.500000*%
%ADD19O,1.050000X1.500000*%
%ADD20RoundRect,0.250000X-0.350000X-0.450000X0.350000X-0.450000X0.350000X0.450000X-0.350000X0.450000X0*%
%ADD21RoundRect,0.250000X-0.337500X-0.475000X0.337500X-0.475000X0.337500X0.475000X-0.337500X0.475000X0*%
%ADD22RoundRect,0.250000X0.475000X-0.337500X0.475000X0.337500X-0.475000X0.337500X-0.475000X-0.337500X0*%
%ADD23RoundRect,0.250000X-0.450000X0.350000X-0.450000X-0.350000X0.450000X-0.350000X0.450000X0.350000X0*%
%ADD24RoundRect,0.250000X-0.475000X0.337500X-0.475000X-0.337500X0.475000X-0.337500X0.475000X0.337500X0*%
%ADD25RoundRect,0.162500X0.617500X0.162500X-0.617500X0.162500X-0.617500X-0.162500X0.617500X-0.162500X0*%
%ADD26RoundRect,0.250000X-0.400000X-0.625000X0.400000X-0.625000X0.400000X0.625000X-0.400000X0.625000X0*%
%ADD27RoundRect,0.076750X-0.230250X0.810250X-0.230250X-0.810250X0.230250X-0.810250X0.230250X0.810250X0*%
%ADD28RoundRect,0.102000X-1.700000X1.240000X-1.700000X-1.240000X1.700000X-1.240000X1.700000X1.240000X0*%
%ADD29RoundRect,0.250000X0.337500X0.475000X-0.337500X0.475000X-0.337500X-0.475000X0.337500X-0.475000X0*%
%ADD30RoundRect,0.250000X0.450000X-0.350000X0.450000X0.350000X-0.450000X0.350000X-0.450000X-0.350000X0*%
%ADD31RoundRect,0.250000X0.350000X0.450000X-0.350000X0.450000X-0.350000X-0.450000X0.350000X-0.450000X0*%
%ADD32C,1.000000*%
G04 APERTURE END LIST*
D10*
%TO.C,PS1*%
X106816200Y-38485500D03*
D11*
X106816200Y-59285500D03*
X151816200Y-59285500D03*
X151816200Y-51285500D03*
%TD*%
D12*
%TO.C,C4*%
X160705800Y-50368200D03*
D13*
X160705800Y-47868200D03*
%TD*%
D14*
%TO.C,J4*%
X186359800Y-78333600D03*
D15*
X183819800Y-78333600D03*
X181279800Y-78333600D03*
X178739800Y-78333600D03*
%TD*%
D16*
%TO.C,H6*%
X97000000Y-67500000D03*
%TD*%
D10*
%TO.C,PS2*%
X106892400Y-66857300D03*
D11*
X106892400Y-87657300D03*
X151892400Y-87657300D03*
X151892400Y-79657300D03*
%TD*%
D17*
%TO.C,H2*%
X97028000Y-87376000D03*
%TD*%
D11*
%TO.C,J2*%
X181483000Y-46221000D03*
X191483000Y-48721000D03*
X191483000Y-58721000D03*
X181483000Y-53721000D03*
X181483000Y-61221000D03*
X178983000Y-48721000D03*
X178983000Y-58721000D03*
X176483000Y-46221000D03*
X176483000Y-61221000D03*
%TD*%
D16*
%TO.C,H4*%
X97000000Y-60500000D03*
%TD*%
%TO.C,H3*%
X97000000Y-46500000D03*
%TD*%
D18*
%TO.C,IC6*%
X159410400Y-42291000D03*
D19*
X160680400Y-42291000D03*
X161950400Y-42291000D03*
%TD*%
D17*
%TO.C,H1*%
X175500000Y-39000000D03*
%TD*%
D14*
%TO.C,J5*%
X161772600Y-88544400D03*
D15*
X164312600Y-88544400D03*
X166852600Y-88544400D03*
X169392600Y-88544400D03*
X171932600Y-88544400D03*
%TD*%
D12*
%TO.C,C16*%
X181316621Y-68351400D03*
D13*
X183816621Y-68351400D03*
%TD*%
%TO.C,RV1*%
X95500000Y-79600000D03*
X100500000Y-81400000D03*
%TD*%
D16*
%TO.C,H5*%
X97000000Y-53500000D03*
%TD*%
%TO.C,H7*%
X97000000Y-74500000D03*
%TD*%
D20*
%TO.C,R14*%
X168265600Y-39547800D03*
X170265600Y-39547800D03*
%TD*%
D21*
%TO.C,C9*%
X162941000Y-75234800D03*
X165016000Y-75234800D03*
%TD*%
D22*
%TO.C,C17*%
X169519600Y-55110200D03*
X169519600Y-53035200D03*
%TD*%
D23*
%TO.C,R4*%
X148031200Y-85817200D03*
X148031200Y-87817200D03*
%TD*%
D21*
%TO.C,C15*%
X173993900Y-65176400D03*
X176068900Y-65176400D03*
%TD*%
D24*
%TO.C,C13*%
X165252400Y-53086000D03*
X165252400Y-55161000D03*
%TD*%
D23*
%TO.C,R3*%
X148031200Y-81067400D03*
X148031200Y-83067400D03*
%TD*%
D25*
%TO.C,IC2*%
X178772800Y-67035600D03*
X178772800Y-67985600D03*
X178772800Y-68935600D03*
X176072800Y-68935600D03*
X176072800Y-67985600D03*
X176072800Y-67035600D03*
%TD*%
D26*
%TO.C,R9*%
X144780000Y-70483600D03*
X147880000Y-70483600D03*
%TD*%
D27*
%TO.C,IC4*%
X165161800Y-44475600D03*
X165811800Y-44475600D03*
X166461800Y-44475600D03*
X167111800Y-44475600D03*
X167761800Y-44475600D03*
X168411800Y-44475600D03*
X169061800Y-44475600D03*
X169711800Y-44475600D03*
X169711800Y-50215600D03*
X169061800Y-50215600D03*
X168411800Y-50215600D03*
X167761800Y-50215600D03*
X167111800Y-50215600D03*
X166461800Y-50215600D03*
X165811800Y-50215600D03*
X165161800Y-50215600D03*
D28*
X167436800Y-47345600D03*
%TD*%
D29*
%TO.C,C3*%
X181098100Y-43307000D03*
X179023100Y-43307000D03*
%TD*%
D26*
%TO.C,R8*%
X144780000Y-73773600D03*
X147880000Y-73773600D03*
%TD*%
D25*
%TO.C,IC3*%
X152861000Y-72710000D03*
X152861000Y-73660000D03*
X152861000Y-74610000D03*
X150161000Y-74610000D03*
X150161000Y-72710000D03*
%TD*%
D20*
%TO.C,R13*%
X169678600Y-42087800D03*
X171678600Y-42087800D03*
%TD*%
D30*
%TO.C,R12*%
X165862000Y-40751000D03*
X165862000Y-38751000D03*
%TD*%
D24*
%TO.C,C14*%
X155194000Y-71581100D03*
X155194000Y-73656100D03*
%TD*%
D26*
%TO.C,R7*%
X144780000Y-77063600D03*
X147880000Y-77063600D03*
%TD*%
%TO.C,R10*%
X144780000Y-67193600D03*
X147880000Y-67193600D03*
%TD*%
D23*
%TO.C,R11*%
X163855400Y-38751000D03*
X163855400Y-40751000D03*
%TD*%
D31*
%TO.C,R16*%
X175371000Y-77393800D03*
X173371000Y-77393800D03*
%TD*%
D29*
%TO.C,C5*%
X156895800Y-77419200D03*
X154820800Y-77419200D03*
%TD*%
D32*
%TO.C,V5ADC1*%
X148056600Y-84429600D03*
%TD*%
%TO.C,5VIADC1*%
X156743400Y-73634600D03*
%TD*%
M02*
